<?xml version="1.0" encoding="UTF-8" standalone="no"?>
<!-- Created with Inkscape (http://www.inkscape.org/) -->

<svg
   width="73.645668mm"
   height="44.446095mm"
   viewBox="0 0 73.645669 44.446094"
   version="1.1"
   id="svg5"
   sodipodi:docname="fig-09.svg"
   inkscape:version="1.2.2 (b0a8486541, 2022-12-01)"
   xmlns:inkscape="http://www.inkscape.org/namespaces/inkscape"
   xmlns:sodipodi="http://sodipodi.sourceforge.net/DTD/sodipodi-0.dtd"
   xmlns="http://www.w3.org/2000/svg"
   xmlns:svg="http://www.w3.org/2000/svg">
  <sodipodi:namedview
     id="namedview7"
     pagecolor="#ffffff"
     bordercolor="#666666"
     borderopacity="1.0"
     inkscape:showpageshadow="2"
     inkscape:pageopacity="0.0"
     inkscape:pagecheckerboard="0"
     inkscape:deskcolor="#d1d1d1"
     inkscape:document-units="mm"
     showgrid="false"
     inkscape:zoom="2.3554153"
     inkscape:cx="98.496433"
     inkscape:cy="95.736834"
     inkscape:window-width="1600"
     inkscape:window-height="842"
     inkscape:window-x="0"
     inkscape:window-y="1024"
     inkscape:window-maximized="1"
     inkscape:current-layer="layer1" />
  <defs
     id="defs2">
    <marker
       style="overflow:visible"
       id="marker2142"
       refX="0"
       refY="0"
       orient="auto-start-reverse"
       inkscape:stockid="TriangleStart"
       markerWidth="5.3244081"
       markerHeight="6.155385"
       viewBox="0 0 5.3244081 6.1553851"
       inkscape:isstock="true"
       inkscape:collect="always"
       preserveAspectRatio="xMidYMid">
      <path
         transform="scale(0.5)"
         style="fill:context-stroke;fill-rule:evenodd;stroke:context-stroke;stroke-width:1pt"
         d="M 5.77,0 -2.88,5 V -5 Z"
         id="path2140" />
    </marker>
    <marker
       style="overflow:visible"
       id="TriangleStart"
       refX="0"
       refY="0"
       orient="auto-start-reverse"
       inkscape:stockid="TriangleStart"
       markerWidth="5.3244081"
       markerHeight="6.155385"
       viewBox="0 0 5.3244081 6.1553851"
       inkscape:isstock="true"
       inkscape:collect="always"
       preserveAspectRatio="xMidYMid">
      <path
         transform="scale(0.5)"
         style="fill:context-stroke;fill-rule:evenodd;stroke:context-stroke;stroke-width:1pt"
         d="M 5.77,0 -2.88,5 V -5 Z"
         id="path135" />
    </marker>
  </defs>
  <g
     inkscape:label="Capa 1"
     inkscape:groupmode="layer"
     id="layer1"
     transform="translate(-2.0185949,-85.543208)">
    <g
       id="g2618">
      <path
         style="fill:none;stroke:#000000;stroke-width:0.399999;stroke-linecap:round;stroke-linejoin:round;stroke-dasharray:none;stroke-opacity:1;marker-end:url(#TriangleStart)"
         d="M 5.9125033,90.506936 H 74.243834"
         id="path245" />
      <g
         inkscape:label=""
         transform="translate(26.528119,93.376439)"
         id="g278">
        <g
           fill="#000000"
           fill-opacity="1"
           id="g14"
           transform="matrix(0.388056,0,0,0.388056,-35.9934,-29.2293)">
          <g
             id="use12"
             transform="translate(91.925003,81.962997)">
            <path
               d="m 6.5625,-2.296875 c 0.171875,0 0.359375,0 0.359375,-0.203125 0,-0.1875 -0.1875,-0.1875 -0.359375,-0.1875 H 1.171875 c -0.171875,0 -0.34375,0 -0.34375,0.1875 0,0.203125 0.171875,0.203125 0.34375,0.203125 z m 0,0"
               id="path24" />
          </g>
        </g>
        <g
           fill="#000000"
           fill-opacity="1"
           id="g18"
           transform="matrix(0.388056,0,0,0.388056,-35.9934,-29.2293)">
          <g
             id="use16"
             transform="translate(99.674004,81.962997)">
            <path
               d="m 1.265625,-0.765625 1.0625,-1.03125 c 1.546875,-1.375 2.140625,-1.90625 2.140625,-2.90625 0,-1.140625 -0.890625,-1.9375 -2.109375,-1.9375 -1.125,0 -1.859375,0.921875 -1.859375,1.8125 0,0.546875 0.5,0.546875 0.53125,0.546875 0.171875,0 0.515625,-0.109375 0.515625,-0.53125 0,-0.25 -0.1875,-0.515625 -0.53125,-0.515625 -0.078125,0 -0.09375,0 -0.125,0.015625 0.21875,-0.65625 0.765625,-1.015625 1.34375,-1.015625 0.90625,0 1.328125,0.8125 1.328125,1.625 C 3.5625,-3.90625 3.078125,-3.125 2.515625,-2.5 l -1.90625,2.125 C 0.5,-0.265625 0.5,-0.234375 0.5,0 H 4.203125 L 4.46875,-1.734375 H 4.234375 C 4.171875,-1.4375 4.109375,-1 4,-0.84375 3.9375,-0.765625 3.28125,-0.765625 3.0625,-0.765625 Z m 0,0"
               id="path28" />
          </g>
        </g>
      </g>
      <g
         inkscape:label=""
         transform="translate(32.338612,93.376439)"
         id="g345">
        <g
           fill="#000000"
           fill-opacity="1"
           id="g337"
           transform="matrix(0.388056,0,0,0.388056,-35.9934,-29.2293)">
          <g
             id="g335"
             transform="translate(91.925003,81.962997)">
            <path
               d="m 6.5625,-2.296875 c 0.171875,0 0.359375,0 0.359375,-0.203125 0,-0.1875 -0.1875,-0.1875 -0.359375,-0.1875 H 1.171875 c -0.171875,0 -0.34375,0 -0.34375,0.1875 0,0.203125 0.171875,0.203125 0.34375,0.203125 z m 0,0"
               id="path333" />
          </g>
        </g>
        <g
           fill="#000000"
           fill-opacity="1"
           id="g343"
           transform="matrix(0.388056,0,0,0.388056,-35.9934,-29.2293)">
          <g
             id="g341"
             transform="translate(99.674004,81.962997)">
            <path
               d="m 2.9375,-6.375 c 0,-0.25 0,-0.265625 -0.234375,-0.265625 C 2.078125,-6 1.203125,-6 0.890625,-6 v 0.3125 c 0.203125,0 0.78125,0 1.296875,-0.265625 v 5.171875 c 0,0.359375 -0.03125,0.46875 -0.921875,0.46875 h -0.3125 V 0 c 0.34375,-0.03125 1.203125,-0.03125 1.609375,-0.03125 0.390625,0 1.265625,0 1.609375,0.03125 v -0.3125 h -0.3125 c -0.90625,0 -0.921875,-0.109375 -0.921875,-0.46875 z m 0,0"
               id="path339" />
          </g>
        </g>
      </g>
      <g
         inkscape:label=""
         transform="translate(40.723081,93.291552)"
         id="g417">
        <g
           fill="#000000"
           fill-opacity="1"
           id="g11"
           transform="matrix(0.388056,0,0,0.388056,-35.8236,-29.2293)">
          <g
             id="use9"
             transform="translate(91.925003,81.962997)">
            <path
               d="m 4.578125,-3.1875 c 0,-0.796875 -0.046875,-1.59375 -0.390625,-2.328125 -0.453125,-0.96875 -1.28125,-1.125 -1.6875,-1.125 -0.609375,0 -1.328125,0.265625 -1.75,1.1875 -0.3125,0.6875 -0.359375,1.46875 -0.359375,2.265625 0,0.75 0.03125,1.640625 0.453125,2.40625 0.421875,0.796875 1.15625,1 1.640625,1 0.53125,0 1.296875,-0.203125 1.734375,-1.15625 0.3125,-0.6875 0.359375,-1.46875 0.359375,-2.25 z M 2.484375,0 C 2.09375,0 1.5,-0.25 1.328125,-1.203125 1.21875,-1.796875 1.21875,-2.71875 1.21875,-3.3125 c 0,-0.640625 0,-1.296875 0.078125,-1.828125 0.1875,-1.1875 0.9375,-1.28125 1.1875,-1.28125 0.328125,0 0.984375,0.1875 1.171875,1.171875 0.109375,0.5625 0.109375,1.3125 0.109375,1.9375 0,0.75 0,1.421875 -0.109375,2.0625 C 3.5,-0.296875 2.9375,0 2.484375,0 Z m 0,0"
               id="path17" />
          </g>
        </g>
      </g>
      <g
         inkscape:label=""
         transform="translate(46.651782,93.376439)"
         id="g497">
        <g
           fill="#000000"
           fill-opacity="1"
           id="g495"
           transform="matrix(0.388056,0,0,0.388056,-36.0176,-29.2293)">
          <g
             id="g493"
             transform="translate(91.925003,81.962997)">
            <path
               d="m 2.9375,-6.375 c 0,-0.25 0,-0.265625 -0.234375,-0.265625 C 2.078125,-6 1.203125,-6 0.890625,-6 v 0.3125 c 0.203125,0 0.78125,0 1.296875,-0.265625 v 5.171875 c 0,0.359375 -0.03125,0.46875 -0.921875,0.46875 h -0.3125 V 0 c 0.34375,-0.03125 1.203125,-0.03125 1.609375,-0.03125 0.390625,0 1.265625,0 1.609375,0.03125 v -0.3125 h -0.3125 c -0.90625,0 -0.921875,-0.109375 -0.921875,-0.46875 z m 0,0"
               id="path491" />
          </g>
        </g>
      </g>
      <g
         inkscape:label=""
         transform="translate(52.271262,93.376439)"
         id="g585">
        <g
           fill="#000000"
           fill-opacity="1"
           id="g583"
           transform="matrix(0.388056,0,0,0.388056,-35.866,-29.2293)">
          <g
             id="g581"
             transform="translate(91.925003,81.962997)">
            <path
               d="m 1.265625,-0.765625 1.0625,-1.03125 c 1.546875,-1.375 2.140625,-1.90625 2.140625,-2.90625 0,-1.140625 -0.890625,-1.9375 -2.109375,-1.9375 -1.125,0 -1.859375,0.921875 -1.859375,1.8125 0,0.546875 0.5,0.546875 0.53125,0.546875 0.171875,0 0.515625,-0.109375 0.515625,-0.53125 0,-0.25 -0.1875,-0.515625 -0.53125,-0.515625 -0.078125,0 -0.09375,0 -0.125,0.015625 0.21875,-0.65625 0.765625,-1.015625 1.34375,-1.015625 0.90625,0 1.328125,0.8125 1.328125,1.625 C 3.5625,-3.90625 3.078125,-3.125 2.515625,-2.5 l -1.90625,2.125 C 0.5,-0.265625 0.5,-0.234375 0.5,0 H 4.203125 L 4.46875,-1.734375 H 4.234375 C 4.171875,-1.4375 4.109375,-1 4,-0.84375 3.9375,-0.765625 3.28125,-0.765625 3.0625,-0.765625 Z m 0,0"
               id="path579" />
          </g>
        </g>
      </g>
      <g
         inkscape:label=""
         transform="translate(57.990822,93.291552)"
         id="g681">
        <g
           fill="#000000"
           fill-opacity="1"
           id="g679"
           transform="matrix(0.388056,0,0,0.388056,-35.8357,-29.2293)">
          <g
             id="g677"
             transform="translate(91.925003,81.962997)">
            <path
               d="m 2.890625,-3.515625 c 0.8125,-0.265625 1.390625,-0.953125 1.390625,-1.75 0,-0.8125 -0.875,-1.375 -1.828125,-1.375 -1,0 -1.765625,0.59375 -1.765625,1.359375 0,0.328125 0.21875,0.515625 0.515625,0.515625 0.296875,0 0.5,-0.21875 0.5,-0.515625 0,-0.484375 -0.46875,-0.484375 -0.609375,-0.484375 0.296875,-0.5 0.953125,-0.625 1.3125,-0.625 0.421875,0 0.96875,0.21875 0.96875,1.109375 0,0.125 -0.03125,0.703125 -0.28125,1.140625 C 2.796875,-3.65625 2.453125,-3.625 2.203125,-3.625 2.125,-3.609375 1.890625,-3.59375 1.8125,-3.59375 c -0.078125,0.015625 -0.140625,0.03125 -0.140625,0.125 0,0.109375 0.0625,0.109375 0.234375,0.109375 h 0.4375 c 0.8125,0 1.1875,0.671875 1.1875,1.65625 0,1.359375 -0.6875,1.640625 -1.125,1.640625 -0.4375,0 -1.1875,-0.171875 -1.53125,-0.75 0.34375,0.046875 0.65625,-0.171875 0.65625,-0.546875 0,-0.359375 -0.265625,-0.5625 -0.546875,-0.5625 -0.25,0 -0.5625,0.140625 -0.5625,0.578125 0,0.90625 0.921875,1.5625 2.015625,1.5625 1.21875,0 2.125,-0.90625 2.125,-1.921875 0,-0.8125 -0.640625,-1.59375 -1.671875,-1.8125 z m 0,0"
               id="path675" />
          </g>
        </g>
      </g>
      <g
         inkscape:label=""
         transform="translate(63.692143,93.333939)"
         id="g785">
        <g
           fill="#000000"
           fill-opacity="1"
           id="g783"
           transform="matrix(0.388056,0,0,0.388056,-35.7811,-29.1868)">
          <g
             id="g781"
             transform="translate(91.925003,81.962997)">
            <path
               d="m 2.9375,-1.640625 v 0.859375 c 0,0.359375 -0.03125,0.46875 -0.765625,0.46875 H 1.96875 V 0 C 2.375,-0.03125 2.890625,-0.03125 3.3125,-0.03125 c 0.421875,0 0.9375,0 1.359375,0.03125 v -0.3125 h -0.21875 c -0.734375,0 -0.75,-0.109375 -0.75,-0.46875 V -1.640625 H 4.6875 v -0.3125 H 3.703125 v -4.53125 c 0,-0.203125 0,-0.265625 -0.171875,-0.265625 -0.078125,0 -0.109375,0 -0.1875,0.125 l -3.0625,4.671875 v 0.3125 z m 0.046875,-0.3125 H 0.5625 l 2.421875,-3.71875 z m 0,0"
               id="path779" />
          </g>
        </g>
      </g>
      <g
         inkscape:label=""
         transform="translate(69.529934,93.291552)"
         id="g897">
        <g
           fill="#000000"
           fill-opacity="1"
           id="g895"
           transform="matrix(0.388056,0,0,0.388056,-35.866,-29.2293)">
          <g
             id="g893"
             transform="translate(91.925003,81.962997)">
            <path
               d="m 4.46875,-2 c 0,-1.1875 -0.8125,-2.1875 -1.890625,-2.1875 -0.46875,0 -0.90625,0.15625 -1.265625,0.515625 V -5.625 c 0.203125,0.0625 0.53125,0.125 0.84375,0.125 1.234375,0 1.9375,-0.90625 1.9375,-1.03125 0,-0.0625 -0.03125,-0.109375 -0.109375,-0.109375 0,0 -0.03125,0 -0.078125,0.03125 C 3.703125,-6.515625 3.21875,-6.3125 2.546875,-6.3125 2.15625,-6.3125 1.6875,-6.390625 1.21875,-6.59375 1.140625,-6.625 1.125,-6.625 1.109375,-6.625 1,-6.625 1,-6.546875 1,-6.390625 V -3.4375 c 0,0.171875 0,0.25 0.140625,0.25 0.078125,0 0.09375,-0.015625 0.140625,-0.078125 C 1.390625,-3.421875 1.75,-3.96875 2.5625,-3.96875 c 0.515625,0 0.765625,0.453125 0.84375,0.640625 0.15625,0.375 0.1875,0.75 0.1875,1.25 0,0.359375 0,0.953125 -0.25,1.375 C 3.109375,-0.3125 2.734375,-0.0625 2.28125,-0.0625 c -0.71875,0 -1.296875,-0.53125 -1.46875,-1.109375 0.03125,0 0.0625,0.015625 0.171875,0.015625 0.328125,0 0.5,-0.25 0.5,-0.484375 0,-0.25 -0.171875,-0.5 -0.5,-0.5 C 0.84375,-2.140625 0.5,-2.0625 0.5,-1.609375 0.5,-0.75 1.1875,0.21875 2.296875,0.21875 3.453125,0.21875 4.46875,-0.734375 4.46875,-2 Z m 0,0"
               id="path891" />
          </g>
        </g>
      </g>
      <path
         style="fill:none;stroke:#000000;stroke-width:0.365;stroke-linecap:round;stroke-linejoin:miter;stroke-dasharray:none;stroke-opacity:1"
         d="m 41.535607,89.158975 v 2.69592"
         id="path1592" />
      <path
         style="fill:none;stroke:#000000;stroke-width:0.365;stroke-linecap:round;stroke-linejoin:miter;stroke-dasharray:none;stroke-opacity:1"
         d="m 47.288498,89.158975 v 2.69592"
         id="path1594" />
      <path
         style="fill:none;stroke:#000000;stroke-width:0.365;stroke-linecap:round;stroke-linejoin:miter;stroke-dasharray:none;stroke-opacity:1"
         d="m 53.041388,89.158975 v 2.69592"
         id="path1596" />
      <path
         style="fill:none;stroke:#000000;stroke-width:0.365;stroke-linecap:round;stroke-linejoin:miter;stroke-dasharray:none;stroke-opacity:1"
         d="m 58.794279,89.158975 v 2.69592"
         id="path1598" />
      <path
         style="fill:none;stroke:#000000;stroke-width:0.365;stroke-linecap:round;stroke-linejoin:miter;stroke-dasharray:none;stroke-opacity:1"
         d="m 64.547169,89.158975 v 2.69592"
         id="path1600" />
      <path
         style="fill:none;stroke:#000000;stroke-width:0.365;stroke-linecap:round;stroke-linejoin:miter;stroke-dasharray:none;stroke-opacity:1"
         d="m 70.30006,89.158975 v 2.69592"
         id="path1602" />
      <path
         style="fill:none;stroke:#000000;stroke-width:0.365;stroke-linecap:round;stroke-linejoin:miter;stroke-dasharray:none;stroke-opacity:1"
         d="m 35.782717,89.158975 v 2.69592"
         id="path1028" />
      <path
         style="fill:none;stroke:#ff0000;stroke-width:0.4;stroke-linecap:round;stroke-linejoin:round;stroke-dasharray:none;stroke-opacity:1"
         d="M 30.45683,90.506931 H 53.616069"
         id="path1186" />
      <circle
         style="opacity:1;fill:#ff0000;fill-opacity:1;stroke:#ff0b0b;stroke-width:0.4;stroke-linecap:round;stroke-linejoin:round;stroke-dasharray:none;stroke-opacity:1"
         id="circle1604"
         cx="53.041389"
         cy="90.506935"
         r="0.67397881" />
      <path
         style="fill:none;stroke:#000000;stroke-width:0.365;stroke-linecap:round;stroke-linejoin:miter;stroke-dasharray:none;stroke-opacity:1"
         d="m 30.029826,89.158975 v 2.69592"
         id="path1590" />
      <circle
         style="opacity:1;fill:#ff0000;fill-opacity:1;stroke:#ff0b0b;stroke-width:0.4;stroke-linecap:round;stroke-linejoin:round;stroke-dasharray:none;stroke-opacity:1"
         id="path1070"
         cx="30.029825"
         cy="90.506935"
         r="0.67397881" />
      <path
         style="fill:none;stroke:#000000;stroke-width:0.365;stroke-linecap:round;stroke-linejoin:miter;stroke-dasharray:none;stroke-opacity:1"
         d="m 12.831935,89.158975 v 2.69592"
         id="path345" />
      <path
         style="fill:none;stroke:#000000;stroke-width:0.365;stroke-linecap:round;stroke-linejoin:miter;stroke-dasharray:none;stroke-opacity:1"
         d="m 18.584826,89.158975 v 2.69592"
         id="path347" />
      <path
         style="fill:none;stroke:#000000;stroke-width:0.365;stroke-linecap:round;stroke-linejoin:miter;stroke-dasharray:none;stroke-opacity:1"
         d="m 24.337716,89.158975 v 2.69592"
         id="path349" />
      <g
         inkscape:label=""
         transform="translate(20.817819,93.291552)"
         id="g541">
        <g
           fill="#000000"
           fill-opacity="1"
           id="g533"
           transform="matrix(0.388056,0,0,0.388056,-35.9934,-29.2293)">
          <g
             id="g531"
             transform="translate(91.925003,81.962997)">
            <path
               d="m 6.5625,-2.296875 c 0.171875,0 0.359375,0 0.359375,-0.203125 0,-0.1875 -0.1875,-0.1875 -0.359375,-0.1875 H 1.171875 c -0.171875,0 -0.34375,0 -0.34375,0.1875 0,0.203125 0.171875,0.203125 0.34375,0.203125 z m 0,0"
               id="path529" />
          </g>
        </g>
        <g
           fill="#000000"
           fill-opacity="1"
           id="g539"
           transform="matrix(0.388056,0,0,0.388056,-35.9934,-29.2293)">
          <g
             id="g537"
             transform="translate(99.674004,81.962997)">
            <path
               d="m 2.890625,-3.515625 c 0.8125,-0.265625 1.390625,-0.953125 1.390625,-1.75 0,-0.8125 -0.875,-1.375 -1.828125,-1.375 -1,0 -1.765625,0.59375 -1.765625,1.359375 0,0.328125 0.21875,0.515625 0.515625,0.515625 0.296875,0 0.5,-0.21875 0.5,-0.515625 0,-0.484375 -0.46875,-0.484375 -0.609375,-0.484375 0.296875,-0.5 0.953125,-0.625 1.3125,-0.625 0.421875,0 0.96875,0.21875 0.96875,1.109375 0,0.125 -0.03125,0.703125 -0.28125,1.140625 C 2.796875,-3.65625 2.453125,-3.625 2.203125,-3.625 2.125,-3.609375 1.890625,-3.59375 1.8125,-3.59375 c -0.078125,0.015625 -0.140625,0.03125 -0.140625,0.125 0,0.109375 0.0625,0.109375 0.234375,0.109375 h 0.4375 c 0.8125,0 1.1875,0.671875 1.1875,1.65625 0,1.359375 -0.6875,1.640625 -1.125,1.640625 -0.4375,0 -1.1875,-0.171875 -1.53125,-0.75 0.34375,0.046875 0.65625,-0.171875 0.65625,-0.546875 0,-0.359375 -0.265625,-0.5625 -0.546875,-0.5625 -0.25,0 -0.5625,0.140625 -0.5625,0.578125 0,0.90625 0.921875,1.5625 2.015625,1.5625 1.21875,0 2.125,-0.90625 2.125,-1.921875 0,-0.8125 -0.640625,-1.59375 -1.671875,-1.8125 z m 0,0"
               id="path535" />
          </g>
        </g>
      </g>
      <g
         inkscape:label=""
         transform="translate(15.040675,93.333939)"
         id="g754">
        <g
           fill="#000000"
           fill-opacity="1"
           id="g746"
           transform="matrix(0.388056,0,0,0.388056,-35.9934,-29.1868)">
          <g
             id="g744"
             transform="translate(91.925003,81.962997)">
            <path
               d="m 6.5625,-2.296875 c 0.171875,0 0.359375,0 0.359375,-0.203125 0,-0.1875 -0.1875,-0.1875 -0.359375,-0.1875 H 1.171875 c -0.171875,0 -0.34375,0 -0.34375,0.1875 0,0.203125 0.171875,0.203125 0.34375,0.203125 z m 0,0"
               id="path742" />
          </g>
        </g>
        <g
           fill="#000000"
           fill-opacity="1"
           id="g752"
           transform="matrix(0.388056,0,0,0.388056,-35.9934,-29.1868)">
          <g
             id="g750"
             transform="translate(99.674004,81.962997)">
            <path
               d="m 2.9375,-1.640625 v 0.859375 c 0,0.359375 -0.03125,0.46875 -0.765625,0.46875 H 1.96875 V 0 C 2.375,-0.03125 2.890625,-0.03125 3.3125,-0.03125 c 0.421875,0 0.9375,0 1.359375,0.03125 v -0.3125 h -0.21875 c -0.734375,0 -0.75,-0.109375 -0.75,-0.46875 V -1.640625 H 4.6875 v -0.3125 H 3.703125 v -4.53125 c 0,-0.203125 0,-0.265625 -0.171875,-0.265625 -0.078125,0 -0.109375,0 -0.1875,0.125 l -3.0625,4.671875 v 0.3125 z m 0.046875,-0.3125 H 0.5625 l 2.421875,-3.71875 z m 0,0"
               id="path748" />
          </g>
        </g>
      </g>
      <g
         inkscape:label=""
         transform="translate(9.3302283,93.291552)"
         id="g927">
        <g
           fill="#000000"
           fill-opacity="1"
           id="g919"
           transform="matrix(0.388056,0,0,0.388056,-35.9934,-29.2293)">
          <g
             id="g917"
             transform="translate(91.925003,81.962997)">
            <path
               d="m 6.5625,-2.296875 c 0.171875,0 0.359375,0 0.359375,-0.203125 0,-0.1875 -0.1875,-0.1875 -0.359375,-0.1875 H 1.171875 c -0.171875,0 -0.34375,0 -0.34375,0.1875 0,0.203125 0.171875,0.203125 0.34375,0.203125 z m 0,0"
               id="path915" />
          </g>
        </g>
        <g
           fill="#000000"
           fill-opacity="1"
           id="g925"
           transform="matrix(0.388056,0,0,0.388056,-35.9934,-29.2293)">
          <g
             id="g923"
             transform="translate(99.674004,81.962997)">
            <path
               d="m 4.46875,-2 c 0,-1.1875 -0.8125,-2.1875 -1.890625,-2.1875 -0.46875,0 -0.90625,0.15625 -1.265625,0.515625 V -5.625 c 0.203125,0.0625 0.53125,0.125 0.84375,0.125 1.234375,0 1.9375,-0.90625 1.9375,-1.03125 0,-0.0625 -0.03125,-0.109375 -0.109375,-0.109375 0,0 -0.03125,0 -0.078125,0.03125 C 3.703125,-6.515625 3.21875,-6.3125 2.546875,-6.3125 2.15625,-6.3125 1.6875,-6.390625 1.21875,-6.59375 1.140625,-6.625 1.125,-6.625 1.109375,-6.625 1,-6.625 1,-6.546875 1,-6.390625 V -3.4375 c 0,0.171875 0,0.25 0.140625,0.25 0.078125,0 0.09375,-0.015625 0.140625,-0.078125 C 1.390625,-3.421875 1.75,-3.96875 2.5625,-3.96875 c 0.515625,0 0.765625,0.453125 0.84375,0.640625 0.15625,0.375 0.1875,0.75 0.1875,1.25 0,0.359375 0,0.953125 -0.25,1.375 C 3.109375,-0.3125 2.734375,-0.0625 2.28125,-0.0625 c -0.71875,0 -1.296875,-0.53125 -1.46875,-1.109375 0.03125,0 0.0625,0.015625 0.171875,0.015625 0.328125,0 0.5,-0.25 0.5,-0.484375 0,-0.25 -0.171875,-0.5 -0.5,-0.5 C 0.84375,-2.140625 0.5,-2.0625 0.5,-1.609375 0.5,-0.75 1.1875,0.21875 2.296875,0.21875 3.453125,0.21875 4.46875,-0.734375 4.46875,-2 Z m 0,0"
               id="path921" />
          </g>
        </g>
      </g>
    </g>
    <g
       id="g2466"
       transform="translate(0,-0.89864025)">
      <path
         style="fill:none;stroke:#000000;stroke-width:0.399999;stroke-linecap:round;stroke-linejoin:round;stroke-dasharray:none;stroke-opacity:1;marker-end:url(#TriangleStart)"
         d="M 5.9125033,114.09619 H 74.243834"
         id="path1653" />
      <g
         inkscape:label=""
         transform="translate(26.528119,116.9657)"
         id="g1667">
        <g
           fill="#000000"
           fill-opacity="1"
           id="g1659"
           transform="matrix(0.388056,0,0,0.388056,-35.9934,-29.2293)">
          <g
             id="g1657"
             transform="translate(91.925003,81.962997)">
            <path
               d="m 6.5625,-2.296875 c 0.171875,0 0.359375,0 0.359375,-0.203125 0,-0.1875 -0.1875,-0.1875 -0.359375,-0.1875 H 1.171875 c -0.171875,0 -0.34375,0 -0.34375,0.1875 0,0.203125 0.171875,0.203125 0.34375,0.203125 z m 0,0"
               id="path1655" />
          </g>
        </g>
        <g
           fill="#000000"
           fill-opacity="1"
           id="g1665"
           transform="matrix(0.388056,0,0,0.388056,-35.9934,-29.2293)">
          <g
             id="g1663"
             transform="translate(99.674004,81.962997)">
            <path
               d="m 1.265625,-0.765625 1.0625,-1.03125 c 1.546875,-1.375 2.140625,-1.90625 2.140625,-2.90625 0,-1.140625 -0.890625,-1.9375 -2.109375,-1.9375 -1.125,0 -1.859375,0.921875 -1.859375,1.8125 0,0.546875 0.5,0.546875 0.53125,0.546875 0.171875,0 0.515625,-0.109375 0.515625,-0.53125 0,-0.25 -0.1875,-0.515625 -0.53125,-0.515625 -0.078125,0 -0.09375,0 -0.125,0.015625 0.21875,-0.65625 0.765625,-1.015625 1.34375,-1.015625 0.90625,0 1.328125,0.8125 1.328125,1.625 C 3.5625,-3.90625 3.078125,-3.125 2.515625,-2.5 l -1.90625,2.125 C 0.5,-0.265625 0.5,-0.234375 0.5,0 H 4.203125 L 4.46875,-1.734375 H 4.234375 C 4.171875,-1.4375 4.109375,-1 4,-0.84375 3.9375,-0.765625 3.28125,-0.765625 3.0625,-0.765625 Z m 0,0"
               id="path1661" />
          </g>
        </g>
      </g>
      <g
         inkscape:label=""
         transform="translate(32.338612,116.9657)"
         id="g1681">
        <g
           fill="#000000"
           fill-opacity="1"
           id="g1673"
           transform="matrix(0.388056,0,0,0.388056,-35.9934,-29.2293)">
          <g
             id="g1671"
             transform="translate(91.925003,81.962997)">
            <path
               d="m 6.5625,-2.296875 c 0.171875,0 0.359375,0 0.359375,-0.203125 0,-0.1875 -0.1875,-0.1875 -0.359375,-0.1875 H 1.171875 c -0.171875,0 -0.34375,0 -0.34375,0.1875 0,0.203125 0.171875,0.203125 0.34375,0.203125 z m 0,0"
               id="path1669" />
          </g>
        </g>
        <g
           fill="#000000"
           fill-opacity="1"
           id="g1679"
           transform="matrix(0.388056,0,0,0.388056,-35.9934,-29.2293)">
          <g
             id="g1677"
             transform="translate(99.674004,81.962997)">
            <path
               d="m 2.9375,-6.375 c 0,-0.25 0,-0.265625 -0.234375,-0.265625 C 2.078125,-6 1.203125,-6 0.890625,-6 v 0.3125 c 0.203125,0 0.78125,0 1.296875,-0.265625 v 5.171875 c 0,0.359375 -0.03125,0.46875 -0.921875,0.46875 h -0.3125 V 0 c 0.34375,-0.03125 1.203125,-0.03125 1.609375,-0.03125 0.390625,0 1.265625,0 1.609375,0.03125 v -0.3125 h -0.3125 c -0.90625,0 -0.921875,-0.109375 -0.921875,-0.46875 z m 0,0"
               id="path1675" />
          </g>
        </g>
      </g>
      <g
         inkscape:label=""
         transform="translate(40.723081,116.88081)"
         id="g1689">
        <g
           fill="#000000"
           fill-opacity="1"
           id="g1687"
           transform="matrix(0.388056,0,0,0.388056,-35.8236,-29.2293)">
          <g
             id="g1685"
             transform="translate(91.925003,81.962997)">
            <path
               d="m 4.578125,-3.1875 c 0,-0.796875 -0.046875,-1.59375 -0.390625,-2.328125 -0.453125,-0.96875 -1.28125,-1.125 -1.6875,-1.125 -0.609375,0 -1.328125,0.265625 -1.75,1.1875 -0.3125,0.6875 -0.359375,1.46875 -0.359375,2.265625 0,0.75 0.03125,1.640625 0.453125,2.40625 0.421875,0.796875 1.15625,1 1.640625,1 0.53125,0 1.296875,-0.203125 1.734375,-1.15625 0.3125,-0.6875 0.359375,-1.46875 0.359375,-2.25 z M 2.484375,0 C 2.09375,0 1.5,-0.25 1.328125,-1.203125 1.21875,-1.796875 1.21875,-2.71875 1.21875,-3.3125 c 0,-0.640625 0,-1.296875 0.078125,-1.828125 0.1875,-1.1875 0.9375,-1.28125 1.1875,-1.28125 0.328125,0 0.984375,0.1875 1.171875,1.171875 0.109375,0.5625 0.109375,1.3125 0.109375,1.9375 0,0.75 0,1.421875 -0.109375,2.0625 C 3.5,-0.296875 2.9375,0 2.484375,0 Z m 0,0"
               id="path1683" />
          </g>
        </g>
      </g>
      <g
         inkscape:label=""
         transform="translate(46.651782,116.9657)"
         id="g1697">
        <g
           fill="#000000"
           fill-opacity="1"
           id="g1695"
           transform="matrix(0.388056,0,0,0.388056,-36.0176,-29.2293)">
          <g
             id="g1693"
             transform="translate(91.925003,81.962997)">
            <path
               d="m 2.9375,-6.375 c 0,-0.25 0,-0.265625 -0.234375,-0.265625 C 2.078125,-6 1.203125,-6 0.890625,-6 v 0.3125 c 0.203125,0 0.78125,0 1.296875,-0.265625 v 5.171875 c 0,0.359375 -0.03125,0.46875 -0.921875,0.46875 h -0.3125 V 0 c 0.34375,-0.03125 1.203125,-0.03125 1.609375,-0.03125 0.390625,0 1.265625,0 1.609375,0.03125 v -0.3125 h -0.3125 c -0.90625,0 -0.921875,-0.109375 -0.921875,-0.46875 z m 0,0"
               id="path1691" />
          </g>
        </g>
      </g>
      <g
         inkscape:label=""
         transform="translate(52.271262,116.9657)"
         id="g1705">
        <g
           fill="#000000"
           fill-opacity="1"
           id="g1703"
           transform="matrix(0.388056,0,0,0.388056,-35.866,-29.2293)">
          <g
             id="g1701"
             transform="translate(91.925003,81.962997)">
            <path
               d="m 1.265625,-0.765625 1.0625,-1.03125 c 1.546875,-1.375 2.140625,-1.90625 2.140625,-2.90625 0,-1.140625 -0.890625,-1.9375 -2.109375,-1.9375 -1.125,0 -1.859375,0.921875 -1.859375,1.8125 0,0.546875 0.5,0.546875 0.53125,0.546875 0.171875,0 0.515625,-0.109375 0.515625,-0.53125 0,-0.25 -0.1875,-0.515625 -0.53125,-0.515625 -0.078125,0 -0.09375,0 -0.125,0.015625 0.21875,-0.65625 0.765625,-1.015625 1.34375,-1.015625 0.90625,0 1.328125,0.8125 1.328125,1.625 C 3.5625,-3.90625 3.078125,-3.125 2.515625,-2.5 l -1.90625,2.125 C 0.5,-0.265625 0.5,-0.234375 0.5,0 H 4.203125 L 4.46875,-1.734375 H 4.234375 C 4.171875,-1.4375 4.109375,-1 4,-0.84375 3.9375,-0.765625 3.28125,-0.765625 3.0625,-0.765625 Z m 0,0"
               id="path1699" />
          </g>
        </g>
      </g>
      <g
         inkscape:label=""
         transform="translate(57.990822,116.88081)"
         id="g1713">
        <g
           fill="#000000"
           fill-opacity="1"
           id="g1711"
           transform="matrix(0.388056,0,0,0.388056,-35.8357,-29.2293)">
          <g
             id="g1709"
             transform="translate(91.925003,81.962997)">
            <path
               d="m 2.890625,-3.515625 c 0.8125,-0.265625 1.390625,-0.953125 1.390625,-1.75 0,-0.8125 -0.875,-1.375 -1.828125,-1.375 -1,0 -1.765625,0.59375 -1.765625,1.359375 0,0.328125 0.21875,0.515625 0.515625,0.515625 0.296875,0 0.5,-0.21875 0.5,-0.515625 0,-0.484375 -0.46875,-0.484375 -0.609375,-0.484375 0.296875,-0.5 0.953125,-0.625 1.3125,-0.625 0.421875,0 0.96875,0.21875 0.96875,1.109375 0,0.125 -0.03125,0.703125 -0.28125,1.140625 C 2.796875,-3.65625 2.453125,-3.625 2.203125,-3.625 2.125,-3.609375 1.890625,-3.59375 1.8125,-3.59375 c -0.078125,0.015625 -0.140625,0.03125 -0.140625,0.125 0,0.109375 0.0625,0.109375 0.234375,0.109375 h 0.4375 c 0.8125,0 1.1875,0.671875 1.1875,1.65625 0,1.359375 -0.6875,1.640625 -1.125,1.640625 -0.4375,0 -1.1875,-0.171875 -1.53125,-0.75 0.34375,0.046875 0.65625,-0.171875 0.65625,-0.546875 0,-0.359375 -0.265625,-0.5625 -0.546875,-0.5625 -0.25,0 -0.5625,0.140625 -0.5625,0.578125 0,0.90625 0.921875,1.5625 2.015625,1.5625 1.21875,0 2.125,-0.90625 2.125,-1.921875 0,-0.8125 -0.640625,-1.59375 -1.671875,-1.8125 z m 0,0"
               id="path1707" />
          </g>
        </g>
      </g>
      <g
         inkscape:label=""
         transform="translate(63.692143,116.9232)"
         id="g1721">
        <g
           fill="#000000"
           fill-opacity="1"
           id="g1719"
           transform="matrix(0.388056,0,0,0.388056,-35.7811,-29.1868)">
          <g
             id="g1717"
             transform="translate(91.925003,81.962997)">
            <path
               d="m 2.9375,-1.640625 v 0.859375 c 0,0.359375 -0.03125,0.46875 -0.765625,0.46875 H 1.96875 V 0 C 2.375,-0.03125 2.890625,-0.03125 3.3125,-0.03125 c 0.421875,0 0.9375,0 1.359375,0.03125 v -0.3125 h -0.21875 c -0.734375,0 -0.75,-0.109375 -0.75,-0.46875 V -1.640625 H 4.6875 v -0.3125 H 3.703125 v -4.53125 c 0,-0.203125 0,-0.265625 -0.171875,-0.265625 -0.078125,0 -0.109375,0 -0.1875,0.125 l -3.0625,4.671875 v 0.3125 z m 0.046875,-0.3125 H 0.5625 l 2.421875,-3.71875 z m 0,0"
               id="path1715" />
          </g>
        </g>
      </g>
      <g
         inkscape:label=""
         transform="translate(69.529934,116.88081)"
         id="g1729">
        <g
           fill="#000000"
           fill-opacity="1"
           id="g1727"
           transform="matrix(0.388056,0,0,0.388056,-35.866,-29.2293)">
          <g
             id="g1725"
             transform="translate(91.925003,81.962997)">
            <path
               d="m 4.46875,-2 c 0,-1.1875 -0.8125,-2.1875 -1.890625,-2.1875 -0.46875,0 -0.90625,0.15625 -1.265625,0.515625 V -5.625 c 0.203125,0.0625 0.53125,0.125 0.84375,0.125 1.234375,0 1.9375,-0.90625 1.9375,-1.03125 0,-0.0625 -0.03125,-0.109375 -0.109375,-0.109375 0,0 -0.03125,0 -0.078125,0.03125 C 3.703125,-6.515625 3.21875,-6.3125 2.546875,-6.3125 2.15625,-6.3125 1.6875,-6.390625 1.21875,-6.59375 1.140625,-6.625 1.125,-6.625 1.109375,-6.625 1,-6.625 1,-6.546875 1,-6.390625 V -3.4375 c 0,0.171875 0,0.25 0.140625,0.25 0.078125,0 0.09375,-0.015625 0.140625,-0.078125 C 1.390625,-3.421875 1.75,-3.96875 2.5625,-3.96875 c 0.515625,0 0.765625,0.453125 0.84375,0.640625 0.15625,0.375 0.1875,0.75 0.1875,1.25 0,0.359375 0,0.953125 -0.25,1.375 C 3.109375,-0.3125 2.734375,-0.0625 2.28125,-0.0625 c -0.71875,0 -1.296875,-0.53125 -1.46875,-1.109375 0.03125,0 0.0625,0.015625 0.171875,0.015625 0.328125,0 0.5,-0.25 0.5,-0.484375 0,-0.25 -0.171875,-0.5 -0.5,-0.5 C 0.84375,-2.140625 0.5,-2.0625 0.5,-1.609375 0.5,-0.75 1.1875,0.21875 2.296875,0.21875 3.453125,0.21875 4.46875,-0.734375 4.46875,-2 Z m 0,0"
               id="path1723" />
          </g>
        </g>
      </g>
      <path
         style="fill:none;stroke:#000000;stroke-width:0.365;stroke-linecap:round;stroke-linejoin:miter;stroke-dasharray:none;stroke-opacity:1"
         d="m 41.535607,112.74823 v 2.69592"
         id="path1731" />
      <path
         style="fill:none;stroke:#000000;stroke-width:0.365;stroke-linecap:round;stroke-linejoin:miter;stroke-dasharray:none;stroke-opacity:1"
         d="m 47.288498,112.74823 v 2.69592"
         id="path1733" />
      <path
         style="fill:none;stroke:#000000;stroke-width:0.365;stroke-linecap:round;stroke-linejoin:miter;stroke-dasharray:none;stroke-opacity:1"
         d="m 53.041388,112.74823 v 2.69592"
         id="path1735" />
      <path
         style="fill:none;stroke:#000000;stroke-width:0.365;stroke-linecap:round;stroke-linejoin:miter;stroke-dasharray:none;stroke-opacity:1"
         d="m 58.794279,112.74823 v 2.69592"
         id="path1737" />
      <path
         style="fill:none;stroke:#000000;stroke-width:0.365;stroke-linecap:round;stroke-linejoin:miter;stroke-dasharray:none;stroke-opacity:1"
         d="m 64.547169,112.74823 v 2.69592"
         id="path1739" />
      <path
         style="fill:none;stroke:#000000;stroke-width:0.365;stroke-linecap:round;stroke-linejoin:miter;stroke-dasharray:none;stroke-opacity:1"
         d="m 70.30006,112.74823 v 2.69592"
         id="path1741" />
      <path
         style="fill:none;stroke:#000000;stroke-width:0.365;stroke-linecap:round;stroke-linejoin:miter;stroke-dasharray:none;stroke-opacity:1"
         d="m 35.782717,112.74823 v 2.69592"
         id="path1743" />
      <path
         style="fill:none;stroke:#ff0000;stroke-width:0.4;stroke-linecap:round;stroke-linejoin:round;stroke-dasharray:none;stroke-opacity:1"
         d="M 5.8771172,114.09619 H 35.788091"
         id="path1745" />
      <circle
         style="opacity:1;fill:#ff0000;fill-opacity:1;stroke:#ff0b0b;stroke-width:0.4;stroke-linecap:round;stroke-linejoin:round;stroke-dasharray:none;stroke-opacity:1"
         id="circle1747"
         cx="35.782719"
         cy="114.09619"
         r="0.67397881" />
      <path
         style="fill:none;stroke:#000000;stroke-width:0.365;stroke-linecap:round;stroke-linejoin:miter;stroke-dasharray:none;stroke-opacity:1"
         d="m 30.029826,112.74823 v 2.69592"
         id="path1749" />
      <path
         style="fill:none;stroke:#000000;stroke-width:0.365;stroke-linecap:round;stroke-linejoin:miter;stroke-dasharray:none;stroke-opacity:1"
         d="m 12.831935,112.74823 v 2.69592"
         id="path1753" />
      <path
         style="fill:none;stroke:#000000;stroke-width:0.365;stroke-linecap:round;stroke-linejoin:miter;stroke-dasharray:none;stroke-opacity:1"
         d="m 18.584826,112.74823 v 2.69592"
         id="path1755" />
      <path
         style="fill:none;stroke:#000000;stroke-width:0.365;stroke-linecap:round;stroke-linejoin:miter;stroke-dasharray:none;stroke-opacity:1"
         d="m 24.337716,112.74823 v 2.69592"
         id="path1757" />
      <g
         inkscape:label=""
         transform="translate(20.817819,116.88081)"
         id="g1771">
        <g
           fill="#000000"
           fill-opacity="1"
           id="g1763"
           transform="matrix(0.388056,0,0,0.388056,-35.9934,-29.2293)">
          <g
             id="g1761"
             transform="translate(91.925003,81.962997)">
            <path
               d="m 6.5625,-2.296875 c 0.171875,0 0.359375,0 0.359375,-0.203125 0,-0.1875 -0.1875,-0.1875 -0.359375,-0.1875 H 1.171875 c -0.171875,0 -0.34375,0 -0.34375,0.1875 0,0.203125 0.171875,0.203125 0.34375,0.203125 z m 0,0"
               id="path1759" />
          </g>
        </g>
        <g
           fill="#000000"
           fill-opacity="1"
           id="g1769"
           transform="matrix(0.388056,0,0,0.388056,-35.9934,-29.2293)">
          <g
             id="g1767"
             transform="translate(99.674004,81.962997)">
            <path
               d="m 2.890625,-3.515625 c 0.8125,-0.265625 1.390625,-0.953125 1.390625,-1.75 0,-0.8125 -0.875,-1.375 -1.828125,-1.375 -1,0 -1.765625,0.59375 -1.765625,1.359375 0,0.328125 0.21875,0.515625 0.515625,0.515625 0.296875,0 0.5,-0.21875 0.5,-0.515625 0,-0.484375 -0.46875,-0.484375 -0.609375,-0.484375 0.296875,-0.5 0.953125,-0.625 1.3125,-0.625 0.421875,0 0.96875,0.21875 0.96875,1.109375 0,0.125 -0.03125,0.703125 -0.28125,1.140625 C 2.796875,-3.65625 2.453125,-3.625 2.203125,-3.625 2.125,-3.609375 1.890625,-3.59375 1.8125,-3.59375 c -0.078125,0.015625 -0.140625,0.03125 -0.140625,0.125 0,0.109375 0.0625,0.109375 0.234375,0.109375 h 0.4375 c 0.8125,0 1.1875,0.671875 1.1875,1.65625 0,1.359375 -0.6875,1.640625 -1.125,1.640625 -0.4375,0 -1.1875,-0.171875 -1.53125,-0.75 0.34375,0.046875 0.65625,-0.171875 0.65625,-0.546875 0,-0.359375 -0.265625,-0.5625 -0.546875,-0.5625 -0.25,0 -0.5625,0.140625 -0.5625,0.578125 0,0.90625 0.921875,1.5625 2.015625,1.5625 1.21875,0 2.125,-0.90625 2.125,-1.921875 0,-0.8125 -0.640625,-1.59375 -1.671875,-1.8125 z m 0,0"
               id="path1765" />
          </g>
        </g>
      </g>
      <g
         inkscape:label=""
         transform="translate(15.040675,116.9232)"
         id="g1785">
        <g
           fill="#000000"
           fill-opacity="1"
           id="g1777"
           transform="matrix(0.388056,0,0,0.388056,-35.9934,-29.1868)">
          <g
             id="g1775"
             transform="translate(91.925003,81.962997)">
            <path
               d="m 6.5625,-2.296875 c 0.171875,0 0.359375,0 0.359375,-0.203125 0,-0.1875 -0.1875,-0.1875 -0.359375,-0.1875 H 1.171875 c -0.171875,0 -0.34375,0 -0.34375,0.1875 0,0.203125 0.171875,0.203125 0.34375,0.203125 z m 0,0"
               id="path1773" />
          </g>
        </g>
        <g
           fill="#000000"
           fill-opacity="1"
           id="g1783"
           transform="matrix(0.388056,0,0,0.388056,-35.9934,-29.1868)">
          <g
             id="g1781"
             transform="translate(99.674004,81.962997)">
            <path
               d="m 2.9375,-1.640625 v 0.859375 c 0,0.359375 -0.03125,0.46875 -0.765625,0.46875 H 1.96875 V 0 C 2.375,-0.03125 2.890625,-0.03125 3.3125,-0.03125 c 0.421875,0 0.9375,0 1.359375,0.03125 v -0.3125 h -0.21875 c -0.734375,0 -0.75,-0.109375 -0.75,-0.46875 V -1.640625 H 4.6875 v -0.3125 H 3.703125 v -4.53125 c 0,-0.203125 0,-0.265625 -0.171875,-0.265625 -0.078125,0 -0.109375,0 -0.1875,0.125 l -3.0625,4.671875 v 0.3125 z m 0.046875,-0.3125 H 0.5625 l 2.421875,-3.71875 z m 0,0"
               id="path1779" />
          </g>
        </g>
      </g>
      <g
         inkscape:label=""
         transform="translate(9.3302283,116.88081)"
         id="g1799">
        <g
           fill="#000000"
           fill-opacity="1"
           id="g1791"
           transform="matrix(0.388056,0,0,0.388056,-35.9934,-29.2293)">
          <g
             id="g1789"
             transform="translate(91.925003,81.962997)">
            <path
               d="m 6.5625,-2.296875 c 0.171875,0 0.359375,0 0.359375,-0.203125 0,-0.1875 -0.1875,-0.1875 -0.359375,-0.1875 H 1.171875 c -0.171875,0 -0.34375,0 -0.34375,0.1875 0,0.203125 0.171875,0.203125 0.34375,0.203125 z m 0,0"
               id="path1787" />
          </g>
        </g>
        <g
           fill="#000000"
           fill-opacity="1"
           id="g1797"
           transform="matrix(0.388056,0,0,0.388056,-35.9934,-29.2293)">
          <g
             id="g1795"
             transform="translate(99.674004,81.962997)">
            <path
               d="m 4.46875,-2 c 0,-1.1875 -0.8125,-2.1875 -1.890625,-2.1875 -0.46875,0 -0.90625,0.15625 -1.265625,0.515625 V -5.625 c 0.203125,0.0625 0.53125,0.125 0.84375,0.125 1.234375,0 1.9375,-0.90625 1.9375,-1.03125 0,-0.0625 -0.03125,-0.109375 -0.109375,-0.109375 0,0 -0.03125,0 -0.078125,0.03125 C 3.703125,-6.515625 3.21875,-6.3125 2.546875,-6.3125 2.15625,-6.3125 1.6875,-6.390625 1.21875,-6.59375 1.140625,-6.625 1.125,-6.625 1.109375,-6.625 1,-6.625 1,-6.546875 1,-6.390625 V -3.4375 c 0,0.171875 0,0.25 0.140625,0.25 0.078125,0 0.09375,-0.015625 0.140625,-0.078125 C 1.390625,-3.421875 1.75,-3.96875 2.5625,-3.96875 c 0.515625,0 0.765625,0.453125 0.84375,0.640625 0.15625,0.375 0.1875,0.75 0.1875,1.25 0,0.359375 0,0.953125 -0.25,1.375 C 3.109375,-0.3125 2.734375,-0.0625 2.28125,-0.0625 c -0.71875,0 -1.296875,-0.53125 -1.46875,-1.109375 0.03125,0 0.0625,0.015625 0.171875,0.015625 0.328125,0 0.5,-0.25 0.5,-0.484375 0,-0.25 -0.171875,-0.5 -0.5,-0.5 C 0.84375,-2.140625 0.5,-2.0625 0.5,-1.609375 0.5,-0.75 1.1875,0.21875 2.296875,0.21875 3.453125,0.21875 4.46875,-0.734375 4.46875,-2 Z m 0,0"
               id="path1793" />
          </g>
        </g>
      </g>
    </g>
    <g
       id="g2542"
       transform="translate(0,-1.0109705)">
      <path
         style="fill:none;stroke:#000000;stroke-width:0.399999;stroke-linecap:round;stroke-linejoin:round;stroke-dasharray:none;stroke-opacity:1;marker-end:url(#TriangleStart)"
         d="M 5.9125033,102.86321 H 74.243834"
         id="path1505" />
      <g
         inkscape:label=""
         transform="translate(26.528119,105.73272)"
         id="g1519">
        <g
           fill="#000000"
           fill-opacity="1"
           id="g1511"
           transform="matrix(0.388056,0,0,0.388056,-35.9934,-29.2293)">
          <g
             id="g1509"
             transform="translate(91.925003,81.962997)">
            <path
               d="m 6.5625,-2.296875 c 0.171875,0 0.359375,0 0.359375,-0.203125 0,-0.1875 -0.1875,-0.1875 -0.359375,-0.1875 H 1.171875 c -0.171875,0 -0.34375,0 -0.34375,0.1875 0,0.203125 0.171875,0.203125 0.34375,0.203125 z m 0,0"
               id="path1507" />
          </g>
        </g>
        <g
           fill="#000000"
           fill-opacity="1"
           id="g1517"
           transform="matrix(0.388056,0,0,0.388056,-35.9934,-29.2293)">
          <g
             id="g1515"
             transform="translate(99.674004,81.962997)">
            <path
               d="m 1.265625,-0.765625 1.0625,-1.03125 c 1.546875,-1.375 2.140625,-1.90625 2.140625,-2.90625 0,-1.140625 -0.890625,-1.9375 -2.109375,-1.9375 -1.125,0 -1.859375,0.921875 -1.859375,1.8125 0,0.546875 0.5,0.546875 0.53125,0.546875 0.171875,0 0.515625,-0.109375 0.515625,-0.53125 0,-0.25 -0.1875,-0.515625 -0.53125,-0.515625 -0.078125,0 -0.09375,0 -0.125,0.015625 0.21875,-0.65625 0.765625,-1.015625 1.34375,-1.015625 0.90625,0 1.328125,0.8125 1.328125,1.625 C 3.5625,-3.90625 3.078125,-3.125 2.515625,-2.5 l -1.90625,2.125 C 0.5,-0.265625 0.5,-0.234375 0.5,0 H 4.203125 L 4.46875,-1.734375 H 4.234375 C 4.171875,-1.4375 4.109375,-1 4,-0.84375 3.9375,-0.765625 3.28125,-0.765625 3.0625,-0.765625 Z m 0,0"
               id="path1513" />
          </g>
        </g>
      </g>
      <g
         inkscape:label=""
         transform="translate(32.338612,105.73272)"
         id="g1533">
        <g
           fill="#000000"
           fill-opacity="1"
           id="g1525"
           transform="matrix(0.388056,0,0,0.388056,-35.9934,-29.2293)">
          <g
             id="g1523"
             transform="translate(91.925003,81.962997)">
            <path
               d="m 6.5625,-2.296875 c 0.171875,0 0.359375,0 0.359375,-0.203125 0,-0.1875 -0.1875,-0.1875 -0.359375,-0.1875 H 1.171875 c -0.171875,0 -0.34375,0 -0.34375,0.1875 0,0.203125 0.171875,0.203125 0.34375,0.203125 z m 0,0"
               id="path1521" />
          </g>
        </g>
        <g
           fill="#000000"
           fill-opacity="1"
           id="g1531"
           transform="matrix(0.388056,0,0,0.388056,-35.9934,-29.2293)">
          <g
             id="g1529"
             transform="translate(99.674004,81.962997)">
            <path
               d="m 2.9375,-6.375 c 0,-0.25 0,-0.265625 -0.234375,-0.265625 C 2.078125,-6 1.203125,-6 0.890625,-6 v 0.3125 c 0.203125,0 0.78125,0 1.296875,-0.265625 v 5.171875 c 0,0.359375 -0.03125,0.46875 -0.921875,0.46875 h -0.3125 V 0 c 0.34375,-0.03125 1.203125,-0.03125 1.609375,-0.03125 0.390625,0 1.265625,0 1.609375,0.03125 v -0.3125 h -0.3125 c -0.90625,0 -0.921875,-0.109375 -0.921875,-0.46875 z m 0,0"
               id="path1527" />
          </g>
        </g>
      </g>
      <g
         inkscape:label=""
         transform="translate(40.723081,105.64783)"
         id="g1541">
        <g
           fill="#000000"
           fill-opacity="1"
           id="g1539"
           transform="matrix(0.388056,0,0,0.388056,-35.8236,-29.2293)">
          <g
             id="g1537"
             transform="translate(91.925003,81.962997)">
            <path
               d="m 4.578125,-3.1875 c 0,-0.796875 -0.046875,-1.59375 -0.390625,-2.328125 -0.453125,-0.96875 -1.28125,-1.125 -1.6875,-1.125 -0.609375,0 -1.328125,0.265625 -1.75,1.1875 -0.3125,0.6875 -0.359375,1.46875 -0.359375,2.265625 0,0.75 0.03125,1.640625 0.453125,2.40625 0.421875,0.796875 1.15625,1 1.640625,1 0.53125,0 1.296875,-0.203125 1.734375,-1.15625 0.3125,-0.6875 0.359375,-1.46875 0.359375,-2.25 z M 2.484375,0 C 2.09375,0 1.5,-0.25 1.328125,-1.203125 1.21875,-1.796875 1.21875,-2.71875 1.21875,-3.3125 c 0,-0.640625 0,-1.296875 0.078125,-1.828125 0.1875,-1.1875 0.9375,-1.28125 1.1875,-1.28125 0.328125,0 0.984375,0.1875 1.171875,1.171875 0.109375,0.5625 0.109375,1.3125 0.109375,1.9375 0,0.75 0,1.421875 -0.109375,2.0625 C 3.5,-0.296875 2.9375,0 2.484375,0 Z m 0,0"
               id="path1535" />
          </g>
        </g>
      </g>
      <g
         inkscape:label=""
         transform="translate(46.651782,105.73272)"
         id="g1549">
        <g
           fill="#000000"
           fill-opacity="1"
           id="g1547"
           transform="matrix(0.388056,0,0,0.388056,-36.0176,-29.2293)">
          <g
             id="g1545"
             transform="translate(91.925003,81.962997)">
            <path
               d="m 2.9375,-6.375 c 0,-0.25 0,-0.265625 -0.234375,-0.265625 C 2.078125,-6 1.203125,-6 0.890625,-6 v 0.3125 c 0.203125,0 0.78125,0 1.296875,-0.265625 v 5.171875 c 0,0.359375 -0.03125,0.46875 -0.921875,0.46875 h -0.3125 V 0 c 0.34375,-0.03125 1.203125,-0.03125 1.609375,-0.03125 0.390625,0 1.265625,0 1.609375,0.03125 v -0.3125 h -0.3125 c -0.90625,0 -0.921875,-0.109375 -0.921875,-0.46875 z m 0,0"
               id="path1543" />
          </g>
        </g>
      </g>
      <g
         inkscape:label=""
         transform="translate(52.271262,105.73272)"
         id="g1557">
        <g
           fill="#000000"
           fill-opacity="1"
           id="g1555"
           transform="matrix(0.388056,0,0,0.388056,-35.866,-29.2293)">
          <g
             id="g1553"
             transform="translate(91.925003,81.962997)">
            <path
               d="m 1.265625,-0.765625 1.0625,-1.03125 c 1.546875,-1.375 2.140625,-1.90625 2.140625,-2.90625 0,-1.140625 -0.890625,-1.9375 -2.109375,-1.9375 -1.125,0 -1.859375,0.921875 -1.859375,1.8125 0,0.546875 0.5,0.546875 0.53125,0.546875 0.171875,0 0.515625,-0.109375 0.515625,-0.53125 0,-0.25 -0.1875,-0.515625 -0.53125,-0.515625 -0.078125,0 -0.09375,0 -0.125,0.015625 0.21875,-0.65625 0.765625,-1.015625 1.34375,-1.015625 0.90625,0 1.328125,0.8125 1.328125,1.625 C 3.5625,-3.90625 3.078125,-3.125 2.515625,-2.5 l -1.90625,2.125 C 0.5,-0.265625 0.5,-0.234375 0.5,0 H 4.203125 L 4.46875,-1.734375 H 4.234375 C 4.171875,-1.4375 4.109375,-1 4,-0.84375 3.9375,-0.765625 3.28125,-0.765625 3.0625,-0.765625 Z m 0,0"
               id="path1551" />
          </g>
        </g>
      </g>
      <g
         inkscape:label=""
         transform="translate(57.990822,105.64783)"
         id="g1565">
        <g
           fill="#000000"
           fill-opacity="1"
           id="g1563"
           transform="matrix(0.388056,0,0,0.388056,-35.8357,-29.2293)">
          <g
             id="g1561"
             transform="translate(91.925003,81.962997)">
            <path
               d="m 2.890625,-3.515625 c 0.8125,-0.265625 1.390625,-0.953125 1.390625,-1.75 0,-0.8125 -0.875,-1.375 -1.828125,-1.375 -1,0 -1.765625,0.59375 -1.765625,1.359375 0,0.328125 0.21875,0.515625 0.515625,0.515625 0.296875,0 0.5,-0.21875 0.5,-0.515625 0,-0.484375 -0.46875,-0.484375 -0.609375,-0.484375 0.296875,-0.5 0.953125,-0.625 1.3125,-0.625 0.421875,0 0.96875,0.21875 0.96875,1.109375 0,0.125 -0.03125,0.703125 -0.28125,1.140625 C 2.796875,-3.65625 2.453125,-3.625 2.203125,-3.625 2.125,-3.609375 1.890625,-3.59375 1.8125,-3.59375 c -0.078125,0.015625 -0.140625,0.03125 -0.140625,0.125 0,0.109375 0.0625,0.109375 0.234375,0.109375 h 0.4375 c 0.8125,0 1.1875,0.671875 1.1875,1.65625 0,1.359375 -0.6875,1.640625 -1.125,1.640625 -0.4375,0 -1.1875,-0.171875 -1.53125,-0.75 0.34375,0.046875 0.65625,-0.171875 0.65625,-0.546875 0,-0.359375 -0.265625,-0.5625 -0.546875,-0.5625 -0.25,0 -0.5625,0.140625 -0.5625,0.578125 0,0.90625 0.921875,1.5625 2.015625,1.5625 1.21875,0 2.125,-0.90625 2.125,-1.921875 0,-0.8125 -0.640625,-1.59375 -1.671875,-1.8125 z m 0,0"
               id="path1559" />
          </g>
        </g>
      </g>
      <g
         inkscape:label=""
         transform="translate(63.692143,105.69022)"
         id="g1573">
        <g
           fill="#000000"
           fill-opacity="1"
           id="g1571"
           transform="matrix(0.388056,0,0,0.388056,-35.7811,-29.1868)">
          <g
             id="g1569"
             transform="translate(91.925003,81.962997)">
            <path
               d="m 2.9375,-1.640625 v 0.859375 c 0,0.359375 -0.03125,0.46875 -0.765625,0.46875 H 1.96875 V 0 C 2.375,-0.03125 2.890625,-0.03125 3.3125,-0.03125 c 0.421875,0 0.9375,0 1.359375,0.03125 v -0.3125 h -0.21875 c -0.734375,0 -0.75,-0.109375 -0.75,-0.46875 V -1.640625 H 4.6875 v -0.3125 H 3.703125 v -4.53125 c 0,-0.203125 0,-0.265625 -0.171875,-0.265625 -0.078125,0 -0.109375,0 -0.1875,0.125 l -3.0625,4.671875 v 0.3125 z m 0.046875,-0.3125 H 0.5625 l 2.421875,-3.71875 z m 0,0"
               id="path1567" />
          </g>
        </g>
      </g>
      <g
         inkscape:label=""
         transform="translate(69.529934,105.64783)"
         id="g1581">
        <g
           fill="#000000"
           fill-opacity="1"
           id="g1579"
           transform="matrix(0.388056,0,0,0.388056,-35.866,-29.2293)">
          <g
             id="g1577"
             transform="translate(91.925003,81.962997)">
            <path
               d="m 4.46875,-2 c 0,-1.1875 -0.8125,-2.1875 -1.890625,-2.1875 -0.46875,0 -0.90625,0.15625 -1.265625,0.515625 V -5.625 c 0.203125,0.0625 0.53125,0.125 0.84375,0.125 1.234375,0 1.9375,-0.90625 1.9375,-1.03125 0,-0.0625 -0.03125,-0.109375 -0.109375,-0.109375 0,0 -0.03125,0 -0.078125,0.03125 C 3.703125,-6.515625 3.21875,-6.3125 2.546875,-6.3125 2.15625,-6.3125 1.6875,-6.390625 1.21875,-6.59375 1.140625,-6.625 1.125,-6.625 1.109375,-6.625 1,-6.625 1,-6.546875 1,-6.390625 V -3.4375 c 0,0.171875 0,0.25 0.140625,0.25 0.078125,0 0.09375,-0.015625 0.140625,-0.078125 C 1.390625,-3.421875 1.75,-3.96875 2.5625,-3.96875 c 0.515625,0 0.765625,0.453125 0.84375,0.640625 0.15625,0.375 0.1875,0.75 0.1875,1.25 0,0.359375 0,0.953125 -0.25,1.375 C 3.109375,-0.3125 2.734375,-0.0625 2.28125,-0.0625 c -0.71875,0 -1.296875,-0.53125 -1.46875,-1.109375 0.03125,0 0.0625,0.015625 0.171875,0.015625 0.328125,0 0.5,-0.25 0.5,-0.484375 0,-0.25 -0.171875,-0.5 -0.5,-0.5 C 0.84375,-2.140625 0.5,-2.0625 0.5,-1.609375 0.5,-0.75 1.1875,0.21875 2.296875,0.21875 3.453125,0.21875 4.46875,-0.734375 4.46875,-2 Z m 0,0"
               id="path1575" />
          </g>
        </g>
      </g>
      <path
         style="fill:none;stroke:#000000;stroke-width:0.365;stroke-linecap:round;stroke-linejoin:miter;stroke-dasharray:none;stroke-opacity:1"
         d="m 41.535607,101.51525 v 2.69592"
         id="path1583" />
      <path
         style="fill:none;stroke:#000000;stroke-width:0.365;stroke-linecap:round;stroke-linejoin:miter;stroke-dasharray:none;stroke-opacity:1"
         d="m 47.288498,101.51525 v 2.69592"
         id="path1585" />
      <path
         style="fill:none;stroke:#000000;stroke-width:0.365;stroke-linecap:round;stroke-linejoin:miter;stroke-dasharray:none;stroke-opacity:1"
         d="m 53.041388,101.51525 v 2.69592"
         id="path1587" />
      <path
         style="fill:none;stroke:#000000;stroke-width:0.365;stroke-linecap:round;stroke-linejoin:miter;stroke-dasharray:none;stroke-opacity:1"
         d="m 58.794279,101.51525 v 2.69592"
         id="path1589" />
      <path
         style="fill:none;stroke:#000000;stroke-width:0.365;stroke-linecap:round;stroke-linejoin:miter;stroke-dasharray:none;stroke-opacity:1"
         d="m 64.547169,101.51525 v 2.69592"
         id="path1591" />
      <path
         style="fill:none;stroke:#000000;stroke-width:0.365;stroke-linecap:round;stroke-linejoin:miter;stroke-dasharray:none;stroke-opacity:1"
         d="m 70.30006,101.51525 v 2.69592"
         id="path1593" />
      <path
         style="fill:none;stroke:#000000;stroke-width:0.365;stroke-linecap:round;stroke-linejoin:miter;stroke-dasharray:none;stroke-opacity:1"
         d="m 35.782717,101.51525 v 2.69592"
         id="path1595" />
      <path
         style="fill:none;stroke:#ff0000;stroke-width:0.4;stroke-linecap:round;stroke-linejoin:round;stroke-dasharray:none;stroke-opacity:1"
         d="M 18.63623,102.86321 H 64.562948"
         id="path1597" />
      <circle
         style="opacity:1;fill:#ff0000;fill-opacity:1;stroke:#ff0b0b;stroke-width:0.4;stroke-linecap:round;stroke-linejoin:round;stroke-dasharray:none;stroke-opacity:1"
         id="circle1599"
         cx="64.547173"
         cy="102.86321"
         r="0.67397881" />
      <path
         style="fill:none;stroke:#000000;stroke-width:0.365;stroke-linecap:round;stroke-linejoin:miter;stroke-dasharray:none;stroke-opacity:1"
         d="m 30.029826,101.51525 v 2.69592"
         id="path1601" />
      <path
         style="fill:none;stroke:#000000;stroke-width:0.365;stroke-linecap:round;stroke-linejoin:miter;stroke-dasharray:none;stroke-opacity:1"
         d="m 12.831935,101.51525 v 2.69592"
         id="path1605" />
      <path
         style="fill:none;stroke:#000000;stroke-width:0.365;stroke-linecap:round;stroke-linejoin:miter;stroke-dasharray:none;stroke-opacity:1"
         d="m 24.337716,101.51525 v 2.69592"
         id="path1609" />
      <g
         inkscape:label=""
         transform="translate(20.817819,105.64783)"
         id="g1623">
        <g
           fill="#000000"
           fill-opacity="1"
           id="g1615"
           transform="matrix(0.388056,0,0,0.388056,-35.9934,-29.2293)">
          <g
             id="g1613"
             transform="translate(91.925003,81.962997)">
            <path
               d="m 6.5625,-2.296875 c 0.171875,0 0.359375,0 0.359375,-0.203125 0,-0.1875 -0.1875,-0.1875 -0.359375,-0.1875 H 1.171875 c -0.171875,0 -0.34375,0 -0.34375,0.1875 0,0.203125 0.171875,0.203125 0.34375,0.203125 z m 0,0"
               id="path1611" />
          </g>
        </g>
        <g
           fill="#000000"
           fill-opacity="1"
           id="g1621"
           transform="matrix(0.388056,0,0,0.388056,-35.9934,-29.2293)">
          <g
             id="g1619"
             transform="translate(99.674004,81.962997)">
            <path
               d="m 2.890625,-3.515625 c 0.8125,-0.265625 1.390625,-0.953125 1.390625,-1.75 0,-0.8125 -0.875,-1.375 -1.828125,-1.375 -1,0 -1.765625,0.59375 -1.765625,1.359375 0,0.328125 0.21875,0.515625 0.515625,0.515625 0.296875,0 0.5,-0.21875 0.5,-0.515625 0,-0.484375 -0.46875,-0.484375 -0.609375,-0.484375 0.296875,-0.5 0.953125,-0.625 1.3125,-0.625 0.421875,0 0.96875,0.21875 0.96875,1.109375 0,0.125 -0.03125,0.703125 -0.28125,1.140625 C 2.796875,-3.65625 2.453125,-3.625 2.203125,-3.625 2.125,-3.609375 1.890625,-3.59375 1.8125,-3.59375 c -0.078125,0.015625 -0.140625,0.03125 -0.140625,0.125 0,0.109375 0.0625,0.109375 0.234375,0.109375 h 0.4375 c 0.8125,0 1.1875,0.671875 1.1875,1.65625 0,1.359375 -0.6875,1.640625 -1.125,1.640625 -0.4375,0 -1.1875,-0.171875 -1.53125,-0.75 0.34375,0.046875 0.65625,-0.171875 0.65625,-0.546875 0,-0.359375 -0.265625,-0.5625 -0.546875,-0.5625 -0.25,0 -0.5625,0.140625 -0.5625,0.578125 0,0.90625 0.921875,1.5625 2.015625,1.5625 1.21875,0 2.125,-0.90625 2.125,-1.921875 0,-0.8125 -0.640625,-1.59375 -1.671875,-1.8125 z m 0,0"
               id="path1617" />
          </g>
        </g>
      </g>
      <g
         inkscape:label=""
         transform="translate(15.040675,105.69022)"
         id="g1637">
        <g
           fill="#000000"
           fill-opacity="1"
           id="g1629"
           transform="matrix(0.388056,0,0,0.388056,-35.9934,-29.1868)">
          <g
             id="g1627"
             transform="translate(91.925003,81.962997)">
            <path
               d="m 6.5625,-2.296875 c 0.171875,0 0.359375,0 0.359375,-0.203125 0,-0.1875 -0.1875,-0.1875 -0.359375,-0.1875 H 1.171875 c -0.171875,0 -0.34375,0 -0.34375,0.1875 0,0.203125 0.171875,0.203125 0.34375,0.203125 z m 0,0"
               id="path1625" />
          </g>
        </g>
        <g
           fill="#000000"
           fill-opacity="1"
           id="g1635"
           transform="matrix(0.388056,0,0,0.388056,-35.9934,-29.1868)">
          <g
             id="g1633"
             transform="translate(99.674004,81.962997)">
            <path
               d="m 2.9375,-1.640625 v 0.859375 c 0,0.359375 -0.03125,0.46875 -0.765625,0.46875 H 1.96875 V 0 C 2.375,-0.03125 2.890625,-0.03125 3.3125,-0.03125 c 0.421875,0 0.9375,0 1.359375,0.03125 v -0.3125 h -0.21875 c -0.734375,0 -0.75,-0.109375 -0.75,-0.46875 V -1.640625 H 4.6875 v -0.3125 H 3.703125 v -4.53125 c 0,-0.203125 0,-0.265625 -0.171875,-0.265625 -0.078125,0 -0.109375,0 -0.1875,0.125 l -3.0625,4.671875 v 0.3125 z m 0.046875,-0.3125 H 0.5625 l 2.421875,-3.71875 z m 0,0"
               id="path1631" />
          </g>
        </g>
      </g>
      <g
         inkscape:label=""
         transform="translate(9.3302283,105.64783)"
         id="g1651">
        <g
           fill="#000000"
           fill-opacity="1"
           id="g1643"
           transform="matrix(0.388056,0,0,0.388056,-35.9934,-29.2293)">
          <g
             id="g1641"
             transform="translate(91.925003,81.962997)">
            <path
               d="m 6.5625,-2.296875 c 0.171875,0 0.359375,0 0.359375,-0.203125 0,-0.1875 -0.1875,-0.1875 -0.359375,-0.1875 H 1.171875 c -0.171875,0 -0.34375,0 -0.34375,0.1875 0,0.203125 0.171875,0.203125 0.34375,0.203125 z m 0,0"
               id="path1639" />
          </g>
        </g>
        <g
           fill="#000000"
           fill-opacity="1"
           id="g1649"
           transform="matrix(0.388056,0,0,0.388056,-35.9934,-29.2293)">
          <g
             id="g1647"
             transform="translate(99.674004,81.962997)">
            <path
               d="m 4.46875,-2 c 0,-1.1875 -0.8125,-2.1875 -1.890625,-2.1875 -0.46875,0 -0.90625,0.15625 -1.265625,0.515625 V -5.625 c 0.203125,0.0625 0.53125,0.125 0.84375,0.125 1.234375,0 1.9375,-0.90625 1.9375,-1.03125 0,-0.0625 -0.03125,-0.109375 -0.109375,-0.109375 0,0 -0.03125,0 -0.078125,0.03125 C 3.703125,-6.515625 3.21875,-6.3125 2.546875,-6.3125 2.15625,-6.3125 1.6875,-6.390625 1.21875,-6.59375 1.140625,-6.625 1.125,-6.625 1.109375,-6.625 1,-6.625 1,-6.546875 1,-6.390625 V -3.4375 c 0,0.171875 0,0.25 0.140625,0.25 0.078125,0 0.09375,-0.015625 0.140625,-0.078125 C 1.390625,-3.421875 1.75,-3.96875 2.5625,-3.96875 c 0.515625,0 0.765625,0.453125 0.84375,0.640625 0.15625,0.375 0.1875,0.75 0.1875,1.25 0,0.359375 0,0.953125 -0.25,1.375 C 3.109375,-0.3125 2.734375,-0.0625 2.28125,-0.0625 c -0.71875,0 -1.296875,-0.53125 -1.46875,-1.109375 0.03125,0 0.0625,0.015625 0.171875,0.015625 0.328125,0 0.5,-0.25 0.5,-0.484375 0,-0.25 -0.171875,-0.5 -0.5,-0.5 C 0.84375,-2.140625 0.5,-2.0625 0.5,-1.609375 0.5,-0.75 1.1875,0.21875 2.296875,0.21875 3.453125,0.21875 4.46875,-0.734375 4.46875,-2 Z m 0,0"
               id="path1645" />
          </g>
        </g>
      </g>
      <path
         style="fill:none;stroke:#000000;stroke-width:0.365;stroke-linecap:round;stroke-linejoin:miter;stroke-dasharray:none;stroke-opacity:1"
         d="m 18.584826,101.51525 v 2.69592"
         id="path1607" />
      <circle
         style="opacity:1;fill:#ffffff;fill-opacity:1;stroke:#ff0b0b;stroke-width:0.4;stroke-linecap:round;stroke-linejoin:round;stroke-dasharray:none;stroke-opacity:1"
         id="circle1603"
         cx="18.584826"
         cy="102.86321"
         r="0.67397881" />
    </g>
    <g
       id="g2379">
      <path
         style="fill:none;stroke:#000000;stroke-width:0.399999;stroke-linecap:round;stroke-linejoin:round;stroke-dasharray:none;stroke-opacity:1;marker-end:url(#TriangleStart)"
         d="M 5.9125033,124.54286 H 74.243834"
         id="path1801" />
      <g
         inkscape:label=""
         transform="translate(26.528119,127.41237)"
         id="g1815">
        <g
           fill="#000000"
           fill-opacity="1"
           id="g1807"
           transform="matrix(0.388056,0,0,0.388056,-35.9934,-29.2293)">
          <g
             id="g1805"
             transform="translate(91.925003,81.962997)">
            <path
               d="m 6.5625,-2.296875 c 0.171875,0 0.359375,0 0.359375,-0.203125 0,-0.1875 -0.1875,-0.1875 -0.359375,-0.1875 H 1.171875 c -0.171875,0 -0.34375,0 -0.34375,0.1875 0,0.203125 0.171875,0.203125 0.34375,0.203125 z m 0,0"
               id="path1803" />
          </g>
        </g>
        <g
           fill="#000000"
           fill-opacity="1"
           id="g1813"
           transform="matrix(0.388056,0,0,0.388056,-35.9934,-29.2293)">
          <g
             id="g1811"
             transform="translate(99.674004,81.962997)">
            <path
               d="m 1.265625,-0.765625 1.0625,-1.03125 c 1.546875,-1.375 2.140625,-1.90625 2.140625,-2.90625 0,-1.140625 -0.890625,-1.9375 -2.109375,-1.9375 -1.125,0 -1.859375,0.921875 -1.859375,1.8125 0,0.546875 0.5,0.546875 0.53125,0.546875 0.171875,0 0.515625,-0.109375 0.515625,-0.53125 0,-0.25 -0.1875,-0.515625 -0.53125,-0.515625 -0.078125,0 -0.09375,0 -0.125,0.015625 0.21875,-0.65625 0.765625,-1.015625 1.34375,-1.015625 0.90625,0 1.328125,0.8125 1.328125,1.625 C 3.5625,-3.90625 3.078125,-3.125 2.515625,-2.5 l -1.90625,2.125 C 0.5,-0.265625 0.5,-0.234375 0.5,0 H 4.203125 L 4.46875,-1.734375 H 4.234375 C 4.171875,-1.4375 4.109375,-1 4,-0.84375 3.9375,-0.765625 3.28125,-0.765625 3.0625,-0.765625 Z m 0,0"
               id="path1809" />
          </g>
        </g>
      </g>
      <g
         inkscape:label=""
         transform="translate(32.338612,127.41237)"
         id="g1829">
        <g
           fill="#000000"
           fill-opacity="1"
           id="g1821"
           transform="matrix(0.388056,0,0,0.388056,-35.9934,-29.2293)">
          <g
             id="g1819"
             transform="translate(91.925003,81.962997)">
            <path
               d="m 6.5625,-2.296875 c 0.171875,0 0.359375,0 0.359375,-0.203125 0,-0.1875 -0.1875,-0.1875 -0.359375,-0.1875 H 1.171875 c -0.171875,0 -0.34375,0 -0.34375,0.1875 0,0.203125 0.171875,0.203125 0.34375,0.203125 z m 0,0"
               id="path1817" />
          </g>
        </g>
        <g
           fill="#000000"
           fill-opacity="1"
           id="g1827"
           transform="matrix(0.388056,0,0,0.388056,-35.9934,-29.2293)">
          <g
             id="g1825"
             transform="translate(99.674004,81.962997)">
            <path
               d="m 2.9375,-6.375 c 0,-0.25 0,-0.265625 -0.234375,-0.265625 C 2.078125,-6 1.203125,-6 0.890625,-6 v 0.3125 c 0.203125,0 0.78125,0 1.296875,-0.265625 v 5.171875 c 0,0.359375 -0.03125,0.46875 -0.921875,0.46875 h -0.3125 V 0 c 0.34375,-0.03125 1.203125,-0.03125 1.609375,-0.03125 0.390625,0 1.265625,0 1.609375,0.03125 v -0.3125 h -0.3125 c -0.90625,0 -0.921875,-0.109375 -0.921875,-0.46875 z m 0,0"
               id="path1823" />
          </g>
        </g>
      </g>
      <g
         inkscape:label=""
         transform="translate(40.723081,127.32748)"
         id="g1837">
        <g
           fill="#000000"
           fill-opacity="1"
           id="g1835"
           transform="matrix(0.388056,0,0,0.388056,-35.8236,-29.2293)">
          <g
             id="g1833"
             transform="translate(91.925003,81.962997)">
            <path
               d="m 4.578125,-3.1875 c 0,-0.796875 -0.046875,-1.59375 -0.390625,-2.328125 -0.453125,-0.96875 -1.28125,-1.125 -1.6875,-1.125 -0.609375,0 -1.328125,0.265625 -1.75,1.1875 -0.3125,0.6875 -0.359375,1.46875 -0.359375,2.265625 0,0.75 0.03125,1.640625 0.453125,2.40625 0.421875,0.796875 1.15625,1 1.640625,1 0.53125,0 1.296875,-0.203125 1.734375,-1.15625 0.3125,-0.6875 0.359375,-1.46875 0.359375,-2.25 z M 2.484375,0 C 2.09375,0 1.5,-0.25 1.328125,-1.203125 1.21875,-1.796875 1.21875,-2.71875 1.21875,-3.3125 c 0,-0.640625 0,-1.296875 0.078125,-1.828125 0.1875,-1.1875 0.9375,-1.28125 1.1875,-1.28125 0.328125,0 0.984375,0.1875 1.171875,1.171875 0.109375,0.5625 0.109375,1.3125 0.109375,1.9375 0,0.75 0,1.421875 -0.109375,2.0625 C 3.5,-0.296875 2.9375,0 2.484375,0 Z m 0,0"
               id="path1831" />
          </g>
        </g>
      </g>
      <g
         inkscape:label=""
         transform="translate(46.651782,127.41237)"
         id="g1845">
        <g
           fill="#000000"
           fill-opacity="1"
           id="g1843"
           transform="matrix(0.388056,0,0,0.388056,-36.0176,-29.2293)">
          <g
             id="g1841"
             transform="translate(91.925003,81.962997)">
            <path
               d="m 2.9375,-6.375 c 0,-0.25 0,-0.265625 -0.234375,-0.265625 C 2.078125,-6 1.203125,-6 0.890625,-6 v 0.3125 c 0.203125,0 0.78125,0 1.296875,-0.265625 v 5.171875 c 0,0.359375 -0.03125,0.46875 -0.921875,0.46875 h -0.3125 V 0 c 0.34375,-0.03125 1.203125,-0.03125 1.609375,-0.03125 0.390625,0 1.265625,0 1.609375,0.03125 v -0.3125 h -0.3125 c -0.90625,0 -0.921875,-0.109375 -0.921875,-0.46875 z m 0,0"
               id="path1839" />
          </g>
        </g>
      </g>
      <g
         inkscape:label=""
         transform="translate(52.271262,127.41237)"
         id="g1853">
        <g
           fill="#000000"
           fill-opacity="1"
           id="g1851"
           transform="matrix(0.388056,0,0,0.388056,-35.866,-29.2293)">
          <g
             id="g1849"
             transform="translate(91.925003,81.962997)">
            <path
               d="m 1.265625,-0.765625 1.0625,-1.03125 c 1.546875,-1.375 2.140625,-1.90625 2.140625,-2.90625 0,-1.140625 -0.890625,-1.9375 -2.109375,-1.9375 -1.125,0 -1.859375,0.921875 -1.859375,1.8125 0,0.546875 0.5,0.546875 0.53125,0.546875 0.171875,0 0.515625,-0.109375 0.515625,-0.53125 0,-0.25 -0.1875,-0.515625 -0.53125,-0.515625 -0.078125,0 -0.09375,0 -0.125,0.015625 0.21875,-0.65625 0.765625,-1.015625 1.34375,-1.015625 0.90625,0 1.328125,0.8125 1.328125,1.625 C 3.5625,-3.90625 3.078125,-3.125 2.515625,-2.5 l -1.90625,2.125 C 0.5,-0.265625 0.5,-0.234375 0.5,0 H 4.203125 L 4.46875,-1.734375 H 4.234375 C 4.171875,-1.4375 4.109375,-1 4,-0.84375 3.9375,-0.765625 3.28125,-0.765625 3.0625,-0.765625 Z m 0,0"
               id="path1847" />
          </g>
        </g>
      </g>
      <g
         inkscape:label=""
         transform="translate(57.990822,127.32748)"
         id="g1861">
        <g
           fill="#000000"
           fill-opacity="1"
           id="g1859"
           transform="matrix(0.388056,0,0,0.388056,-35.8357,-29.2293)">
          <g
             id="g1857"
             transform="translate(91.925003,81.962997)">
            <path
               d="m 2.890625,-3.515625 c 0.8125,-0.265625 1.390625,-0.953125 1.390625,-1.75 0,-0.8125 -0.875,-1.375 -1.828125,-1.375 -1,0 -1.765625,0.59375 -1.765625,1.359375 0,0.328125 0.21875,0.515625 0.515625,0.515625 0.296875,0 0.5,-0.21875 0.5,-0.515625 0,-0.484375 -0.46875,-0.484375 -0.609375,-0.484375 0.296875,-0.5 0.953125,-0.625 1.3125,-0.625 0.421875,0 0.96875,0.21875 0.96875,1.109375 0,0.125 -0.03125,0.703125 -0.28125,1.140625 C 2.796875,-3.65625 2.453125,-3.625 2.203125,-3.625 2.125,-3.609375 1.890625,-3.59375 1.8125,-3.59375 c -0.078125,0.015625 -0.140625,0.03125 -0.140625,0.125 0,0.109375 0.0625,0.109375 0.234375,0.109375 h 0.4375 c 0.8125,0 1.1875,0.671875 1.1875,1.65625 0,1.359375 -0.6875,1.640625 -1.125,1.640625 -0.4375,0 -1.1875,-0.171875 -1.53125,-0.75 0.34375,0.046875 0.65625,-0.171875 0.65625,-0.546875 0,-0.359375 -0.265625,-0.5625 -0.546875,-0.5625 -0.25,0 -0.5625,0.140625 -0.5625,0.578125 0,0.90625 0.921875,1.5625 2.015625,1.5625 1.21875,0 2.125,-0.90625 2.125,-1.921875 0,-0.8125 -0.640625,-1.59375 -1.671875,-1.8125 z m 0,0"
               id="path1855" />
          </g>
        </g>
      </g>
      <g
         inkscape:label=""
         transform="translate(63.692143,127.36987)"
         id="g1869">
        <g
           fill="#000000"
           fill-opacity="1"
           id="g1867"
           transform="matrix(0.388056,0,0,0.388056,-35.7811,-29.1868)">
          <g
             id="g1865"
             transform="translate(91.925003,81.962997)">
            <path
               d="m 2.9375,-1.640625 v 0.859375 c 0,0.359375 -0.03125,0.46875 -0.765625,0.46875 H 1.96875 V 0 C 2.375,-0.03125 2.890625,-0.03125 3.3125,-0.03125 c 0.421875,0 0.9375,0 1.359375,0.03125 v -0.3125 h -0.21875 c -0.734375,0 -0.75,-0.109375 -0.75,-0.46875 V -1.640625 H 4.6875 v -0.3125 H 3.703125 v -4.53125 c 0,-0.203125 0,-0.265625 -0.171875,-0.265625 -0.078125,0 -0.109375,0 -0.1875,0.125 l -3.0625,4.671875 v 0.3125 z m 0.046875,-0.3125 H 0.5625 l 2.421875,-3.71875 z m 0,0"
               id="path1863" />
          </g>
        </g>
      </g>
      <g
         inkscape:label=""
         transform="translate(69.529934,127.32748)"
         id="g1877">
        <g
           fill="#000000"
           fill-opacity="1"
           id="g1875"
           transform="matrix(0.388056,0,0,0.388056,-35.866,-29.2293)">
          <g
             id="g1873"
             transform="translate(91.925003,81.962997)">
            <path
               d="m 4.46875,-2 c 0,-1.1875 -0.8125,-2.1875 -1.890625,-2.1875 -0.46875,0 -0.90625,0.15625 -1.265625,0.515625 V -5.625 c 0.203125,0.0625 0.53125,0.125 0.84375,0.125 1.234375,0 1.9375,-0.90625 1.9375,-1.03125 0,-0.0625 -0.03125,-0.109375 -0.109375,-0.109375 0,0 -0.03125,0 -0.078125,0.03125 C 3.703125,-6.515625 3.21875,-6.3125 2.546875,-6.3125 2.15625,-6.3125 1.6875,-6.390625 1.21875,-6.59375 1.140625,-6.625 1.125,-6.625 1.109375,-6.625 1,-6.625 1,-6.546875 1,-6.390625 V -3.4375 c 0,0.171875 0,0.25 0.140625,0.25 0.078125,0 0.09375,-0.015625 0.140625,-0.078125 C 1.390625,-3.421875 1.75,-3.96875 2.5625,-3.96875 c 0.515625,0 0.765625,0.453125 0.84375,0.640625 0.15625,0.375 0.1875,0.75 0.1875,1.25 0,0.359375 0,0.953125 -0.25,1.375 C 3.109375,-0.3125 2.734375,-0.0625 2.28125,-0.0625 c -0.71875,0 -1.296875,-0.53125 -1.46875,-1.109375 0.03125,0 0.0625,0.015625 0.171875,0.015625 0.328125,0 0.5,-0.25 0.5,-0.484375 0,-0.25 -0.171875,-0.5 -0.5,-0.5 C 0.84375,-2.140625 0.5,-2.0625 0.5,-1.609375 0.5,-0.75 1.1875,0.21875 2.296875,0.21875 3.453125,0.21875 4.46875,-0.734375 4.46875,-2 Z m 0,0"
               id="path1871" />
          </g>
        </g>
      </g>
      <path
         style="fill:none;stroke:#000000;stroke-width:0.365;stroke-linecap:round;stroke-linejoin:miter;stroke-dasharray:none;stroke-opacity:1"
         d="m 41.535607,123.1949 v 2.69592"
         id="path1879" />
      <path
         style="fill:none;stroke:#000000;stroke-width:0.365;stroke-linecap:round;stroke-linejoin:miter;stroke-dasharray:none;stroke-opacity:1"
         d="m 47.288498,123.1949 v 2.69592"
         id="path1881" />
      <path
         style="fill:none;stroke:#000000;stroke-width:0.365;stroke-linecap:round;stroke-linejoin:miter;stroke-dasharray:none;stroke-opacity:1"
         d="m 53.041388,123.1949 v 2.69592"
         id="path1883" />
      <path
         style="fill:none;stroke:#000000;stroke-width:0.365;stroke-linecap:round;stroke-linejoin:miter;stroke-dasharray:none;stroke-opacity:1"
         d="m 58.794279,123.1949 v 2.69592"
         id="path1885" />
      <path
         style="fill:none;stroke:#000000;stroke-width:0.365;stroke-linecap:round;stroke-linejoin:miter;stroke-dasharray:none;stroke-opacity:1"
         d="m 64.547169,123.1949 v 2.69592"
         id="path1887" />
      <path
         style="fill:none;stroke:#000000;stroke-width:0.365;stroke-linecap:round;stroke-linejoin:miter;stroke-dasharray:none;stroke-opacity:1"
         d="m 70.30006,123.1949 v 2.69592"
         id="path1889" />
      <path
         style="fill:none;stroke:#000000;stroke-width:0.365;stroke-linecap:round;stroke-linejoin:miter;stroke-dasharray:none;stroke-opacity:1"
         d="m 35.782717,123.1949 v 2.69592"
         id="path1891" />
      <path
         style="fill:none;stroke:#ff0000;stroke-width:0.4;stroke-linecap:round;stroke-linejoin:round;stroke-dasharray:none;stroke-opacity:1;marker-end:url(#marker2142)"
         d="M 19.423386,124.54286 H 74.232949"
         id="path1893" />
      <path
         style="fill:none;stroke:#000000;stroke-width:0.365;stroke-linecap:round;stroke-linejoin:miter;stroke-dasharray:none;stroke-opacity:1"
         d="m 30.029826,123.1949 v 2.69592"
         id="path1897" />
      <path
         style="fill:none;stroke:#000000;stroke-width:0.365;stroke-linecap:round;stroke-linejoin:miter;stroke-dasharray:none;stroke-opacity:1"
         d="m 12.831935,123.1949 v 2.69592"
         id="path1901" />
      <path
         style="fill:#ffffff;fill-opacity:1;stroke:#000000;stroke-width:0.365;stroke-linecap:round;stroke-linejoin:miter;stroke-dasharray:none;stroke-opacity:1"
         d="m 18.584826,123.1949 v 2.69592"
         id="path1903" />
      <path
         style="fill:none;stroke:#000000;stroke-width:0.365;stroke-linecap:round;stroke-linejoin:miter;stroke-dasharray:none;stroke-opacity:1"
         d="m 24.337716,123.1949 v 2.69592"
         id="path1905" />
      <g
         inkscape:label=""
         transform="translate(20.817819,127.32748)"
         id="g1919">
        <g
           fill="#000000"
           fill-opacity="1"
           id="g1911"
           transform="matrix(0.388056,0,0,0.388056,-35.9934,-29.2293)">
          <g
             id="g1909"
             transform="translate(91.925003,81.962997)">
            <path
               d="m 6.5625,-2.296875 c 0.171875,0 0.359375,0 0.359375,-0.203125 0,-0.1875 -0.1875,-0.1875 -0.359375,-0.1875 H 1.171875 c -0.171875,0 -0.34375,0 -0.34375,0.1875 0,0.203125 0.171875,0.203125 0.34375,0.203125 z m 0,0"
               id="path1907" />
          </g>
        </g>
        <g
           fill="#000000"
           fill-opacity="1"
           id="g1917"
           transform="matrix(0.388056,0,0,0.388056,-35.9934,-29.2293)">
          <g
             id="g1915"
             transform="translate(99.674004,81.962997)">
            <path
               d="m 2.890625,-3.515625 c 0.8125,-0.265625 1.390625,-0.953125 1.390625,-1.75 0,-0.8125 -0.875,-1.375 -1.828125,-1.375 -1,0 -1.765625,0.59375 -1.765625,1.359375 0,0.328125 0.21875,0.515625 0.515625,0.515625 0.296875,0 0.5,-0.21875 0.5,-0.515625 0,-0.484375 -0.46875,-0.484375 -0.609375,-0.484375 0.296875,-0.5 0.953125,-0.625 1.3125,-0.625 0.421875,0 0.96875,0.21875 0.96875,1.109375 0,0.125 -0.03125,0.703125 -0.28125,1.140625 C 2.796875,-3.65625 2.453125,-3.625 2.203125,-3.625 2.125,-3.609375 1.890625,-3.59375 1.8125,-3.59375 c -0.078125,0.015625 -0.140625,0.03125 -0.140625,0.125 0,0.109375 0.0625,0.109375 0.234375,0.109375 h 0.4375 c 0.8125,0 1.1875,0.671875 1.1875,1.65625 0,1.359375 -0.6875,1.640625 -1.125,1.640625 -0.4375,0 -1.1875,-0.171875 -1.53125,-0.75 0.34375,0.046875 0.65625,-0.171875 0.65625,-0.546875 0,-0.359375 -0.265625,-0.5625 -0.546875,-0.5625 -0.25,0 -0.5625,0.140625 -0.5625,0.578125 0,0.90625 0.921875,1.5625 2.015625,1.5625 1.21875,0 2.125,-0.90625 2.125,-1.921875 0,-0.8125 -0.640625,-1.59375 -1.671875,-1.8125 z m 0,0"
               id="path1913" />
          </g>
        </g>
      </g>
      <g
         inkscape:label=""
         transform="translate(15.040675,127.36987)"
         id="g1933">
        <g
           fill="#000000"
           fill-opacity="1"
           id="g1925"
           transform="matrix(0.388056,0,0,0.388056,-35.9934,-29.1868)">
          <g
             id="g1923"
             transform="translate(91.925003,81.962997)">
            <path
               d="m 6.5625,-2.296875 c 0.171875,0 0.359375,0 0.359375,-0.203125 0,-0.1875 -0.1875,-0.1875 -0.359375,-0.1875 H 1.171875 c -0.171875,0 -0.34375,0 -0.34375,0.1875 0,0.203125 0.171875,0.203125 0.34375,0.203125 z m 0,0"
               id="path1921" />
          </g>
        </g>
        <g
           fill="#000000"
           fill-opacity="1"
           id="g1931"
           transform="matrix(0.388056,0,0,0.388056,-35.9934,-29.1868)">
          <g
             id="g1929"
             transform="translate(99.674004,81.962997)">
            <path
               d="m 2.9375,-1.640625 v 0.859375 c 0,0.359375 -0.03125,0.46875 -0.765625,0.46875 H 1.96875 V 0 C 2.375,-0.03125 2.890625,-0.03125 3.3125,-0.03125 c 0.421875,0 0.9375,0 1.359375,0.03125 v -0.3125 h -0.21875 c -0.734375,0 -0.75,-0.109375 -0.75,-0.46875 V -1.640625 H 4.6875 v -0.3125 H 3.703125 v -4.53125 c 0,-0.203125 0,-0.265625 -0.171875,-0.265625 -0.078125,0 -0.109375,0 -0.1875,0.125 l -3.0625,4.671875 v 0.3125 z m 0.046875,-0.3125 H 0.5625 l 2.421875,-3.71875 z m 0,0"
               id="path1927" />
          </g>
        </g>
      </g>
      <g
         inkscape:label=""
         transform="translate(9.3302283,127.32748)"
         id="g1947">
        <g
           fill="#000000"
           fill-opacity="1"
           id="g1939"
           transform="matrix(0.388056,0,0,0.388056,-35.9934,-29.2293)">
          <g
             id="g1937"
             transform="translate(91.925003,81.962997)">
            <path
               d="m 6.5625,-2.296875 c 0.171875,0 0.359375,0 0.359375,-0.203125 0,-0.1875 -0.1875,-0.1875 -0.359375,-0.1875 H 1.171875 c -0.171875,0 -0.34375,0 -0.34375,0.1875 0,0.203125 0.171875,0.203125 0.34375,0.203125 z m 0,0"
               id="path1935" />
          </g>
        </g>
        <g
           fill="#000000"
           fill-opacity="1"
           id="g1945"
           transform="matrix(0.388056,0,0,0.388056,-35.9934,-29.2293)">
          <g
             id="g1943"
             transform="translate(99.674004,81.962997)">
            <path
               d="m 4.46875,-2 c 0,-1.1875 -0.8125,-2.1875 -1.890625,-2.1875 -0.46875,0 -0.90625,0.15625 -1.265625,0.515625 V -5.625 c 0.203125,0.0625 0.53125,0.125 0.84375,0.125 1.234375,0 1.9375,-0.90625 1.9375,-1.03125 0,-0.0625 -0.03125,-0.109375 -0.109375,-0.109375 0,0 -0.03125,0 -0.078125,0.03125 C 3.703125,-6.515625 3.21875,-6.3125 2.546875,-6.3125 2.15625,-6.3125 1.6875,-6.390625 1.21875,-6.59375 1.140625,-6.625 1.125,-6.625 1.109375,-6.625 1,-6.625 1,-6.546875 1,-6.390625 V -3.4375 c 0,0.171875 0,0.25 0.140625,0.25 0.078125,0 0.09375,-0.015625 0.140625,-0.078125 C 1.390625,-3.421875 1.75,-3.96875 2.5625,-3.96875 c 0.515625,0 0.765625,0.453125 0.84375,0.640625 0.15625,0.375 0.1875,0.75 0.1875,1.25 0,0.359375 0,0.953125 -0.25,1.375 C 3.109375,-0.3125 2.734375,-0.0625 2.28125,-0.0625 c -0.71875,0 -1.296875,-0.53125 -1.46875,-1.109375 0.03125,0 0.0625,0.015625 0.171875,0.015625 0.328125,0 0.5,-0.25 0.5,-0.484375 0,-0.25 -0.171875,-0.5 -0.5,-0.5 C 0.84375,-2.140625 0.5,-2.0625 0.5,-1.609375 0.5,-0.75 1.1875,0.21875 2.296875,0.21875 3.453125,0.21875 4.46875,-0.734375 4.46875,-2 Z m 0,0"
               id="path1941" />
          </g>
        </g>
      </g>
      <circle
         style="opacity:1;fill:#ffffff;fill-opacity:1;stroke:#ff0b0b;stroke-width:0.4;stroke-linecap:round;stroke-linejoin:round;stroke-dasharray:none;stroke-opacity:1"
         id="circle1899"
         cx="18.584826"
         cy="124.54286"
         r="0.67397881" />
    </g>
    <text
       xml:space="preserve"
       style="font-size:4.23333px;line-height:1.25;font-family:'Iwona Light';-inkscape-font-specification:'Iwona Light, ';letter-spacing:0px;word-spacing:0px;stroke-width:0.264583"
       x="2.042577"
       y="88.506538"
       id="text2242"><tspan
         sodipodi:role="line"
         id="tspan2240"
         style="stroke-width:0.264583"
         x="2.042577"
         y="88.506538">a)</tspan></text>
    <text
       xml:space="preserve"
       style="font-size:4.23333px;line-height:1.25;font-family:'Iwona Light';-inkscape-font-specification:'Iwona Light, ';letter-spacing:0px;word-spacing:0px;stroke-width:0.264583"
       x="2.0581033"
       y="99.775749"
       id="text2246"><tspan
         sodipodi:role="line"
         id="tspan2244"
         style="stroke-width:0.264583"
         x="2.0581033"
         y="99.775749">b)</tspan></text>
    <text
       xml:space="preserve"
       style="font-size:4.23333px;line-height:1.25;font-family:'Iwona Light';-inkscape-font-specification:'Iwona Light, ';letter-spacing:0px;word-spacing:0px;stroke-width:0.264583"
       x="2.2217891"
       y="111.04496"
       id="text2250"><tspan
         sodipodi:role="line"
         id="tspan2248"
         style="stroke-width:0.264583"
         x="2.2217891"
         y="111.04496">c)</tspan></text>
    <text
       xml:space="preserve"
       style="font-size:4.23333px;line-height:1.25;font-family:'Iwona Light';-inkscape-font-specification:'Iwona Light, ';letter-spacing:0px;word-spacing:0px;stroke-width:0.264583"
       x="1.7857617"
       y="122.31417"
       id="text2254"><tspan
         sodipodi:role="line"
         id="tspan2252"
         style="stroke-width:0.264583"
         x="1.7857617"
         y="122.31417">d)</tspan></text>
  </g>
</svg>
