<?xml version="1.0" encoding="UTF-8" standalone="no"?>
<!-- Created with Inkscape (http://www.inkscape.org/) -->

<svg
   width="95.512093mm"
   height="55.194286mm"
   viewBox="0 0 95.512093 55.194286"
   version="1.1"
   id="svg5"
   sodipodi:docname="ej-02.svg"
   inkscape:version="1.2.2 (b0a8486541, 2022-12-01)"
   xmlns:inkscape="http://www.inkscape.org/namespaces/inkscape"
   xmlns:sodipodi="http://sodipodi.sourceforge.net/DTD/sodipodi-0.dtd"
   xmlns="http://www.w3.org/2000/svg"
   xmlns:svg="http://www.w3.org/2000/svg">
  <sodipodi:namedview
     id="namedview7"
     pagecolor="#ffffff"
     bordercolor="#666666"
     borderopacity="1.0"
     inkscape:showpageshadow="2"
     inkscape:pageopacity="0.0"
     inkscape:pagecheckerboard="0"
     inkscape:deskcolor="#d1d1d1"
     inkscape:document-units="mm"
     showgrid="false"
     inkscape:zoom="1.4841611"
     inkscape:cx="110.83703"
     inkscape:cy="32.678394"
     inkscape:window-width="1920"
     inkscape:window-height="1014"
     inkscape:window-x="0"
     inkscape:window-y="0"
     inkscape:window-maximized="1"
     inkscape:current-layer="layer1" />
  <defs
     id="defs2" />
  <g
     inkscape:label="Capa 1"
     inkscape:groupmode="layer"
     id="layer1"
     transform="translate(-74.106638,-148.62405)">
    <g
       inkscape:label=""
       transform="translate(80.044017,153.31378)"
       id="g1136">
      <g
         fill="#000000"
         fill-opacity="1"
         id="g1134"
         transform="matrix(0.423333,0,0,0.423333,-39.0604,-31.6748)">
        <g
           id="g1132"
           transform="translate(91.925003,81.962997)">
          <path
             d="M 1.78125,-1.140625 C 1.390625,-0.484375 1,-0.34375 0.5625,-0.3125 0.4375,-0.296875 0.34375,-0.296875 0.34375,-0.109375 0.34375,-0.046875 0.40625,0 0.484375,0 0.75,0 1.0625,-0.03125 1.328125,-0.03125 c 0.34375,0 0.6875,0.03125 1,0.03125 0.0625,0 0.1875,0 0.1875,-0.1875 0,-0.109375 -0.078125,-0.125 -0.15625,-0.125 -0.21875,-0.015625 -0.46875,-0.09375 -0.46875,-0.34375 0,-0.125 0.0625,-0.234375 0.140625,-0.375 l 0.765625,-1.265625 h 2.5 c 0.015625,0.203125 0.15625,1.5625 0.15625,1.65625 0,0.296875 -0.515625,0.328125 -0.71875,0.328125 C 4.59375,-0.3125 4.5,-0.3125 4.5,-0.109375 4.5,0 4.609375,0 4.640625,0 5.046875,0 5.46875,-0.03125 5.875,-0.03125 6.125,-0.03125 6.765625,0 7.015625,0 7.0625,0 7.1875,0 7.1875,-0.203125 7.1875,-0.3125 7.09375,-0.3125 6.953125,-0.3125 6.34375,-0.3125 6.34375,-0.375 6.3125,-0.671875 l -0.609375,-6.21875 c -0.015625,-0.203125 -0.015625,-0.25 -0.1875,-0.25 -0.15625,0 -0.203125,0.078125 -0.265625,0.171875 z M 2.984375,-2.609375 4.9375,-5.90625 5.265625,-2.609375 Z m 0,0"
             id="path1130" />
        </g>
      </g>
    </g>
    <g
       inkscape:label=""
       transform="translate(164.90116,173.10189)"
       id="g1172">
      <g
         fill="#000000"
         fill-opacity="1"
         id="g1170"
         transform="matrix(0.423333,0,0,0.423333,-39.0935,-31.8137)">
        <g
           id="g1168"
           transform="translate(91.925003,81.962997)">
          <path
             d="M 1.59375,-0.78125 C 1.5,-0.390625 1.46875,-0.3125 0.6875,-0.3125 c -0.171875,0 -0.265625,0 -0.265625,0.203125 C 0.421875,0 0.515625,0 0.6875,0 H 4.25 C 5.828125,0 7,-1.171875 7,-2.15625 7,-2.875 6.421875,-3.453125 5.453125,-3.5625 6.484375,-3.75 7.53125,-4.484375 7.53125,-5.4375 c 0,-0.734375 -0.65625,-1.375 -1.84375,-1.375 H 2.328125 c -0.1875,0 -0.28125,0 -0.28125,0.203125 0,0.109375 0.09375,0.109375 0.28125,0.109375 0.015625,0 0.203125,0 0.375,0.015625 0.171875,0.03125 0.265625,0.03125 0.265625,0.171875 0,0.03125 -0.015625,0.0625 -0.03125,0.1875 z m 1.5,-2.875 0.625,-2.46875 C 3.8125,-6.46875 3.828125,-6.5 4.25,-6.5 h 1.296875 c 0.875,0 1.078125,0.59375 1.078125,1.03125 0,0.875 -0.859375,1.8125 -2.0625,1.8125 z m -0.4375,3.34375 c -0.140625,0 -0.15625,0 -0.21875,0 -0.109375,-0.015625 -0.140625,-0.03125 -0.140625,-0.109375 0,-0.03125 0,-0.046875 0.0625,-0.21875 l 0.6875,-2.78125 h 1.875 c 0.953125,0 1.15625,0.734375 1.15625,1.15625 C 6.078125,-1.28125 5.1875,-0.3125 4,-0.3125 Z m 0,0"
             id="path1166" />
        </g>
      </g>
    </g>
    <ellipse
       style="opacity:0.604982;fill:#d7d746;fill-opacity:1;stroke:#8f8914;stroke-width:0.465;stroke-linecap:round;stroke-linejoin:round;stroke-opacity:1"
       id="path1747"
       cx="113.02401"
       cy="176.39946"
       rx="38.684872"
       ry="27.186377" />
    <ellipse
       style="opacity:0.615658;fill:#f41f06;fill-opacity:1;stroke:#bd1a00;stroke-width:0.465;stroke-linecap:round;stroke-linejoin:round;stroke-opacity:1"
       id="ellipse4817"
       cx="150.56436"
       cy="162.04863"
       rx="18.821867"
       ry="13.192079" />
    <ellipse
       style="opacity:0.604982;fill:#d7d746;fill-opacity:1;stroke:#3a5544;stroke-width:0.465;stroke-linecap:round;stroke-linejoin:round;stroke-opacity:1"
       id="ellipse4819"
       cx="108.00066"
       cy="181.92586"
       rx="20.112892"
       ry="15.242198" />
    <ellipse
       style="opacity:0.604982;fill:#595bff;fill-opacity:1;stroke:#0003cf;stroke-width:0.465;stroke-linecap:round;stroke-linejoin:round;stroke-opacity:1"
       id="ellipse4821"
       cx="108.35721"
       cy="184.96181"
       rx="9.4166145"
       ry="8.6408148" />
    <g
       inkscape:label=""
       transform="translate(115.52,162.22734)"
       id="g1058">
      <g
         fill="#000000"
         fill-opacity="1"
         id="g11"
         transform="matrix(0.423333,0,0,0.423333,-39.1266,-31.7211)">
        <g
           id="use9"
           transform="translate(91.925003,81.962997)">
          <path
             d="m 7.578125,-6.921875 c 0,-0.03125 -0.015625,-0.109375 -0.109375,-0.109375 -0.03125,0 -0.046875,0.015625 -0.15625,0.125 L 6.625,-6.140625 C 6.53125,-6.28125 6.078125,-7.03125 4.96875,-7.03125 2.734375,-7.03125 0.5,-4.828125 0.5,-2.515625 0.5,-0.875 1.671875,0.21875 3.203125,0.21875 c 0.859375,0 1.625,-0.390625 2.15625,-0.859375 0.921875,-0.8125 1.09375,-1.71875 1.09375,-1.75 C 6.453125,-2.5 6.34375,-2.5 6.328125,-2.5 c -0.0625,0 -0.109375,0.03125 -0.125,0.109375 -0.09375,0.28125 -0.328125,1 -1.015625,1.578125 -0.6875,0.546875 -1.3125,0.71875 -1.828125,0.71875 -0.890625,0 -1.953125,-0.515625 -1.953125,-2.0625 0,-0.578125 0.203125,-2.1875 1.203125,-3.359375 0.609375,-0.703125 1.546875,-1.203125 2.4375,-1.203125 1.015625,0 1.609375,0.765625 1.609375,1.921875 0,0.40625 -0.03125,0.40625 -0.03125,0.515625 0,0.09375 0.109375,0.09375 0.140625,0.09375 0.125,0 0.125,-0.015625 0.1875,-0.203125 z m 0,0"
             id="path17" />
        </g>
      </g>
    </g>
    <g
       inkscape:label=""
       transform="translate(94.840535,186.29397)"
       id="g1216">
      <g
         fill="#000000"
         fill-opacity="1"
         id="g1214"
         transform="matrix(0.423333,0,0,0.423333,-39.0869,-31.8137)">
        <g
           id="g1212"
           transform="translate(91.925003,81.962997)">
          <path
             d="m 1.578125,-0.78125 c -0.09375,0.390625 -0.109375,0.46875 -0.90625,0.46875 -0.15625,0 -0.265625,0 -0.265625,0.1875 C 0.40625,0 0.484375,0 0.671875,0 h 3.3125 c 2.0625,0 4.03125,-2.109375 4.03125,-4.28125 0,-1.40625 -0.84375,-2.53125 -2.34375,-2.53125 h -3.34375 c -0.1875,0 -0.296875,0 -0.296875,0.1875 0,0.125 0.078125,0.125 0.28125,0.125 0.125,0 0.3125,0.015625 0.421875,0.015625 0.171875,0.03125 0.21875,0.046875 0.21875,0.171875 0,0.03125 0,0.0625 -0.03125,0.1875 z M 3.734375,-6.125 C 3.828125,-6.46875 3.84375,-6.5 4.28125,-6.5 h 1.0625 c 0.96875,0 1.796875,0.53125 1.796875,1.84375 0,0.484375 -0.1875,2.125 -1.046875,3.21875 -0.28125,0.375 -1.0625,1.125 -2.296875,1.125 h -1.125 c -0.140625,0 -0.15625,0 -0.21875,0 -0.09375,-0.015625 -0.125,-0.03125 -0.125,-0.109375 0,-0.03125 0,-0.046875 0.046875,-0.21875 z m 0,0"
             id="path1210" />
        </g>
      </g>
    </g>
  </g>
</svg>
