<?xml version="1.0" encoding="UTF-8" standalone="no"?>
<!-- Created with Inkscape (http://www.inkscape.org/) -->

<svg
   width="41.708969mm"
   height="37.714794mm"
   viewBox="0 0 41.708969 37.714795"
   version="1.1"
   id="svg5"
   sodipodi:docname="fig-11.svg"
   inkscape:version="1.2.2 (b0a8486541, 2022-12-01)"
   xmlns:inkscape="http://www.inkscape.org/namespaces/inkscape"
   xmlns:sodipodi="http://sodipodi.sourceforge.net/DTD/sodipodi-0.dtd"
   xmlns="http://www.w3.org/2000/svg"
   xmlns:svg="http://www.w3.org/2000/svg">
  <sodipodi:namedview
     id="namedview7"
     pagecolor="#ffffff"
     bordercolor="#666666"
     borderopacity="1.0"
     inkscape:showpageshadow="2"
     inkscape:pageopacity="0.0"
     inkscape:pagecheckerboard="0"
     inkscape:deskcolor="#d1d1d1"
     inkscape:document-units="mm"
     showgrid="false"
     inkscape:zoom="4.1978414"
     inkscape:cx="19.41474"
     inkscape:cy="61.817486"
     inkscape:window-width="1920"
     inkscape:window-height="1014"
     inkscape:window-x="0"
     inkscape:window-y="0"
     inkscape:window-maximized="1"
     inkscape:current-layer="layer1" />
  <defs
     id="defs2" />
  <g
     inkscape:label="Capa 1"
     inkscape:groupmode="layer"
     id="layer1"
     transform="translate(-93.238664,-140.32091)">
    <g
       id="g875"
       style="stroke:#ff0004;stroke-opacity:1">
      <ellipse
         style="fill:none;stroke:#ff0004;stroke-width:0.465002;stroke-linecap:round;stroke-linejoin:round;stroke-opacity:1"
         id="path1712"
         cx="105.43"
         cy="152.21367"
         rx="11.958836"
         ry="11.660258" />
      <ellipse
         style="fill:none;stroke:#ff0004;stroke-width:0.465002;stroke-linecap:round;stroke-linejoin:round;stroke-opacity:1"
         id="ellipse869"
         cx="121.69134"
         cy="152.21367"
         rx="11.958836"
         ry="11.660258" />
    </g>
    <ellipse
       style="fill:none;stroke:#ff0002;stroke-width:0.465002;stroke-linecap:round;stroke-linejoin:round;stroke-opacity:1"
       id="ellipse871"
       cx="113.56067"
       cy="166.14294"
       rx="11.958836"
       ry="11.660258" />
    <g
       inkscape:label=""
       transform="translate(93.427654,141.10904)"
       id="g1261">
      <g
         fill="#000000"
         fill-opacity="1"
         id="g11"
         transform="matrix(0.423333,0,0,0.423333,-39.0604,-31.6748)">
        <g
           id="use9"
           transform="translate(91.925003,81.962997)">
          <path
             d="M 1.78125,-1.140625 C 1.390625,-0.484375 1,-0.34375 0.5625,-0.3125 0.4375,-0.296875 0.34375,-0.296875 0.34375,-0.109375 0.34375,-0.046875 0.40625,0 0.484375,0 0.75,0 1.0625,-0.03125 1.328125,-0.03125 c 0.34375,0 0.6875,0.03125 1,0.03125 0.0625,0 0.1875,0 0.1875,-0.1875 0,-0.109375 -0.078125,-0.125 -0.15625,-0.125 -0.21875,-0.015625 -0.46875,-0.09375 -0.46875,-0.34375 0,-0.125 0.0625,-0.234375 0.140625,-0.375 l 0.765625,-1.265625 h 2.5 c 0.015625,0.203125 0.15625,1.5625 0.15625,1.65625 0,0.296875 -0.515625,0.328125 -0.71875,0.328125 C 4.59375,-0.3125 4.5,-0.3125 4.5,-0.109375 4.5,0 4.609375,0 4.640625,0 5.046875,0 5.46875,-0.03125 5.875,-0.03125 6.125,-0.03125 6.765625,0 7.015625,0 7.0625,0 7.1875,0 7.1875,-0.203125 7.1875,-0.3125 7.09375,-0.3125 6.953125,-0.3125 6.34375,-0.3125 6.34375,-0.375 6.3125,-0.671875 l -0.609375,-6.21875 c -0.015625,-0.203125 -0.015625,-0.25 -0.1875,-0.25 -0.15625,0 -0.203125,0.078125 -0.265625,0.171875 z M 2.984375,-2.609375 4.9375,-5.90625 5.265625,-2.609375 Z m 0,0"
             id="path17" />
        </g>
      </g>
    </g>
    <g
       inkscape:label=""
       transform="translate(131.93802,142.11749)"
       id="g1302">
      <g
         fill="#000000"
         fill-opacity="1"
         id="g1300"
         transform="matrix(0.423333,0,0,0.423333,-39.0935,-31.8137)">
        <g
           id="g1298"
           transform="translate(91.925003,81.962997)">
          <path
             d="M 1.59375,-0.78125 C 1.5,-0.390625 1.46875,-0.3125 0.6875,-0.3125 c -0.171875,0 -0.265625,0 -0.265625,0.203125 C 0.421875,0 0.515625,0 0.6875,0 H 4.25 C 5.828125,0 7,-1.171875 7,-2.15625 7,-2.875 6.421875,-3.453125 5.453125,-3.5625 6.484375,-3.75 7.53125,-4.484375 7.53125,-5.4375 c 0,-0.734375 -0.65625,-1.375 -1.84375,-1.375 H 2.328125 c -0.1875,0 -0.28125,0 -0.28125,0.203125 0,0.109375 0.09375,0.109375 0.28125,0.109375 0.015625,0 0.203125,0 0.375,0.015625 0.171875,0.03125 0.265625,0.03125 0.265625,0.171875 0,0.03125 -0.015625,0.0625 -0.03125,0.1875 z m 1.5,-2.875 0.625,-2.46875 C 3.8125,-6.46875 3.828125,-6.5 4.25,-6.5 h 1.296875 c 0.875,0 1.078125,0.59375 1.078125,1.03125 0,0.875 -0.859375,1.8125 -2.0625,1.8125 z m -0.4375,3.34375 c -0.140625,0 -0.15625,0 -0.21875,0 -0.109375,-0.015625 -0.140625,-0.03125 -0.140625,-0.109375 0,-0.03125 0,-0.046875 0.0625,-0.21875 l 0.6875,-2.78125 h 1.875 c 0.953125,0 1.15625,0.734375 1.15625,1.15625 C 6.078125,-1.28125 5.1875,-0.3125 4,-0.3125 Z m 0,0"
             id="path1296" />
        </g>
      </g>
    </g>
    <g
       inkscape:label=""
       transform="translate(124.87884,171.11057)"
       id="g1346">
      <g
         fill="#000000"
         fill-opacity="1"
         id="g1344"
         transform="matrix(0.423333,0,0,0.423333,-39.1266,-31.7211)">
        <g
           id="g1342"
           transform="translate(91.925003,81.962997)">
          <path
             d="m 7.578125,-6.921875 c 0,-0.03125 -0.015625,-0.109375 -0.109375,-0.109375 -0.03125,0 -0.046875,0.015625 -0.15625,0.125 L 6.625,-6.140625 C 6.53125,-6.28125 6.078125,-7.03125 4.96875,-7.03125 2.734375,-7.03125 0.5,-4.828125 0.5,-2.515625 0.5,-0.875 1.671875,0.21875 3.203125,0.21875 c 0.859375,0 1.625,-0.390625 2.15625,-0.859375 0.921875,-0.8125 1.09375,-1.71875 1.09375,-1.75 C 6.453125,-2.5 6.34375,-2.5 6.328125,-2.5 c -0.0625,0 -0.109375,0.03125 -0.125,0.109375 -0.09375,0.28125 -0.328125,1 -1.015625,1.578125 -0.6875,0.546875 -1.3125,0.71875 -1.828125,0.71875 -0.890625,0 -1.953125,-0.515625 -1.953125,-2.0625 0,-0.578125 0.203125,-2.1875 1.203125,-3.359375 0.609375,-0.703125 1.546875,-1.203125 2.4375,-1.203125 1.015625,0 1.609375,0.765625 1.609375,1.921875 0,0.40625 -0.03125,0.40625 -0.03125,0.515625 0,0.09375 0.109375,0.09375 0.140625,0.09375 0.125,0 0.125,-0.015625 0.1875,-0.203125 z m 0,0"
             id="path1340" />
        </g>
      </g>
    </g>
    <path
       style="opacity:0.412811;fill:#ff0005;fill-opacity:0.411765;stroke:#ff0002;stroke-width:1.75748;stroke-linecap:round;stroke-linejoin:round"
       d="M 29.538991,84.832054 C 25.298793,83.112042 22.900147,81.776103 19.332809,79.147666 5.7612038,69.148025 -0.63787982,52.334486 2.8841119,35.928851 5.5405307,23.555104 14.119417,12.61475 25.738309,6.7836932 30.371917,4.4582706 34.47867,3.1451392 39.624084,2.3437268 c 3.241656,-0.504897 9.724305,-0.4994943 13.022021,0.010853 7.751093,1.1995415 15.397283,4.4939357 21.191513,9.1304572 l 1.402047,1.121913 -1.507363,1.597885 c -5.927346,6.283299 -9.822713,13.769983 -11.580085,22.256302 -0.716618,3.460524 -0.897628,11.185418 -0.345911,14.762156 0.221759,1.437644 0.457978,2.844605 0.524934,3.126576 0.100459,0.423067 -0.01324,0.542322 -0.650537,0.682296 -1.099227,0.241429 -4.771421,1.809756 -7.009748,2.993734 -4.0366,2.135188 -8.81302,5.750674 -11.727729,8.877248 -4.605048,4.939774 -8.320551,11.140297 -10.085169,16.830364 -0.30474,0.982648 -0.613409,1.860104 -0.685927,1.949905 -0.07252,0.0898 -1.257432,-0.293313 -2.633139,-0.851362 z"
       id="path1080"
       transform="matrix(0.26458333,0,0,0.26458333,93.238664,140.32091)" />
  </g>
</svg>
