<?xml version="1.0" encoding="UTF-8" standalone="no"?>
<!-- Created with Inkscape (http://www.inkscape.org/) -->

<svg
   width="91.854301mm"
   height="89.361031mm"
   viewBox="0 0 91.854301 89.361031"
   version="1.1"
   id="svg5"
   sodipodi:docname="fig-01.svg"
   inkscape:version="1.2.2 (b0a8486541, 2022-12-01)"
   xmlns:inkscape="http://www.inkscape.org/namespaces/inkscape"
   xmlns:sodipodi="http://sodipodi.sourceforge.net/DTD/sodipodi-0.dtd"
   xmlns="http://www.w3.org/2000/svg"
   xmlns:svg="http://www.w3.org/2000/svg">
  <sodipodi:namedview
     id="namedview7"
     pagecolor="#ffffff"
     bordercolor="#666666"
     borderopacity="1.0"
     inkscape:showpageshadow="2"
     inkscape:pageopacity="0.0"
     inkscape:pagecheckerboard="0"
     inkscape:deskcolor="#d1d1d1"
     inkscape:document-units="mm"
     showgrid="false"
     inkscape:zoom="2.0989207"
     inkscape:cx="157.93832"
     inkscape:cy="192.24166"
     inkscape:window-width="1920"
     inkscape:window-height="1014"
     inkscape:window-x="0"
     inkscape:window-y="0"
     inkscape:window-maximized="1"
     inkscape:current-layer="layer1" />
  <defs
     id="defs2" />
  <g
     inkscape:label="Capa 1"
     inkscape:groupmode="layer"
     id="layer1"
     transform="translate(-15.777008,-48.346334)">
    <circle
       style="opacity:0.921708;fill:none;stroke:#0019ff;stroke-width:1;stroke-linecap:round;stroke-linejoin:round;stroke-dasharray:none;stroke-opacity:1"
       id="path234"
       cx="34.495499"
       cy="65.514702"
       r="16.668367" />
    <g
       inkscape:label=""
       transform="translate(15.777,50.183418)"
       id="g1478">
      <g
         fill="#000000"
         fill-opacity="1"
         id="g11"
         transform="matrix(0.423333,0,0,0.423333,-39.0604,-31.6748)">
        <g
           id="use9"
           transform="translate(91.925003,81.962997)">
          <path
             d="M 1.78125,-1.140625 C 1.390625,-0.484375 1,-0.34375 0.5625,-0.3125 0.4375,-0.296875 0.34375,-0.296875 0.34375,-0.109375 0.34375,-0.046875 0.40625,0 0.484375,0 0.75,0 1.0625,-0.03125 1.328125,-0.03125 c 0.34375,0 0.6875,0.03125 1,0.03125 0.0625,0 0.1875,0 0.1875,-0.1875 0,-0.109375 -0.078125,-0.125 -0.15625,-0.125 -0.21875,-0.015625 -0.46875,-0.09375 -0.46875,-0.34375 0,-0.125 0.0625,-0.234375 0.140625,-0.375 l 0.765625,-1.265625 h 2.5 c 0.015625,0.203125 0.15625,1.5625 0.15625,1.65625 0,0.296875 -0.515625,0.328125 -0.71875,0.328125 C 4.59375,-0.3125 4.5,-0.3125 4.5,-0.109375 4.5,0 4.609375,0 4.640625,0 5.046875,0 5.46875,-0.03125 5.875,-0.03125 6.125,-0.03125 6.765625,0 7.015625,0 7.0625,0 7.1875,0 7.1875,-0.203125 7.1875,-0.3125 7.09375,-0.3125 6.953125,-0.3125 6.34375,-0.3125 6.34375,-0.375 6.3125,-0.671875 l -0.609375,-6.21875 c -0.015625,-0.203125 -0.015625,-0.25 -0.1875,-0.25 -0.15625,0 -0.203125,0.078125 -0.265625,0.171875 z M 2.984375,-2.609375 4.9375,-5.90625 5.265625,-2.609375 Z m 0,0"
             id="path17" />
        </g>
      </g>
    </g>
    <g
       inkscape:label=""
       transform="translate(22.818717,65.125078)"
       id="g2288">
      <g
         fill="#000000"
         fill-opacity="1"
         id="g2286"
         transform="matrix(0.423333,0,0,0.423333,-39.0935,-32.8059)">
        <g
           id="g2284"
           transform="translate(91.925003,81.962997)">
          <path
             d="m 3.3125,-0.75 c 0.046875,0.390625 0.3125,0.8125 0.78125,0.8125 0.21875,0 0.828125,-0.140625 0.828125,-0.953125 v -0.5625 h -0.25 v 0.5625 c 0,0.578125 -0.25,0.640625 -0.359375,0.640625 -0.328125,0 -0.375,-0.453125 -0.375,-0.5 v -1.984375 c 0,-0.421875 0,-0.8125 -0.359375,-1.1875 C 3.1875,-4.3125 2.6875,-4.46875 2.21875,-4.46875 c -0.828125,0 -1.515625,0.46875 -1.515625,1.125 0,0.296875 0.203125,0.46875 0.46875,0.46875 0.28125,0 0.453125,-0.203125 0.453125,-0.453125 0,-0.125 -0.046875,-0.453125 -0.515625,-0.453125 C 1.390625,-4.140625 1.875,-4.25 2.1875,-4.25 c 0.5,0 1.0625,0.390625 1.0625,1.28125 v 0.359375 c -0.515625,0.03125 -1.203125,0.0625 -1.828125,0.359375 -0.75,0.34375 -1,0.859375 -1,1.296875 0,0.8125 0.96875,1.0625 1.59375,1.0625 0.65625,0 1.109375,-0.40625 1.296875,-0.859375 z M 3.25,-2.390625 v 1 c 0,0.9375 -0.71875,1.28125 -1.171875,1.28125 -0.484375,0 -0.890625,-0.34375 -0.890625,-0.84375 0,-0.546875 0.421875,-1.375 2.0625,-1.4375 z m 0,0"
             id="path2282" />
        </g>
      </g>
    </g>
    <g
       inkscape:label=""
       transform="translate(39.932762,68.18882)"
       id="g2326">
      <g
         fill="#000000"
         fill-opacity="1"
         id="g2324"
         transform="matrix(0.423333,0,0,0.423333,-39.034,-32.8059)">
        <g
           id="g2322"
           transform="translate(91.925003,81.962997)">
          <path
             d="M 1.109375,-2.515625 C 1.171875,-4 2.015625,-4.25 2.359375,-4.25 c 1.015625,0 1.125,1.34375 1.125,1.734375 z m 0,0.21875 h 2.78125 c 0.21875,0 0.25,0 0.25,-0.21875 0,-0.984375 -0.546875,-1.953125 -1.78125,-1.953125 -1.15625,0 -2.078125,1.03125 -2.078125,2.28125 0,1.328125 1.046875,2.296875 2.1875,2.296875 C 3.6875,0.109375 4.140625,-1 4.140625,-1.1875 4.140625,-1.28125 4.0625,-1.3125 4,-1.3125 c -0.078125,0 -0.109375,0.0625 -0.125,0.140625 -0.34375,1.03125 -1.25,1.03125 -1.34375,1.03125 -0.5,0 -0.890625,-0.296875 -1.125,-0.671875 -0.296875,-0.46875 -0.296875,-1.125 -0.296875,-1.484375 z m 0,0"
             id="path2320" />
        </g>
      </g>
    </g>
    <g
       inkscape:label=""
       transform="translate(39.932762,57.670813)"
       id="g2372">
      <g
         fill="#000000"
         fill-opacity="1"
         id="g2370"
         transform="matrix(0.423333,0,0,0.423333,-39.0538,-31.8732)">
        <g
           id="g2368"
           transform="translate(91.925003,81.962997)">
          <path
             d="M 1.765625,-4.40625 0.375,-4.296875 v 0.3125 c 0.640625,0 0.734375,0.0625 0.734375,0.546875 V -0.75 c 0,0.4375 -0.109375,0.4375 -0.78125,0.4375 V 0 C 0.640625,-0.015625 1.1875,-0.03125 1.421875,-0.03125 1.78125,-0.03125 2.125,-0.015625 2.46875,0 v -0.3125 c -0.671875,0 -0.703125,-0.046875 -0.703125,-0.4375 z m 0.03125,-1.734375 c 0,-0.3125 -0.234375,-0.53125 -0.515625,-0.53125 -0.3125,0 -0.53125,0.265625 -0.53125,0.53125 0,0.265625 0.21875,0.53125 0.53125,0.53125 0.28125,0 0.515625,-0.21875 0.515625,-0.53125 z m 0,0"
             id="path2366" />
        </g>
      </g>
    </g>
    <g
       inkscape:label=""
       transform="translate(29.593027,75.854486)"
       id="g2426">
      <g
         fill="#000000"
         fill-opacity="1"
         id="g2424"
         transform="matrix(0.423333,0,0,0.423333,-39.034,-32.8059)">
        <g
           id="g2422"
           transform="translate(91.925003,81.962997)">
          <path
             d="M 4.6875,-2.140625 C 4.6875,-3.40625 3.703125,-4.46875 2.5,-4.46875 c -1.25,0 -2.21875,1.09375 -2.21875,2.328125 0,1.296875 1.03125,2.25 2.203125,2.25 1.203125,0 2.203125,-0.984375 2.203125,-2.25 z m -2.1875,2 c -0.4375,0 -0.875,-0.203125 -1.140625,-0.671875 -0.25,-0.4375 -0.25,-1.046875 -0.25,-1.40625 0,-0.390625 0,-0.921875 0.234375,-1.359375 C 1.609375,-4.03125 2.078125,-4.25 2.484375,-4.25 c 0.4375,0 0.859375,0.21875 1.125,0.65625 0.265625,0.421875 0.265625,1 0.265625,1.375 0,0.359375 0,0.90625 -0.21875,1.34375 C 3.421875,-0.421875 2.984375,-0.140625 2.5,-0.140625 Z m 0,0"
             id="path2420" />
        </g>
      </g>
    </g>
    <g
       inkscape:label=""
       transform="translate(28.478832,56.779457)"
       id="g2488">
      <g
         fill="#000000"
         fill-opacity="1"
         id="g2486"
         transform="matrix(0.423333,0,0,0.423333,-39.0472,-32.8324)">
        <g
           id="g2484"
           transform="translate(91.925003,81.962997)">
          <path
             d="M 3.890625,-0.78125 V 0.109375 L 5.328125,0 V -0.3125 C 4.640625,-0.3125 4.5625,-0.375 4.5625,-0.875 v -3.53125 l -1.46875,0.109375 v 0.3125 c 0.6875,0 0.78125,0.0625 0.78125,0.5625 v 1.765625 c 0,0.875 -0.484375,1.546875 -1.21875,1.546875 -0.828125,0 -0.875,-0.46875 -0.875,-0.984375 v -3.3125 L 0.3125,-4.296875 v 0.3125 c 0.78125,0 0.78125,0.03125 0.78125,0.90625 v 1.5 c 0,0.78125 0,1.6875 1.515625,1.6875 0.5625,0 1,-0.28125 1.28125,-0.890625 z m 0,0"
             id="path2482" />
        </g>
      </g>
    </g>
    <g
       inkscape:label=""
       transform="translate(16.40095,80.311269)"
       id="g2558">
      <g
         fill="#000000"
         fill-opacity="1"
         id="g2556"
         transform="matrix(0.423333,0,0,0.423333,-39.034,-32.8324)">
        <g
           id="g2554"
           transform="translate(91.925003,81.962997)">
          <path
             d="m 1.71875,-3.75 v -0.65625 l -1.4375,0.109375 v 0.3125 c 0.703125,0 0.78125,0.0625 0.78125,0.5 v 4.65625 C 1.0625,1.625 0.953125,1.625 0.28125,1.625 V 1.9375 C 0.625,1.921875 1.140625,1.90625 1.390625,1.90625 c 0.28125,0 0.78125,0.015625 1.125,0.03125 V 1.625 C 1.859375,1.625 1.75,1.625 1.75,1.171875 V -0.59375 c 0.046875,0.171875 0.46875,0.703125 1.21875,0.703125 1.1875,0 2.21875,-0.984375 2.21875,-2.265625 0,-1.265625 -0.953125,-2.25 -2.078125,-2.25 -0.78125,0 -1.203125,0.4375 -1.390625,0.65625 z M 1.75,-1.140625 v -2.21875 C 2.03125,-3.875 2.515625,-4.15625 3.03125,-4.15625 c 0.734375,0 1.328125,0.875 1.328125,2 0,1.203125 -0.6875,2.046875 -1.421875,2.046875 -0.40625,0 -0.78125,-0.203125 -1.046875,-0.609375 C 1.75,-0.921875 1.75,-0.9375 1.75,-1.140625 Z m 0,0"
             id="path2552" />
        </g>
      </g>
    </g>
    <g
       inkscape:label=""
       transform="translate(24.141398,86.327926)"
       id="g2663">
      <g
         fill="#000000"
         fill-opacity="1"
         id="g32"
         transform="matrix(0.423333,0,0,0.423333,-39.2192,-31.5293)">
        <g
           id="use30"
           transform="translate(91.925003,81.962997)">
          <path
             d="m 2.828125,-6.15625 c 0,-0.390625 0.25,-1.03125 1.34375,-1.09375 C 4.21875,-7.265625 4.25,-7.3125 4.25,-7.359375 c 0,-0.125 -0.078125,-0.125 -0.1875,-0.125 -0.984375,0 -1.90625,0.515625 -1.90625,1.25 v 2.28125 c 0,0.390625 0,0.703125 -0.40625,1.03125 -0.34375,0.296875 -0.71875,0.3125 -0.9375,0.3125 C 0.75,-2.59375 0.71875,-2.546875 0.71875,-2.5 c 0,0.109375 0.0625,0.109375 0.15625,0.125 0.65625,0.03125 1.140625,0.390625 1.25,0.875 0.03125,0.109375 0.03125,0.140625 0.03125,0.5 v 1.96875 c 0,0.421875 0,0.734375 0.46875,1.109375 C 3.015625,2.375 3.671875,2.5 4.0625,2.5 4.171875,2.5 4.25,2.5 4.25,2.375 4.25,2.28125 4.203125,2.28125 4.09375,2.265625 3.46875,2.234375 2.984375,1.90625 2.84375,1.40625 2.828125,1.3125 2.828125,1.296875 2.828125,0.9375 v -2.09375 c 0,-0.453125 -0.09375,-0.625 -0.40625,-0.953125 C 2.21875,-2.3125 1.921875,-2.40625 1.640625,-2.5 c 0.828125,-0.21875 1.1875,-0.6875 1.1875,-1.265625 z m 0,0"
             id="path78" />
        </g>
      </g>
      <g
         fill="#000000"
         fill-opacity="1"
         id="g36"
         transform="matrix(0.423333,0,0,0.423333,-39.2192,-31.5293)">
        <g
           id="use34"
           transform="translate(96.906998,81.962997)">
          <path
             d="m 3.3125,-0.75 c 0.046875,0.390625 0.3125,0.8125 0.78125,0.8125 0.21875,0 0.828125,-0.140625 0.828125,-0.953125 v -0.5625 h -0.25 v 0.5625 c 0,0.578125 -0.25,0.640625 -0.359375,0.640625 -0.328125,0 -0.375,-0.453125 -0.375,-0.5 v -1.984375 c 0,-0.421875 0,-0.8125 -0.359375,-1.1875 C 3.1875,-4.3125 2.6875,-4.46875 2.21875,-4.46875 c -0.828125,0 -1.515625,0.46875 -1.515625,1.125 0,0.296875 0.203125,0.46875 0.46875,0.46875 0.28125,0 0.453125,-0.203125 0.453125,-0.453125 0,-0.125 -0.046875,-0.453125 -0.515625,-0.453125 C 1.390625,-4.140625 1.875,-4.25 2.1875,-4.25 c 0.5,0 1.0625,0.390625 1.0625,1.28125 v 0.359375 c -0.515625,0.03125 -1.203125,0.0625 -1.828125,0.359375 -0.75,0.34375 -1,0.859375 -1,1.296875 0,0.8125 0.96875,1.0625 1.59375,1.0625 0.65625,0 1.109375,-0.40625 1.296875,-0.859375 z M 3.25,-2.390625 v 1 c 0,0.9375 -0.71875,1.28125 -1.171875,1.28125 -0.484375,0 -0.890625,-0.34375 -0.890625,-0.84375 0,-0.546875 0.421875,-1.375 2.0625,-1.4375 z m 0,0"
             id="path82" />
        </g>
      </g>
      <g
         fill="#000000"
         fill-opacity="1"
         id="g40"
         transform="matrix(0.423333,0,0,0.423333,-39.2192,-31.5293)">
        <g
           id="use38"
           transform="translate(101.888,81.962997)">
          <path
             d="m 2.03125,-0.015625 c 0,-0.65625 -0.25,-1.046875 -0.640625,-1.046875 -0.328125,0 -0.53125,0.25 -0.53125,0.53125 C 0.859375,-0.265625 1.0625,0 1.390625,0 1.5,0 1.640625,-0.046875 1.734375,-0.125 1.765625,-0.15625 1.78125,-0.15625 1.78125,-0.15625 c 0.015625,0 0.015625,0 0.015625,0.140625 0,0.75 -0.34375,1.34375 -0.671875,1.671875 -0.109375,0.109375 -0.109375,0.125 -0.109375,0.15625 0,0.078125 0.046875,0.109375 0.09375,0.109375 0.109375,0 0.921875,-0.765625 0.921875,-1.9375 z m 0,0"
             id="path86" />
        </g>
      </g>
      <g
         fill="#000000"
         fill-opacity="1"
         id="g44"
         transform="matrix(0.423333,0,0,0.423333,-39.2192,-31.5293)">
        <g
           id="use42"
           transform="translate(106.316,81.962997)">
          <path
             d="M 1.109375,-2.515625 C 1.171875,-4 2.015625,-4.25 2.359375,-4.25 c 1.015625,0 1.125,1.34375 1.125,1.734375 z m 0,0.21875 h 2.78125 c 0.21875,0 0.25,0 0.25,-0.21875 0,-0.984375 -0.546875,-1.953125 -1.78125,-1.953125 -1.15625,0 -2.078125,1.03125 -2.078125,2.28125 0,1.328125 1.046875,2.296875 2.1875,2.296875 C 3.6875,0.109375 4.140625,-1 4.140625,-1.1875 4.140625,-1.28125 4.0625,-1.3125 4,-1.3125 c -0.078125,0 -0.109375,0.0625 -0.125,0.140625 -0.34375,1.03125 -1.25,1.03125 -1.34375,1.03125 -0.5,0 -0.890625,-0.296875 -1.125,-0.671875 -0.296875,-0.46875 -0.296875,-1.125 -0.296875,-1.484375 z m 0,0"
             id="path90" />
        </g>
      </g>
      <g
         fill="#000000"
         fill-opacity="1"
         id="g48"
         transform="matrix(0.423333,0,0,0.423333,-39.2192,-31.5293)">
        <g
           id="use46"
           transform="translate(110.744,81.962997)">
          <path
             d="m 2.03125,-0.015625 c 0,-0.65625 -0.25,-1.046875 -0.640625,-1.046875 -0.328125,0 -0.53125,0.25 -0.53125,0.53125 C 0.859375,-0.265625 1.0625,0 1.390625,0 1.5,0 1.640625,-0.046875 1.734375,-0.125 1.765625,-0.15625 1.78125,-0.15625 1.78125,-0.15625 c 0.015625,0 0.015625,0 0.015625,0.140625 0,0.75 -0.34375,1.34375 -0.671875,1.671875 -0.109375,0.109375 -0.109375,0.125 -0.109375,0.15625 0,0.078125 0.046875,0.109375 0.09375,0.109375 0.109375,0 0.921875,-0.765625 0.921875,-1.9375 z m 0,0"
             id="path94" />
        </g>
      </g>
      <g
         fill="#000000"
         fill-opacity="1"
         id="g52"
         transform="matrix(0.423333,0,0,0.423333,-39.2192,-31.5293)">
        <g
           id="use50"
           transform="translate(115.171,81.962997)">
          <path
             d="M 1.765625,-4.40625 0.375,-4.296875 v 0.3125 c 0.640625,0 0.734375,0.0625 0.734375,0.546875 V -0.75 c 0,0.4375 -0.109375,0.4375 -0.78125,0.4375 V 0 C 0.640625,-0.015625 1.1875,-0.03125 1.421875,-0.03125 1.78125,-0.03125 2.125,-0.015625 2.46875,0 v -0.3125 c -0.671875,0 -0.703125,-0.046875 -0.703125,-0.4375 z m 0.03125,-1.734375 c 0,-0.3125 -0.234375,-0.53125 -0.515625,-0.53125 -0.3125,0 -0.53125,0.265625 -0.53125,0.53125 0,0.265625 0.21875,0.53125 0.53125,0.53125 0.28125,0 0.515625,-0.21875 0.515625,-0.53125 z m 0,0"
             id="path98" />
        </g>
      </g>
      <g
         fill="#000000"
         fill-opacity="1"
         id="g56"
         transform="matrix(0.423333,0,0,0.423333,-39.2192,-31.5293)">
        <g
           id="use54"
           transform="translate(117.939,81.962997)">
          <path
             d="m 2.03125,-0.015625 c 0,-0.65625 -0.25,-1.046875 -0.640625,-1.046875 -0.328125,0 -0.53125,0.25 -0.53125,0.53125 C 0.859375,-0.265625 1.0625,0 1.390625,0 1.5,0 1.640625,-0.046875 1.734375,-0.125 1.765625,-0.15625 1.78125,-0.15625 1.78125,-0.15625 c 0.015625,0 0.015625,0 0.015625,0.140625 0,0.75 -0.34375,1.34375 -0.671875,1.671875 -0.109375,0.109375 -0.109375,0.125 -0.109375,0.15625 0,0.078125 0.046875,0.109375 0.09375,0.109375 0.109375,0 0.921875,-0.765625 0.921875,-1.9375 z m 0,0"
             id="path102" />
        </g>
      </g>
      <g
         fill="#000000"
         fill-opacity="1"
         id="g60"
         transform="matrix(0.423333,0,0,0.423333,-39.2192,-31.5293)">
        <g
           id="use58"
           transform="translate(122.367,81.962997)">
          <path
             d="M 4.6875,-2.140625 C 4.6875,-3.40625 3.703125,-4.46875 2.5,-4.46875 c -1.25,0 -2.21875,1.09375 -2.21875,2.328125 0,1.296875 1.03125,2.25 2.203125,2.25 1.203125,0 2.203125,-0.984375 2.203125,-2.25 z m -2.1875,2 c -0.4375,0 -0.875,-0.203125 -1.140625,-0.671875 -0.25,-0.4375 -0.25,-1.046875 -0.25,-1.40625 0,-0.390625 0,-0.921875 0.234375,-1.359375 C 1.609375,-4.03125 2.078125,-4.25 2.484375,-4.25 c 0.4375,0 0.859375,0.21875 1.125,0.65625 0.265625,0.421875 0.265625,1 0.265625,1.375 0,0.359375 0,0.90625 -0.21875,1.34375 C 3.421875,-0.421875 2.984375,-0.140625 2.5,-0.140625 Z m 0,0"
             id="path106" />
        </g>
      </g>
      <g
         fill="#000000"
         fill-opacity="1"
         id="g64"
         transform="matrix(0.423333,0,0,0.423333,-39.2192,-31.5293)">
        <g
           id="use62"
           transform="translate(127.348,81.962997)">
          <path
             d="m 2.03125,-0.015625 c 0,-0.65625 -0.25,-1.046875 -0.640625,-1.046875 -0.328125,0 -0.53125,0.25 -0.53125,0.53125 C 0.859375,-0.265625 1.0625,0 1.390625,0 1.5,0 1.640625,-0.046875 1.734375,-0.125 1.765625,-0.15625 1.78125,-0.15625 1.78125,-0.15625 c 0.015625,0 0.015625,0 0.015625,0.140625 0,0.75 -0.34375,1.34375 -0.671875,1.671875 -0.109375,0.109375 -0.109375,0.125 -0.109375,0.15625 0,0.078125 0.046875,0.109375 0.09375,0.109375 0.109375,0 0.921875,-0.765625 0.921875,-1.9375 z m 0,0"
             id="path110" />
        </g>
      </g>
      <g
         fill="#000000"
         fill-opacity="1"
         id="g68"
         transform="matrix(0.423333,0,0,0.423333,-39.2192,-31.5293)">
        <g
           id="use66"
           transform="translate(131.776,81.962997)">
          <path
             d="M 3.890625,-0.78125 V 0.109375 L 5.328125,0 V -0.3125 C 4.640625,-0.3125 4.5625,-0.375 4.5625,-0.875 v -3.53125 l -1.46875,0.109375 v 0.3125 c 0.6875,0 0.78125,0.0625 0.78125,0.5625 v 1.765625 c 0,0.875 -0.484375,1.546875 -1.21875,1.546875 -0.828125,0 -0.875,-0.46875 -0.875,-0.984375 v -3.3125 L 0.3125,-4.296875 v 0.3125 c 0.78125,0 0.78125,0.03125 0.78125,0.90625 v 1.5 c 0,0.78125 0,1.6875 1.515625,1.6875 0.5625,0 1,-0.28125 1.28125,-0.890625 z m 0,0"
             id="path114" />
        </g>
      </g>
      <g
         fill="#000000"
         fill-opacity="1"
         id="g72"
         transform="matrix(0.423333,0,0,0.423333,-39.2192,-31.5293)">
        <g
           id="use70"
           transform="translate(137.311,81.962997)">
          <path
             d="m 2.15625,1.171875 c 0,0.390625 -0.265625,1.03125 -1.34375,1.09375 C 0.75,2.28125 0.71875,2.328125 0.71875,2.375 0.71875,2.5 0.828125,2.5 0.921875,2.5 1.890625,2.5 2.8125,2 2.828125,1.25 v -2.28125 c 0,-0.390625 0,-0.703125 0.390625,-1.03125 C 3.5625,-2.359375 3.953125,-2.375 4.171875,-2.375 4.21875,-2.390625 4.25,-2.4375 4.25,-2.5 4.25,-2.59375 4.203125,-2.59375 4.09375,-2.609375 3.4375,-2.640625 2.953125,-3 2.84375,-3.484375 2.828125,-3.59375 2.828125,-3.625 2.828125,-3.984375 v -1.96875 c 0,-0.421875 0,-0.734375 -0.484375,-1.109375 C 1.9375,-7.375 1.25,-7.484375 0.921875,-7.484375 c -0.09375,0 -0.203125,0 -0.203125,0.125 0,0.09375 0.0625,0.09375 0.15625,0.109375 0.625,0.03125 1.125,0.359375 1.25,0.859375 0.03125,0.09375 0.03125,0.109375 0.03125,0.46875 v 2.09375 c 0,0.453125 0.078125,0.625 0.390625,0.953125 0.21875,0.203125 0.5,0.296875 0.78125,0.375 -0.8125,0.234375 -1.171875,0.703125 -1.171875,1.28125 z m 0,0"
             id="path118" />
        </g>
      </g>
    </g>
    <circle
       style="opacity:0.921708;fill:#000000;fill-opacity:1;stroke:none;stroke-width:1;stroke-linecap:round;stroke-linejoin:round;stroke-dasharray:none;stroke-opacity:1"
       id="path3064"
       cx="26.205881"
       cy="66.094086"
       r="0.49024612" />
    <circle
       style="opacity:0.921708;fill:#000000;fill-opacity:1;stroke:none;stroke-width:1;stroke-linecap:round;stroke-linejoin:round;stroke-dasharray:none;stroke-opacity:1"
       id="circle3066"
       cx="31.821428"
       cy="57.735195"
       r="0.49024612" />
    <circle
       style="opacity:0.921708;fill:#000000;fill-opacity:1;stroke:none;stroke-width:1;stroke-linecap:round;stroke-linejoin:round;stroke-dasharray:none;stroke-opacity:1"
       id="circle3068"
       cx="42.161163"
       cy="59.083042"
       r="0.49024612" />
    <circle
       style="opacity:0.921708;fill:#000000;fill-opacity:1;stroke:none;stroke-width:1;stroke-linecap:round;stroke-linejoin:round;stroke-dasharray:none;stroke-opacity:1"
       id="circle3070"
       cx="43.007954"
       cy="69.157829"
       r="0.49024612" />
    <circle
       style="opacity:0.921708;fill:#000000;fill-opacity:1;stroke:none;stroke-width:1;stroke-linecap:round;stroke-linejoin:round;stroke-dasharray:none;stroke-opacity:1"
       id="circle3072"
       cx="33.069328"
       cy="76.823494"
       r="0.49024612" />
    <circle
       style="opacity:0.921708;fill:#000000;fill-opacity:1;stroke:none;stroke-width:1;stroke-linecap:round;stroke-linejoin:round;stroke-dasharray:none;stroke-opacity:1"
       id="circle3074"
       cx="19.966387"
       cy="81.653961"
       r="0.49024612" />
    <circle
       style="opacity:0.921708;fill:none;stroke:#ff000b;stroke-width:1;stroke-linecap:round;stroke-linejoin:round;stroke-dasharray:none;stroke-opacity:1"
       id="circle3076"
       cx="86.907265"
       cy="65.514702"
       r="16.668367" />
    <g
       inkscape:label=""
       transform="translate(72.921412,86.327926)"
       id="g6325">
      <g
         fill="#000000"
         fill-opacity="1"
         id="g6277"
         transform="matrix(0.423333,0,0,0.423333,-39.2192,-31.5293)">
        <g
           id="g6275"
           transform="translate(91.925003,81.962997)">
          <path
             d="m 2.828125,-6.15625 c 0,-0.390625 0.25,-1.03125 1.34375,-1.09375 C 4.21875,-7.265625 4.25,-7.3125 4.25,-7.359375 c 0,-0.125 -0.078125,-0.125 -0.1875,-0.125 -0.984375,0 -1.90625,0.515625 -1.90625,1.25 v 2.28125 c 0,0.390625 0,0.703125 -0.40625,1.03125 -0.34375,0.296875 -0.71875,0.3125 -0.9375,0.3125 C 0.75,-2.59375 0.71875,-2.546875 0.71875,-2.5 c 0,0.109375 0.0625,0.109375 0.15625,0.125 0.65625,0.03125 1.140625,0.390625 1.25,0.875 0.03125,0.109375 0.03125,0.140625 0.03125,0.5 v 1.96875 c 0,0.421875 0,0.734375 0.46875,1.109375 C 3.015625,2.375 3.671875,2.5 4.0625,2.5 4.171875,2.5 4.25,2.5 4.25,2.375 4.25,2.28125 4.203125,2.28125 4.09375,2.265625 3.46875,2.234375 2.984375,1.90625 2.84375,1.40625 2.828125,1.3125 2.828125,1.296875 2.828125,0.9375 v -2.09375 c 0,-0.453125 -0.09375,-0.625 -0.40625,-0.953125 C 2.21875,-2.3125 1.921875,-2.40625 1.640625,-2.5 c 0.828125,-0.21875 1.1875,-0.6875 1.1875,-1.265625 z m 0,0"
             id="path76" />
        </g>
      </g>
      <g
         fill="#000000"
         fill-opacity="1"
         id="g6282"
         transform="matrix(0.423333,0,0,0.423333,-39.2192,-31.5293)">
        <g
           id="g6280"
           transform="translate(96.906998,81.962997)">
          <path
             d="m 7.1875,-6.5 c 0,-0.3125 -0.03125,-0.34375 -0.34375,-0.34375 h -5.9375 c -0.3125,0 -0.34375,0.03125 -0.34375,0.34375 v 6.140625 C 0.5625,-0.046875 0.59375,0 0.921875,0 h 5.90625 C 7.15625,0 7.1875,-0.03125 7.1875,-0.34375 Z M 0.953125,-6.453125 H 6.78125 V -0.40625 H 0.953125 Z m 0,0"
             id="path80" />
        </g>
      </g>
      <g
         fill="#000000"
         fill-opacity="1"
         id="g6287"
         transform="matrix(0.423333,0,0,0.423333,-39.2192,-31.5293)">
        <g
           id="g6285"
           transform="translate(104.655,81.962997)">
          <path
             d="m 2.03125,-0.015625 c 0,-0.65625 -0.25,-1.046875 -0.640625,-1.046875 -0.328125,0 -0.53125,0.25 -0.53125,0.53125 C 0.859375,-0.265625 1.0625,0 1.390625,0 1.5,0 1.640625,-0.046875 1.734375,-0.125 1.765625,-0.15625 1.78125,-0.15625 1.78125,-0.15625 c 0.015625,0 0.015625,0 0.015625,0.140625 0,0.75 -0.34375,1.34375 -0.671875,1.671875 -0.109375,0.109375 -0.109375,0.125 -0.109375,0.15625 0,0.078125 0.046875,0.109375 0.09375,0.109375 0.109375,0 0.921875,-0.765625 0.921875,-1.9375 z m 0,0"
             id="path84" />
        </g>
      </g>
      <g
         fill="#000000"
         fill-opacity="1"
         id="g6292"
         transform="matrix(0.423333,0,0,0.423333,-39.2192,-31.5293)">
        <g
           id="g6290"
           transform="translate(109.083,81.962997)">
          <path
             d="m 6.921875,-2.5 c 0,0.828125 -0.3125,1.609375 -0.890625,2.1875 C 5.46875,0.265625 4.671875,0.578125 3.875,0.578125 3.046875,0.578125 2.265625,0.265625 1.6875,-0.3125 1.125,-0.890625 0.796875,-1.671875 0.796875,-2.5 0.796875,-3.3125 1.125,-4.09375 1.6875,-4.671875 2.265625,-5.25 3.046875,-5.5625 3.875,-5.5625 c 0.796875,0 1.59375,0.3125 2.15625,0.890625 C 6.609375,-4.09375 6.921875,-3.3125 6.921875,-2.5 Z M 1.53125,-4.84375 C 0.890625,-4.21875 0.546875,-3.375 0.546875,-2.5 c 0,0.890625 0.34375,1.734375 0.984375,2.359375 0.609375,0.625 1.453125,0.96875 2.34375,0.96875 0.875,0 1.71875,-0.34375 2.328125,-0.96875 0.625,-0.625 0.96875,-1.46875 0.96875,-2.359375 0,-0.875 -0.34375,-1.71875 -0.96875,-2.34375 C 5.59375,-5.46875 4.75,-5.8125 3.875,-5.8125 c -0.890625,0 -1.734375,0.34375 -2.34375,0.96875 z m 0,0"
             id="path88" />
        </g>
      </g>
      <g
         fill="#000000"
         fill-opacity="1"
         id="g6297"
         transform="matrix(0.423333,0,0,0.423333,-39.2192,-31.5293)">
        <g
           id="g6295"
           transform="translate(116.832,81.962997)">
          <path
             d="m 2.03125,-0.015625 c 0,-0.65625 -0.25,-1.046875 -0.640625,-1.046875 -0.328125,0 -0.53125,0.25 -0.53125,0.53125 C 0.859375,-0.265625 1.0625,0 1.390625,0 1.5,0 1.640625,-0.046875 1.734375,-0.125 1.765625,-0.15625 1.78125,-0.15625 1.78125,-0.15625 c 0.015625,0 0.015625,0 0.015625,0.140625 0,0.75 -0.34375,1.34375 -0.671875,1.671875 -0.109375,0.109375 -0.109375,0.125 -0.109375,0.15625 0,0.078125 0.046875,0.109375 0.09375,0.109375 0.109375,0 0.921875,-0.765625 0.921875,-1.9375 z m 0,0"
             id="path92" />
        </g>
      </g>
      <g
         fill="#000000"
         fill-opacity="1"
         id="g6302"
         transform="matrix(0.423333,0,0,0.423333,-39.2192,-31.5293)">
        <g
           id="g6300"
           transform="translate(121.26,81.962997)">
          <path
             d="m 4.640625,-6.953125 c -0.0625,-0.109375 -0.09375,-0.1875 -0.21875,-0.1875 -0.109375,0 -0.140625,0.046875 -0.21875,0.203125 l -3.53125,6.546875 c -0.078125,0.125 -0.078125,0.15625 -0.078125,0.1875 C 0.59375,0 0.796875,0 0.953125,0 h 6.96875 c 0.15625,0 0.34375,0 0.34375,-0.203125 0,-0.046875 -0.015625,-0.078125 -0.0625,-0.15625 z m -0.21875,0.4375 3.3125,6.109375 h -6.625 z m 0,0"
             id="path96" />
        </g>
      </g>
      <g
         fill="#000000"
         fill-opacity="1"
         id="g6307"
         transform="matrix(0.423333,0,0,0.423333,-39.2192,-31.5293)">
        <g
           id="g6305"
           transform="translate(130.11501,81.962997)">
          <path
             d="m 2.03125,-0.015625 c 0,-0.65625 -0.25,-1.046875 -0.640625,-1.046875 -0.328125,0 -0.53125,0.25 -0.53125,0.53125 C 0.859375,-0.265625 1.0625,0 1.390625,0 1.5,0 1.640625,-0.046875 1.734375,-0.125 1.765625,-0.15625 1.78125,-0.15625 1.78125,-0.15625 c 0.015625,0 0.015625,0 0.015625,0.140625 0,0.75 -0.34375,1.34375 -0.671875,1.671875 -0.109375,0.109375 -0.109375,0.125 -0.109375,0.15625 0,0.078125 0.046875,0.109375 0.09375,0.109375 0.109375,0 0.921875,-0.765625 0.921875,-1.9375 z m 0,0"
             id="path100" />
        </g>
      </g>
      <g
         fill="#000000"
         fill-opacity="1"
         id="g6312"
         transform="matrix(0.423333,0,0,0.423333,-39.2192,-31.5293)">
        <g
           id="g6310"
           transform="translate(134.543,81.962997)">
          <path
             d="m 0.59375,-2.9375 c -0.015625,0.03125 -0.046875,0.078125 -0.046875,0.125 0,0.09375 0.0625,0.140625 0.171875,0.25 C 2.15625,-1.25 3.125,0.34375 3.6875,1.484375 3.703125,1.53125 3.765625,1.625 3.875,1.625 4,1.625 4.03125,1.5625 4.109375,1.40625 c 0.578125,-1.1875 1.59375,-2.765625 2.953125,-4 0.109375,-0.09375 0.140625,-0.125 0.140625,-0.21875 0,-0.09375 -0.03125,-0.125 -0.171875,-0.25 C 6.125,-3.875 4.953125,-5.296875 4.0625,-7.109375 4.046875,-7.15625 4,-7.25 3.875,-7.25 3.765625,-7.25 3.734375,-7.1875 3.65625,-7.03125 3.125,-5.984375 2.203125,-4.453125 0.84375,-3.171875 Z M 3.875,0.984375 C 3.4375,0.15625 2.796875,-0.96875 1.71875,-2.125 1.5,-2.359375 1.265625,-2.609375 1.046875,-2.8125 1.28125,-3.015625 1.53125,-3.28125 1.75,-3.53125 c 1.125,-1.234375 1.8125,-2.5 2.125,-3.0625 0.4375,0.8125 1.09375,1.9375 2.171875,3.09375 0.203125,0.234375 0.4375,0.484375 0.65625,0.6875 -0.21875,0.203125 -0.46875,0.46875 -0.6875,0.71875 C 4.875,-0.859375 4.1875,0.40625 3.875,0.984375 Z m 0,0"
             id="path104" />
        </g>
      </g>
      <g
         fill="#000000"
         fill-opacity="1"
         id="g6317"
         transform="matrix(0.423333,0,0,0.423333,-39.2192,-31.5293)">
        <g
           id="g6315"
           transform="translate(142.29201,81.962997)">
          <path
             d="m 2.03125,-0.015625 c 0,-0.65625 -0.25,-1.046875 -0.640625,-1.046875 -0.328125,0 -0.53125,0.25 -0.53125,0.53125 C 0.859375,-0.265625 1.0625,0 1.390625,0 1.5,0 1.640625,-0.046875 1.734375,-0.125 1.765625,-0.15625 1.78125,-0.15625 1.78125,-0.15625 c 0.015625,0 0.015625,0 0.015625,0.140625 0,0.75 -0.34375,1.34375 -0.671875,1.671875 -0.109375,0.109375 -0.109375,0.125 -0.109375,0.15625 0,0.078125 0.046875,0.109375 0.09375,0.109375 0.109375,0 0.921875,-0.765625 0.921875,-1.9375 z m 0,0"
             id="path108" />
        </g>
      </g>
      <g
         fill="#000000"
         fill-opacity="1"
         id="g70"
         transform="matrix(0.423333,0,0,0.423333,-39.2192,-31.5293)">
        <g
           id="g6320"
           transform="translate(146.72,81.962997)">
          <path
             d="m 4,1.296875 c 0.171875,0 0.359375,0 0.359375,-0.203125 0,-0.03125 0,-0.046875 -0.046875,-0.15625 C 4.140625,0.34375 4.078125,-0.203125 4.078125,-0.703125 h 0.5 C 4.609375,0.125 5.5,0.21875 5.765625,0.21875 c 0.96875,0 1.71875,-0.890625 1.71875,-1.953125 0,-0.96875 -0.53125,-1.9375 -1.46875,-1.9375 -0.359375,0 -0.671875,0.140625 -0.90625,0.4375 l -0.21875,-0.46875 c 0.5,-0.40625 0.75,-0.984375 0.75,-1.59375 0,-1.046875 -0.75,-1.953125 -1.765625,-1.953125 -1,0 -1.765625,0.90625 -1.765625,1.953125 0,0.609375 0.265625,1.203125 0.765625,1.59375 l -0.21875,0.46875 c -0.25,-0.296875 -0.5625,-0.4375 -0.921875,-0.4375 -0.9375,0 -1.453125,0.96875 -1.453125,1.9375 0,1.0625 0.734375,1.953125 1.703125,1.953125 0.265625,0 1.15625,-0.09375 1.203125,-0.921875 h 0.484375 c 0,0.65625 -0.09375,1.15625 -0.25,1.6875 C 3.40625,1.0625 3.40625,1.078125 3.40625,1.09375 c 0,0.203125 0.171875,0.203125 0.34375,0.203125 z m 0,0"
             id="path112" />
        </g>
        <g
           id="use68"
           transform="translate(154.4689,81.962997)">
          <path
             d="m 2.15625,1.171875 c 0,0.390625 -0.265625,1.03125 -1.34375,1.09375 C 0.75,2.28125 0.71875,2.328125 0.71875,2.375 0.71875,2.5 0.828125,2.5 0.921875,2.5 1.890625,2.5 2.8125,2 2.828125,1.25 v -2.28125 c 0,-0.390625 0,-0.703125 0.390625,-1.03125 C 3.5625,-2.359375 3.953125,-2.375 4.171875,-2.375 4.21875,-2.390625 4.25,-2.4375 4.25,-2.5 4.25,-2.59375 4.203125,-2.59375 4.09375,-2.609375 3.4375,-2.640625 2.953125,-3 2.84375,-3.484375 2.828125,-3.59375 2.828125,-3.625 2.828125,-3.984375 v -1.96875 c 0,-0.421875 0,-0.734375 -0.484375,-1.109375 C 1.9375,-7.375 1.25,-7.484375 0.921875,-7.484375 c -0.09375,0 -0.203125,0 -0.203125,0.125 0,0.09375 0.0625,0.09375 0.15625,0.109375 0.625,0.03125 1.125,0.359375 1.25,0.859375 0.03125,0.09375 0.03125,0.109375 0.03125,0.46875 v 2.09375 c 0,0.453125 0.078125,0.625 0.390625,0.953125 0.21875,0.203125 0.5,0.296875 0.78125,0.375 -0.8125,0.234375 -1.171875,0.703125 -1.171875,1.28125 z m 0,0"
             id="path116" />
        </g>
      </g>
    </g>
    <g
       fill="#000000"
       fill-opacity="1"
       id="g26"
       transform="matrix(0.423333,0,0,0.423333,34.582412,30.454528)">
      <g
         id="use24"
         transform="translate(95.246002,81.962997)">
        <path
           d="m 7.1875,-6.5 c 0,-0.3125 -0.03125,-0.34375 -0.34375,-0.34375 h -5.9375 c -0.3125,0 -0.34375,0.03125 -0.34375,0.34375 v 6.140625 C 0.5625,-0.046875 0.59375,0 0.921875,0 h 5.90625 C 7.15625,0 7.1875,-0.03125 7.1875,-0.34375 Z M 0.953125,-6.453125 H 6.78125 V -0.40625 H 0.953125 Z m 0,0"
           id="path64" />
      </g>
    </g>
    <g
       fill="#000000"
       fill-opacity="1"
       id="g34"
       transform="matrix(0.423333,0,0,0.423333,39.306601,22.164912)">
      <g
         id="use32"
         transform="translate(107.423,81.962997)">
        <path
           d="m 6.921875,-2.5 c 0,0.828125 -0.3125,1.609375 -0.890625,2.1875 C 5.46875,0.265625 4.671875,0.578125 3.875,0.578125 3.046875,0.578125 2.265625,0.265625 1.6875,-0.3125 1.125,-0.890625 0.796875,-1.671875 0.796875,-2.5 0.796875,-3.3125 1.125,-4.09375 1.6875,-4.671875 2.265625,-5.25 3.046875,-5.5625 3.875,-5.5625 c 0.796875,0 1.59375,0.3125 2.15625,0.890625 C 6.609375,-4.09375 6.921875,-3.3125 6.921875,-2.5 Z M 1.53125,-4.84375 C 0.890625,-4.21875 0.546875,-3.375 0.546875,-2.5 c 0,0.890625 0.34375,1.734375 0.984375,2.359375 0.609375,0.625 1.453125,0.96875 2.34375,0.96875 0.875,0 1.71875,-0.34375 2.328125,-0.96875 0.625,-0.625 0.96875,-1.46875 0.96875,-2.359375 0,-0.875 -0.34375,-1.71875 -0.96875,-2.34375 C 5.59375,-5.46875 4.75,-5.8125 3.875,-5.8125 c -0.890625,0 -1.734375,0.34375 -2.34375,0.96875 z m 0,0"
           id="path72" />
      </g>
    </g>
    <g
       fill="#000000"
       fill-opacity="1"
       id="g42"
       transform="matrix(0.423333,0,0,0.423333,41.8024,30.721935)">
      <g
         id="use40"
         transform="translate(119.599,81.962997)">
        <path
           d="m 4.640625,-6.953125 c -0.0625,-0.109375 -0.09375,-0.1875 -0.21875,-0.1875 -0.109375,0 -0.140625,0.046875 -0.21875,0.203125 l -3.53125,6.546875 c -0.078125,0.125 -0.078125,0.15625 -0.078125,0.1875 C 0.59375,0 0.796875,0 0.953125,0 h 6.96875 c 0.15625,0 0.34375,0 0.34375,-0.203125 0,-0.046875 -0.015625,-0.078125 -0.0625,-0.15625 z m -0.21875,0.4375 3.3125,6.109375 h -6.625 z m 0,0"
           id="path7313" />
      </g>
    </g>
    <g
       fill="#000000"
       fill-opacity="1"
       id="g50"
       transform="matrix(0.423333,0,0,0.423333,22.994777,40.25945)">
      <g
         id="use48"
         transform="translate(132.883,81.962997)">
        <path
           d="m 0.59375,-2.9375 c -0.015625,0.03125 -0.046875,0.078125 -0.046875,0.125 0,0.09375 0.0625,0.140625 0.171875,0.25 C 2.15625,-1.25 3.125,0.34375 3.6875,1.484375 3.703125,1.53125 3.765625,1.625 3.875,1.625 4,1.625 4.03125,1.5625 4.109375,1.40625 c 0.578125,-1.1875 1.59375,-2.765625 2.953125,-4 0.109375,-0.09375 0.140625,-0.125 0.140625,-0.21875 0,-0.09375 -0.03125,-0.125 -0.171875,-0.25 C 6.125,-3.875 4.953125,-5.296875 4.0625,-7.109375 4.046875,-7.15625 4,-7.25 3.875,-7.25 3.765625,-7.25 3.734375,-7.1875 3.65625,-7.03125 3.125,-5.984375 2.203125,-4.453125 0.84375,-3.171875 Z M 3.875,0.984375 C 3.4375,0.15625 2.796875,-0.96875 1.71875,-2.125 1.5,-2.359375 1.265625,-2.609375 1.046875,-2.8125 1.28125,-3.015625 1.53125,-3.28125 1.75,-3.53125 c 1.125,-1.234375 1.8125,-2.5 2.125,-3.0625 0.4375,0.8125 1.09375,1.9375 2.171875,3.09375 0.203125,0.234375 0.4375,0.484375 0.65625,0.6875 -0.21875,0.203125 -0.46875,0.46875 -0.6875,0.71875 C 4.875,-0.859375 4.1875,0.40625 3.875,0.984375 Z m 0,0"
           id="path7321" />
      </g>
    </g>
    <g
       fill="#000000"
       fill-opacity="1"
       id="g58"
       transform="matrix(0.423333,0,0,0.423333,29.679951,41.329078)">
      <g
         id="use56"
         transform="translate(145.05901,81.962997)">
        <path
           d="m 4,1.296875 c 0.171875,0 0.359375,0 0.359375,-0.203125 0,-0.03125 0,-0.046875 -0.046875,-0.15625 C 4.140625,0.34375 4.078125,-0.203125 4.078125,-0.703125 h 0.5 C 4.609375,0.125 5.5,0.21875 5.765625,0.21875 c 0.96875,0 1.71875,-0.890625 1.71875,-1.953125 0,-0.96875 -0.53125,-1.9375 -1.46875,-1.9375 -0.359375,0 -0.671875,0.140625 -0.90625,0.4375 l -0.21875,-0.46875 c 0.5,-0.40625 0.75,-0.984375 0.75,-1.59375 0,-1.046875 -0.75,-1.953125 -1.765625,-1.953125 -1,0 -1.765625,0.90625 -1.765625,1.953125 0,0.609375 0.265625,1.203125 0.765625,1.59375 l -0.21875,0.46875 c -0.25,-0.296875 -0.5625,-0.4375 -0.921875,-0.4375 -0.9375,0 -1.453125,0.96875 -1.453125,1.9375 0,1.0625 0.734375,1.953125 1.703125,1.953125 0.265625,0 1.15625,-0.09375 1.203125,-0.921875 h 0.484375 c 0,0.65625 -0.09375,1.15625 -0.25,1.6875 C 3.40625,1.0625 3.40625,1.078125 3.40625,1.09375 c 0,0.203125 0.171875,0.203125 0.34375,0.203125 z m 0,0"
           id="path7329" />
      </g>
    </g>
    <g
       inkscape:label=""
       transform="translate(69.614915,49.604024)"
       id="g9348">
      <g
         fill="#000000"
         fill-opacity="1"
         id="g9346"
         transform="matrix(0.423333,0,0,0.423333,-39.1266,-31.7211)">
        <g
           id="g9344"
           transform="translate(91.925003,81.962997)">
          <path
             d="m 7.578125,-6.921875 c 0,-0.03125 -0.015625,-0.109375 -0.109375,-0.109375 -0.03125,0 -0.046875,0.015625 -0.15625,0.125 L 6.625,-6.140625 C 6.53125,-6.28125 6.078125,-7.03125 4.96875,-7.03125 2.734375,-7.03125 0.5,-4.828125 0.5,-2.515625 0.5,-0.875 1.671875,0.21875 3.203125,0.21875 c 0.859375,0 1.625,-0.390625 2.15625,-0.859375 0.921875,-0.8125 1.09375,-1.71875 1.09375,-1.75 C 6.453125,-2.5 6.34375,-2.5 6.328125,-2.5 c -0.0625,0 -0.109375,0.03125 -0.125,0.109375 -0.09375,0.28125 -0.328125,1 -1.015625,1.578125 -0.6875,0.546875 -1.3125,0.71875 -1.828125,0.71875 -0.890625,0 -1.953125,-0.515625 -1.953125,-2.0625 0,-0.578125 0.203125,-2.1875 1.203125,-3.359375 0.609375,-0.703125 1.546875,-1.203125 2.4375,-1.203125 1.015625,0 1.609375,0.765625 1.609375,1.921875 0,0.40625 -0.03125,0.40625 -0.03125,0.515625 0,0.09375 0.109375,0.09375 0.140625,0.09375 0.125,0 0.125,-0.015625 0.1875,-0.203125 z m 0,0"
             id="path9342" />
        </g>
      </g>
    </g>
    <circle
       style="opacity:0.921708;fill:#000000;fill-opacity:1;stroke:none;stroke-width:1;stroke-linecap:round;stroke-linejoin:round;stroke-dasharray:none;stroke-opacity:1"
       id="circle9720"
       cx="79.776413"
       cy="63.703575"
       r="0.49024612" />
    <circle
       style="opacity:0.921708;fill:#000000;fill-opacity:1;stroke:none;stroke-width:1;stroke-linecap:round;stroke-linejoin:round;stroke-dasharray:none;stroke-opacity:1"
       id="circle9722"
       cx="89.581337"
       cy="55.807529"
       r="0.49024612" />
    <circle
       style="opacity:0.921708;fill:#000000;fill-opacity:1;stroke:none;stroke-width:1;stroke-linecap:round;stroke-linejoin:round;stroke-dasharray:none;stroke-opacity:1"
       id="circle9724"
       cx="96.979591"
       cy="63.908146"
       r="0.49024612" />
    <circle
       style="opacity:0.921708;fill:#000000;fill-opacity:1;stroke:none;stroke-width:1;stroke-linecap:round;stroke-linejoin:round;stroke-dasharray:none;stroke-opacity:1"
       id="circle9749"
       cx="96.088234"
       cy="74.76664"
       r="0.49024612" />
    <circle
       style="opacity:0.921708;fill:#000000;fill-opacity:1;stroke:none;stroke-width:1;stroke-linecap:round;stroke-linejoin:round;stroke-dasharray:none;stroke-opacity:1"
       id="circle9751"
       cx="83.876648"
       cy="73.766464"
       r="0.49024612" />
    <g
       id="g1087"
       transform="translate(-1.5126822,-25.21137)">
      <g
         inkscape:label=""
         transform="translate(102.8625,76.790409)"
         id="g8340">
        <g
           fill="#000000"
           fill-opacity="1"
           id="g8338"
           transform="matrix(0.423333,0,0,0.423333,-40.5523,-31.6285)">
          <g
             id="g8336"
             transform="translate(95.246002,81.962997)">
            <path
               d="m 4,1.296875 c 0.171875,0 0.359375,0 0.359375,-0.203125 0,-0.03125 0,-0.046875 -0.046875,-0.15625 C 4.140625,0.34375 4.078125,-0.203125 4.078125,-0.703125 h 0.5 C 4.609375,0.171875 5.6875,0.21875 5.875,0.21875 c 1.21875,0 1.328125,-1.59375 1.328125,-2.25 0,-1.15625 -0.671875,-1.953125 -1.796875,-2.953125 C 4.640625,-5.65625 4.3125,-6.515625 4.0625,-7.125 4.03125,-7.203125 3.953125,-7.25 3.875,-7.25 3.734375,-7.25 3.703125,-7.140625 3.671875,-7.078125 3.5,-6.625 3.125,-5.671875 2.359375,-5 c -1.15625,1.03125 -1.8125,1.84375 -1.8125,2.96875 0,0.75 0.15625,2.25 1.34375,2.25 0.296875,0 1.265625,-0.09375 1.296875,-0.921875 h 0.484375 c 0,0.65625 -0.09375,1.15625 -0.25,1.6875 C 3.40625,1.0625 3.40625,1.078125 3.40625,1.09375 c 0,0.203125 0.171875,0.203125 0.34375,0.203125 z m 0,0"
               id="path8334" />
          </g>
        </g>
      </g>
      <circle
         style="opacity:0.921708;fill:#000000;fill-opacity:1;stroke:none;stroke-width:1;stroke-linecap:round;stroke-linejoin:round;stroke-dasharray:none;stroke-opacity:1"
         id="circle9753"
         cx="107.14106"
         cy="78.599472"
         r="0.49024612" />
    </g>
    <ellipse
       style="opacity:0.921708;fill:none;stroke:#39932b;stroke-width:0.999999;stroke-linecap:round;stroke-linejoin:round;stroke-dasharray:none;stroke-opacity:1"
       id="circle9755"
       cx="62.266277"
       cy="113.91536"
       rx="23.888355"
       ry="15.59874" />
    <g
       inkscape:label=""
       transform="translate(40.338875,98.539511)"
       id="g10035">
      <g
         fill="#000000"
         fill-opacity="1"
         id="g10033"
         transform="matrix(0.423333,0,0,0.423333,-39.0869,-31.8137)">
        <g
           id="g10031"
           transform="translate(91.925003,81.962997)">
          <path
             d="m 1.578125,-0.78125 c -0.09375,0.390625 -0.109375,0.46875 -0.90625,0.46875 -0.15625,0 -0.265625,0 -0.265625,0.1875 C 0.40625,0 0.484375,0 0.671875,0 h 3.3125 c 2.0625,0 4.03125,-2.109375 4.03125,-4.28125 0,-1.40625 -0.84375,-2.53125 -2.34375,-2.53125 h -3.34375 c -0.1875,0 -0.296875,0 -0.296875,0.1875 0,0.125 0.078125,0.125 0.28125,0.125 0.125,0 0.3125,0.015625 0.421875,0.015625 0.171875,0.03125 0.21875,0.046875 0.21875,0.171875 0,0.03125 0,0.0625 -0.03125,0.1875 z M 3.734375,-6.125 C 3.828125,-6.46875 3.84375,-6.5 4.28125,-6.5 h 1.0625 c 0.96875,0 1.796875,0.53125 1.796875,1.84375 0,0.484375 -0.1875,2.125 -1.046875,3.21875 -0.28125,0.375 -1.0625,1.125 -2.296875,1.125 h -1.125 c -0.140625,0 -0.15625,0 -0.21875,0 -0.09375,-0.015625 -0.125,-0.03125 -0.125,-0.109375 0,-0.03125 0,-0.046875 0.046875,-0.21875 z m 0,0"
             id="path10029" />
        </g>
      </g>
    </g>
    <g
       inkscape:label=""
       transform="translate(41.485693,133.48069)"
       id="g10386">
      <g
         fill="#000000"
         fill-opacity="1"
         id="g47"
         transform="matrix(0.423333,0,0,0.423333,-39.2192,-31.5293)">
        <g
           id="use45"
           transform="translate(91.925003,81.962997)">
          <path
             d="m 2.828125,-6.15625 c 0,-0.390625 0.25,-1.03125 1.34375,-1.09375 C 4.21875,-7.265625 4.25,-7.3125 4.25,-7.359375 c 0,-0.125 -0.078125,-0.125 -0.1875,-0.125 -0.984375,0 -1.90625,0.515625 -1.90625,1.25 v 2.28125 c 0,0.390625 0,0.703125 -0.40625,1.03125 -0.34375,0.296875 -0.71875,0.3125 -0.9375,0.3125 C 0.75,-2.59375 0.71875,-2.546875 0.71875,-2.5 c 0,0.109375 0.0625,0.109375 0.15625,0.125 0.65625,0.03125 1.140625,0.390625 1.25,0.875 0.03125,0.109375 0.03125,0.140625 0.03125,0.5 v 1.96875 c 0,0.421875 0,0.734375 0.46875,1.109375 C 3.015625,2.375 3.671875,2.5 4.0625,2.5 4.171875,2.5 4.25,2.5 4.25,2.375 4.25,2.28125 4.203125,2.28125 4.09375,2.265625 3.46875,2.234375 2.984375,1.90625 2.84375,1.40625 2.828125,1.3125 2.828125,1.296875 2.828125,0.9375 v -2.09375 c 0,-0.453125 -0.09375,-0.625 -0.40625,-0.953125 C 2.21875,-2.3125 1.921875,-2.40625 1.640625,-2.5 c 0.828125,-0.21875 1.1875,-0.6875 1.1875,-1.265625 z m 0,0"
             id="path133" />
        </g>
      </g>
      <g
         fill="#000000"
         fill-opacity="1"
         id="g51"
         transform="matrix(0.423333,0,0,0.423333,-39.2192,-31.5293)">
        <g
           id="use49"
           transform="translate(96.906998,81.962997)">
          <path
             d="m 2.9375,-6.375 c 0,-0.25 0,-0.265625 -0.234375,-0.265625 C 2.078125,-6 1.203125,-6 0.890625,-6 v 0.3125 c 0.203125,0 0.78125,0 1.296875,-0.265625 v 5.171875 c 0,0.359375 -0.03125,0.46875 -0.921875,0.46875 h -0.3125 V 0 c 0.34375,-0.03125 1.203125,-0.03125 1.609375,-0.03125 0.390625,0 1.265625,0 1.609375,0.03125 v -0.3125 h -0.3125 c -0.90625,0 -0.921875,-0.109375 -0.921875,-0.46875 z m 0,0"
             id="path137" />
        </g>
      </g>
      <g
         fill="#000000"
         fill-opacity="1"
         id="g55"
         transform="matrix(0.423333,0,0,0.423333,-39.2192,-31.5293)">
        <g
           id="use53"
           transform="translate(101.888,81.962997)">
          <path
             d="m 2.03125,-0.015625 c 0,-0.65625 -0.25,-1.046875 -0.640625,-1.046875 -0.328125,0 -0.53125,0.25 -0.53125,0.53125 C 0.859375,-0.265625 1.0625,0 1.390625,0 1.5,0 1.640625,-0.046875 1.734375,-0.125 1.765625,-0.15625 1.78125,-0.15625 1.78125,-0.15625 c 0.015625,0 0.015625,0 0.015625,0.140625 0,0.75 -0.34375,1.34375 -0.671875,1.671875 -0.109375,0.109375 -0.109375,0.125 -0.109375,0.15625 0,0.078125 0.046875,0.109375 0.09375,0.109375 0.109375,0 0.921875,-0.765625 0.921875,-1.9375 z m 0,0"
             id="path141" />
        </g>
      </g>
      <g
         fill="#000000"
         fill-opacity="1"
         id="g59"
         transform="matrix(0.423333,0,0,0.423333,-39.2192,-31.5293)">
        <g
           id="use57"
           transform="translate(106.316,81.962997)">
          <path
             d="m 1.265625,-0.765625 1.0625,-1.03125 c 1.546875,-1.375 2.140625,-1.90625 2.140625,-2.90625 0,-1.140625 -0.890625,-1.9375 -2.109375,-1.9375 -1.125,0 -1.859375,0.921875 -1.859375,1.8125 0,0.546875 0.5,0.546875 0.53125,0.546875 0.171875,0 0.515625,-0.109375 0.515625,-0.53125 0,-0.25 -0.1875,-0.515625 -0.53125,-0.515625 -0.078125,0 -0.09375,0 -0.125,0.015625 0.21875,-0.65625 0.765625,-1.015625 1.34375,-1.015625 0.90625,0 1.328125,0.8125 1.328125,1.625 C 3.5625,-3.90625 3.078125,-3.125 2.515625,-2.5 l -1.90625,2.125 C 0.5,-0.265625 0.5,-0.234375 0.5,0 H 4.203125 L 4.46875,-1.734375 H 4.234375 C 4.171875,-1.4375 4.109375,-1 4,-0.84375 3.9375,-0.765625 3.28125,-0.765625 3.0625,-0.765625 Z m 0,0"
             id="path145" />
        </g>
      </g>
      <g
         fill="#000000"
         fill-opacity="1"
         id="g63"
         transform="matrix(0.423333,0,0,0.423333,-39.2192,-31.5293)">
        <g
           id="use61"
           transform="translate(111.297,81.962997)">
          <path
             d="m 2.03125,-0.015625 c 0,-0.65625 -0.25,-1.046875 -0.640625,-1.046875 -0.328125,0 -0.53125,0.25 -0.53125,0.53125 C 0.859375,-0.265625 1.0625,0 1.390625,0 1.5,0 1.640625,-0.046875 1.734375,-0.125 1.765625,-0.15625 1.78125,-0.15625 1.78125,-0.15625 c 0.015625,0 0.015625,0 0.015625,0.140625 0,0.75 -0.34375,1.34375 -0.671875,1.671875 -0.109375,0.109375 -0.109375,0.125 -0.109375,0.15625 0,0.078125 0.046875,0.109375 0.09375,0.109375 0.109375,0 0.921875,-0.765625 0.921875,-1.9375 z m 0,0"
             id="path149" />
        </g>
      </g>
      <g
         fill="#000000"
         fill-opacity="1"
         id="g67"
         transform="matrix(0.423333,0,0,0.423333,-39.2192,-31.5293)">
        <g
           id="use65"
           transform="translate(115.725,81.962997)">
          <path
             d="m 2.890625,-3.515625 c 0.8125,-0.265625 1.390625,-0.953125 1.390625,-1.75 0,-0.8125 -0.875,-1.375 -1.828125,-1.375 -1,0 -1.765625,0.59375 -1.765625,1.359375 0,0.328125 0.21875,0.515625 0.515625,0.515625 0.296875,0 0.5,-0.21875 0.5,-0.515625 0,-0.484375 -0.46875,-0.484375 -0.609375,-0.484375 0.296875,-0.5 0.953125,-0.625 1.3125,-0.625 0.421875,0 0.96875,0.21875 0.96875,1.109375 0,0.125 -0.03125,0.703125 -0.28125,1.140625 C 2.796875,-3.65625 2.453125,-3.625 2.203125,-3.625 2.125,-3.609375 1.890625,-3.59375 1.8125,-3.59375 c -0.078125,0.015625 -0.140625,0.03125 -0.140625,0.125 0,0.109375 0.0625,0.109375 0.234375,0.109375 h 0.4375 c 0.8125,0 1.1875,0.671875 1.1875,1.65625 0,1.359375 -0.6875,1.640625 -1.125,1.640625 -0.4375,0 -1.1875,-0.171875 -1.53125,-0.75 0.34375,0.046875 0.65625,-0.171875 0.65625,-0.546875 0,-0.359375 -0.265625,-0.5625 -0.546875,-0.5625 -0.25,0 -0.5625,0.140625 -0.5625,0.578125 0,0.90625 0.921875,1.5625 2.015625,1.5625 1.21875,0 2.125,-0.90625 2.125,-1.921875 0,-0.8125 -0.640625,-1.59375 -1.671875,-1.8125 z m 0,0"
             id="path153" />
        </g>
      </g>
      <g
         fill="#000000"
         fill-opacity="1"
         id="g71"
         transform="matrix(0.423333,0,0,0.423333,-39.2192,-31.5293)">
        <g
           id="use69"
           transform="translate(120.706,81.962997)">
          <path
             d="m 2.03125,-0.015625 c 0,-0.65625 -0.25,-1.046875 -0.640625,-1.046875 -0.328125,0 -0.53125,0.25 -0.53125,0.53125 C 0.859375,-0.265625 1.0625,0 1.390625,0 1.5,0 1.640625,-0.046875 1.734375,-0.125 1.765625,-0.15625 1.78125,-0.15625 1.78125,-0.15625 c 0.015625,0 0.015625,0 0.015625,0.140625 0,0.75 -0.34375,1.34375 -0.671875,1.671875 -0.109375,0.109375 -0.109375,0.125 -0.109375,0.15625 0,0.078125 0.046875,0.109375 0.09375,0.109375 0.109375,0 0.921875,-0.765625 0.921875,-1.9375 z m 0,0"
             id="path157" />
        </g>
      </g>
      <g
         fill="#000000"
         fill-opacity="1"
         id="g75"
         transform="matrix(0.423333,0,0,0.423333,-39.2192,-31.5293)">
        <g
           id="use73"
           transform="translate(125.134,81.962997)">
          <path
             d="m 2.9375,-1.640625 v 0.859375 c 0,0.359375 -0.03125,0.46875 -0.765625,0.46875 H 1.96875 V 0 C 2.375,-0.03125 2.890625,-0.03125 3.3125,-0.03125 c 0.421875,0 0.9375,0 1.359375,0.03125 v -0.3125 h -0.21875 c -0.734375,0 -0.75,-0.109375 -0.75,-0.46875 V -1.640625 H 4.6875 v -0.3125 H 3.703125 v -4.53125 c 0,-0.203125 0,-0.265625 -0.171875,-0.265625 -0.078125,0 -0.109375,0 -0.1875,0.125 l -3.0625,4.671875 v 0.3125 z m 0.046875,-0.3125 H 0.5625 l 2.421875,-3.71875 z m 0,0"
             id="path161" />
        </g>
      </g>
      <g
         fill="#000000"
         fill-opacity="1"
         id="g79"
         transform="matrix(0.423333,0,0,0.423333,-39.2192,-31.5293)">
        <g
           id="use77"
           transform="translate(130.11501,81.962997)">
          <path
             d="m 2.03125,-0.015625 c 0,-0.65625 -0.25,-1.046875 -0.640625,-1.046875 -0.328125,0 -0.53125,0.25 -0.53125,0.53125 C 0.859375,-0.265625 1.0625,0 1.390625,0 1.5,0 1.640625,-0.046875 1.734375,-0.125 1.765625,-0.15625 1.78125,-0.15625 1.78125,-0.15625 c 0.015625,0 0.015625,0 0.015625,0.140625 0,0.75 -0.34375,1.34375 -0.671875,1.671875 -0.109375,0.109375 -0.109375,0.125 -0.109375,0.15625 0,0.078125 0.046875,0.109375 0.09375,0.109375 0.109375,0 0.921875,-0.765625 0.921875,-1.9375 z m 0,0"
             id="path165" />
        </g>
      </g>
      <g
         fill="#000000"
         fill-opacity="1"
         id="g83"
         transform="matrix(0.423333,0,0,0.423333,-39.2192,-31.5293)">
        <g
           id="use81"
           transform="translate(134.543,81.962997)">
          <path
             d="m 4.46875,-2 c 0,-1.1875 -0.8125,-2.1875 -1.890625,-2.1875 -0.46875,0 -0.90625,0.15625 -1.265625,0.515625 V -5.625 c 0.203125,0.0625 0.53125,0.125 0.84375,0.125 1.234375,0 1.9375,-0.90625 1.9375,-1.03125 0,-0.0625 -0.03125,-0.109375 -0.109375,-0.109375 0,0 -0.03125,0 -0.078125,0.03125 C 3.703125,-6.515625 3.21875,-6.3125 2.546875,-6.3125 2.15625,-6.3125 1.6875,-6.390625 1.21875,-6.59375 1.140625,-6.625 1.125,-6.625 1.109375,-6.625 1,-6.625 1,-6.546875 1,-6.390625 V -3.4375 c 0,0.171875 0,0.25 0.140625,0.25 0.078125,0 0.09375,-0.015625 0.140625,-0.078125 C 1.390625,-3.421875 1.75,-3.96875 2.5625,-3.96875 c 0.515625,0 0.765625,0.453125 0.84375,0.640625 0.15625,0.375 0.1875,0.75 0.1875,1.25 0,0.359375 0,0.953125 -0.25,1.375 C 3.109375,-0.3125 2.734375,-0.0625 2.28125,-0.0625 c -0.71875,0 -1.296875,-0.53125 -1.46875,-1.109375 0.03125,0 0.0625,0.015625 0.171875,0.015625 0.328125,0 0.5,-0.25 0.5,-0.484375 0,-0.25 -0.171875,-0.5 -0.5,-0.5 C 0.84375,-2.140625 0.5,-2.0625 0.5,-1.609375 0.5,-0.75 1.1875,0.21875 2.296875,0.21875 3.453125,0.21875 4.46875,-0.734375 4.46875,-2 Z m 0,0"
             id="path169" />
        </g>
      </g>
      <g
         fill="#000000"
         fill-opacity="1"
         id="g87"
         transform="matrix(0.423333,0,0,0.423333,-39.2192,-31.5293)">
        <g
           id="use85"
           transform="translate(139.52499,81.962997)">
          <path
             d="m 2.03125,-0.015625 c 0,-0.65625 -0.25,-1.046875 -0.640625,-1.046875 -0.328125,0 -0.53125,0.25 -0.53125,0.53125 C 0.859375,-0.265625 1.0625,0 1.390625,0 1.5,0 1.640625,-0.046875 1.734375,-0.125 1.765625,-0.15625 1.78125,-0.15625 1.78125,-0.15625 c 0.015625,0 0.015625,0 0.015625,0.140625 0,0.75 -0.34375,1.34375 -0.671875,1.671875 -0.109375,0.109375 -0.109375,0.125 -0.109375,0.15625 0,0.078125 0.046875,0.109375 0.09375,0.109375 0.109375,0 0.921875,-0.765625 0.921875,-1.9375 z m 0,0"
             id="path173" />
        </g>
      </g>
      <g
         fill="#000000"
         fill-opacity="1"
         id="g91"
         transform="matrix(0.423333,0,0,0.423333,-39.2192,-31.5293)">
        <g
           id="use89"
           transform="translate(143.952,81.962997)">
          <path
             d="m 1.3125,-3.265625 v -0.25 c 0,-2.515625 1.234375,-2.875 1.75,-2.875 0.234375,0 0.65625,0.0625 0.875,0.40625 -0.15625,0 -0.546875,0 -0.546875,0.4375 0,0.3125 0.234375,0.46875 0.453125,0.46875 0.15625,0 0.46875,-0.09375 0.46875,-0.484375 0,-0.59375 -0.4375,-1.078125 -1.265625,-1.078125 -1.28125,0 -2.625,1.28125 -2.625,3.484375 0,2.671875 1.15625,3.375 2.078125,3.375 1.109375,0 2.0625,-0.9375 2.0625,-2.25 0,-1.265625 -0.890625,-2.21875 -2,-2.21875 -0.671875,0 -1.046875,0.5 -1.25,0.984375 z M 2.5,-0.0625 c -0.625,0 -0.921875,-0.59375 -0.984375,-0.75 -0.1875,-0.46875 -0.1875,-1.265625 -0.1875,-1.4375 0,-0.78125 0.328125,-1.78125 1.21875,-1.78125 0.171875,0 0.625,0 0.9375,0.625 0.171875,0.359375 0.171875,0.875 0.171875,1.359375 0,0.484375 0,0.984375 -0.171875,1.34375 C 3.1875,-0.109375 2.734375,-0.0625 2.5,-0.0625 Z m 0,0"
             id="path177" />
        </g>
      </g>
      <g
         fill="#000000"
         fill-opacity="1"
         id="g95"
         transform="matrix(0.423333,0,0,0.423333,-39.2192,-31.5293)">
        <g
           id="use93"
           transform="translate(148.93401,81.962997)">
          <path
             d="m 2.03125,-0.015625 c 0,-0.65625 -0.25,-1.046875 -0.640625,-1.046875 -0.328125,0 -0.53125,0.25 -0.53125,0.53125 C 0.859375,-0.265625 1.0625,0 1.390625,0 1.5,0 1.640625,-0.046875 1.734375,-0.125 1.765625,-0.15625 1.78125,-0.15625 1.78125,-0.15625 c 0.015625,0 0.015625,0 0.015625,0.140625 0,0.75 -0.34375,1.34375 -0.671875,1.671875 -0.109375,0.109375 -0.109375,0.125 -0.109375,0.15625 0,0.078125 0.046875,0.109375 0.09375,0.109375 0.109375,0 0.921875,-0.765625 0.921875,-1.9375 z m 0,0"
             id="path181" />
        </g>
      </g>
      <g
         fill="#000000"
         fill-opacity="1"
         id="g99"
         transform="matrix(0.423333,0,0,0.423333,-39.2192,-31.5293)">
        <g
           id="use97"
           transform="translate(153.362,81.962997)">
          <path
             d="m 4.75,-6.078125 c 0.078125,-0.109375 0.078125,-0.125 0.078125,-0.34375 H 2.40625 c -1.203125,0 -1.234375,-0.125 -1.265625,-0.3125 h -0.25 L 0.5625,-4.6875 h 0.25 c 0.03125,-0.15625 0.109375,-0.78125 0.25,-0.90625 0.0625,-0.0625 0.84375,-0.0625 0.96875,-0.0625 h 2.0625 C 3.984375,-5.5 3.203125,-4.40625 2.984375,-4.078125 2.078125,-2.734375 1.75,-1.34375 1.75,-0.328125 c 0,0.09375 0,0.546875 0.46875,0.546875 0.453125,0 0.453125,-0.453125 0.453125,-0.546875 V -0.84375 c 0,-0.546875 0.03125,-1.09375 0.109375,-1.625 0.046875,-0.234375 0.171875,-1.09375 0.625,-1.703125 z m 0,0"
             id="path185" />
        </g>
      </g>
      <g
         fill="#000000"
         fill-opacity="1"
         id="g103"
         transform="matrix(0.423333,0,0,0.423333,-39.2192,-31.5293)">
        <g
           id="use101"
           transform="translate(158.343,81.962997)">
          <path
             d="m 2.03125,-0.015625 c 0,-0.65625 -0.25,-1.046875 -0.640625,-1.046875 -0.328125,0 -0.53125,0.25 -0.53125,0.53125 C 0.859375,-0.265625 1.0625,0 1.390625,0 1.5,0 1.640625,-0.046875 1.734375,-0.125 1.765625,-0.15625 1.78125,-0.15625 1.78125,-0.15625 c 0.015625,0 0.015625,0 0.015625,0.140625 0,0.75 -0.34375,1.34375 -0.671875,1.671875 -0.109375,0.109375 -0.109375,0.125 -0.109375,0.15625 0,0.078125 0.046875,0.109375 0.09375,0.109375 0.109375,0 0.921875,-0.765625 0.921875,-1.9375 z m 0,0"
             id="path189" />
        </g>
      </g>
      <g
         fill="#000000"
         fill-opacity="1"
         id="g107"
         transform="matrix(0.423333,0,0,0.423333,-39.2192,-31.5293)">
        <g
           id="use105"
           transform="translate(162.771,81.962997)">
          <path
             d="m 1.625,-4.5625 c -0.453125,-0.296875 -0.5,-0.625 -0.5,-0.796875 0,-0.609375 0.65625,-1.03125 1.359375,-1.03125 0.71875,0 1.359375,0.515625 1.359375,1.234375 0,0.578125 -0.390625,1.046875 -0.984375,1.390625 z m 1.453125,0.953125 C 3.796875,-3.984375 4.28125,-4.5 4.28125,-5.15625 c 0,-0.921875 -0.875,-1.484375 -1.78125,-1.484375 -1,0 -1.8125,0.734375 -1.8125,1.671875 0,0.171875 0.015625,0.625 0.4375,1.09375 0.109375,0.109375 0.484375,0.359375 0.734375,0.53125 C 1.28125,-3.046875 0.421875,-2.5 0.421875,-1.5 c 0,1.046875 1.015625,1.71875 2.0625,1.71875 1.125,0 2.078125,-0.828125 2.078125,-1.890625 0,-0.359375 -0.109375,-0.8125 -0.5,-1.234375 C 3.875,-3.109375 3.71875,-3.203125 3.078125,-3.609375 Z m -1,0.421875 1.234375,0.78125 c 0.28125,0.1875 0.75,0.484375 0.75,1.09375 0,0.734375 -0.75,1.25 -1.5625,1.25 -0.859375,0 -1.578125,-0.609375 -1.578125,-1.4375 0,-0.578125 0.3125,-1.21875 1.15625,-1.6875 z m 0,0"
             id="path193" />
        </g>
      </g>
      <g
         fill="#000000"
         fill-opacity="1"
         id="g111"
         transform="matrix(0.423333,0,0,0.423333,-39.2192,-31.5293)">
        <g
           id="use109"
           transform="translate(167.752,81.962997)">
          <path
             d="m 2.03125,-0.015625 c 0,-0.65625 -0.25,-1.046875 -0.640625,-1.046875 -0.328125,0 -0.53125,0.25 -0.53125,0.53125 C 0.859375,-0.265625 1.0625,0 1.390625,0 1.5,0 1.640625,-0.046875 1.734375,-0.125 1.765625,-0.15625 1.78125,-0.15625 1.78125,-0.15625 c 0.015625,0 0.015625,0 0.015625,0.140625 0,0.75 -0.34375,1.34375 -0.671875,1.671875 -0.109375,0.109375 -0.109375,0.125 -0.109375,0.15625 0,0.078125 0.046875,0.109375 0.09375,0.109375 0.109375,0 0.921875,-0.765625 0.921875,-1.9375 z m 0,0"
             id="path197" />
        </g>
      </g>
      <g
         fill="#000000"
         fill-opacity="1"
         id="g115"
         transform="matrix(0.423333,0,0,0.423333,-39.2192,-31.5293)">
        <g
           id="use113"
           transform="translate(172.17999,81.962997)">
          <path
             d="m 3.65625,-3.171875 v 0.328125 c 0,2.328125 -1.03125,2.78125 -1.609375,2.78125 -0.171875,0 -0.71875,-0.015625 -0.984375,-0.359375 0.4375,0 0.515625,-0.28125 0.515625,-0.453125 0,-0.3125 -0.234375,-0.453125 -0.453125,-0.453125 -0.15625,0 -0.453125,0.078125 -0.453125,0.46875 0,0.671875 0.53125,1.078125 1.375,1.078125 1.296875,0 2.515625,-1.359375 2.515625,-3.5 0,-2.6875 -1.15625,-3.359375 -2.046875,-3.359375 -0.546875,0 -1.03125,0.1875 -1.453125,0.625 -0.421875,0.453125 -0.640625,0.875 -0.640625,1.625 0,1.234375 0.875,2.21875 1.984375,2.21875 0.609375,0 1.015625,-0.421875 1.25,-1 z M 2.421875,-2.40625 c -0.15625,0 -0.625,0 -0.921875,-0.625 -0.1875,-0.375 -0.1875,-0.859375 -0.1875,-1.359375 0,-0.53125 0,-1 0.21875,-1.375 0.265625,-0.5 0.640625,-0.625 0.984375,-0.625 0.46875,0 0.796875,0.34375 0.96875,0.78125 0.109375,0.328125 0.15625,0.953125 0.15625,1.40625 0,0.828125 -0.34375,1.796875 -1.21875,1.796875 z m 0,0"
             id="path201" />
        </g>
      </g>
      <g
         fill="#000000"
         fill-opacity="1"
         id="g119"
         transform="matrix(0.423333,0,0,0.423333,-39.2192,-31.5293)">
        <g
           id="use117"
           transform="translate(177.161,81.962997)">
          <path
             d="m 2.03125,-0.015625 c 0,-0.65625 -0.25,-1.046875 -0.640625,-1.046875 -0.328125,0 -0.53125,0.25 -0.53125,0.53125 C 0.859375,-0.265625 1.0625,0 1.390625,0 1.5,0 1.640625,-0.046875 1.734375,-0.125 1.765625,-0.15625 1.78125,-0.15625 1.78125,-0.15625 c 0.015625,0 0.015625,0 0.015625,0.140625 0,0.75 -0.34375,1.34375 -0.671875,1.671875 -0.109375,0.109375 -0.109375,0.125 -0.109375,0.15625 0,0.078125 0.046875,0.109375 0.09375,0.109375 0.109375,0 0.921875,-0.765625 0.921875,-1.9375 z m 0,0"
             id="path205" />
        </g>
      </g>
      <g
         fill="#000000"
         fill-opacity="1"
         id="g123"
         transform="matrix(0.423333,0,0,0.423333,-39.2192,-31.5293)">
        <g
           id="use121"
           transform="translate(181.589,81.962997)">
          <path
             d="m 4.578125,-3.1875 c 0,-0.796875 -0.046875,-1.59375 -0.390625,-2.328125 -0.453125,-0.96875 -1.28125,-1.125 -1.6875,-1.125 -0.609375,0 -1.328125,0.265625 -1.75,1.1875 -0.3125,0.6875 -0.359375,1.46875 -0.359375,2.265625 0,0.75 0.03125,1.640625 0.453125,2.40625 0.421875,0.796875 1.15625,1 1.640625,1 0.53125,0 1.296875,-0.203125 1.734375,-1.15625 0.3125,-0.6875 0.359375,-1.46875 0.359375,-2.25 z M 2.484375,0 C 2.09375,0 1.5,-0.25 1.328125,-1.203125 1.21875,-1.796875 1.21875,-2.71875 1.21875,-3.3125 c 0,-0.640625 0,-1.296875 0.078125,-1.828125 0.1875,-1.1875 0.9375,-1.28125 1.1875,-1.28125 0.328125,0 0.984375,0.1875 1.171875,1.171875 0.109375,0.5625 0.109375,1.3125 0.109375,1.9375 0,0.75 0,1.421875 -0.109375,2.0625 C 3.5,-0.296875 2.9375,0 2.484375,0 Z m 0,0"
             id="path209" />
        </g>
      </g>
      <g
         fill="#000000"
         fill-opacity="1"
         id="g127"
         transform="matrix(0.423333,0,0,0.423333,-39.2192,-31.5293)">
        <g
           id="use125"
           transform="translate(186.57001,81.962997)">
          <path
             d="m 2.15625,1.171875 c 0,0.390625 -0.265625,1.03125 -1.34375,1.09375 C 0.75,2.28125 0.71875,2.328125 0.71875,2.375 0.71875,2.5 0.828125,2.5 0.921875,2.5 1.890625,2.5 2.8125,2 2.828125,1.25 v -2.28125 c 0,-0.390625 0,-0.703125 0.390625,-1.03125 C 3.5625,-2.359375 3.953125,-2.375 4.171875,-2.375 4.21875,-2.390625 4.25,-2.4375 4.25,-2.5 4.25,-2.59375 4.203125,-2.59375 4.09375,-2.609375 3.4375,-2.640625 2.953125,-3 2.84375,-3.484375 2.828125,-3.59375 2.828125,-3.625 2.828125,-3.984375 v -1.96875 c 0,-0.421875 0,-0.734375 -0.484375,-1.109375 C 1.9375,-7.375 1.25,-7.484375 0.921875,-7.484375 c -0.09375,0 -0.203125,0 -0.203125,0.125 0,0.09375 0.0625,0.09375 0.15625,0.109375 0.625,0.03125 1.125,0.359375 1.25,0.859375 0.03125,0.09375 0.03125,0.109375 0.03125,0.46875 v 2.09375 c 0,0.453125 0.078125,0.625 0.390625,0.953125 0.21875,0.203125 0.5,0.296875 0.78125,0.375 -0.8125,0.234375 -1.171875,0.703125 -1.171875,1.28125 z m 0,0"
             id="path213" />
        </g>
      </g>
    </g>
    <g
       fill="#000000"
       fill-opacity="1"
       id="g10464"
       transform="matrix(0.423333,0,0,0.423333,3.4252574,83.41117)">
      <g
         id="g10462"
         transform="translate(96.906998,81.962997)">
        <path
           d="m 2.9375,-6.375 c 0,-0.25 0,-0.265625 -0.234375,-0.265625 C 2.078125,-6 1.203125,-6 0.890625,-6 v 0.3125 c 0.203125,0 0.78125,0 1.296875,-0.265625 v 5.171875 c 0,0.359375 -0.03125,0.46875 -0.921875,0.46875 h -0.3125 V 0 c 0.34375,-0.03125 1.203125,-0.03125 1.609375,-0.03125 0.390625,0 1.265625,0 1.609375,0.03125 v -0.3125 h -0.3125 c -0.90625,0 -0.921875,-0.109375 -0.921875,-0.46875 z m 0,0"
           id="path10460" />
      </g>
    </g>
    <g
       fill="#000000"
       fill-opacity="1"
       id="g10476"
       transform="matrix(0.423333,0,0,0.423333,24.015593,71.110449)">
      <g
         id="g10474"
         transform="translate(106.316,81.962997)">
        <path
           d="m 1.265625,-0.765625 1.0625,-1.03125 c 1.546875,-1.375 2.140625,-1.90625 2.140625,-2.90625 0,-1.140625 -0.890625,-1.9375 -2.109375,-1.9375 -1.125,0 -1.859375,0.921875 -1.859375,1.8125 0,0.546875 0.5,0.546875 0.53125,0.546875 0.171875,0 0.515625,-0.109375 0.515625,-0.53125 0,-0.25 -0.1875,-0.515625 -0.53125,-0.515625 -0.078125,0 -0.09375,0 -0.125,0.015625 0.21875,-0.65625 0.765625,-1.015625 1.34375,-1.015625 0.90625,0 1.328125,0.8125 1.328125,1.625 C 3.5625,-3.90625 3.078125,-3.125 2.515625,-2.5 l -1.90625,2.125 C 0.5,-0.265625 0.5,-0.234375 0.5,0 H 4.203125 L 4.46875,-1.734375 H 4.234375 C 4.171875,-1.4375 4.109375,-1 4,-0.84375 3.9375,-0.765625 3.28125,-0.765625 3.0625,-0.765625 Z m 0,0"
           id="path10472" />
      </g>
    </g>
    <g
       fill="#000000"
       fill-opacity="1"
       id="g10488"
       transform="matrix(0.423333,0,0,0.423333,22.678558,88.581038)">
      <g
         id="g10486"
         transform="translate(115.725,81.962997)">
        <path
           d="m 2.890625,-3.515625 c 0.8125,-0.265625 1.390625,-0.953125 1.390625,-1.75 0,-0.8125 -0.875,-1.375 -1.828125,-1.375 -1,0 -1.765625,0.59375 -1.765625,1.359375 0,0.328125 0.21875,0.515625 0.515625,0.515625 0.296875,0 0.5,-0.21875 0.5,-0.515625 0,-0.484375 -0.46875,-0.484375 -0.609375,-0.484375 0.296875,-0.5 0.953125,-0.625 1.3125,-0.625 0.421875,0 0.96875,0.21875 0.96875,1.109375 0,0.125 -0.03125,0.703125 -0.28125,1.140625 C 2.796875,-3.65625 2.453125,-3.625 2.203125,-3.625 2.125,-3.609375 1.890625,-3.59375 1.8125,-3.59375 c -0.078125,0.015625 -0.140625,0.03125 -0.140625,0.125 0,0.109375 0.0625,0.109375 0.234375,0.109375 h 0.4375 c 0.8125,0 1.1875,0.671875 1.1875,1.65625 0,1.359375 -0.6875,1.640625 -1.125,1.640625 -0.4375,0 -1.1875,-0.171875 -1.53125,-0.75 0.34375,0.046875 0.65625,-0.171875 0.65625,-0.546875 0,-0.359375 -0.265625,-0.5625 -0.546875,-0.5625 -0.25,0 -0.5625,0.140625 -0.5625,0.578125 0,0.90625 0.921875,1.5625 2.015625,1.5625 1.21875,0 2.125,-0.90625 2.125,-1.921875 0,-0.8125 -0.640625,-1.59375 -1.671875,-1.8125 z m 0,0"
           id="path10484" />
      </g>
    </g>
    <g
       fill="#000000"
       fill-opacity="1"
       id="g10500"
       transform="matrix(0.423333,0,0,0.423333,7.7037684,92.681278)">
      <g
         id="g10498"
         transform="translate(125.134,81.962997)">
        <path
           d="m 2.9375,-1.640625 v 0.859375 c 0,0.359375 -0.03125,0.46875 -0.765625,0.46875 H 1.96875 V 0 C 2.375,-0.03125 2.890625,-0.03125 3.3125,-0.03125 c 0.421875,0 0.9375,0 1.359375,0.03125 v -0.3125 h -0.21875 c -0.734375,0 -0.75,-0.109375 -0.75,-0.46875 V -1.640625 H 4.6875 v -0.3125 H 3.703125 v -4.53125 c 0,-0.203125 0,-0.265625 -0.171875,-0.265625 -0.078125,0 -0.109375,0 -0.1875,0.125 l -3.0625,4.671875 v 0.3125 z m 0.046875,-0.3125 H 0.5625 l 2.421875,-3.71875 z m 0,0"
           id="path10496" />
      </g>
    </g>
    <g
       fill="#000000"
       fill-opacity="1"
       id="g10512"
       transform="matrix(0.423333,0,0,0.423333,-1.0315256,71.645263)">
      <g
         id="g10510"
         transform="translate(134.543,81.962997)">
        <path
           d="m 4.46875,-2 c 0,-1.1875 -0.8125,-2.1875 -1.890625,-2.1875 -0.46875,0 -0.90625,0.15625 -1.265625,0.515625 V -5.625 c 0.203125,0.0625 0.53125,0.125 0.84375,0.125 1.234375,0 1.9375,-0.90625 1.9375,-1.03125 0,-0.0625 -0.03125,-0.109375 -0.109375,-0.109375 0,0 -0.03125,0 -0.078125,0.03125 C 3.703125,-6.515625 3.21875,-6.3125 2.546875,-6.3125 2.15625,-6.3125 1.6875,-6.390625 1.21875,-6.59375 1.140625,-6.625 1.125,-6.625 1.109375,-6.625 1,-6.625 1,-6.546875 1,-6.390625 V -3.4375 c 0,0.171875 0,0.25 0.140625,0.25 0.078125,0 0.09375,-0.015625 0.140625,-0.078125 C 1.390625,-3.421875 1.75,-3.96875 2.5625,-3.96875 c 0.515625,0 0.765625,0.453125 0.84375,0.640625 0.15625,0.375 0.1875,0.75 0.1875,1.25 0,0.359375 0,0.953125 -0.25,1.375 C 3.109375,-0.3125 2.734375,-0.0625 2.28125,-0.0625 c -0.71875,0 -1.296875,-0.53125 -1.46875,-1.109375 0.03125,0 0.0625,0.015625 0.171875,0.015625 0.328125,0 0.5,-0.25 0.5,-0.484375 0,-0.25 -0.171875,-0.5 -0.5,-0.5 C 0.84375,-2.140625 0.5,-2.0625 0.5,-1.609375 0.5,-0.75 1.1875,0.21875 2.296875,0.21875 3.453125,0.21875 4.46875,-0.734375 4.46875,-2 Z m 0,0"
           id="path10508" />
      </g>
    </g>
    <g
       fill="#000000"
       fill-opacity="1"
       id="g10524"
       transform="matrix(0.423333,0,0,0.423333,-4.2404096,80.826236)">
      <g
         id="g10522"
         transform="translate(143.952,81.962997)">
        <path
           d="m 1.3125,-3.265625 v -0.25 c 0,-2.515625 1.234375,-2.875 1.75,-2.875 0.234375,0 0.65625,0.0625 0.875,0.40625 -0.15625,0 -0.546875,0 -0.546875,0.4375 0,0.3125 0.234375,0.46875 0.453125,0.46875 0.15625,0 0.46875,-0.09375 0.46875,-0.484375 0,-0.59375 -0.4375,-1.078125 -1.265625,-1.078125 -1.28125,0 -2.625,1.28125 -2.625,3.484375 0,2.671875 1.15625,3.375 2.078125,3.375 1.109375,0 2.0625,-0.9375 2.0625,-2.25 0,-1.265625 -0.890625,-2.21875 -2,-2.21875 -0.671875,0 -1.046875,0.5 -1.25,0.984375 z M 2.5,-0.0625 c -0.625,0 -0.921875,-0.59375 -0.984375,-0.75 -0.1875,-0.46875 -0.1875,-1.265625 -0.1875,-1.4375 0,-0.78125 0.328125,-1.78125 1.21875,-1.78125 0.171875,0 0.625,0 0.9375,0.625 0.171875,0.359375 0.171875,0.875 0.171875,1.359375 0,0.484375 0,0.984375 -0.171875,1.34375 C 3.1875,-0.109375 2.734375,-0.0625 2.5,-0.0625 Z m 0,0"
           id="path10520" />
      </g>
    </g>
    <g
       fill="#000000"
       fill-opacity="1"
       id="g10536"
       transform="matrix(0.423333,0,0,0.423333,-18.59125,75.745503)">
      <g
         id="g10534"
         transform="translate(153.362,81.962997)">
        <path
           d="m 4.75,-6.078125 c 0.078125,-0.109375 0.078125,-0.125 0.078125,-0.34375 H 2.40625 c -1.203125,0 -1.234375,-0.125 -1.265625,-0.3125 h -0.25 L 0.5625,-4.6875 h 0.25 c 0.03125,-0.15625 0.109375,-0.78125 0.25,-0.90625 0.0625,-0.0625 0.84375,-0.0625 0.96875,-0.0625 h 2.0625 C 3.984375,-5.5 3.203125,-4.40625 2.984375,-4.078125 2.078125,-2.734375 1.75,-1.34375 1.75,-0.328125 c 0,0.09375 0,0.546875 0.46875,0.546875 0.453125,0 0.453125,-0.453125 0.453125,-0.546875 V -0.84375 c 0,-0.546875 0.03125,-1.09375 0.109375,-1.625 0.046875,-0.234375 0.171875,-1.09375 0.625,-1.703125 z m 0,0"
           id="path10532" />
      </g>
    </g>
    <g
       fill="#000000"
       fill-opacity="1"
       id="g10548"
       transform="matrix(0.423333,0,0,0.423333,9.6647524,80.024015)">
      <g
         id="g10546"
         transform="translate(162.771,81.962997)">
        <path
           d="m 1.625,-4.5625 c -0.453125,-0.296875 -0.5,-0.625 -0.5,-0.796875 0,-0.609375 0.65625,-1.03125 1.359375,-1.03125 0.71875,0 1.359375,0.515625 1.359375,1.234375 0,0.578125 -0.390625,1.046875 -0.984375,1.390625 z m 1.453125,0.953125 C 3.796875,-3.984375 4.28125,-4.5 4.28125,-5.15625 c 0,-0.921875 -0.875,-1.484375 -1.78125,-1.484375 -1,0 -1.8125,0.734375 -1.8125,1.671875 0,0.171875 0.015625,0.625 0.4375,1.09375 0.109375,0.109375 0.484375,0.359375 0.734375,0.53125 C 1.28125,-3.046875 0.421875,-2.5 0.421875,-1.5 c 0,1.046875 1.015625,1.71875 2.0625,1.71875 1.125,0 2.078125,-0.828125 2.078125,-1.890625 0,-0.359375 -0.109375,-0.8125 -0.5,-1.234375 C 3.875,-3.109375 3.71875,-3.203125 3.078125,-3.609375 Z m -1,0.421875 1.234375,0.78125 c 0.28125,0.1875 0.75,0.484375 0.75,1.09375 0,0.734375 -0.75,1.25 -1.5625,1.25 -0.859375,0 -1.578125,-0.609375 -1.578125,-1.4375 0,-0.578125 0.3125,-1.21875 1.15625,-1.6875 z m 0,0"
           id="path10544" />
      </g>
    </g>
    <g
       fill="#000000"
       fill-opacity="1"
       id="g10560"
       transform="matrix(0.423333,0,0,0.423333,-22.958897,90.007208)">
      <g
         id="g10558"
         transform="translate(172.17999,81.962997)">
        <path
           d="m 3.65625,-3.171875 v 0.328125 c 0,2.328125 -1.03125,2.78125 -1.609375,2.78125 -0.171875,0 -0.71875,-0.015625 -0.984375,-0.359375 0.4375,0 0.515625,-0.28125 0.515625,-0.453125 0,-0.3125 -0.234375,-0.453125 -0.453125,-0.453125 -0.15625,0 -0.453125,0.078125 -0.453125,0.46875 0,0.671875 0.53125,1.078125 1.375,1.078125 1.296875,0 2.515625,-1.359375 2.515625,-3.5 0,-2.6875 -1.15625,-3.359375 -2.046875,-3.359375 -0.546875,0 -1.03125,0.1875 -1.453125,0.625 -0.421875,0.453125 -0.640625,0.875 -0.640625,1.625 0,1.234375 0.875,2.21875 1.984375,2.21875 0.609375,0 1.015625,-0.421875 1.25,-1 z M 2.421875,-2.40625 c -0.15625,0 -0.625,0 -0.921875,-0.625 -0.1875,-0.375 -0.1875,-0.859375 -0.1875,-1.359375 0,-0.53125 0,-1 0.21875,-1.375 0.265625,-0.5 0.640625,-0.625 0.984375,-0.625 0.46875,0 0.796875,0.34375 0.96875,0.78125 0.109375,0.328125 0.15625,0.953125 0.15625,1.40625 0,0.828125 -0.34375,1.796875 -1.21875,1.796875 z m 0,0"
           id="path10556" />
      </g>
    </g>
    <g
       fill="#000000"
       fill-opacity="1"
       id="g10572"
       transform="matrix(0.423333,0,0,0.423333,-8.6971916,81.093643)">
      <g
         id="g10570"
         transform="translate(181.589,81.962997)">
        <path
           d="m 4.578125,-3.1875 c 0,-0.796875 -0.046875,-1.59375 -0.390625,-2.328125 -0.453125,-0.96875 -1.28125,-1.125 -1.6875,-1.125 -0.609375,0 -1.328125,0.265625 -1.75,1.1875 -0.3125,0.6875 -0.359375,1.46875 -0.359375,2.265625 0,0.75 0.03125,1.640625 0.453125,2.40625 0.421875,0.796875 1.15625,1 1.640625,1 0.53125,0 1.296875,-0.203125 1.734375,-1.15625 0.3125,-0.6875 0.359375,-1.46875 0.359375,-2.25 z M 2.484375,0 C 2.09375,0 1.5,-0.25 1.328125,-1.203125 1.21875,-1.796875 1.21875,-2.71875 1.21875,-3.3125 c 0,-0.640625 0,-1.296875 0.078125,-1.828125 0.1875,-1.1875 0.9375,-1.28125 1.1875,-1.28125 0.328125,0 0.984375,0.1875 1.171875,1.171875 0.109375,0.5625 0.109375,1.3125 0.109375,1.9375 0,0.75 0,1.421875 -0.109375,2.0625 C 3.5,-0.296875 2.9375,0 2.484375,0 Z m 0,0"
           id="path10568" />
      </g>
    </g>
    <circle
       style="opacity:0.921708;fill:#000000;fill-opacity:1;stroke:none;stroke-width:1;stroke-linecap:round;stroke-linejoin:round;stroke-dasharray:none;stroke-opacity:1"
       id="circle10582"
       cx="63.870724"
       cy="125.95017"
       r="0.49024612" />
    <circle
       style="opacity:0.921708;fill:#000000;fill-opacity:1;stroke:none;stroke-width:1;stroke-linecap:round;stroke-linejoin:round;stroke-dasharray:none;stroke-opacity:1"
       id="circle10584"
       cx="53.174442"
       cy="123.34555"
       r="0.49024612" />
    <circle
       style="opacity:0.921708;fill:#000000;fill-opacity:1;stroke:none;stroke-width:1;stroke-linecap:round;stroke-linejoin:round;stroke-dasharray:none;stroke-opacity:1"
       id="circle10586"
       cx="47.157787"
       cy="116.70322"
       r="0.49024612" />
    <circle
       style="opacity:0.921708;fill:#000000;fill-opacity:1;stroke:none;stroke-width:1;stroke-linecap:round;stroke-linejoin:round;stroke-dasharray:none;stroke-opacity:1"
       id="circle10588"
       cx="59.948753"
       cy="114.16458"
       r="0.49024612" />
    <circle
       style="opacity:0.921708;fill:#000000;fill-opacity:1;stroke:none;stroke-width:1;stroke-linecap:round;stroke-linejoin:round;stroke-dasharray:none;stroke-opacity:1"
       id="circle10590"
       cx="71.491821"
       cy="114.43199"
       r="0.49024612" />
    <circle
       style="opacity:0.921708;fill:#000000;fill-opacity:1;stroke:none;stroke-width:1;stroke-linecap:round;stroke-linejoin:round;stroke-dasharray:none;stroke-opacity:1"
       id="circle10592"
       cx="81.697853"
       cy="113.36236"
       r="0.49024612" />
    <circle
       style="opacity:0.921708;fill:#000000;fill-opacity:1;stroke:none;stroke-width:1;stroke-linecap:round;stroke-linejoin:round;stroke-dasharray:none;stroke-opacity:1"
       id="circle10594"
       cx="72.294044"
       cy="104.4025"
       r="0.49024612" />
    <circle
       style="opacity:0.921708;fill:#000000;fill-opacity:1;stroke:none;stroke-width:1;stroke-linecap:round;stroke-linejoin:round;stroke-dasharray:none;stroke-opacity:1"
       id="circle10596"
       cx="59.057396"
       cy="104.98361"
       r="0.49024612" />
    <circle
       style="opacity:0.921708;fill:#000000;fill-opacity:1;stroke:none;stroke-width:1;stroke-linecap:round;stroke-linejoin:round;stroke-dasharray:none;stroke-opacity:1"
       id="circle10598"
       cx="49.653587"
       cy="109.064"
       r="0.49024612" />
    <circle
       style="opacity:0.921708;fill:#000000;fill-opacity:1;stroke:none;stroke-width:1;stroke-linecap:round;stroke-linejoin:round;stroke-dasharray:none;stroke-opacity:1"
       id="circle10600"
       cx="74.923546"
       cy="121.91938"
       r="0.49024612" />
  </g>
</svg>
