<?xml version="1.0" encoding="UTF-8" standalone="no"?>
<!-- Created with Inkscape (http://www.inkscape.org/) -->

<svg
   width="79.333122mm"
   height="18.658541mm"
   viewBox="0 0 79.333122 18.658541"
   version="1.1"
   id="svg5"
   sodipodi:docname="fig-12.svg"
   inkscape:version="1.2.2 (b0a8486541, 2022-12-01)"
   xmlns:inkscape="http://www.inkscape.org/namespaces/inkscape"
   xmlns:sodipodi="http://sodipodi.sourceforge.net/DTD/sodipodi-0.dtd"
   xmlns="http://www.w3.org/2000/svg"
   xmlns:svg="http://www.w3.org/2000/svg">
  <sodipodi:namedview
     id="namedview7"
     pagecolor="#ffffff"
     bordercolor="#666666"
     borderopacity="1.0"
     inkscape:showpageshadow="2"
     inkscape:pageopacity="0.0"
     inkscape:pagecheckerboard="0"
     inkscape:deskcolor="#d1d1d1"
     inkscape:document-units="mm"
     showgrid="false"
     inkscape:zoom="2.9825758"
     inkscape:cx="163.78461"
     inkscape:cy="34.030988"
     inkscape:window-width="1920"
     inkscape:window-height="1018"
     inkscape:window-x="0"
     inkscape:window-y="0"
     inkscape:window-maximized="1"
     inkscape:current-layer="layer1" />
  <defs
     id="defs2">
    <marker
       style="overflow:visible"
       id="TriangleStart"
       refX="0"
       refY="0"
       orient="auto-start-reverse"
       inkscape:stockid="TriangleStart"
       markerWidth="5.3244081"
       markerHeight="6.155385"
       viewBox="0 0 5.3244081 6.1553851"
       inkscape:isstock="true"
       inkscape:collect="always"
       preserveAspectRatio="xMidYMid">
      <path
         transform="scale(0.5)"
         style="fill:context-stroke;fill-rule:evenodd;stroke:context-stroke;stroke-width:1pt"
         d="M 5.77,0 -2.88,5 V -5 Z"
         id="path135" />
    </marker>
    <clipPath
       id="clipPath2773">
      <path
         clip-rule="nonzero"
         d="M 0,0 H 4.980469 V 6.421875 H 0 Z m 0,0"
         id="path9815" />
    </clipPath>
    <clipPath
       id="clipPath3273">
      <path
         clip-rule="nonzero"
         d="M 0,0 H 4.980469 V 6.421875 H 0 Z m 0,0"
         id="path3791" />
    </clipPath>
    <clipPath
       id="clipPath6595">
      <path
         clip-rule="nonzero"
         d="m 8,0 h 4.730469 V 7 H 8 Z m 0,0"
         id="path4992" />
    </clipPath>
    <clipPath
       id="clipPath7598">
      <path
         clip-rule="nonzero"
         d="m 8,0 h 4.730469 V 7 H 8 Z m 0,0"
         id="path5130" />
    </clipPath>
    <clipPath
       id="clipPath2050">
      <path
         clip-rule="nonzero"
         d="m 8,0 h 4.730469 V 7 H 8 Z m 0,0"
         id="path9879" />
    </clipPath>
    <clipPath
       id="clipPath9309">
      <path
         clip-rule="nonzero"
         d="M 0,0 H 4.980469 V 6.421875 H 0 Z m 0,0"
         id="path5526" />
    </clipPath>
    <clipPath
       id="clipPath872">
      <path
         clip-rule="nonzero"
         d="M 0,0 H 4.980469 V 6.421875 H 0 Z m 0,0"
         id="path5568" />
    </clipPath>
    <clipPath
       id="clipPath8648">
      <path
         clip-rule="nonzero"
         d="M 0,0 H 4.980469 V 6.421875 H 0 Z m 0,0"
         id="path5280" />
    </clipPath>
  </defs>
  <g
     inkscape:label="Capa 1"
     inkscape:groupmode="layer"
     id="layer1"
     transform="translate(-68.012455,-79.269473)">
    <path
       style="fill:none;stroke:#000000;stroke-width:0.363646;stroke-linecap:round;stroke-linejoin:miter;stroke-dasharray:none;stroke-opacity:1;marker-end:url(#TriangleStart)"
       d="M 68.194278,92.580236 H 146.05424"
       id="path1178" />
    <circle
       style="opacity:1;fill:#ff0000;fill-opacity:1;stroke-width:0.453215;stroke-linecap:round;stroke-dasharray:none"
       id="circle1180"
       cx="107.58504"
       cy="92.524193"
       r="1.1014913" />
    <circle
       style="opacity:1;fill:#ff0000;fill-opacity:1;stroke-width:0.453215;stroke-linecap:round;stroke-dasharray:none"
       id="circle1182"
       cx="114.1556"
       cy="92.524193"
       r="1.1014913" />
    <circle
       style="opacity:1;fill:#ff0000;fill-opacity:1;stroke-width:0.453215;stroke-linecap:round;stroke-dasharray:none"
       id="circle1184"
       cx="120.72617"
       cy="92.524193"
       r="1.1014913" />
    <circle
       style="opacity:1;fill:#ff0000;fill-opacity:1;stroke-width:0.453215;stroke-linecap:round;stroke-dasharray:none"
       id="circle1186"
       cx="127.29673"
       cy="92.524193"
       r="1.1014913" />
    <circle
       style="opacity:1;fill:#ff0000;fill-opacity:1;stroke-width:0.453215;stroke-linecap:round;stroke-dasharray:none"
       id="circle1188"
       cx="133.86729"
       cy="92.524193"
       r="1.1014913" />
    <circle
       style="opacity:1;fill:#ff0000;fill-opacity:1;stroke-width:0.453215;stroke-linecap:round;stroke-dasharray:none"
       id="circle1190"
       cx="140.43784"
       cy="92.524193"
       r="1.1014913" />
    <circle
       style="opacity:1;fill:#ff0000;fill-opacity:1;stroke-width:0.453215;stroke-linecap:round;stroke-dasharray:none"
       id="circle1192"
       cx="101.01449"
       cy="92.524193"
       r="1.1014913" />
    <circle
       style="opacity:1;fill:#ff0000;fill-opacity:1;stroke-width:0.453215;stroke-linecap:round;stroke-dasharray:none"
       id="circle1194"
       cx="94.443924"
       cy="92.524193"
       r="1.1014913" />
    <circle
       style="opacity:1;fill:#ff0000;fill-opacity:1;stroke-width:0.453215;stroke-linecap:round;stroke-dasharray:none"
       id="circle1196"
       cx="87.873367"
       cy="92.524193"
       r="1.1014913" />
    <circle
       style="opacity:1;fill:#ff0000;fill-opacity:1;stroke-width:0.453215;stroke-linecap:round;stroke-dasharray:none"
       id="circle1198"
       cx="81.302811"
       cy="92.524193"
       r="1.1014913" />
    <circle
       style="opacity:1;fill:#ff0000;fill-opacity:1;stroke-width:0.453215;stroke-linecap:round;stroke-dasharray:none"
       id="circle1200"
       cx="74.732246"
       cy="92.524193"
       r="1.1014913" />
    <g
       inkscape:label=""
       transform="translate(106.84641,95.584684)"
       id="g1248">
      <g
         clip-path="url(#clipPath2773)"
         id="g16"
         transform="matrix(0.352778,0,0,0.352778,-0.137804,0.0778316)">
        <g
           fill="#000000"
           fill-opacity="1"
           id="g14">
          <g
             id="use12"
             transform="translate(0,6.4200001)">
            <path
               d="m 4.578125,-3.1875 c 0,-0.796875 -0.046875,-1.59375 -0.390625,-2.328125 -0.453125,-0.96875 -1.28125,-1.125 -1.6875,-1.125 -0.609375,0 -1.328125,0.265625 -1.75,1.1875 -0.3125,0.6875 -0.359375,1.46875 -0.359375,2.265625 0,0.75 0.03125,1.640625 0.453125,2.40625 0.421875,0.796875 1.15625,1 1.640625,1 0.53125,0 1.296875,-0.203125 1.734375,-1.15625 0.3125,-0.6875 0.359375,-1.46875 0.359375,-2.25 z M 2.484375,0 C 2.09375,0 1.5,-0.25 1.328125,-1.203125 1.21875,-1.796875 1.21875,-2.71875 1.21875,-3.3125 c 0,-0.640625 0,-1.296875 0.078125,-1.828125 0.1875,-1.1875 0.9375,-1.28125 1.1875,-1.28125 0.328125,0 0.984375,0.1875 1.171875,1.171875 0.109375,0.5625 0.109375,1.3125 0.109375,1.9375 0,0.75 0,1.421875 -0.109375,2.0625 C 3.5,-0.296875 2.9375,0 2.484375,0 Z m 0,0"
               id="path22" />
          </g>
        </g>
      </g>
    </g>
    <g
       inkscape:label=""
       transform="translate(113.57683,95.585346)"
       id="g1331">
      <g
         clip-path="url(#clipPath3273)"
         id="g1329"
         transform="matrix(0.352778,0,0,0.352778,-0.314193,0.0778316)">
        <g
           fill="#000000"
           fill-opacity="1"
           id="g1327">
          <g
             id="g1325"
             transform="translate(0,6.4200001)">
            <path
               d="m 2.9375,-6.375 c 0,-0.25 0,-0.265625 -0.234375,-0.265625 C 2.078125,-6 1.203125,-6 0.890625,-6 v 0.3125 c 0.203125,0 0.78125,0 1.296875,-0.265625 v 5.171875 c 0,0.359375 -0.03125,0.46875 -0.921875,0.46875 h -0.3125 V 0 c 0.34375,-0.03125 1.203125,-0.03125 1.609375,-0.03125 0.390625,0 1.265625,0 1.609375,0.03125 v -0.3125 h -0.3125 c -0.90625,0 -0.921875,-0.109375 -0.921875,-0.46875 z m 0,0"
               id="path1323" />
          </g>
        </g>
      </g>
    </g>
    <g
       inkscape:label=""
       transform="translate(99.057849,95.585346)"
       id="g1426">
      <g
         fill="#000000"
         fill-opacity="1"
         id="g1421"
         transform="matrix(0.352778,0,0,0.352778,-0.292144,0.0774788)">
        <g
           id="g1419"
           transform="translate(0,6.421)">
          <path
             d="m 6.5625,-2.296875 c 0.171875,0 0.359375,0 0.359375,-0.203125 0,-0.1875 -0.1875,-0.1875 -0.359375,-0.1875 H 1.171875 c -0.171875,0 -0.34375,0 -0.34375,0.1875 0,0.203125 0.171875,0.203125 0.34375,0.203125 z m 0,0"
             id="path24" />
        </g>
      </g>
      <g
         fill="#000000"
         fill-opacity="1"
         id="g18"
         transform="matrix(0.352778,0,0,0.352778,-0.292144,0.0774788)">
        <g
           id="use16"
           transform="translate(7.7490001,6.421)">
          <path
             d="m 2.9375,-6.375 c 0,-0.25 0,-0.265625 -0.234375,-0.265625 C 2.078125,-6 1.203125,-6 0.890625,-6 v 0.3125 c 0.203125,0 0.78125,0 1.296875,-0.265625 v 5.171875 c 0,0.359375 -0.03125,0.46875 -0.921875,0.46875 h -0.3125 V 0 c 0.34375,-0.03125 1.203125,-0.03125 1.609375,-0.03125 0.390625,0 1.265625,0 1.609375,0.03125 v -0.3125 h -0.3125 c -0.90625,0 -0.921875,-0.109375 -0.921875,-0.46875 z m 0,0"
             id="path28" />
        </g>
      </g>
    </g>
    <g
       inkscape:label=""
       transform="translate(92.434919,95.585346)"
       id="g1536">
      <g
         fill="#000000"
         fill-opacity="1"
         id="g17"
         transform="matrix(0.352778,0,0,0.352778,-0.292144,0.0774788)">
        <g
           id="use15"
           transform="translate(0,6.421)">
          <path
             d="m 6.5625,-2.296875 c 0.171875,0 0.359375,0 0.359375,-0.203125 0,-0.1875 -0.1875,-0.1875 -0.359375,-0.1875 H 1.171875 c -0.171875,0 -0.34375,0 -0.34375,0.1875 0,0.203125 0.171875,0.203125 0.34375,0.203125 z m 0,0"
             id="path29" />
        </g>
      </g>
      <g
         clip-path="url(#clipPath6595)"
         id="g23"
         transform="matrix(0.352778,0,0,0.352778,-0.292144,0.0774788)">
        <g
           fill="#000000"
           fill-opacity="1"
           id="g21">
          <g
             id="use19"
             transform="translate(7.7490001,6.421)">
            <path
               d="m 1.265625,-0.765625 1.0625,-1.03125 c 1.546875,-1.375 2.140625,-1.90625 2.140625,-2.90625 0,-1.140625 -0.890625,-1.9375 -2.109375,-1.9375 -1.125,0 -1.859375,0.921875 -1.859375,1.8125 0,0.546875 0.5,0.546875 0.53125,0.546875 0.171875,0 0.515625,-0.109375 0.515625,-0.53125 0,-0.25 -0.1875,-0.515625 -0.53125,-0.515625 -0.078125,0 -0.09375,0 -0.125,0.015625 0.21875,-0.65625 0.765625,-1.015625 1.34375,-1.015625 0.90625,0 1.328125,0.8125 1.328125,1.625 C 3.5625,-3.90625 3.078125,-3.125 2.515625,-2.5 l -1.90625,2.125 C 0.5,-0.265625 0.5,-0.234375 0.5,0 H 4.203125 L 4.46875,-1.734375 H 4.234375 C 4.171875,-1.4375 4.109375,-1 4,-0.84375 3.9375,-0.765625 3.28125,-0.765625 3.0625,-0.765625 Z m 0,0"
               id="path33" />
          </g>
        </g>
      </g>
    </g>
    <g
       inkscape:label=""
       transform="translate(85.847826,95.508175)"
       id="g1676">
      <g
         fill="#000000"
         fill-opacity="1"
         id="g1666"
         transform="matrix(0.352778,0,0,0.352778,-0.292144,0.0774788)">
        <g
           id="g1664"
           transform="translate(0,6.421)">
          <path
             d="m 6.5625,-2.296875 c 0.171875,0 0.359375,0 0.359375,-0.203125 0,-0.1875 -0.1875,-0.1875 -0.359375,-0.1875 H 1.171875 c -0.171875,0 -0.34375,0 -0.34375,0.1875 0,0.203125 0.171875,0.203125 0.34375,0.203125 z m 0,0"
             id="path1662" />
        </g>
      </g>
      <g
         clip-path="url(#clipPath7598)"
         id="g1674"
         transform="matrix(0.352778,0,0,0.352778,-0.292144,0.0774788)">
        <g
           fill="#000000"
           fill-opacity="1"
           id="g1672">
          <g
             id="g1670"
             transform="translate(7.7490001,6.421)">
            <path
               d="m 2.890625,-3.515625 c 0.8125,-0.265625 1.390625,-0.953125 1.390625,-1.75 0,-0.8125 -0.875,-1.375 -1.828125,-1.375 -1,0 -1.765625,0.59375 -1.765625,1.359375 0,0.328125 0.21875,0.515625 0.515625,0.515625 0.296875,0 0.5,-0.21875 0.5,-0.515625 0,-0.484375 -0.46875,-0.484375 -0.609375,-0.484375 0.296875,-0.5 0.953125,-0.625 1.3125,-0.625 0.421875,0 0.96875,0.21875 0.96875,1.109375 0,0.125 -0.03125,0.703125 -0.28125,1.140625 C 2.796875,-3.65625 2.453125,-3.625 2.203125,-3.625 2.125,-3.609375 1.890625,-3.59375 1.8125,-3.59375 c -0.078125,0.015625 -0.140625,0.03125 -0.140625,0.125 0,0.109375 0.0625,0.109375 0.234375,0.109375 h 0.4375 c 0.8125,0 1.1875,0.671875 1.1875,1.65625 0,1.359375 -0.6875,1.640625 -1.125,1.640625 -0.4375,0 -1.1875,-0.171875 -1.53125,-0.75 0.34375,0.046875 0.65625,-0.171875 0.65625,-0.546875 0,-0.359375 -0.265625,-0.5625 -0.546875,-0.5625 -0.25,0 -0.5625,0.140625 -0.5625,0.578125 0,0.90625 0.921875,1.5625 2.015625,1.5625 1.21875,0 2.125,-0.90625 2.125,-1.921875 0,-0.8125 -0.640625,-1.59375 -1.671875,-1.8125 z m 0,0"
               id="path1668" />
          </g>
        </g>
      </g>
    </g>
    <g
       inkscape:label=""
       transform="translate(79.255221,95.54676)"
       id="g1836">
      <g
         fill="#000000"
         fill-opacity="1"
         id="g1826"
         transform="matrix(0.352778,0,0,0.352778,-0.292144,0.116064)">
        <g
           id="g1824"
           transform="translate(0,6.421)">
          <path
             d="m 6.5625,-2.296875 c 0.171875,0 0.359375,0 0.359375,-0.203125 0,-0.1875 -0.1875,-0.1875 -0.359375,-0.1875 H 1.171875 c -0.171875,0 -0.34375,0 -0.34375,0.1875 0,0.203125 0.171875,0.203125 0.34375,0.203125 z m 0,0"
             id="path1822" />
        </g>
      </g>
      <g
         clip-path="url(#clipPath2050)"
         id="g1834"
         transform="matrix(0.352778,0,0,0.352778,-0.292144,0.116064)">
        <g
           fill="#000000"
           fill-opacity="1"
           id="g1832">
          <g
             id="g1830"
             transform="translate(7.7490001,6.421)">
            <path
               d="m 2.9375,-1.640625 v 0.859375 c 0,0.359375 -0.03125,0.46875 -0.765625,0.46875 H 1.96875 V 0 C 2.375,-0.03125 2.890625,-0.03125 3.3125,-0.03125 c 0.421875,0 0.9375,0 1.359375,0.03125 v -0.3125 h -0.21875 c -0.734375,0 -0.75,-0.109375 -0.75,-0.46875 V -1.640625 H 4.6875 v -0.3125 H 3.703125 v -4.53125 c 0,-0.203125 0,-0.265625 -0.171875,-0.265625 -0.078125,0 -0.109375,0 -0.1875,0.125 l -3.0625,4.671875 v 0.3125 z m 0.046875,-0.3125 H 0.5625 l 2.421875,-3.71875 z m 0,0"
               id="path1828" />
          </g>
        </g>
      </g>
    </g>
    <g
       inkscape:label=""
       transform="translate(133.09008,95.546761)"
       id="g2010">
      <g
         clip-path="url(#clipPath9309)"
         id="g2008"
         transform="matrix(0.352778,0,0,0.352778,-0.0992187,0.116417)">
        <g
           fill="#000000"
           fill-opacity="1"
           id="g2006">
          <g
             id="g2004"
             transform="translate(0,6.4200001)">
            <path
               d="m 2.9375,-1.640625 v 0.859375 c 0,0.359375 -0.03125,0.46875 -0.765625,0.46875 H 1.96875 V 0 C 2.375,-0.03125 2.890625,-0.03125 3.3125,-0.03125 c 0.421875,0 0.9375,0 1.359375,0.03125 v -0.3125 h -0.21875 c -0.734375,0 -0.75,-0.109375 -0.75,-0.46875 V -1.640625 H 4.6875 v -0.3125 H 3.703125 v -4.53125 c 0,-0.203125 0,-0.265625 -0.171875,-0.265625 -0.078125,0 -0.109375,0 -0.1875,0.125 l -3.0625,4.671875 v 0.3125 z m 0.046875,-0.3125 H 0.5625 l 2.421875,-3.71875 z m 0,0"
               id="path2002" />
          </g>
        </g>
      </g>
    </g>
    <g
       inkscape:label=""
       transform="translate(126.56637,95.584685)"
       id="g2195">
      <g
         clip-path="url(#clipPath872)"
         id="g2193"
         transform="matrix(0.352778,0,0,0.352778,-0.148828,0.0778316)">
        <g
           fill="#000000"
           fill-opacity="1"
           id="g2191">
          <g
             id="g2189"
             transform="translate(0,6.4200001)">
            <path
               d="m 2.890625,-3.515625 c 0.8125,-0.265625 1.390625,-0.953125 1.390625,-1.75 0,-0.8125 -0.875,-1.375 -1.828125,-1.375 -1,0 -1.765625,0.59375 -1.765625,1.359375 0,0.328125 0.21875,0.515625 0.515625,0.515625 0.296875,0 0.5,-0.21875 0.5,-0.515625 0,-0.484375 -0.46875,-0.484375 -0.609375,-0.484375 0.296875,-0.5 0.953125,-0.625 1.3125,-0.625 0.421875,0 0.96875,0.21875 0.96875,1.109375 0,0.125 -0.03125,0.703125 -0.28125,1.140625 C 2.796875,-3.65625 2.453125,-3.625 2.203125,-3.625 2.125,-3.609375 1.890625,-3.59375 1.8125,-3.59375 c -0.078125,0.015625 -0.140625,0.03125 -0.140625,0.125 0,0.109375 0.0625,0.109375 0.234375,0.109375 h 0.4375 c 0.8125,0 1.1875,0.671875 1.1875,1.65625 0,1.359375 -0.6875,1.640625 -1.125,1.640625 -0.4375,0 -1.1875,-0.171875 -1.53125,-0.75 0.34375,0.046875 0.65625,-0.171875 0.65625,-0.546875 0,-0.359375 -0.265625,-0.5625 -0.546875,-0.5625 -0.25,0 -0.5625,0.140625 -0.5625,0.578125 0,0.90625 0.921875,1.5625 2.015625,1.5625 1.21875,0 2.125,-0.90625 2.125,-1.921875 0,-0.8125 -0.640625,-1.59375 -1.671875,-1.8125 z m 0,0"
               id="path2187" />
          </g>
        </g>
      </g>
    </g>
    <g
       inkscape:label=""
       transform="translate(120.02613,95.585346)"
       id="g2394">
      <g
         clip-path="url(#clipPath8648)"
         id="g2392"
         transform="matrix(0.352778,0,0,0.352778,-0.176389,0.0778316)">
        <g
           fill="#000000"
           fill-opacity="1"
           id="g2390">
          <g
             id="g2388"
             transform="translate(0,6.4200001)">
            <path
               d="m 1.265625,-0.765625 1.0625,-1.03125 c 1.546875,-1.375 2.140625,-1.90625 2.140625,-2.90625 0,-1.140625 -0.890625,-1.9375 -2.109375,-1.9375 -1.125,0 -1.859375,0.921875 -1.859375,1.8125 0,0.546875 0.5,0.546875 0.53125,0.546875 0.171875,0 0.515625,-0.109375 0.515625,-0.53125 0,-0.25 -0.1875,-0.515625 -0.53125,-0.515625 -0.078125,0 -0.09375,0 -0.125,0.015625 0.21875,-0.65625 0.765625,-1.015625 1.34375,-1.015625 0.90625,0 1.328125,0.8125 1.328125,1.625 C 3.5625,-3.90625 3.078125,-3.125 2.515625,-2.5 l -1.90625,2.125 C 0.5,-0.265625 0.5,-0.234375 0.5,0 H 4.203125 L 4.46875,-1.734375 H 4.234375 C 4.171875,-1.4375 4.109375,-1 4,-0.84375 3.9375,-0.765625 3.28125,-0.765625 3.0625,-0.765625 Z m 0,0"
               id="path2386" />
          </g>
        </g>
      </g>
    </g>
    <path
       style="fill:none;stroke:#000000;stroke-width:0.363646;stroke-linecap:round;stroke-linejoin:miter;stroke-dasharray:none;stroke-opacity:1;marker-end:url(#TriangleStart)"
       d="M 68.194278,80.42701 H 146.05424"
       id="path2418" />
    <circle
       style="opacity:1;fill:#ff0000;fill-opacity:1;stroke-width:0.453215;stroke-linecap:round;stroke-dasharray:none"
       id="circle2420"
       cx="107.58504"
       cy="80.370964"
       r="1.1014913" />
    <circle
       style="opacity:1;fill:#ff0000;fill-opacity:1;stroke-width:0.453215;stroke-linecap:round;stroke-dasharray:none"
       id="circle2422"
       cx="114.1556"
       cy="80.370964"
       r="1.1014913" />
    <g
       inkscape:label=""
       transform="translate(106.84641,83.431458)"
       id="g2450">
      <g
         clip-path="url(#clipPath2773)"
         id="g2448"
         transform="matrix(0.352778,0,0,0.352778,-0.137804,0.0778316)">
        <g
           fill="#000000"
           fill-opacity="1"
           id="g2446">
          <g
             id="g2444"
             transform="translate(0,6.4200001)">
            <path
               d="m 4.578125,-3.1875 c 0,-0.796875 -0.046875,-1.59375 -0.390625,-2.328125 -0.453125,-0.96875 -1.28125,-1.125 -1.6875,-1.125 -0.609375,0 -1.328125,0.265625 -1.75,1.1875 -0.3125,0.6875 -0.359375,1.46875 -0.359375,2.265625 0,0.75 0.03125,1.640625 0.453125,2.40625 0.421875,0.796875 1.15625,1 1.640625,1 0.53125,0 1.296875,-0.203125 1.734375,-1.15625 0.3125,-0.6875 0.359375,-1.46875 0.359375,-2.25 z M 2.484375,0 C 2.09375,0 1.5,-0.25 1.328125,-1.203125 1.21875,-1.796875 1.21875,-2.71875 1.21875,-3.3125 c 0,-0.640625 0,-1.296875 0.078125,-1.828125 0.1875,-1.1875 0.9375,-1.28125 1.1875,-1.28125 0.328125,0 0.984375,0.1875 1.171875,1.171875 0.109375,0.5625 0.109375,1.3125 0.109375,1.9375 0,0.75 0,1.421875 -0.109375,2.0625 C 3.5,-0.296875 2.9375,0 2.484375,0 Z m 0,0"
               id="path2442" />
          </g>
        </g>
      </g>
    </g>
    <g
       inkscape:label=""
       transform="translate(113.57683,83.43212)"
       id="g2460">
      <g
         clip-path="url(#clipPath3273)"
         id="g2458"
         transform="matrix(0.352778,0,0,0.352778,-0.314193,0.0778316)">
        <g
           fill="#000000"
           fill-opacity="1"
           id="g2456">
          <g
             id="g2454"
             transform="translate(0,6.4200001)">
            <path
               d="m 2.9375,-6.375 c 0,-0.25 0,-0.265625 -0.234375,-0.265625 C 2.078125,-6 1.203125,-6 0.890625,-6 v 0.3125 c 0.203125,0 0.78125,0 1.296875,-0.265625 v 5.171875 c 0,0.359375 -0.03125,0.46875 -0.921875,0.46875 h -0.3125 V 0 c 0.34375,-0.03125 1.203125,-0.03125 1.609375,-0.03125 0.390625,0 1.265625,0 1.609375,0.03125 v -0.3125 h -0.3125 c -0.90625,0 -0.921875,-0.109375 -0.921875,-0.46875 z m 0,0"
               id="path2452" />
          </g>
        </g>
      </g>
    </g>
  </g>
</svg>
