<?xml version="1.0" encoding="UTF-8" standalone="no"?>
<!-- Created with Inkscape (http://www.inkscape.org/) -->

<svg
   width="67.638489mm"
   height="66.098923mm"
   viewBox="0 0 67.638489 66.098923"
   version="1.1"
   id="svg5"
   sodipodi:docname="fig-13.svg"
   inkscape:version="1.2.2 (b0a8486541, 2022-12-01)"
   xmlns:inkscape="http://www.inkscape.org/namespaces/inkscape"
   xmlns:sodipodi="http://sodipodi.sourceforge.net/DTD/sodipodi-0.dtd"
   xmlns="http://www.w3.org/2000/svg"
   xmlns:svg="http://www.w3.org/2000/svg">
  <sodipodi:namedview
     id="namedview7"
     pagecolor="#ffffff"
     bordercolor="#666666"
     borderopacity="1.0"
     inkscape:showpageshadow="2"
     inkscape:pageopacity="0.0"
     inkscape:pagecheckerboard="0"
     inkscape:deskcolor="#d1d1d1"
     inkscape:document-units="mm"
     showgrid="false"
     inkscape:zoom="1.6655301"
     inkscape:cx="137.79397"
     inkscape:cy="164.81239"
     inkscape:window-width="1600"
     inkscape:window-height="842"
     inkscape:window-x="0"
     inkscape:window-y="0"
     inkscape:window-maximized="1"
     inkscape:current-layer="g280" />
  <defs
     id="defs2">
    <clipPath
       id="clipPath2243">
      <path
         clip-rule="nonzero"
         d="m 1,7 h 4 v 4.851562 H 1 Z m 0,0"
         id="path3248" />
    </clipPath>
    <clipPath
       id="clipPath2371">
      <path
         clip-rule="nonzero"
         d="m 1,7 h 4 v 4.851562 H 1 Z m 0,0"
         id="path2660" />
    </clipPath>
    <clipPath
       id="clipPath3634">
      <path
         clip-rule="nonzero"
         d="m 1,8 h 5 v 5.964844 H 1 Z m 0,0"
         id="path4434" />
    </clipPath>
    <clipPath
       id="clipPath1569">
      <path
         clip-rule="nonzero"
         d="m 1,8 h 5 v 5.964844 H 1 Z m 0,0"
         id="path661" />
    </clipPath>
    <clipPath
       id="clipPath9978">
      <path
         clip-rule="nonzero"
         d="m 10,11 h 5 v 5.464844 h -5 z m 0,0"
         id="path1058" />
    </clipPath>
    <clipPath
       id="clipPath9462">
      <path
         clip-rule="nonzero"
         d="m 12,11 h 5 v 5.464844 h -5 z m 0,0"
         id="path8503" />
    </clipPath>
    <clipPath
       id="clipPath7819">
      <path
         clip-rule="nonzero"
         d="m 1,8 h 9 v 5.964844 H 1 Z m 0,0"
         id="path6971" />
    </clipPath>
  </defs>
  <g
     inkscape:label="Capa 1"
     inkscape:groupmode="layer"
     id="layer1"
     transform="translate(-94.647284,-170.29908)" />
  <g
     inkscape:groupmode="layer"
     inkscape:label="Gráfica-Capa: apples:3,bananas:5,oranges:10,pears:4"
     id="g96"
     transform="translate(-94.647284,-170.29908)" />
  <g
     inkscape:groupmode="layer"
     inkscape:label="Gráfica-Capa: a:1,b:1, c:1, d:1, e:1, f:1, g:1, h:1"
     id="g280"
     transform="translate(-94.647284,-170.29908)">
    <ellipse
       cx="108.17162"
       cy="182.52914"
       style="fill:#f9f9f9;stroke:#ececec;stroke-width:0.26733"
       id="circle230"
       rx="12.103379"
       ry="12.096401" />
    <path
       sodipodi:cx="108.17162"
       sodipodi:cy="182.52914"
       sodipodi:rx="12.103379"
       sodipodi:ry="12.096401"
       sodipodi:type="arc"
       sodipodi:start="0"
       sodipodi:end="0.785398"
       d="m 120.275,182.52914 a 12.103379,12.096401 0 0 1 -3.54499,8.55345 l -8.55839,-8.55345 z"
       style="fill:none;fill-opacity:1;stroke:#000000;stroke-width:0.26733;stroke-opacity:1"
       id="path236"
       sodipodi:arc-type="slice" />
    <path
       sodipodi:cx="108.17162"
       sodipodi:cy="182.52914"
       sodipodi:rx="12.103379"
       sodipodi:ry="12.096401"
       sodipodi:type="arc"
       sodipodi:start="0.785398"
       sodipodi:end="1.570796"
       d="m 116.73001,191.08259 a 12.103379,12.096401 0 0 1 -8.55839,3.54296 v -12.09641 z"
       style="fill:none;fill-opacity:1;stroke:#000000;stroke-width:0.26733;stroke-opacity:1"
       id="path242"
       sodipodi:arc-type="slice" />
    <path
       sodipodi:cx="108.17162"
       sodipodi:cy="182.52914"
       sodipodi:rx="12.103379"
       sodipodi:ry="12.096401"
       sodipodi:type="arc"
       sodipodi:start="1.570796"
       sodipodi:end="2.356194"
       d="m 108.17162,194.62555 a 12.103379,12.096401 0 0 1 -8.558374,-3.54295 l 8.558374,-8.55346 z"
       style="fill:none;fill-opacity:1;stroke:#000000;stroke-width:0.26733;stroke-opacity:1"
       id="path248"
       sodipodi:arc-type="slice" />
    <path
       sodipodi:cx="108.17162"
       sodipodi:cy="182.52914"
       sodipodi:rx="12.103379"
       sodipodi:ry="12.096401"
       sodipodi:type="arc"
       sodipodi:start="2.356194"
       sodipodi:end="3.141592"
       d="m 99.613246,191.0826 a 12.103379,12.096401 0 0 1 -3.545002,-8.55346 h 12.103376 z"
       style="fill:none;fill-opacity:1;stroke:#000000;stroke-width:0.26733;stroke-opacity:1"
       id="path254"
       sodipodi:arc-type="slice" />
    <path
       sodipodi:cx="108.17162"
       sodipodi:cy="182.52914"
       sodipodi:rx="12.103379"
       sodipodi:ry="12.096401"
       sodipodi:type="arc"
       sodipodi:start="3.141592"
       sodipodi:end="3.92699"
       d="m 96.068244,182.52914 a 12.103379,12.096401 0 0 1 3.544991,-8.55344 l 8.558385,8.55344 z"
       style="fill:none;fill-opacity:1;stroke:#000000;stroke-width:0.26733;stroke-opacity:1"
       id="path260"
       sodipodi:arc-type="slice" />
    <path
       sodipodi:cx="108.17162"
       sodipodi:cy="182.52914"
       sodipodi:rx="12.103379"
       sodipodi:ry="12.096401"
       sodipodi:type="arc"
       sodipodi:start="3.92699"
       sodipodi:end="4.712388"
       d="m 99.613235,173.9757 a 12.103379,12.096401 0 0 1 8.558385,-3.54296 v 12.0964 z"
       style="fill:none;fill-opacity:1;stroke:#000000;stroke-width:0.26733;stroke-opacity:1"
       id="path266"
       sodipodi:arc-type="slice" />
    <path
       sodipodi:cx="108.17162"
       sodipodi:cy="182.52914"
       sodipodi:rx="12.103379"
       sodipodi:ry="12.096401"
       sodipodi:type="arc"
       sodipodi:start="4.712388"
       sodipodi:end="5.497786"
       d="m 108.17162,170.43274 a 12.103379,12.096401 0 0 1 8.55837,3.54295 l -8.55837,8.55345 z"
       style="fill:none;fill-opacity:1;stroke:#000000;stroke-width:0.26733;stroke-opacity:1"
       id="path272"
       sodipodi:arc-type="slice" />
    <path
       sodipodi:cx="110.56446"
       sodipodi:cy="181.55081"
       sodipodi:rx="12.103379"
       sodipodi:ry="12.096401"
       sodipodi:type="arc"
       sodipodi:start="5.497786"
       sodipodi:end="6.283184"
       d="m 119.12283,172.99735 a 12.103379,12.096401 0 0 1 3.54501,8.55345 l -12.10338,1e-5 z"
       style="fill:#484848;fill-opacity:1;stroke:#000000;stroke-width:0.347531;stroke-dasharray:none;stroke-opacity:1"
       id="path278"
       sodipodi:arc-type="slice" />
    <g
       fill="#000000"
       fill-opacity="1"
       id="g17"
       transform="matrix(0.352778,0,0,0.352778,117.60874,175.73992)"
       style="fill:#ffffff">
      <g
         id="use15"
         transform="translate(1.196,5.1360002)"
         style="fill:#ffffff">
        <path
           d="m 2.5,-5.078125 c 0,-0.21875 -0.015625,-0.21875 -0.234375,-0.21875 -0.328125,0.3125 -0.75,0.5 -1.5,0.5 v 0.265625 c 0.21875,0 0.640625,0 1.109375,-0.203125 v 4.078125 c 0,0.296875 -0.03125,0.390625 -0.78125,0.390625 H 0.8125 V 0 c 0.328125,-0.03125 1.015625,-0.03125 1.375,-0.03125 0.359375,0 1.046875,0 1.375,0.03125 V -0.265625 H 3.28125 c -0.75,0 -0.78125,-0.09375 -0.78125,-0.390625 z m 0,0"
           id="path31"
           style="fill:#ffffff" />
      </g>
    </g>
    <path
       fill="none"
       stroke-width="0.168628"
       stroke-linecap="butt"
       stroke-linejoin="miter"
       stroke="#000000"
       stroke-opacity="1"
       stroke-miterlimit="10"
       d="m 118.03042,178.15838 h 1.49379"
       id="path19"
       style="fill:#ffffff;stroke:#ffffff;stroke-opacity:1" />
    <g
       clip-path="url(#clipPath1569)"
       id="g25"
       transform="matrix(0.352778,0,0,0.352778,117.60874,175.73992)"
       style="fill:#ffffff">
      <g
         fill="#000000"
         fill-opacity="1"
         id="g23"
         style="fill:#ffffff">
        <g
           id="use21"
           transform="translate(1.196,13.966)"
           style="fill:#ffffff">
          <path
             d="m 2.640625,-2.875 c 0.453125,-0.21875 1,-0.609375 1,-1.234375 0,-0.765625 -0.78125,-1.1875 -1.515625,-1.1875 -0.84375,0 -1.53125,0.578125 -1.53125,1.328125 0,0.296875 0.09375,0.5625 0.296875,0.796875 0.140625,0.171875 0.171875,0.1875 0.65625,0.5 -0.984375,0.4375 -1.203125,1.015625 -1.203125,1.453125 0,0.890625 0.890625,1.390625 1.765625,1.390625 0.96875,0 1.765625,-0.671875 1.765625,-1.515625 0,-0.5 -0.265625,-0.828125 -0.40625,-0.96875 -0.125,-0.125 -0.140625,-0.140625 -0.828125,-0.5625 z M 1.40625,-3.625 C 1.171875,-3.765625 0.984375,-4 0.984375,-4.265625 c 0,-0.5 0.546875,-0.828125 1.125,-0.828125 0.609375,0 1.125,0.421875 1.125,0.984375 0,0.453125 -0.359375,0.84375 -0.828125,1.078125 z m 0.390625,1.09375 c 0.03125,0.015625 0.9375,0.578125 1.078125,0.65625 0.125,0.078125 0.546875,0.328125 0.546875,0.8125 0,0.609375 -0.65625,0.984375 -1.296875,0.984375 -0.71875,0 -1.3125,-0.484375 -1.3125,-1.140625 0,-0.59375 0.4375,-1.0625 0.984375,-1.3125 z m 0,0"
             id="path35"
             style="fill:#ffffff" />
        </g>
      </g>
    </g>
    <g
       inkscape:label=""
       transform="translate(125.13863,179.70406)"
       id="g8193">
      <g
         fill="#000000"
         fill-opacity="1"
         id="g8068"
         transform="matrix(0.352778,0,0,0.352778,-0.42168,0.00970144)">
        <g
           id="g8066"
           transform="translate(1.196,5.5349998)">
          <path
             d="m 2.5,-5.078125 c 0,-0.21875 -0.015625,-0.21875 -0.234375,-0.21875 -0.328125,0.3125 -0.75,0.5 -1.5,0.5 v 0.265625 c 0.21875,0 0.640625,0 1.109375,-0.203125 v 4.078125 c 0,0.296875 -0.03125,0.390625 -0.78125,0.390625 H 0.8125 V 0 c 0.328125,-0.03125 1.015625,-0.03125 1.375,-0.03125 0.359375,0 1.046875,0 1.375,0.03125 V -0.265625 H 3.28125 c -0.75,0 -0.78125,-0.09375 -0.78125,-0.390625 z m 0,0"
             id="path175" />
        </g>
      </g>
      <g
         fill="#000000"
         fill-opacity="1"
         id="g8073"
         transform="matrix(0.352778,0,0,0.352778,-0.42168,0.00970144)">
        <g
           id="g8071"
           transform="translate(8.2519302,5.5349998)">
          <path
             d="m 2.09375,1.28125 c -0.515625,0 -0.609375,0 -0.609375,-0.359375 v -1.3125 c 0.375,0.40625 0.78125,0.46875 1.046875,0.46875 1,0 1.890625,-0.78125 1.890625,-1.796875 0,-1 -0.8125,-1.796875 -1.78125,-1.796875 -0.3125,0 -0.765625,0.078125 -1.171875,0.5 v -0.5 l -1.1875,0.09375 v 0.265625 c 0.5625,0 0.609375,0.046875 0.609375,0.375 v 3.703125 c 0,0.359375 -0.109375,0.359375 -0.609375,0.359375 v 0.265625 c 0.34375,-0.03125 0.6875,-0.03125 0.90625,-0.03125 0.234375,0 0.5625,0 0.90625,0.03125 z m -0.609375,-3.9375 c 0.1875,-0.3125 0.59375,-0.609375 1.09375,-0.609375 0.609375,0 1.125,0.671875 1.125,1.546875 0,0.90625 -0.578125,1.578125 -1.21875,1.578125 -0.28125,0 -0.640625,-0.125 -0.90625,-0.515625 -0.09375,-0.140625 -0.09375,-0.15625 -0.09375,-0.296875 z m 0,0"
             id="path179" />
        </g>
      </g>
      <g
         fill="#000000"
         fill-opacity="1"
         id="g8090"
         transform="matrix(0.352778,0,0,0.352778,-0.42168,0.00970144)">
        <g
           id="g8076"
           transform="translate(13.195783,5.5349998)">
          <path
             d="m 3.984375,-1.703125 c 0,-0.984375 -0.828125,-1.84375 -1.875,-1.84375 -1.046875,0 -1.875,0.859375 -1.875,1.84375 0,1 0.859375,1.78125 1.875,1.78125 1.03125,0 1.875,-0.78125 1.875,-1.78125 z m -1.875,1.53125 C 1.6875,-0.171875 1.34375,-0.375 1.171875,-0.65625 0.96875,-0.984375 0.953125,-1.375 0.953125,-1.765625 c 0,-0.3125 0,-0.78125 0.234375,-1.125 0.21875,-0.28125 0.546875,-0.4375 0.921875,-0.4375 0.421875,0 0.765625,0.203125 0.9375,0.46875 0.21875,0.34375 0.234375,0.765625 0.234375,1.09375 0,0.359375 -0.015625,0.796875 -0.25,1.140625 -0.203125,0.3125 -0.5625,0.453125 -0.921875,0.453125 z m 0,0"
             id="path183" />
        </g>
        <g
           id="g8079"
           transform="translate(17.430298,5.5349998)">
          <path
             d="m 1.46875,-1.8125 c 0,-0.609375 0.25,-1.46875 1.015625,-1.484375 -0.046875,0.03125 -0.140625,0.09375 -0.140625,0.28125 0,0.25 0.203125,0.359375 0.359375,0.359375 0.1875,0 0.359375,-0.125 0.359375,-0.359375 0,-0.28125 -0.25,-0.5 -0.609375,-0.5 -0.515625,0 -0.875,0.390625 -1.03125,0.84375 H 1.40625 v -0.84375 l -1.125,0.09375 v 0.265625 c 0.546875,0 0.609375,0.046875 0.609375,0.4375 V -0.625 c 0,0.359375 -0.109375,0.359375 -0.609375,0.359375 V 0 c 0.3125,-0.03125 0.75,-0.03125 0.9375,-0.03125 0.46875,0 0.484375,0 1,0.03125 V -0.265625 H 2.0625 c -0.578125,0 -0.59375,-0.078125 -0.59375,-0.375 z m 0,0"
             id="path187" />
        </g>
        <g
           id="g8082"
           transform="translate(20.730715,5.5349998)">
          <path
             d="m 2.9375,-3.15625 c -0.234375,0.0625 -0.265625,0.25 -0.265625,0.34375 0,0.21875 0.15625,0.375 0.375,0.375 0.21875,0 0.375,-0.140625 0.375,-0.390625 0,-0.484375 -0.53125,-0.71875 -1.28125,-0.71875 -1.109375,0 -1.859375,0.875 -1.859375,1.828125 0,1.015625 0.828125,1.796875 1.828125,1.796875 1.125,0 1.40625,-0.9375 1.40625,-1.03125 0,-0.09375 -0.109375,-0.09375 -0.125,-0.09375 -0.0625,0 -0.09375,0 -0.125,0.078125 -0.046875,0.171875 -0.28125,0.796875 -1.078125,0.796875 -0.484375,0 -1.203125,-0.375 -1.203125,-1.5625 0,-1.140625 0.59375,-1.578125 1.171875,-1.578125 0.078125,0 0.5,0 0.78125,0.15625 z m 0,0"
             id="path191" />
        </g>
        <g
           id="g8085"
           transform="translate(24.494196,5.5349998)">
          <path
             d="m 1.546875,-4.90625 c 0,-0.234375 -0.171875,-0.453125 -0.4375,-0.453125 -0.234375,0 -0.4375,0.1875 -0.4375,0.4375 0,0.28125 0.234375,0.453125 0.4375,0.453125 0.28125,0 0.4375,-0.234375 0.4375,-0.4375 z m -1.1875,1.484375 v 0.265625 c 0.515625,0 0.578125,0.046875 0.578125,0.4375 V -0.625 c 0,0.359375 -0.09375,0.359375 -0.609375,0.359375 V 0 c 0.3125,-0.03125 0.765625,-0.03125 0.890625,-0.03125 0.09375,0 0.578125,0 0.859375,0.03125 v -0.265625 c -0.53125,0 -0.5625,-0.03125 -0.5625,-0.34375 v -2.90625 z m 0,0"
             id="path195" />
        </g>
        <g
           id="g8088"
           transform="translate(26.846172,5.5349998)">
          <path
             d="M 3.15625,-4.984375 C 3.25,-5.046875 3.3125,-5.109375 3.3125,-5.25 3.3125,-5.421875 3.140625,-5.5625 3,-5.5625 c -0.03125,0 -0.140625,0 -0.25,0.125 l -1.015625,1.21875 0.171875,0.171875 z m 0,0"
             id="path199" />
        </g>
      </g>
      <g
         fill="#000000"
         fill-opacity="1"
         id="g8098"
         transform="matrix(0.352778,0,0,0.352778,-0.42168,0.00970144)">
        <g
           id="g8093"
           transform="translate(26.840593,5.5349998)">
          <path
             d="m 3.984375,-1.703125 c 0,-0.984375 -0.828125,-1.84375 -1.875,-1.84375 -1.046875,0 -1.875,0.859375 -1.875,1.84375 0,1 0.859375,1.78125 1.875,1.78125 1.03125,0 1.875,-0.78125 1.875,-1.78125 z m -1.875,1.53125 C 1.6875,-0.171875 1.34375,-0.375 1.171875,-0.65625 0.96875,-0.984375 0.953125,-1.375 0.953125,-1.765625 c 0,-0.3125 0,-0.78125 0.234375,-1.125 0.21875,-0.28125 0.546875,-0.4375 0.921875,-0.4375 0.421875,0 0.765625,0.203125 0.9375,0.46875 0.21875,0.34375 0.234375,0.765625 0.234375,1.09375 0,0.359375 -0.015625,0.796875 -0.25,1.140625 -0.203125,0.3125 -0.5625,0.453125 -0.921875,0.453125 z m 0,0"
             id="path203" />
        </g>
        <g
           id="g8096"
           transform="translate(31.075108,5.5349998)">
          <path
             d="m 3.875,-2.421875 c 0,-0.65625 -0.3125,-1.09375 -1.140625,-1.09375 -0.796875,0 -1.15625,0.578125 -1.25,0.765625 v -0.765625 l -1.15625,0.09375 v 0.265625 c 0.546875,0 0.609375,0.046875 0.609375,0.4375 V -0.625 c 0,0.359375 -0.09375,0.359375 -0.609375,0.359375 V 0 c 0.34375,-0.03125 0.6875,-0.03125 0.90625,-0.03125 0.234375,0 0.5625,0 0.90625,0.03125 v -0.265625 c -0.5,0 -0.609375,0 -0.609375,-0.359375 v -1.4375 c 0,-0.84375 0.640625,-1.234375 1.125,-1.234375 0.484375,0 0.609375,0.34375 0.609375,0.84375 V -0.625 c 0,0.359375 -0.09375,0.359375 -0.609375,0.359375 V 0 C 3,-0.03125 3.359375,-0.03125 3.5625,-0.03125 c 0.234375,0 0.578125,0 0.921875,0.03125 v -0.265625 c -0.515625,0 -0.609375,0 -0.609375,-0.359375 z m 0,0"
             id="path207" />
        </g>
      </g>
      <g
         fill="#000000"
         fill-opacity="1"
         id="g8109"
         transform="matrix(0.352778,0,0,0.352778,-0.42168,0.00970144)">
        <g
           id="g8101"
           transform="translate(38.601273,5.5349998)">
          <path
             d="m 2.84375,-3.34375 c 0,-0.125 0,-0.203125 -0.109375,-0.203125 -0.046875,0 -0.0625,0 -0.1875,0.125 -0.015625,0 -0.09375,0.078125 -0.109375,0.078125 -0.015625,0 -0.03125,0 -0.078125,-0.03125 C 2.234375,-3.46875 2,-3.546875 1.640625,-3.546875 c -1.109375,0 -1.359375,0.59375 -1.359375,0.984375 0,0.390625 0.296875,0.625 0.3125,0.65625 0.328125,0.234375 0.5,0.265625 1.046875,0.359375 0.375,0.078125 0.984375,0.1875 0.984375,0.71875 0,0.3125 -0.203125,0.6875 -0.9375,0.6875 -0.8125,0 -1.046875,-0.625 -1.140625,-1.046875 C 0.515625,-1.296875 0.5,-1.328125 0.40625,-1.328125 c -0.125,0 -0.125,0.0625 -0.125,0.21875 V -0.125 c 0,0.125 0,0.203125 0.09375,0.203125 0.0625,0 0.0625,0 0.203125,-0.15625 C 0.625,-0.125 0.703125,-0.21875 0.75,-0.265625 c 0.359375,0.328125 0.734375,0.34375 0.9375,0.34375 1.015625,0 1.359375,-0.578125 1.359375,-1.109375 0,-0.375 -0.21875,-0.9375 -1.171875,-1.109375 -0.0625,-0.015625 -0.515625,-0.09375 -0.546875,-0.09375 -0.25,-0.0625 -0.625,-0.234375 -0.625,-0.546875 0,-0.234375 0.1875,-0.578125 0.9375,-0.578125 0.890625,0 0.9375,0.65625 0.953125,0.875 0,0.0625 0.0625,0.09375 0.109375,0.09375 0.140625,0 0.140625,-0.0625 0.140625,-0.203125 z m 0,0"
             id="path211" />
        </g>
        <g
           id="g8104"
           transform="translate(41.941544,5.5349998)">
          <path
             d="m 3.984375,-1.703125 c 0,-0.984375 -0.828125,-1.84375 -1.875,-1.84375 -1.046875,0 -1.875,0.859375 -1.875,1.84375 0,1 0.859375,1.78125 1.875,1.78125 1.03125,0 1.875,-0.78125 1.875,-1.78125 z m -1.875,1.53125 C 1.6875,-0.171875 1.34375,-0.375 1.171875,-0.65625 0.96875,-0.984375 0.953125,-1.375 0.953125,-1.765625 c 0,-0.3125 0,-0.78125 0.234375,-1.125 0.21875,-0.28125 0.546875,-0.4375 0.921875,-0.4375 0.421875,0 0.765625,0.203125 0.9375,0.46875 0.21875,0.34375 0.234375,0.765625 0.234375,1.09375 0,0.359375 -0.015625,0.796875 -0.25,1.140625 -0.203125,0.3125 -0.5625,0.453125 -0.921875,0.453125 z m 0,0"
             id="path215" />
        </g>
        <g
           id="g8107"
           transform="translate(46.176056,5.5349998)">
          <path
             d="m 6.21875,-2.421875 c 0,-0.640625 -0.28125,-1.09375 -1.140625,-1.09375 -0.734375,0 -1.109375,0.5 -1.234375,0.734375 C 3.703125,-3.359375 3.25,-3.515625 2.734375,-3.515625 c -0.78125,0 -1.140625,0.546875 -1.25,0.765625 v -0.765625 l -1.15625,0.09375 v 0.265625 c 0.546875,0 0.609375,0.046875 0.609375,0.4375 V -0.625 c 0,0.359375 -0.09375,0.359375 -0.609375,0.359375 V 0 c 0.34375,-0.03125 0.6875,-0.03125 0.90625,-0.03125 0.234375,0 0.5625,0 0.90625,0.03125 v -0.265625 c -0.5,0 -0.609375,0 -0.609375,-0.359375 v -1.4375 c 0,-0.84375 0.640625,-1.234375 1.140625,-1.234375 0.515625,0 0.609375,0.40625 0.609375,0.84375 V -0.625 c 0,0.359375 -0.109375,0.359375 -0.609375,0.359375 V 0 c 0.34375,-0.03125 0.6875,-0.03125 0.90625,-0.03125 0.234375,0 0.5625,0 0.90625,0.03125 v -0.265625 c -0.515625,0 -0.609375,0 -0.609375,-0.359375 v -1.4375 c 0,-0.84375 0.640625,-1.234375 1.140625,-1.234375 0.515625,0 0.609375,0.40625 0.609375,0.84375 V -0.625 c 0,0.359375 -0.109375,0.359375 -0.609375,0.359375 V 0 c 0.34375,-0.03125 0.6875,-0.03125 0.90625,-0.03125 0.234375,0 0.5625,0 0.90625,0.03125 v -0.265625 c -0.515625,0 -0.609375,0 -0.609375,-0.359375 z m 0,0"
             id="path219" />
        </g>
      </g>
      <g
         fill="#000000"
         fill-opacity="1"
         id="g109"
         transform="matrix(0.352778,0,0,0.352778,-0.42168,0.00970144)">
        <g
           id="g8112"
           transform="translate(53.001652,5.5349998)">
          <path
             d="m 1.46875,-5.53125 -1.1875,0.09375 v 0.265625 c 0.546875,0 0.609375,0.046875 0.609375,0.4375 V 0 H 1.125 l 0.296875,-0.5 c 0.1875,0.28125 0.5625,0.578125 1.109375,0.578125 1,0 1.890625,-0.78125 1.890625,-1.796875 0,-1 -0.828125,-1.796875 -1.796875,-1.796875 -0.640625,0 -1.015625,0.34375 -1.15625,0.484375 z m 0.015625,3.015625 c 0,-0.15625 0,-0.171875 0.125,-0.3125 0.234375,-0.296875 0.609375,-0.46875 0.96875,-0.46875 0.40625,0 0.71875,0.25 0.875,0.484375 0.140625,0.21875 0.25,0.5 0.25,1.078125 0,0.1875 0,0.75 -0.28125,1.125 C 3.125,-0.25 2.75,-0.140625 2.5,-0.140625 c -0.390625,0 -0.703125,-0.203125 -0.921875,-0.515625 -0.09375,-0.15625 -0.09375,-0.15625 -0.09375,-0.3125 z m 0,0"
             id="path223" />
        </g>
        <g
           id="g8115"
           transform="translate(57.706402,5.5349998)">
          <path
             d="m 1.46875,-1.8125 c 0,-0.609375 0.25,-1.46875 1.015625,-1.484375 -0.046875,0.03125 -0.140625,0.09375 -0.140625,0.28125 0,0.25 0.203125,0.359375 0.359375,0.359375 0.1875,0 0.359375,-0.125 0.359375,-0.359375 0,-0.28125 -0.25,-0.5 -0.609375,-0.5 -0.515625,0 -0.875,0.390625 -1.03125,0.84375 H 1.40625 v -0.84375 l -1.125,0.09375 v 0.265625 c 0.546875,0 0.609375,0.046875 0.609375,0.4375 V -0.625 c 0,0.359375 -0.109375,0.359375 -0.609375,0.359375 V 0 c 0.3125,-0.03125 0.75,-0.03125 0.9375,-0.03125 0.46875,0 0.484375,0 1,0.03125 V -0.265625 H 2.0625 c -0.578125,0 -0.59375,-0.078125 -0.59375,-0.375 z m 0,0"
             id="path227" />
        </g>
        <g
           id="g8118"
           transform="translate(61.006817,5.5349998)">
          <path
             d="m 3.296875,-1.8125 c 0.171875,0 0.21875,0 0.21875,-0.1875 C 3.515625,-2.703125 3.125,-3.546875 2,-3.546875 c -0.984375,0 -1.765625,0.8125 -1.765625,1.796875 0,1.03125 0.859375,1.828125 1.875,1.828125 1,0 1.40625,-0.84375 1.40625,-1.03125 0,-0.03125 -0.03125,-0.109375 -0.125,-0.109375 -0.09375,0 -0.109375,0.046875 -0.125,0.09375 -0.28125,0.78125 -0.96875,0.796875 -1.109375,0.796875 -0.359375,0 -0.734375,-0.15625 -0.96875,-0.53125 C 0.953125,-1.0625 0.953125,-1.578125 0.953125,-1.8125 Z M 0.953125,-2.03125 C 1.03125,-3.140625 1.703125,-3.328125 2,-3.328125 c 0.9375,0 0.96875,1.125 0.96875,1.296875 z m 0,0"
             id="path231" />
        </g>
        <g
           id="g8121"
           transform="translate(64.770302,5.5349998)">
          <path
             d="m 3.34375,-2.375 c 0,-0.78125 -0.75,-1.171875 -1.484375,-1.171875 -0.65625,0 -1.25,0.25 -1.25,0.78125 0,0.234375 0.171875,0.375 0.375,0.375 0.234375,0 0.375,-0.15625 0.375,-0.375 0,-0.1875 -0.109375,-0.328125 -0.296875,-0.359375 0.296875,-0.203125 0.734375,-0.203125 0.78125,-0.203125 0.453125,0 0.890625,0.3125 0.890625,0.96875 V -2.125 C 2.28125,-2.09375 1.75,-2.078125 1.1875,-1.84375 c -0.703125,0.3125 -0.84375,0.765625 -0.84375,1.03125 0,0.6875 0.8125,0.890625 1.359375,0.890625 0.578125,0 0.9375,-0.328125 1.125,-0.640625 0.03125,0.296875 0.234375,0.609375 0.59375,0.609375 0.078125,0 0.75,-0.03125 0.75,-0.765625 v -0.4375 h -0.25 v 0.4375 c 0,0.328125 -0.109375,0.453125 -0.28125,0.453125 -0.296875,0 -0.296875,-0.359375 -0.296875,-0.453125 z m -0.609375,1.25 c 0,0.78125 -0.640625,0.984375 -0.96875,0.984375 C 1.359375,-0.140625 1,-0.421875 1,-0.8125 1,-1.328125 1.5,-1.875 2.734375,-1.90625 Z m 0,0"
             id="path235" />
        </g>
        <g
           id="g8124"
           transform="translate(69.004814,5.5349998)">
          <path
             d="m 2.625,-5.4375 v 0.265625 c 0.53125,0 0.609375,0.046875 0.609375,0.4375 v 1.6875 c -0.28125,-0.3125 -0.65625,-0.46875 -1.078125,-0.46875 -1,0 -1.875,0.78125 -1.875,1.796875 0,0.984375 0.796875,1.796875 1.796875,1.796875 0.46875,0 0.859375,-0.21875 1.125,-0.5 v 0.5 L 4.421875,0 V -0.265625 C 3.875,-0.265625 3.8125,-0.3125 3.8125,-0.703125 V -5.53125 Z m 0.578125,4.453125 c 0,0.140625 0,0.171875 -0.125,0.328125 C 2.859375,-0.328125 2.5,-0.140625 2.125,-0.140625 1.75,-0.140625 1.4375,-0.328125 1.25,-0.625 1.03125,-0.9375 0.984375,-1.328125 0.984375,-1.703125 0.984375,-2.171875 1.0625,-2.5 1.25,-2.765625 c 0.1875,-0.296875 0.546875,-0.53125 0.953125,-0.53125 0.375,0 0.765625,0.203125 1,0.609375 z m 0,0"
             id="path239" />
        </g>
        <g
           id="use107"
           transform="translate(73.709564,5.5349998)">
          <path
             d="m 3.34375,-2.375 c 0,-0.78125 -0.75,-1.171875 -1.484375,-1.171875 -0.65625,0 -1.25,0.25 -1.25,0.78125 0,0.234375 0.171875,0.375 0.375,0.375 0.234375,0 0.375,-0.15625 0.375,-0.375 0,-0.1875 -0.109375,-0.328125 -0.296875,-0.359375 0.296875,-0.203125 0.734375,-0.203125 0.78125,-0.203125 0.453125,0 0.890625,0.3125 0.890625,0.96875 V -2.125 C 2.28125,-2.09375 1.75,-2.078125 1.1875,-1.84375 c -0.703125,0.3125 -0.84375,0.765625 -0.84375,1.03125 0,0.6875 0.8125,0.890625 1.359375,0.890625 0.578125,0 0.9375,-0.328125 1.125,-0.640625 0.03125,0.296875 0.234375,0.609375 0.59375,0.609375 0.078125,0 0.75,-0.03125 0.75,-0.765625 v -0.4375 h -0.25 v 0.4375 c 0,0.328125 -0.109375,0.453125 -0.28125,0.453125 -0.296875,0 -0.296875,-0.359375 -0.296875,-0.453125 z m -0.609375,1.25 c 0,0.78125 -0.640625,0.984375 -0.96875,0.984375 C 1.359375,-0.140625 1,-0.421875 1,-0.8125 1,-1.328125 1.5,-1.875 2.734375,-1.90625 Z m 0,0"
             id="path243" />
        </g>
      </g>
      <path
         fill="none"
         stroke-width="0.478"
         stroke-linecap="butt"
         stroke-linejoin="miter"
         stroke="#000000"
         stroke-opacity="1"
         stroke-miterlimit="10"
         d="M 0,7.8282814 H 76.746093"
         id="path111"
         transform="scale(0.352778)" />
      <g
         fill="#000000"
         fill-opacity="1"
         id="g115"
         transform="matrix(0.352778,0,0,0.352778,-0.42168,0.00970144)">
        <g
           id="use113"
           transform="translate(5.0570002,14.913)">
          <path
             d="m 2.640625,-2.875 c 0.453125,-0.21875 1,-0.609375 1,-1.234375 0,-0.765625 -0.78125,-1.1875 -1.515625,-1.1875 -0.84375,0 -1.53125,0.578125 -1.53125,1.328125 0,0.296875 0.09375,0.5625 0.296875,0.796875 0.140625,0.171875 0.171875,0.1875 0.65625,0.5 -0.984375,0.4375 -1.203125,1.015625 -1.203125,1.453125 0,0.890625 0.890625,1.390625 1.765625,1.390625 0.96875,0 1.765625,-0.671875 1.765625,-1.515625 0,-0.5 -0.265625,-0.828125 -0.40625,-0.96875 -0.125,-0.125 -0.140625,-0.140625 -0.828125,-0.5625 z M 1.40625,-3.625 C 1.171875,-3.765625 0.984375,-4 0.984375,-4.265625 c 0,-0.5 0.546875,-0.828125 1.125,-0.828125 0.609375,0 1.125,0.421875 1.125,0.984375 0,0.453125 -0.359375,0.84375 -0.828125,1.078125 z m 0.390625,1.09375 c 0.03125,0.015625 0.9375,0.578125 1.078125,0.65625 0.125,0.078125 0.546875,0.328125 0.546875,0.8125 0,0.609375 -0.65625,0.984375 -1.296875,0.984375 -0.71875,0 -1.3125,-0.484375 -1.3125,-1.140625 0,-0.59375 0.4375,-1.0625 0.984375,-1.3125 z m 0,0"
             id="path247" />
        </g>
      </g>
      <g
         clip-path="url(#clipPath9462)"
         id="g121"
         transform="matrix(0.352778,0,0,0.352778,-0.42168,0.00970144)">
        <g
           fill="#000000"
           fill-opacity="1"
           id="g8135">
          <g
             id="use117"
             transform="translate(12.11293,14.913)">
            <path
               d="m 2.09375,1.28125 c -0.515625,0 -0.609375,0 -0.609375,-0.359375 v -1.3125 c 0.375,0.40625 0.78125,0.46875 1.046875,0.46875 1,0 1.890625,-0.78125 1.890625,-1.796875 0,-1 -0.8125,-1.796875 -1.78125,-1.796875 -0.3125,0 -0.765625,0.078125 -1.171875,0.5 v -0.5 l -1.1875,0.09375 v 0.265625 c 0.5625,0 0.609375,0.046875 0.609375,0.375 v 3.703125 c 0,0.359375 -0.109375,0.359375 -0.609375,0.359375 v 0.265625 c 0.34375,-0.03125 0.6875,-0.03125 0.90625,-0.03125 0.234375,0 0.5625,0 0.90625,0.03125 z m -0.609375,-3.9375 c 0.1875,-0.3125 0.59375,-0.609375 1.09375,-0.609375 0.609375,0 1.125,0.671875 1.125,1.546875 0,0.90625 -0.578125,1.578125 -1.21875,1.578125 -0.28125,0 -0.640625,-0.125 -0.90625,-0.515625 -0.09375,-0.140625 -0.09375,-0.15625 -0.09375,-0.296875 z m 0,0"
               id="path251" />
          </g>
        </g>
      </g>
      <g
         fill="#000000"
         fill-opacity="1"
         id="g139"
         transform="matrix(0.352778,0,0,0.352778,-0.42168,0.00970144)">
        <g
           id="g8139"
           transform="translate(17.056784,14.913)">
          <path
             d="m 3.984375,-1.703125 c 0,-0.984375 -0.828125,-1.84375 -1.875,-1.84375 -1.046875,0 -1.875,0.859375 -1.875,1.84375 0,1 0.859375,1.78125 1.875,1.78125 1.03125,0 1.875,-0.78125 1.875,-1.78125 z m -1.875,1.53125 C 1.6875,-0.171875 1.34375,-0.375 1.171875,-0.65625 0.96875,-0.984375 0.953125,-1.375 0.953125,-1.765625 c 0,-0.3125 0,-0.78125 0.234375,-1.125 0.21875,-0.28125 0.546875,-0.4375 0.921875,-0.4375 0.421875,0 0.765625,0.203125 0.9375,0.46875 0.21875,0.34375 0.234375,0.765625 0.234375,1.09375 0,0.359375 -0.015625,0.796875 -0.25,1.140625 -0.203125,0.3125 -0.5625,0.453125 -0.921875,0.453125 z m 0,0"
             id="path255" />
        </g>
        <g
           id="g8142"
           transform="translate(21.291298,14.913)">
          <path
             d="m 1.46875,-1.8125 c 0,-0.609375 0.25,-1.46875 1.015625,-1.484375 -0.046875,0.03125 -0.140625,0.09375 -0.140625,0.28125 0,0.25 0.203125,0.359375 0.359375,0.359375 0.1875,0 0.359375,-0.125 0.359375,-0.359375 0,-0.28125 -0.25,-0.5 -0.609375,-0.5 -0.515625,0 -0.875,0.390625 -1.03125,0.84375 H 1.40625 v -0.84375 l -1.125,0.09375 v 0.265625 c 0.546875,0 0.609375,0.046875 0.609375,0.4375 V -0.625 c 0,0.359375 -0.109375,0.359375 -0.609375,0.359375 V 0 c 0.3125,-0.03125 0.75,-0.03125 0.9375,-0.03125 0.46875,0 0.484375,0 1,0.03125 V -0.265625 H 2.0625 c -0.578125,0 -0.59375,-0.078125 -0.59375,-0.375 z m 0,0"
             id="path259" />
        </g>
        <g
           id="g8145"
           transform="translate(24.591715,14.913)">
          <path
             d="m 2.9375,-3.15625 c -0.234375,0.0625 -0.265625,0.25 -0.265625,0.34375 0,0.21875 0.15625,0.375 0.375,0.375 0.21875,0 0.375,-0.140625 0.375,-0.390625 0,-0.484375 -0.53125,-0.71875 -1.28125,-0.71875 -1.109375,0 -1.859375,0.875 -1.859375,1.828125 0,1.015625 0.828125,1.796875 1.828125,1.796875 1.125,0 1.40625,-0.9375 1.40625,-1.03125 0,-0.09375 -0.109375,-0.09375 -0.125,-0.09375 -0.0625,0 -0.09375,0 -0.125,0.078125 -0.046875,0.171875 -0.28125,0.796875 -1.078125,0.796875 -0.484375,0 -1.203125,-0.375 -1.203125,-1.5625 0,-1.140625 0.59375,-1.578125 1.171875,-1.578125 0.078125,0 0.5,0 0.78125,0.15625 z m 0,0"
             id="path263" />
        </g>
        <g
           id="g8148"
           transform="translate(28.355196,14.913)">
          <path
             d="m 1.546875,-4.90625 c 0,-0.234375 -0.171875,-0.453125 -0.4375,-0.453125 -0.234375,0 -0.4375,0.1875 -0.4375,0.4375 0,0.28125 0.234375,0.453125 0.4375,0.453125 0.28125,0 0.4375,-0.234375 0.4375,-0.4375 z m -1.1875,1.484375 v 0.265625 c 0.515625,0 0.578125,0.046875 0.578125,0.4375 V -0.625 c 0,0.359375 -0.09375,0.359375 -0.609375,0.359375 V 0 c 0.3125,-0.03125 0.765625,-0.03125 0.890625,-0.03125 0.09375,0 0.578125,0 0.859375,0.03125 v -0.265625 c -0.53125,0 -0.5625,-0.03125 -0.5625,-0.34375 v -2.90625 z m 0,0"
             id="path267" />
        </g>
        <g
           id="g8151"
           transform="translate(30.707172,14.913)">
          <path
             d="m 3.984375,-1.703125 c 0,-0.984375 -0.828125,-1.84375 -1.875,-1.84375 -1.046875,0 -1.875,0.859375 -1.875,1.84375 0,1 0.859375,1.78125 1.875,1.78125 1.03125,0 1.875,-0.78125 1.875,-1.78125 z m -1.875,1.53125 C 1.6875,-0.171875 1.34375,-0.375 1.171875,-0.65625 0.96875,-0.984375 0.953125,-1.375 0.953125,-1.765625 c 0,-0.3125 0,-0.78125 0.234375,-1.125 0.21875,-0.28125 0.546875,-0.4375 0.921875,-0.4375 0.421875,0 0.765625,0.203125 0.9375,0.46875 0.21875,0.34375 0.234375,0.765625 0.234375,1.09375 0,0.359375 -0.015625,0.796875 -0.25,1.140625 -0.203125,0.3125 -0.5625,0.453125 -0.921875,0.453125 z m 0,0"
             id="path271" />
        </g>
        <g
           id="g8154"
           transform="translate(34.941689,14.913)">
          <path
             d="m 3.875,-2.421875 c 0,-0.65625 -0.3125,-1.09375 -1.140625,-1.09375 -0.796875,0 -1.15625,0.578125 -1.25,0.765625 v -0.765625 l -1.15625,0.09375 v 0.265625 c 0.546875,0 0.609375,0.046875 0.609375,0.4375 V -0.625 c 0,0.359375 -0.09375,0.359375 -0.609375,0.359375 V 0 c 0.34375,-0.03125 0.6875,-0.03125 0.90625,-0.03125 0.234375,0 0.5625,0 0.90625,0.03125 v -0.265625 c -0.5,0 -0.609375,0 -0.609375,-0.359375 v -1.4375 c 0,-0.84375 0.640625,-1.234375 1.125,-1.234375 0.484375,0 0.609375,0.34375 0.609375,0.84375 V -0.625 c 0,0.359375 -0.09375,0.359375 -0.609375,0.359375 V 0 C 3,-0.03125 3.359375,-0.03125 3.5625,-0.03125 c 0.234375,0 0.578125,0 0.921875,0.03125 v -0.265625 c -0.515625,0 -0.609375,0 -0.609375,-0.359375 z m 0,0"
             id="path275" />
        </g>
        <g
           id="g8157"
           transform="translate(39.646439,14.913)">
          <path
             d="m 3.296875,-1.8125 c 0.171875,0 0.21875,0 0.21875,-0.1875 C 3.515625,-2.703125 3.125,-3.546875 2,-3.546875 c -0.984375,0 -1.765625,0.8125 -1.765625,1.796875 0,1.03125 0.859375,1.828125 1.875,1.828125 1,0 1.40625,-0.84375 1.40625,-1.03125 0,-0.03125 -0.03125,-0.109375 -0.125,-0.109375 -0.09375,0 -0.109375,0.046875 -0.125,0.09375 -0.28125,0.78125 -0.96875,0.796875 -1.109375,0.796875 -0.359375,0 -0.734375,-0.15625 -0.96875,-0.53125 C 0.953125,-1.0625 0.953125,-1.578125 0.953125,-1.8125 Z M 0.953125,-2.03125 C 1.03125,-3.140625 1.703125,-3.328125 2,-3.328125 c 0.9375,0 0.96875,1.125 0.96875,1.296875 z m 0,0"
             id="path279" />
        </g>
        <g
           id="use137"
           transform="translate(43.40992,14.913)">
          <path
             d="m 2.84375,-3.34375 c 0,-0.125 0,-0.203125 -0.109375,-0.203125 -0.046875,0 -0.0625,0 -0.1875,0.125 -0.015625,0 -0.09375,0.078125 -0.109375,0.078125 -0.015625,0 -0.03125,0 -0.078125,-0.03125 C 2.234375,-3.46875 2,-3.546875 1.640625,-3.546875 c -1.109375,0 -1.359375,0.59375 -1.359375,0.984375 0,0.390625 0.296875,0.625 0.3125,0.65625 0.328125,0.234375 0.5,0.265625 1.046875,0.359375 0.375,0.078125 0.984375,0.1875 0.984375,0.71875 0,0.3125 -0.203125,0.6875 -0.9375,0.6875 -0.8125,0 -1.046875,-0.625 -1.140625,-1.046875 C 0.515625,-1.296875 0.5,-1.328125 0.40625,-1.328125 c -0.125,0 -0.125,0.0625 -0.125,0.21875 V -0.125 c 0,0.125 0,0.203125 0.09375,0.203125 0.0625,0 0.0625,0 0.203125,-0.15625 C 0.625,-0.125 0.703125,-0.21875 0.75,-0.265625 c 0.359375,0.328125 0.734375,0.34375 0.9375,0.34375 1.015625,0 1.359375,-0.578125 1.359375,-1.109375 0,-0.375 -0.21875,-0.9375 -1.171875,-1.109375 -0.0625,-0.015625 -0.515625,-0.09375 -0.546875,-0.09375 -0.25,-0.0625 -0.625,-0.234375 -0.625,-0.546875 0,-0.234375 0.1875,-0.578125 0.9375,-0.578125 0.890625,0 0.9375,0.65625 0.953125,0.875 0,0.0625 0.0625,0.09375 0.109375,0.09375 0.140625,0 0.140625,-0.0625 0.140625,-0.203125 z m 0,0"
             id="path283" />
        </g>
      </g>
      <g
         fill="#000000"
         fill-opacity="1"
         id="g155"
         transform="matrix(0.352778,0,0,0.352778,-0.42168,0.00970144)">
        <g
           id="g8163"
           transform="translate(49.571602,14.913)">
          <path
             d="m 1.484375,-3.171875 h 1.1875 V -3.4375 h -1.1875 v -1.46875 h -0.25 c 0,0.734375 -0.328125,1.484375 -1.078125,1.515625 v 0.21875 H 0.875 V -1 c 0,0.9375 0.71875,1.078125 1.078125,1.078125 C 2.5,0.078125 2.8125,-0.390625 2.8125,-1 v -0.4375 h -0.25 v 0.421875 c 0,0.546875 -0.25,0.84375 -0.546875,0.84375 -0.53125,0 -0.53125,-0.6875 -0.53125,-0.8125 z m 0,0"
             id="path287" />
        </g>
        <g
           id="g8166"
           transform="translate(52.864849,14.913)">
          <path
             d="m 3.984375,-1.703125 c 0,-0.984375 -0.828125,-1.84375 -1.875,-1.84375 -1.046875,0 -1.875,0.859375 -1.875,1.84375 0,1 0.859375,1.78125 1.875,1.78125 1.03125,0 1.875,-0.78125 1.875,-1.78125 z m -1.875,1.53125 C 1.6875,-0.171875 1.34375,-0.375 1.171875,-0.65625 0.96875,-0.984375 0.953125,-1.375 0.953125,-1.765625 c 0,-0.3125 0,-0.78125 0.234375,-1.125 0.21875,-0.28125 0.546875,-0.4375 0.921875,-0.4375 0.421875,0 0.765625,0.203125 0.9375,0.46875 0.21875,0.34375 0.234375,0.765625 0.234375,1.09375 0,0.359375 -0.015625,0.796875 -0.25,1.140625 -0.203125,0.3125 -0.5625,0.453125 -0.921875,0.453125 z m 0,0"
             id="path291" />
        </g>
        <g
           id="g8169"
           transform="translate(57.099361,14.913)">
          <path
             d="m 1.484375,-3.171875 h 1.1875 V -3.4375 h -1.1875 v -1.46875 h -0.25 c 0,0.734375 -0.328125,1.484375 -1.078125,1.515625 v 0.21875 H 0.875 V -1 c 0,0.9375 0.71875,1.078125 1.078125,1.078125 C 2.5,0.078125 2.8125,-0.390625 2.8125,-1 v -0.4375 h -0.25 v 0.421875 c 0,0.546875 -0.25,0.84375 -0.546875,0.84375 -0.53125,0 -0.53125,-0.6875 -0.53125,-0.8125 z m 0,0"
             id="path295" />
        </g>
        <g
           id="g8172"
           transform="translate(60.392609,14.913)">
          <path
             d="m 3.34375,-2.375 c 0,-0.78125 -0.75,-1.171875 -1.484375,-1.171875 -0.65625,0 -1.25,0.25 -1.25,0.78125 0,0.234375 0.171875,0.375 0.375,0.375 0.234375,0 0.375,-0.15625 0.375,-0.375 0,-0.1875 -0.109375,-0.328125 -0.296875,-0.359375 0.296875,-0.203125 0.734375,-0.203125 0.78125,-0.203125 0.453125,0 0.890625,0.3125 0.890625,0.96875 V -2.125 C 2.28125,-2.09375 1.75,-2.078125 1.1875,-1.84375 c -0.703125,0.3125 -0.84375,0.765625 -0.84375,1.03125 0,0.6875 0.8125,0.890625 1.359375,0.890625 0.578125,0 0.9375,-0.328125 1.125,-0.640625 0.03125,0.296875 0.234375,0.609375 0.59375,0.609375 0.078125,0 0.75,-0.03125 0.75,-0.765625 v -0.4375 h -0.25 v 0.4375 c 0,0.328125 -0.109375,0.453125 -0.28125,0.453125 -0.296875,0 -0.296875,-0.359375 -0.296875,-0.453125 z m -0.609375,1.25 c 0,0.78125 -0.640625,0.984375 -0.96875,0.984375 C 1.359375,-0.140625 1,-0.421875 1,-0.8125 1,-1.328125 1.5,-1.875 2.734375,-1.90625 Z m 0,0"
             id="path299" />
        </g>
        <g
           id="g8175"
           transform="translate(64.627121,14.913)">
          <path
             d="m 1.515625,-5.53125 -1.1875,0.09375 v 0.265625 c 0.546875,0 0.609375,0.046875 0.609375,0.4375 V -0.625 c 0,0.359375 -0.09375,0.359375 -0.609375,0.359375 V 0 c 0.3125,-0.03125 0.765625,-0.03125 0.90625,-0.03125 0.15625,0 0.578125,0 0.890625,0.03125 v -0.265625 c -0.5,0 -0.609375,0 -0.609375,-0.359375 z m 0,0"
             id="path303" />
        </g>
        <g
           id="g8178"
           transform="translate(66.979095,14.913)">
          <path
             d="m 3.296875,-1.8125 c 0.171875,0 0.21875,0 0.21875,-0.1875 C 3.515625,-2.703125 3.125,-3.546875 2,-3.546875 c -0.984375,0 -1.765625,0.8125 -1.765625,1.796875 0,1.03125 0.859375,1.828125 1.875,1.828125 1,0 1.40625,-0.84375 1.40625,-1.03125 0,-0.03125 -0.03125,-0.109375 -0.125,-0.109375 -0.09375,0 -0.109375,0.046875 -0.125,0.09375 -0.28125,0.78125 -0.96875,0.796875 -1.109375,0.796875 -0.359375,0 -0.734375,-0.15625 -0.96875,-0.53125 C 0.953125,-1.0625 0.953125,-1.578125 0.953125,-1.8125 Z M 0.953125,-2.03125 C 1.03125,-3.140625 1.703125,-3.328125 2,-3.328125 c 0.9375,0 0.96875,1.125 0.96875,1.296875 z m 0,0"
             id="path307" />
        </g>
        <g
           id="use153"
           transform="translate(70.742577,14.913)">
          <path
             d="m 2.84375,-3.34375 c 0,-0.125 0,-0.203125 -0.109375,-0.203125 -0.046875,0 -0.0625,0 -0.1875,0.125 -0.015625,0 -0.09375,0.078125 -0.109375,0.078125 -0.015625,0 -0.03125,0 -0.078125,-0.03125 C 2.234375,-3.46875 2,-3.546875 1.640625,-3.546875 c -1.109375,0 -1.359375,0.59375 -1.359375,0.984375 0,0.390625 0.296875,0.625 0.3125,0.65625 0.328125,0.234375 0.5,0.265625 1.046875,0.359375 0.375,0.078125 0.984375,0.1875 0.984375,0.71875 0,0.3125 -0.203125,0.6875 -0.9375,0.6875 -0.8125,0 -1.046875,-0.625 -1.140625,-1.046875 C 0.515625,-1.296875 0.5,-1.328125 0.40625,-1.328125 c -0.125,0 -0.125,0.0625 -0.125,0.21875 V -0.125 c 0,0.125 0,0.203125 0.09375,0.203125 0.0625,0 0.0625,0 0.203125,-0.15625 C 0.625,-0.125 0.703125,-0.21875 0.75,-0.265625 c 0.359375,0.328125 0.734375,0.34375 0.9375,0.34375 1.015625,0 1.359375,-0.578125 1.359375,-1.109375 0,-0.375 -0.21875,-0.9375 -1.171875,-1.109375 -0.0625,-0.015625 -0.515625,-0.09375 -0.546875,-0.09375 -0.25,-0.0625 -0.625,-0.234375 -0.625,-0.546875 0,-0.234375 0.1875,-0.578125 0.9375,-0.578125 0.890625,0 0.9375,0.65625 0.953125,0.875 0,0.0625 0.0625,0.09375 0.109375,0.09375 0.140625,0 0.140625,-0.0625 0.140625,-0.203125 z m 0,0"
             id="path311" />
        </g>
      </g>
      <g
         fill="#000000"
         fill-opacity="1"
         id="g159"
         transform="matrix(0.352778,0,0,0.352778,-0.42168,0.00970144)">
        <g
           id="use157"
           transform="translate(82.459,10.791)">
          <path
             d="m 8.0625,-3.875 c 0.171875,0 0.390625,0 0.390625,-0.21875 C 8.453125,-4.3125 8.25,-4.3125 8.0625,-4.3125 H 1.03125 c -0.171875,0 -0.390625,0 -0.390625,0.21875 0,0.21875 0.203125,0.21875 0.390625,0.21875 z m 0,2.21875 c 0.171875,0 0.390625,0 0.390625,-0.203125 C 8.453125,-2.09375 8.25,-2.09375 8.0625,-2.09375 H 1.03125 c -0.171875,0 -0.390625,0 -0.390625,0.21875 0,0.21875 0.203125,0.21875 0.390625,0.21875 z m 0,0"
             id="path315" />
        </g>
      </g>
      <g
         fill="#000000"
         fill-opacity="1"
         id="g163"
         transform="matrix(0.352778,0,0,0.352778,-0.42168,0.00970144)">
        <g
           id="use161"
           transform="translate(96.080002,6.0830002)">
          <path
             d="m 2.5,-5.078125 c 0,-0.21875 -0.015625,-0.21875 -0.234375,-0.21875 -0.328125,0.3125 -0.75,0.5 -1.5,0.5 v 0.265625 c 0.21875,0 0.640625,0 1.109375,-0.203125 v 4.078125 c 0,0.296875 -0.03125,0.390625 -0.78125,0.390625 H 0.8125 V 0 c 0.328125,-0.03125 1.015625,-0.03125 1.375,-0.03125 0.359375,0 1.046875,0 1.375,0.03125 V -0.265625 H 3.28125 c -0.75,0 -0.78125,-0.09375 -0.78125,-0.390625 z m 0,0"
             id="path319" />
        </g>
      </g>
      <path
         fill="none"
         stroke-width="0.478"
         stroke-linecap="butt"
         stroke-linejoin="miter"
         stroke="#000000"
         stroke-opacity="1"
         stroke-miterlimit="10"
         d="m 94.882812,7.8282814 h 4.234375"
         id="path165"
         transform="scale(0.352778)" />
      <g
         fill="#000000"
         fill-opacity="1"
         id="g169"
         transform="matrix(0.352778,0,0,0.352778,-0.42168,0.00970144)">
        <g
           id="use167"
           transform="translate(96.079002,14.913)">
          <path
             d="m 2.640625,-2.875 c 0.453125,-0.21875 1,-0.609375 1,-1.234375 0,-0.765625 -0.78125,-1.1875 -1.515625,-1.1875 -0.84375,0 -1.53125,0.578125 -1.53125,1.328125 0,0.296875 0.09375,0.5625 0.296875,0.796875 0.140625,0.171875 0.171875,0.1875 0.65625,0.5 -0.984375,0.4375 -1.203125,1.015625 -1.203125,1.453125 0,0.890625 0.890625,1.390625 1.765625,1.390625 0.96875,0 1.765625,-0.671875 1.765625,-1.515625 0,-0.5 -0.265625,-0.828125 -0.40625,-0.96875 -0.125,-0.125 -0.140625,-0.140625 -0.828125,-0.5625 z M 1.40625,-3.625 C 1.171875,-3.765625 0.984375,-4 0.984375,-4.265625 c 0,-0.5 0.546875,-0.828125 1.125,-0.828125 0.609375,0 1.125,0.421875 1.125,0.984375 0,0.453125 -0.359375,0.84375 -0.828125,1.078125 z m 0.390625,1.09375 c 0.03125,0.015625 0.9375,0.578125 1.078125,0.65625 0.125,0.078125 0.546875,0.328125 0.546875,0.8125 0,0.609375 -0.65625,0.984375 -1.296875,0.984375 -0.71875,0 -1.3125,-0.484375 -1.3125,-1.140625 0,-0.59375 0.4375,-1.0625 0.984375,-1.3125 z m 0,0"
             id="path323" />
        </g>
      </g>
    </g>
    <rect
       style="fill:#484848;fill-opacity:1;stroke:#000000;stroke-width:0.7;stroke-linecap:square;stroke-linejoin:miter;stroke-dasharray:none;stroke-opacity:1"
       id="rect8707"
       width="7.1486249"
       height="7.1486249"
       x="94.997284"
       y="206.67467" />
    <rect
       style="fill:#484848;fill-opacity:1;stroke:#000000;stroke-width:0.7;stroke-linecap:square;stroke-linejoin:miter;stroke-dasharray:none;stroke-opacity:1"
       id="rect9435"
       width="7.1486249"
       height="7.1486249"
       x="94.997284"
       y="199.26628" />
    <rect
       style="fill:#484848;fill-opacity:1;stroke:#000000;stroke-width:0.7;stroke-linecap:square;stroke-linejoin:miter;stroke-dasharray:none;stroke-opacity:1"
       id="rect9437"
       width="7.1486249"
       height="7.1486249"
       x="94.997284"
       y="214.08275" />
    <rect
       style="fill:#484848;fill-opacity:1;stroke:#000000;stroke-width:0.7;stroke-linecap:square;stroke-linejoin:miter;stroke-dasharray:none;stroke-opacity:1"
       id="rect9439"
       width="7.1486249"
       height="7.1486249"
       x="94.997284"
       y="221.49098" />
    <rect
       style="fill:#484848;fill-opacity:1;stroke:#000000;stroke-width:0.7;stroke-linecap:square;stroke-linejoin:miter;stroke-dasharray:none;stroke-opacity:1"
       id="rect9441"
       width="7.1486249"
       height="7.1486249"
       x="94.997284"
       y="228.89922" />
    <rect
       style="fill:#484848;fill-opacity:1;stroke:#000000;stroke-width:0.7;stroke-linecap:square;stroke-linejoin:miter;stroke-dasharray:none;stroke-opacity:1"
       id="rect9443"
       width="7.1486249"
       height="7.1486249"
       x="102.30476"
       y="206.67467" />
    <rect
       style="fill:none;fill-opacity:1;stroke:#000000;stroke-width:0.7;stroke-linecap:square;stroke-linejoin:miter;stroke-dasharray:none;stroke-opacity:1"
       id="rect9445"
       width="7.1486249"
       height="7.1486249"
       x="102.30476"
       y="199.26628" />
    <rect
       style="fill:#484848;fill-opacity:1;stroke:#000000;stroke-width:0.7;stroke-linecap:square;stroke-linejoin:miter;stroke-dasharray:none;stroke-opacity:1"
       id="rect9447"
       width="7.1486249"
       height="7.1486249"
       x="102.30476"
       y="214.08275" />
    <rect
       style="fill:#484848;fill-opacity:1;stroke:#000000;stroke-width:0.7;stroke-linecap:square;stroke-linejoin:miter;stroke-dasharray:none;stroke-opacity:1"
       id="rect9449"
       width="7.1486249"
       height="7.1486249"
       x="102.30476"
       y="221.49098" />
    <rect
       style="fill:#484848;fill-opacity:1;stroke:#000000;stroke-width:0.7;stroke-linecap:square;stroke-linejoin:miter;stroke-dasharray:none;stroke-opacity:1"
       id="rect9451"
       width="7.1486249"
       height="7.1486249"
       x="102.30476"
       y="228.89922" />
    <g
       id="g9468"
       transform="translate(0,-4.7657548)">
      <rect
         style="fill:none;fill-opacity:1;stroke:#000000;stroke-width:0.7;stroke-linecap:square;stroke-linejoin:miter;stroke-dasharray:none;stroke-opacity:1"
         id="rect9453"
         width="7.1486249"
         height="7.1486249"
         x="109.7131"
         y="204.03204" />
      <rect
         style="fill:none;fill-opacity:1;stroke:#000000;stroke-width:0.7;stroke-linecap:square;stroke-linejoin:miter;stroke-dasharray:none;stroke-opacity:1"
         id="rect9455"
         width="7.1486249"
         height="7.1486249"
         x="109.7131"
         y="211.44043" />
      <rect
         style="fill:none;fill-opacity:1;stroke:#000000;stroke-width:0.7;stroke-linecap:square;stroke-linejoin:miter;stroke-dasharray:none;stroke-opacity:1"
         id="rect9457"
         width="7.1486249"
         height="7.1486249"
         x="109.7131"
         y="218.84866" />
      <rect
         style="fill:none;fill-opacity:1;stroke:#000000;stroke-width:0.7;stroke-linecap:square;stroke-linejoin:miter;stroke-dasharray:none;stroke-opacity:1"
         id="rect9459"
         width="7.1486249"
         height="7.1486249"
         x="109.7131"
         y="226.2569" />
      <rect
         style="fill:none;fill-opacity:1;stroke:#000000;stroke-width:0.7;stroke-linecap:square;stroke-linejoin:miter;stroke-dasharray:none;stroke-opacity:1"
         id="rect9461"
         width="7.1486249"
         height="7.1486249"
         x="109.7131"
         y="233.66513" />
    </g>
    <g
       id="g9480"
       transform="translate(7.4083325,-4.7657548)">
      <rect
         style="fill:none;fill-opacity:1;stroke:#000000;stroke-width:0.7;stroke-linecap:square;stroke-linejoin:miter;stroke-dasharray:none;stroke-opacity:1"
         id="rect9470"
         width="7.1486249"
         height="7.1486249"
         x="109.7131"
         y="204.03204" />
      <rect
         style="fill:none;fill-opacity:1;stroke:#000000;stroke-width:0.7;stroke-linecap:square;stroke-linejoin:miter;stroke-dasharray:none;stroke-opacity:1"
         id="rect9472"
         width="7.1486249"
         height="7.1486249"
         x="109.7131"
         y="211.44043" />
      <rect
         style="fill:none;fill-opacity:1;stroke:#000000;stroke-width:0.7;stroke-linecap:square;stroke-linejoin:miter;stroke-dasharray:none;stroke-opacity:1"
         id="rect9474"
         width="7.1486249"
         height="7.1486249"
         x="109.7131"
         y="218.84866" />
      <rect
         style="fill:none;fill-opacity:1;stroke:#000000;stroke-width:0.7;stroke-linecap:square;stroke-linejoin:miter;stroke-dasharray:none;stroke-opacity:1"
         id="rect9476"
         width="7.1486249"
         height="7.1486249"
         x="109.7131"
         y="226.2569" />
      <rect
         style="fill:none;fill-opacity:1;stroke:#000000;stroke-width:0.7;stroke-linecap:square;stroke-linejoin:miter;stroke-dasharray:none;stroke-opacity:1"
         id="rect9478"
         width="7.1486249"
         height="7.1486249"
         x="109.7131"
         y="233.66513" />
    </g>
    <g
       id="g11396"
       transform="translate(0,-0.06457829)">
      <text
         xml:space="preserve"
         style="font-style:normal;font-variant:normal;font-weight:normal;font-stretch:normal;font-size:2.82223px;line-height:1.25;font-family:'Iwona Light';-inkscape-font-specification:'Iwona Light, ';letter-spacing:0px;word-spacing:0px;white-space:pre;inline-size:36.7009;fill:#000000;fill-opacity:1;stroke:none;stroke-width:0.264583"
         x="133.65811"
         y="212.12032"
         id="text10262"
         transform="translate(-5.5327158,8.8740545)"><tspan
           x="133.65811"
           y="212.12032"
           id="tspan781">La razón entre el área total y
</tspan><tspan
           x="133.65811"
           y="215.6481"
           id="tspan783">el área sombreada es 9 a 20.</tspan></text>
      <g
         inkscape:label=""
         transform="translate(128.28071,210.89871)"
         id="g10999">
        <g
           fill="#000000"
           fill-opacity="1"
           id="g20"
           transform="matrix(0.352778,0,0,0.352778,-0.42168,0.0567531)">
          <g
             id="use18"
             transform="translate(3.313,5.1360002)">
            <path
               d="m 3.125,-2.34375 c 0,1.9375 -0.921875,2.265625 -1.390625,2.265625 -0.171875,0 -0.578125,-0.015625 -0.796875,-0.265625 0.359375,-0.03125 0.375,-0.296875 0.375,-0.375 0,-0.234375 -0.1875,-0.375 -0.375,-0.375 -0.140625,0 -0.375,0.09375 -0.375,0.390625 0,0.546875 0.453125,0.875 1.1875,0.875 1.09375,0 2.125,-1.09375 2.125,-2.796875 0,-2.0625 -0.921875,-2.671875 -1.734375,-2.671875 -0.953125,0 -1.796875,0.734375 -1.796875,1.78125 C 0.34375,-2.5 1.125,-1.75 2.03125,-1.75 c 0.5625,0 0.90625,-0.359375 1.09375,-0.765625 z m -1.0625,0.375 c -0.375,0 -0.609375,-0.171875 -0.78125,-0.46875 -0.1875,-0.28125 -0.1875,-0.671875 -0.1875,-1.078125 0,-0.46875 0,-0.796875 0.21875,-1.125 0.203125,-0.296875 0.453125,-0.453125 0.828125,-0.453125 0.53125,0 0.765625,0.53125 0.796875,0.5625 0.15625,0.390625 0.171875,1.015625 0.171875,1.171875 0,0.640625 -0.34375,1.390625 -1.046875,1.390625 z m 0,0"
               id="path36" />
          </g>
        </g>
        <path
           fill="none"
           stroke-width="0.478"
           stroke-linecap="butt"
           stroke-linejoin="miter"
           stroke="#000000"
           stroke-opacity="1"
           stroke-miterlimit="10"
           d="M 0,7.0163436 H 8.4687505"
           id="path22"
           transform="scale(0.352778)" />
        <g
           clip-path="url(#clipPath7819)"
           id="g30"
           transform="matrix(0.352778,0,0,0.352778,-0.42168,0.0567531)">
          <g
             fill="#000000"
             fill-opacity="1"
             id="g28">
            <g
               id="use24"
               transform="translate(1.196,13.966)">
              <path
                 d="m 2.25,-1.625 c 0.125,-0.125 0.453125,-0.390625 0.59375,-0.5 0.484375,-0.453125 0.953125,-0.890625 0.953125,-1.609375 0,-0.953125 -0.796875,-1.5625 -1.78125,-1.5625 -0.96875,0 -1.59375,0.71875 -1.59375,1.4375 0,0.390625 0.3125,0.4375 0.421875,0.4375 0.171875,0 0.421875,-0.109375 0.421875,-0.421875 0,-0.40625 -0.40625,-0.40625 -0.5,-0.40625 C 1,-4.84375 1.53125,-5.03125 1.921875,-5.03125 c 0.734375,0 1.125,0.625 1.125,1.296875 0,0.828125 -0.578125,1.4375 -1.53125,2.390625 l -1,1.046875 C 0.421875,-0.21875 0.421875,-0.203125 0.421875,0 H 3.5625 l 0.234375,-1.421875 h -0.25 C 3.53125,-1.265625 3.46875,-0.875 3.375,-0.71875 c -0.046875,0.0625 -0.65625,0.0625 -0.78125,0.0625 H 1.171875 Z m 0,0"
                 id="path40" />
            </g>
            <g
               id="use26"
               transform="translate(5.4305139,13.966)">
              <path
                 d="m 3.890625,-2.546875 c 0,-0.84375 -0.078125,-1.359375 -0.34375,-1.875 -0.34375,-0.703125 -1,-0.875 -1.4375,-0.875 -1,0 -1.375,0.75 -1.484375,0.96875 -0.28125,0.578125 -0.296875,1.375 -0.296875,1.78125 0,0.53125 0.015625,1.328125 0.40625,1.96875 0.359375,0.59375 0.953125,0.75 1.375,0.75 0.390625,0 1.0625,-0.125 1.46875,-0.90625 0.296875,-0.578125 0.3125,-1.296875 0.3125,-1.8125 z M 2.109375,-0.0625 C 1.84375,-0.0625 1.296875,-0.1875 1.125,-1.015625 1.03125,-1.46875 1.03125,-2.21875 1.03125,-2.640625 1.03125,-3.1875 1.03125,-3.75 1.125,-4.1875 1.296875,-5 1.90625,-5.078125 2.109375,-5.078125 c 0.265625,0 0.828125,0.140625 0.984375,0.859375 0.09375,0.4375 0.09375,1.046875 0.09375,1.578125 0,0.46875 0,1.1875 -0.09375,1.640625 -0.171875,0.828125 -0.71875,0.9375 -0.984375,0.9375 z m 0,0"
                 id="path44" />
            </g>
          </g>
        </g>
      </g>
    </g>
  </g>
</svg>
