<?xml version="1.0" encoding="UTF-8" standalone="no"?>
<!-- Created with Inkscape (http://www.inkscape.org/) -->

<svg
   width="91.507416mm"
   height="40.40657mm"
   viewBox="0 0 91.507415 40.406571"
   version="1.1"
   id="svg5"
   sodipodi:docname="fig-02.svg"
   inkscape:version="1.2.2 (b0a8486541, 2022-12-01)"
   xmlns:inkscape="http://www.inkscape.org/namespaces/inkscape"
   xmlns:sodipodi="http://sodipodi.sourceforge.net/DTD/sodipodi-0.dtd"
   xmlns="http://www.w3.org/2000/svg"
   xmlns:svg="http://www.w3.org/2000/svg">
  <sodipodi:namedview
     id="namedview7"
     pagecolor="#ffffff"
     bordercolor="#666666"
     borderopacity="1.0"
     inkscape:showpageshadow="2"
     inkscape:pageopacity="0.0"
     inkscape:pagecheckerboard="0"
     inkscape:deskcolor="#d1d1d1"
     inkscape:document-units="mm"
     showgrid="false"
     inkscape:zoom="2.9683221"
     inkscape:cx="180.40495"
     inkscape:cy="74.284391"
     inkscape:window-width="1920"
     inkscape:window-height="1014"
     inkscape:window-x="0"
     inkscape:window-y="0"
     inkscape:window-maximized="1"
     inkscape:current-layer="layer1" />
  <defs
     id="defs2" />
  <g
     inkscape:label="Capa 1"
     inkscape:groupmode="layer"
     id="layer1"
     transform="translate(-15.777008,-48.346334)">
    <circle
       style="opacity:0.921708;fill:none;stroke:#0019ff;stroke-width:1;stroke-linecap:round;stroke-linejoin:round;stroke-dasharray:none;stroke-opacity:1"
       id="path234"
       cx="34.495499"
       cy="65.514702"
       r="16.668367" />
    <g
       inkscape:label=""
       transform="translate(15.777,50.183418)"
       id="g1478">
      <g
         fill="#000000"
         fill-opacity="1"
         id="g11"
         transform="matrix(0.423333,0,0,0.423333,-39.0604,-31.6748)">
        <g
           id="use9"
           transform="translate(91.925003,81.962997)">
          <path
             d="M 1.78125,-1.140625 C 1.390625,-0.484375 1,-0.34375 0.5625,-0.3125 0.4375,-0.296875 0.34375,-0.296875 0.34375,-0.109375 0.34375,-0.046875 0.40625,0 0.484375,0 0.75,0 1.0625,-0.03125 1.328125,-0.03125 c 0.34375,0 0.6875,0.03125 1,0.03125 0.0625,0 0.1875,0 0.1875,-0.1875 0,-0.109375 -0.078125,-0.125 -0.15625,-0.125 -0.21875,-0.015625 -0.46875,-0.09375 -0.46875,-0.34375 0,-0.125 0.0625,-0.234375 0.140625,-0.375 l 0.765625,-1.265625 h 2.5 c 0.015625,0.203125 0.15625,1.5625 0.15625,1.65625 0,0.296875 -0.515625,0.328125 -0.71875,0.328125 C 4.59375,-0.3125 4.5,-0.3125 4.5,-0.109375 4.5,0 4.609375,0 4.640625,0 5.046875,0 5.46875,-0.03125 5.875,-0.03125 6.125,-0.03125 6.765625,0 7.015625,0 7.0625,0 7.1875,0 7.1875,-0.203125 7.1875,-0.3125 7.09375,-0.3125 6.953125,-0.3125 6.34375,-0.3125 6.34375,-0.375 6.3125,-0.671875 l -0.609375,-6.21875 c -0.015625,-0.203125 -0.015625,-0.25 -0.1875,-0.25 -0.15625,0 -0.203125,0.078125 -0.265625,0.171875 z M 2.984375,-2.609375 4.9375,-5.90625 5.265625,-2.609375 Z m 0,0"
             id="path17" />
        </g>
      </g>
    </g>
    <g
       inkscape:label=""
       transform="translate(22.818717,65.125078)"
       id="g2288">
      <g
         fill="#000000"
         fill-opacity="1"
         id="g2286"
         transform="matrix(0.423333,0,0,0.423333,-39.0935,-32.8059)">
        <g
           id="g2284"
           transform="translate(91.925003,81.962997)">
          <path
             d="m 3.3125,-0.75 c 0.046875,0.390625 0.3125,0.8125 0.78125,0.8125 0.21875,0 0.828125,-0.140625 0.828125,-0.953125 v -0.5625 h -0.25 v 0.5625 c 0,0.578125 -0.25,0.640625 -0.359375,0.640625 -0.328125,0 -0.375,-0.453125 -0.375,-0.5 v -1.984375 c 0,-0.421875 0,-0.8125 -0.359375,-1.1875 C 3.1875,-4.3125 2.6875,-4.46875 2.21875,-4.46875 c -0.828125,0 -1.515625,0.46875 -1.515625,1.125 0,0.296875 0.203125,0.46875 0.46875,0.46875 0.28125,0 0.453125,-0.203125 0.453125,-0.453125 0,-0.125 -0.046875,-0.453125 -0.515625,-0.453125 C 1.390625,-4.140625 1.875,-4.25 2.1875,-4.25 c 0.5,0 1.0625,0.390625 1.0625,1.28125 v 0.359375 c -0.515625,0.03125 -1.203125,0.0625 -1.828125,0.359375 -0.75,0.34375 -1,0.859375 -1,1.296875 0,0.8125 0.96875,1.0625 1.59375,1.0625 0.65625,0 1.109375,-0.40625 1.296875,-0.859375 z M 3.25,-2.390625 v 1 c 0,0.9375 -0.71875,1.28125 -1.171875,1.28125 -0.484375,0 -0.890625,-0.34375 -0.890625,-0.84375 0,-0.546875 0.421875,-1.375 2.0625,-1.4375 z m 0,0"
             id="path2282" />
        </g>
      </g>
    </g>
    <g
       inkscape:label=""
       transform="translate(39.932762,68.18882)"
       id="g2326">
      <g
         fill="#000000"
         fill-opacity="1"
         id="g2324"
         transform="matrix(0.423333,0,0,0.423333,-39.034,-32.8059)">
        <g
           id="g2322"
           transform="translate(91.925003,81.962997)">
          <path
             d="M 1.109375,-2.515625 C 1.171875,-4 2.015625,-4.25 2.359375,-4.25 c 1.015625,0 1.125,1.34375 1.125,1.734375 z m 0,0.21875 h 2.78125 c 0.21875,0 0.25,0 0.25,-0.21875 0,-0.984375 -0.546875,-1.953125 -1.78125,-1.953125 -1.15625,0 -2.078125,1.03125 -2.078125,2.28125 0,1.328125 1.046875,2.296875 2.1875,2.296875 C 3.6875,0.109375 4.140625,-1 4.140625,-1.1875 4.140625,-1.28125 4.0625,-1.3125 4,-1.3125 c -0.078125,0 -0.109375,0.0625 -0.125,0.140625 -0.34375,1.03125 -1.25,1.03125 -1.34375,1.03125 -0.5,0 -0.890625,-0.296875 -1.125,-0.671875 -0.296875,-0.46875 -0.296875,-1.125 -0.296875,-1.484375 z m 0,0"
             id="path2320" />
        </g>
      </g>
    </g>
    <g
       inkscape:label=""
       transform="translate(39.932762,57.670813)"
       id="g2372">
      <g
         fill="#000000"
         fill-opacity="1"
         id="g2370"
         transform="matrix(0.423333,0,0,0.423333,-39.0538,-31.8732)">
        <g
           id="g2368"
           transform="translate(91.925003,81.962997)">
          <path
             d="M 1.765625,-4.40625 0.375,-4.296875 v 0.3125 c 0.640625,0 0.734375,0.0625 0.734375,0.546875 V -0.75 c 0,0.4375 -0.109375,0.4375 -0.78125,0.4375 V 0 C 0.640625,-0.015625 1.1875,-0.03125 1.421875,-0.03125 1.78125,-0.03125 2.125,-0.015625 2.46875,0 v -0.3125 c -0.671875,0 -0.703125,-0.046875 -0.703125,-0.4375 z m 0.03125,-1.734375 c 0,-0.3125 -0.234375,-0.53125 -0.515625,-0.53125 -0.3125,0 -0.53125,0.265625 -0.53125,0.53125 0,0.265625 0.21875,0.53125 0.53125,0.53125 0.28125,0 0.515625,-0.21875 0.515625,-0.53125 z m 0,0"
             id="path2366" />
        </g>
      </g>
    </g>
    <g
       inkscape:label=""
       transform="translate(29.593027,75.854486)"
       id="g2426">
      <g
         fill="#000000"
         fill-opacity="1"
         id="g2424"
         transform="matrix(0.423333,0,0,0.423333,-39.034,-32.8059)">
        <g
           id="g2422"
           transform="translate(91.925003,81.962997)">
          <path
             d="M 4.6875,-2.140625 C 4.6875,-3.40625 3.703125,-4.46875 2.5,-4.46875 c -1.25,0 -2.21875,1.09375 -2.21875,2.328125 0,1.296875 1.03125,2.25 2.203125,2.25 1.203125,0 2.203125,-0.984375 2.203125,-2.25 z m -2.1875,2 c -0.4375,0 -0.875,-0.203125 -1.140625,-0.671875 -0.25,-0.4375 -0.25,-1.046875 -0.25,-1.40625 0,-0.390625 0,-0.921875 0.234375,-1.359375 C 1.609375,-4.03125 2.078125,-4.25 2.484375,-4.25 c 0.4375,0 0.859375,0.21875 1.125,0.65625 0.265625,0.421875 0.265625,1 0.265625,1.375 0,0.359375 0,0.90625 -0.21875,1.34375 C 3.421875,-0.421875 2.984375,-0.140625 2.5,-0.140625 Z m 0,0"
             id="path2420" />
        </g>
      </g>
    </g>
    <g
       inkscape:label=""
       transform="translate(28.478832,56.779457)"
       id="g2488">
      <g
         fill="#000000"
         fill-opacity="1"
         id="g2486"
         transform="matrix(0.423333,0,0,0.423333,-39.0472,-32.8324)">
        <g
           id="g2484"
           transform="translate(91.925003,81.962997)">
          <path
             d="M 3.890625,-0.78125 V 0.109375 L 5.328125,0 V -0.3125 C 4.640625,-0.3125 4.5625,-0.375 4.5625,-0.875 v -3.53125 l -1.46875,0.109375 v 0.3125 c 0.6875,0 0.78125,0.0625 0.78125,0.5625 v 1.765625 c 0,0.875 -0.484375,1.546875 -1.21875,1.546875 -0.828125,0 -0.875,-0.46875 -0.875,-0.984375 v -3.3125 L 0.3125,-4.296875 v 0.3125 c 0.78125,0 0.78125,0.03125 0.78125,0.90625 v 1.5 c 0,0.78125 0,1.6875 1.515625,1.6875 0.5625,0 1,-0.28125 1.28125,-0.890625 z m 0,0"
             id="path2482" />
        </g>
      </g>
    </g>
    <circle
       style="opacity:0.921708;fill:#000000;fill-opacity:1;stroke:none;stroke-width:1;stroke-linecap:round;stroke-linejoin:round;stroke-dasharray:none;stroke-opacity:1"
       id="path3064"
       cx="26.205881"
       cy="66.094086"
       r="0.49024612" />
    <circle
       style="opacity:0.921708;fill:#000000;fill-opacity:1;stroke:none;stroke-width:1;stroke-linecap:round;stroke-linejoin:round;stroke-dasharray:none;stroke-opacity:1"
       id="circle3066"
       cx="31.821428"
       cy="57.735195"
       r="0.49024612" />
    <circle
       style="opacity:0.921708;fill:#000000;fill-opacity:1;stroke:none;stroke-width:1;stroke-linecap:round;stroke-linejoin:round;stroke-dasharray:none;stroke-opacity:1"
       id="circle3068"
       cx="42.161163"
       cy="59.083042"
       r="0.49024612" />
    <circle
       style="opacity:0.921708;fill:#000000;fill-opacity:1;stroke:none;stroke-width:1;stroke-linecap:round;stroke-linejoin:round;stroke-dasharray:none;stroke-opacity:1"
       id="circle3070"
       cx="43.007954"
       cy="69.157829"
       r="0.49024612" />
    <circle
       style="opacity:0.921708;fill:#000000;fill-opacity:1;stroke:none;stroke-width:1;stroke-linecap:round;stroke-linejoin:round;stroke-dasharray:none;stroke-opacity:1"
       id="circle3072"
       cx="33.069328"
       cy="76.823494"
       r="0.49024612" />
    <circle
       style="opacity:0.921708;fill:none;stroke:#0bff00;stroke-width:1;stroke-linecap:round;stroke-linejoin:round;stroke-dasharray:none;stroke-opacity:1"
       id="circle3076"
       cx="86.907265"
       cy="65.514702"
       r="16.668367" />
    <g
       fill="#000000"
       fill-opacity="1"
       id="g26"
       transform="matrix(0.423333,0,0,0.423333,34.582412,30.454528)">
      <g
         id="use24"
         transform="translate(95.246002,81.962997)">
        <path
           d="m 7.1875,-6.5 c 0,-0.3125 -0.03125,-0.34375 -0.34375,-0.34375 h -5.9375 c -0.3125,0 -0.34375,0.03125 -0.34375,0.34375 v 6.140625 C 0.5625,-0.046875 0.59375,0 0.921875,0 h 5.90625 C 7.15625,0 7.1875,-0.03125 7.1875,-0.34375 Z M 0.953125,-6.453125 H 6.78125 V -0.40625 H 0.953125 Z m 0,0"
           id="path64" />
      </g>
    </g>
    <g
       fill="#000000"
       fill-opacity="1"
       id="g34"
       transform="matrix(0.423333,0,0,0.423333,39.306601,22.164912)">
      <g
         id="use32"
         transform="translate(107.423,81.962997)">
        <path
           d="m 6.921875,-2.5 c 0,0.828125 -0.3125,1.609375 -0.890625,2.1875 C 5.46875,0.265625 4.671875,0.578125 3.875,0.578125 3.046875,0.578125 2.265625,0.265625 1.6875,-0.3125 1.125,-0.890625 0.796875,-1.671875 0.796875,-2.5 0.796875,-3.3125 1.125,-4.09375 1.6875,-4.671875 2.265625,-5.25 3.046875,-5.5625 3.875,-5.5625 c 0.796875,0 1.59375,0.3125 2.15625,0.890625 C 6.609375,-4.09375 6.921875,-3.3125 6.921875,-2.5 Z M 1.53125,-4.84375 C 0.890625,-4.21875 0.546875,-3.375 0.546875,-2.5 c 0,0.890625 0.34375,1.734375 0.984375,2.359375 0.609375,0.625 1.453125,0.96875 2.34375,0.96875 0.875,0 1.71875,-0.34375 2.328125,-0.96875 0.625,-0.625 0.96875,-1.46875 0.96875,-2.359375 0,-0.875 -0.34375,-1.71875 -0.96875,-2.34375 C 5.59375,-5.46875 4.75,-5.8125 3.875,-5.8125 c -0.890625,0 -1.734375,0.34375 -2.34375,0.96875 z m 0,0"
           id="path72" />
      </g>
    </g>
    <g
       fill="#000000"
       fill-opacity="1"
       id="g42"
       transform="matrix(0.423333,0,0,0.423333,42.369656,29.461366)">
      <g
         id="use40"
         transform="translate(119.599,81.962997)">
        <path
           d="m 4.640625,-6.953125 c -0.0625,-0.109375 -0.09375,-0.1875 -0.21875,-0.1875 -0.109375,0 -0.140625,0.046875 -0.21875,0.203125 l -3.53125,6.546875 c -0.078125,0.125 -0.078125,0.15625 -0.078125,0.1875 C 0.59375,0 0.796875,0 0.953125,0 h 6.96875 c 0.15625,0 0.34375,0 0.34375,-0.203125 0,-0.046875 -0.015625,-0.078125 -0.0625,-0.15625 z m -0.21875,0.4375 3.3125,6.109375 h -6.625 z m 0,0"
           id="path7313" />
      </g>
    </g>
    <g
       fill="#000000"
       fill-opacity="1"
       id="g50"
       transform="matrix(0.423333,0,0,0.423333,22.994777,40.25945)">
      <g
         id="use48"
         transform="translate(132.883,81.962997)">
        <path
           d="m 0.59375,-2.9375 c -0.015625,0.03125 -0.046875,0.078125 -0.046875,0.125 0,0.09375 0.0625,0.140625 0.171875,0.25 C 2.15625,-1.25 3.125,0.34375 3.6875,1.484375 3.703125,1.53125 3.765625,1.625 3.875,1.625 4,1.625 4.03125,1.5625 4.109375,1.40625 c 0.578125,-1.1875 1.59375,-2.765625 2.953125,-4 0.109375,-0.09375 0.140625,-0.125 0.140625,-0.21875 0,-0.09375 -0.03125,-0.125 -0.171875,-0.25 C 6.125,-3.875 4.953125,-5.296875 4.0625,-7.109375 4.046875,-7.15625 4,-7.25 3.875,-7.25 3.765625,-7.25 3.734375,-7.1875 3.65625,-7.03125 3.125,-5.984375 2.203125,-4.453125 0.84375,-3.171875 Z M 3.875,0.984375 C 3.4375,0.15625 2.796875,-0.96875 1.71875,-2.125 1.5,-2.359375 1.265625,-2.609375 1.046875,-2.8125 1.28125,-3.015625 1.53125,-3.28125 1.75,-3.53125 c 1.125,-1.234375 1.8125,-2.5 2.125,-3.0625 0.4375,0.8125 1.09375,1.9375 2.171875,3.09375 0.203125,0.234375 0.4375,0.484375 0.65625,0.6875 -0.21875,0.203125 -0.46875,0.46875 -0.6875,0.71875 C 4.875,-0.859375 4.1875,0.40625 3.875,0.984375 Z m 0,0"
           id="path7321" />
      </g>
    </g>
    <g
       fill="#000000"
       fill-opacity="1"
       id="g58"
       transform="matrix(0.423333,0,0,0.423333,29.679951,41.329078)">
      <g
         id="use56"
         transform="translate(145.05901,81.962997)">
        <path
           d="m 4,1.296875 c 0.171875,0 0.359375,0 0.359375,-0.203125 0,-0.03125 0,-0.046875 -0.046875,-0.15625 C 4.140625,0.34375 4.078125,-0.203125 4.078125,-0.703125 h 0.5 C 4.609375,0.125 5.5,0.21875 5.765625,0.21875 c 0.96875,0 1.71875,-0.890625 1.71875,-1.953125 0,-0.96875 -0.53125,-1.9375 -1.46875,-1.9375 -0.359375,0 -0.671875,0.140625 -0.90625,0.4375 l -0.21875,-0.46875 c 0.5,-0.40625 0.75,-0.984375 0.75,-1.59375 0,-1.046875 -0.75,-1.953125 -1.765625,-1.953125 -1,0 -1.765625,0.90625 -1.765625,1.953125 0,0.609375 0.265625,1.203125 0.765625,1.59375 l -0.21875,0.46875 c -0.25,-0.296875 -0.5625,-0.4375 -0.921875,-0.4375 -0.9375,0 -1.453125,0.96875 -1.453125,1.9375 0,1.0625 0.734375,1.953125 1.703125,1.953125 0.265625,0 1.15625,-0.09375 1.203125,-0.921875 h 0.484375 c 0,0.65625 -0.09375,1.15625 -0.25,1.6875 C 3.40625,1.0625 3.40625,1.078125 3.40625,1.09375 c 0,0.203125 0.171875,0.203125 0.34375,0.203125 z m 0,0"
           id="path7329" />
      </g>
    </g>
    <g
       inkscape:label=""
       transform="translate(69.614915,49.604024)"
       id="g9348">
      <g
         fill="#000000"
         fill-opacity="1"
         id="g9346"
         transform="matrix(0.423333,0,0,0.423333,-39.1266,-31.7211)">
        <g
           id="g9344"
           transform="translate(91.925003,81.962997)">
          <path
             d="m 7.578125,-6.921875 c 0,-0.03125 -0.015625,-0.109375 -0.109375,-0.109375 -0.03125,0 -0.046875,0.015625 -0.15625,0.125 L 6.625,-6.140625 C 6.53125,-6.28125 6.078125,-7.03125 4.96875,-7.03125 2.734375,-7.03125 0.5,-4.828125 0.5,-2.515625 0.5,-0.875 1.671875,0.21875 3.203125,0.21875 c 0.859375,0 1.625,-0.390625 2.15625,-0.859375 0.921875,-0.8125 1.09375,-1.71875 1.09375,-1.75 C 6.453125,-2.5 6.34375,-2.5 6.328125,-2.5 c -0.0625,0 -0.109375,0.03125 -0.125,0.109375 -0.09375,0.28125 -0.328125,1 -1.015625,1.578125 -0.6875,0.546875 -1.3125,0.71875 -1.828125,0.71875 -0.890625,0 -1.953125,-0.515625 -1.953125,-2.0625 0,-0.578125 0.203125,-2.1875 1.203125,-3.359375 0.609375,-0.703125 1.546875,-1.203125 2.4375,-1.203125 1.015625,0 1.609375,0.765625 1.609375,1.921875 0,0.40625 -0.03125,0.40625 -0.03125,0.515625 0,0.09375 0.109375,0.09375 0.140625,0.09375 0.125,0 0.125,-0.015625 0.1875,-0.203125 z m 0,0"
             id="path9342" />
        </g>
      </g>
    </g>
    <circle
       style="opacity:0.921708;fill:#000000;fill-opacity:1;stroke:none;stroke-width:1;stroke-linecap:round;stroke-linejoin:round;stroke-dasharray:none;stroke-opacity:1"
       id="circle9720"
       cx="79.776413"
       cy="63.703575"
       r="0.49024612" />
    <circle
       style="opacity:0.921708;fill:#000000;fill-opacity:1;stroke:none;stroke-width:1;stroke-linecap:round;stroke-linejoin:round;stroke-dasharray:none;stroke-opacity:1"
       id="circle9722"
       cx="89.581337"
       cy="55.807529"
       r="0.49024612" />
    <circle
       style="opacity:0.921708;fill:#000000;fill-opacity:1;stroke:none;stroke-width:1;stroke-linecap:round;stroke-linejoin:round;stroke-dasharray:none;stroke-opacity:1"
       id="circle9724"
       cx="97.546844"
       cy="62.647579"
       r="0.49024612" />
    <circle
       style="opacity:0.921708;fill:#000000;fill-opacity:1;stroke:none;stroke-width:1;stroke-linecap:round;stroke-linejoin:round;stroke-dasharray:none;stroke-opacity:1"
       id="circle9749"
       cx="96.088234"
       cy="74.76664"
       r="0.49024612" />
    <circle
       style="opacity:0.921708;fill:#000000;fill-opacity:1;stroke:none;stroke-width:1;stroke-linecap:round;stroke-linejoin:round;stroke-dasharray:none;stroke-opacity:1"
       id="circle9751"
       cx="83.876648"
       cy="73.766464"
       r="0.49024612" />
    <g
       id="g1087"
       transform="translate(-1.5126822,-25.21137)">
      <g
         inkscape:label=""
         transform="translate(102.8625,76.790409)"
         id="g8340">
        <g
           fill="#000000"
           fill-opacity="1"
           id="g8338"
           transform="matrix(0.423333,0,0,0.423333,-40.5523,-31.6285)">
          <g
             id="g8336"
             transform="translate(95.246002,81.962997)">
            <path
               d="m 4,1.296875 c 0.171875,0 0.359375,0 0.359375,-0.203125 0,-0.03125 0,-0.046875 -0.046875,-0.15625 C 4.140625,0.34375 4.078125,-0.203125 4.078125,-0.703125 h 0.5 C 4.609375,0.171875 5.6875,0.21875 5.875,0.21875 c 1.21875,0 1.328125,-1.59375 1.328125,-2.25 0,-1.15625 -0.671875,-1.953125 -1.796875,-2.953125 C 4.640625,-5.65625 4.3125,-6.515625 4.0625,-7.125 4.03125,-7.203125 3.953125,-7.25 3.875,-7.25 3.734375,-7.25 3.703125,-7.140625 3.671875,-7.078125 3.5,-6.625 3.125,-5.671875 2.359375,-5 c -1.15625,1.03125 -1.8125,1.84375 -1.8125,2.96875 0,0.75 0.15625,2.25 1.34375,2.25 0.296875,0 1.265625,-0.09375 1.296875,-0.921875 h 0.484375 c 0,0.65625 -0.09375,1.15625 -0.25,1.6875 C 3.40625,1.0625 3.40625,1.078125 3.40625,1.09375 c 0,0.203125 0.171875,0.203125 0.34375,0.203125 z m 0,0"
               id="path8334" />
          </g>
        </g>
      </g>
      <circle
         style="opacity:0.921708;fill:#000000;fill-opacity:1;stroke:none;stroke-width:1;stroke-linecap:round;stroke-linejoin:round;stroke-dasharray:none;stroke-opacity:1"
         id="circle9753"
         cx="107.14106"
         cy="78.599472"
         r="0.49024612" />
    </g>
    <path
       style="fill:none;stroke:#ff0404;stroke-width:0.465;stroke-linecap:butt;stroke-linejoin:miter;stroke-dasharray:none;stroke-opacity:1"
       d="m 27.563323,54.743719 h 14.275939 c 1.847058,0.383248 2.031259,1.379127 2.332051,2.332052 v 13.677168 c -0.138973,1.656797 -0.975154,2.045942 -2.032666,2.032667 h -3.639892 c -1.701153,1.18e-4 -2.027553,0.08417 -2.564691,-0.687207 l -9.13198,-15.841782 c 0,-1.352221 0.186603,-1.482301 0.761239,-1.512898 z"
       id="path1237"
       sodipodi:nodetypes="ccccccccc" />
    <path
       style="fill:none;stroke:#ff0000;stroke-width:0.465;stroke-linecap:butt;stroke-linejoin:miter;stroke-dasharray:none;stroke-opacity:1"
       d="m 82.58418,54.541262 c -0.154806,-1.532093 0.541796,-2.314947 1.871847,-2.540366 l 20.501203,-1.426171 c 1.42131,-0.105445 1.97743,0.732959 2.09469,2.05012 v 4.456783 c -0.16775,0.541387 -0.43508,1.032986 -0.84039,1.455597 l -9.347732,9.34773 c -0.924835,0.811362 -1.767125,0.852296 -2.513711,0 z"
       id="path1239"
       sodipodi:nodetypes="ccccccccc" />
    <g
       inkscape:label=""
       transform="translate(45.102599,62.9646)"
       id="g1742">
      <g
         fill="#000000"
         fill-opacity="1"
         id="g1740"
         transform="matrix(0.423333,0,0,0.423333,-39.0737,-31.8269)">
        <g
           id="g1738"
           transform="translate(91.925003,81.962997)">
          <path
             d="m 3.015625,-3.234375 h 0.96875 c 0.75,0 0.828125,0.15625 0.828125,0.4375 0,0.078125 0,0.1875 -0.0625,0.5 C 4.71875,-2.25 4.71875,-2.21875 4.71875,-2.1875 c 0,0.078125 0.0625,0.109375 0.109375,0.109375 0.109375,0 0.109375,-0.03125 0.15625,-0.203125 L 5.53125,-4.453125 C 5.5625,-4.5625 5.5625,-4.578125 5.5625,-4.609375 5.5625,-4.625 5.546875,-4.71875 5.4375,-4.71875 5.34375,-4.71875 5.328125,-4.671875 5.296875,-4.5 5.078125,-3.734375 4.859375,-3.546875 4,-3.546875 H 3.09375 l 0.640625,-2.53125 C 3.828125,-6.4375 3.84375,-6.46875 4.28125,-6.46875 h 1.3125 c 1.21875,0 1.453125,0.328125 1.453125,1.09375 0,0.234375 0,0.265625 -0.03125,0.546875 C 7,-4.703125 7,-4.6875 7,-4.65625 c 0,0.046875 0.03125,0.125 0.125,0.125 0.109375,0 0.109375,-0.0625 0.125,-0.25 L 7.453125,-6.515625 C 7.484375,-6.78125 7.4375,-6.78125 7.1875,-6.78125 H 2.296875 c -0.1875,0 -0.296875,0 -0.296875,0.203125 0,0.109375 0.09375,0.109375 0.28125,0.109375 0.375,0 0.65625,0 0.65625,0.171875 0,0.046875 0,0.0625 -0.0625,0.25 L 1.5625,-0.78125 c -0.09375,0.390625 -0.109375,0.46875 -0.90625,0.46875 -0.171875,0 -0.28125,0 -0.28125,0.1875 C 0.375,0 0.5,0 0.53125,0 0.8125,0 1.5625,-0.03125 1.84375,-0.03125 2.171875,-0.03125 3,0 3.328125,0 3.421875,0 3.53125,0 3.53125,-0.1875 3.53125,-0.265625 3.484375,-0.296875 3.484375,-0.296875 3.453125,-0.3125 3.421875,-0.3125 3.203125,-0.3125 c -0.21875,0 -0.265625,0 -0.515625,-0.015625 -0.296875,-0.03125 -0.328125,-0.078125 -0.328125,-0.203125 0,-0.015625 0,-0.078125 0.046875,-0.21875 z m 0,0"
             id="path1736" />
        </g>
      </g>
    </g>
    <g
       inkscape:label=""
       transform="translate(98.40572,67.06474)"
       id="g1960">
      <g
         fill="#000000"
         fill-opacity="1"
         id="g1958"
         transform="matrix(0.423333,0,0,0.423333,-39.0803,-31.8137)">
        <g
           id="g1956"
           transform="translate(91.925003,81.962997)">
          <path
             d="M 7.609375,-6.046875 C 7.703125,-6.40625 7.71875,-6.5 8.4375,-6.5 c 0.265625,0 0.34375,0 0.34375,-0.203125 0,-0.109375 -0.109375,-0.109375 -0.140625,-0.109375 -0.28125,0 -1,0.03125 -1.28125,0.03125 -0.28125,0 -0.984375,-0.03125 -1.28125,-0.03125 -0.078125,0 -0.1875,0 -0.1875,0.203125 0,0.109375 0.09375,0.109375 0.28125,0.109375 0.015625,0 0.203125,0 0.375,0.015625 0.1875,0.03125 0.265625,0.03125 0.265625,0.171875 0,0.03125 0,0.046875 -0.03125,0.1875 L 6.1875,-3.703125 H 3.140625 l 0.59375,-2.34375 C 3.8125,-6.40625 3.84375,-6.5 4.5625,-6.5 c 0.265625,0 0.34375,0 0.34375,-0.203125 0,-0.109375 -0.109375,-0.109375 -0.140625,-0.109375 -0.28125,0 -1,0.03125 -1.28125,0.03125 -0.28125,0 -0.984375,-0.03125 -1.28125,-0.03125 -0.078125,0 -0.1875,0 -0.1875,0.203125 0,0.109375 0.09375,0.109375 0.28125,0.109375 0.015625,0 0.203125,0 0.375,0.015625 0.171875,0.03125 0.265625,0.03125 0.265625,0.171875 0,0.03125 0,0.0625 -0.03125,0.1875 L 1.5625,-0.78125 c -0.09375,0.390625 -0.109375,0.46875 -0.90625,0.46875 -0.171875,0 -0.265625,0 -0.265625,0.203125 C 0.390625,0 0.515625,0 0.53125,0 0.8125,0 1.515625,-0.03125 1.796875,-0.03125 2,-0.03125 2.21875,-0.015625 2.4375,-0.015625 2.65625,-0.015625 2.875,0 3.078125,0 3.15625,0 3.28125,0 3.28125,-0.203125 3.28125,-0.3125 3.1875,-0.3125 3,-0.3125 c -0.375,0 -0.640625,0 -0.640625,-0.171875 0,-0.0625 0.015625,-0.109375 0.015625,-0.171875 l 0.6875,-2.734375 h 3.03125 c -0.40625,1.65625 -0.640625,2.609375 -0.6875,2.75 C 5.3125,-0.3125 5.125,-0.3125 4.5,-0.3125 c -0.140625,0 -0.234375,0 -0.234375,0.203125 C 4.265625,0 4.390625,0 4.40625,0 4.6875,0 5.390625,-0.03125 5.671875,-0.03125 5.875,-0.03125 6.09375,-0.015625 6.3125,-0.015625 6.53125,-0.015625 6.75,0 6.953125,0 7.03125,0 7.15625,0 7.15625,-0.203125 7.15625,-0.3125 7.0625,-0.3125 6.875,-0.3125 c -0.359375,0 -0.640625,0 -0.640625,-0.171875 0,-0.0625 0.015625,-0.109375 0.03125,-0.171875 z m 0,0"
             id="path1954" />
        </g>
      </g>
    </g>
    <g
       inkscape:label=""
       transform="translate(28.592924,84.622122)"
       id="g2125">
      <g
         fill="#000000"
         fill-opacity="1"
         id="g17"
         transform="matrix(0.423333,0,0,0.423333,-39.0737,-31.6748)">
        <g
           id="use15"
           transform="translate(91.925003,81.962997)">
          <path
             d="m 3.015625,-3.234375 h 0.96875 c 0.75,0 0.828125,0.15625 0.828125,0.4375 0,0.078125 0,0.1875 -0.0625,0.5 C 4.71875,-2.25 4.71875,-2.21875 4.71875,-2.1875 c 0,0.078125 0.0625,0.109375 0.109375,0.109375 0.109375,0 0.109375,-0.03125 0.15625,-0.203125 L 5.53125,-4.453125 C 5.5625,-4.5625 5.5625,-4.578125 5.5625,-4.609375 5.5625,-4.625 5.546875,-4.71875 5.4375,-4.71875 5.34375,-4.71875 5.328125,-4.671875 5.296875,-4.5 5.078125,-3.734375 4.859375,-3.546875 4,-3.546875 H 3.09375 l 0.640625,-2.53125 C 3.828125,-6.4375 3.84375,-6.46875 4.28125,-6.46875 h 1.3125 c 1.21875,0 1.453125,0.328125 1.453125,1.09375 0,0.234375 0,0.265625 -0.03125,0.546875 C 7,-4.703125 7,-4.6875 7,-4.65625 c 0,0.046875 0.03125,0.125 0.125,0.125 0.109375,0 0.109375,-0.0625 0.125,-0.25 L 7.453125,-6.515625 C 7.484375,-6.78125 7.4375,-6.78125 7.1875,-6.78125 H 2.296875 c -0.1875,0 -0.296875,0 -0.296875,0.203125 0,0.109375 0.09375,0.109375 0.28125,0.109375 0.375,0 0.65625,0 0.65625,0.171875 0,0.046875 0,0.0625 -0.0625,0.25 L 1.5625,-0.78125 c -0.09375,0.390625 -0.109375,0.46875 -0.90625,0.46875 -0.171875,0 -0.28125,0 -0.28125,0.1875 C 0.375,0 0.5,0 0.53125,0 0.8125,0 1.5625,-0.03125 1.84375,-0.03125 2.171875,-0.03125 3,0 3.328125,0 3.421875,0 3.53125,0 3.53125,-0.1875 3.53125,-0.265625 3.484375,-0.296875 3.484375,-0.296875 3.453125,-0.3125 3.421875,-0.3125 3.203125,-0.3125 c -0.21875,0 -0.265625,0 -0.515625,-0.015625 -0.296875,-0.03125 -0.328125,-0.078125 -0.328125,-0.203125 0,-0.015625 0,-0.078125 0.046875,-0.21875 z m 0,0"
             id="path31" />
        </g>
      </g>
      <g
         fill="#000000"
         fill-opacity="1"
         id="g21"
         transform="matrix(0.423333,0,0,0.423333,-39.0737,-31.6748)">
        <g
           id="use19"
           transform="translate(102.483,81.962997)">
          <path
             d="m 6.5625,-5.9375 c 0.171875,0 0.359375,0 0.359375,-0.203125 0,-0.203125 -0.1875,-0.203125 -0.359375,-0.203125 H 3.890625 c -1.71875,0 -3.0625,1.3125 -3.0625,2.890625 0,1.59375 1.375,2.890625 3.0625,2.890625 H 6.5625 c 0.171875,0 0.359375,0 0.359375,-0.203125 0,-0.203125 -0.1875,-0.203125 -0.359375,-0.203125 H 3.90625 c -1.578125,0 -2.6875,-1.171875 -2.6875,-2.484375 0,-1.359375 1.140625,-2.484375 2.6875,-2.484375 z M 1.375,0.96875 c -0.171875,0 -0.34375,0 -0.34375,0.203125 0,0.1875 0.171875,0.1875 0.34375,0.1875 h 5.1875 c 0.171875,0 0.359375,0 0.359375,-0.1875 0,-0.203125 -0.1875,-0.203125 -0.359375,-0.203125 z m 0,0"
             id="path35" />
        </g>
      </g>
      <g
         fill="#000000"
         fill-opacity="1"
         id="g25"
         transform="matrix(0.423333,0,0,0.423333,-39.0737,-31.6748)">
        <g
           id="use23"
           transform="translate(112.999,81.962997)">
          <path
             d="M 1.78125,-1.140625 C 1.390625,-0.484375 1,-0.34375 0.5625,-0.3125 0.4375,-0.296875 0.34375,-0.296875 0.34375,-0.109375 0.34375,-0.046875 0.40625,0 0.484375,0 0.75,0 1.0625,-0.03125 1.328125,-0.03125 c 0.34375,0 0.6875,0.03125 1,0.03125 0.0625,0 0.1875,0 0.1875,-0.1875 0,-0.109375 -0.078125,-0.125 -0.15625,-0.125 -0.21875,-0.015625 -0.46875,-0.09375 -0.46875,-0.34375 0,-0.125 0.0625,-0.234375 0.140625,-0.375 l 0.765625,-1.265625 h 2.5 c 0.015625,0.203125 0.15625,1.5625 0.15625,1.65625 0,0.296875 -0.515625,0.328125 -0.71875,0.328125 C 4.59375,-0.3125 4.5,-0.3125 4.5,-0.109375 4.5,0 4.609375,0 4.640625,0 5.046875,0 5.46875,-0.03125 5.875,-0.03125 6.125,-0.03125 6.765625,0 7.015625,0 7.0625,0 7.1875,0 7.1875,-0.203125 7.1875,-0.3125 7.09375,-0.3125 6.953125,-0.3125 6.34375,-0.3125 6.34375,-0.375 6.3125,-0.671875 l -0.609375,-6.21875 c -0.015625,-0.203125 -0.015625,-0.25 -0.1875,-0.25 -0.15625,0 -0.203125,0.078125 -0.265625,0.171875 z M 2.984375,-2.609375 4.9375,-5.90625 5.265625,-2.609375 Z m 0,0"
             id="path39" />
        </g>
      </g>
    </g>
    <g
       inkscape:label=""
       transform="translate(80.649923,84.08965)"
       id="g2325">
      <g
         fill="#000000"
         fill-opacity="1"
         id="g2311"
         transform="matrix(0.423333,0,0,0.423333,-39.0803,-31.311)">
        <g
           id="g2309"
           transform="translate(91.925003,81.962997)">
          <path
             d="M 7.609375,-6.046875 C 7.703125,-6.40625 7.71875,-6.5 8.4375,-6.5 c 0.265625,0 0.34375,0 0.34375,-0.203125 0,-0.109375 -0.109375,-0.109375 -0.140625,-0.109375 -0.28125,0 -1,0.03125 -1.28125,0.03125 -0.28125,0 -0.984375,-0.03125 -1.28125,-0.03125 -0.078125,0 -0.1875,0 -0.1875,0.203125 0,0.109375 0.09375,0.109375 0.28125,0.109375 0.015625,0 0.203125,0 0.375,0.015625 0.1875,0.03125 0.265625,0.03125 0.265625,0.171875 0,0.03125 0,0.046875 -0.03125,0.1875 L 6.1875,-3.703125 H 3.140625 l 0.59375,-2.34375 C 3.8125,-6.40625 3.84375,-6.5 4.5625,-6.5 c 0.265625,0 0.34375,0 0.34375,-0.203125 0,-0.109375 -0.109375,-0.109375 -0.140625,-0.109375 -0.28125,0 -1,0.03125 -1.28125,0.03125 -0.28125,0 -0.984375,-0.03125 -1.28125,-0.03125 -0.078125,0 -0.1875,0 -0.1875,0.203125 0,0.109375 0.09375,0.109375 0.28125,0.109375 0.015625,0 0.203125,0 0.375,0.015625 0.171875,0.03125 0.265625,0.03125 0.265625,0.171875 0,0.03125 0,0.0625 -0.03125,0.1875 L 1.5625,-0.78125 c -0.09375,0.390625 -0.109375,0.46875 -0.90625,0.46875 -0.171875,0 -0.265625,0 -0.265625,0.203125 C 0.390625,0 0.515625,0 0.53125,0 0.8125,0 1.515625,-0.03125 1.796875,-0.03125 2,-0.03125 2.21875,-0.015625 2.4375,-0.015625 2.65625,-0.015625 2.875,0 3.078125,0 3.15625,0 3.28125,0 3.28125,-0.203125 3.28125,-0.3125 3.1875,-0.3125 3,-0.3125 c -0.375,0 -0.640625,0 -0.640625,-0.171875 0,-0.0625 0.015625,-0.109375 0.015625,-0.171875 l 0.6875,-2.734375 h 3.03125 c -0.40625,1.65625 -0.640625,2.609375 -0.6875,2.75 C 5.3125,-0.3125 5.125,-0.3125 4.5,-0.3125 c -0.140625,0 -0.234375,0 -0.234375,0.203125 C 4.265625,0 4.390625,0 4.40625,0 4.6875,0 5.390625,-0.03125 5.671875,-0.03125 5.875,-0.03125 6.09375,-0.015625 6.3125,-0.015625 6.53125,-0.015625 6.75,0 6.953125,0 7.03125,0 7.15625,0 7.15625,-0.203125 7.15625,-0.3125 7.0625,-0.3125 6.875,-0.3125 c -0.359375,0 -0.640625,0 -0.640625,-0.171875 0,-0.0625 0.015625,-0.109375 0.03125,-0.171875 z m 0,0"
             id="path2307" />
        </g>
      </g>
      <g
         fill="#000000"
         fill-opacity="1"
         id="g2317"
         transform="matrix(0.423333,0,0,0.423333,-39.0803,-31.311)">
        <g
           id="g2315"
           transform="translate(103.783,81.962997)">
          <path
             d="M 5.515625,-5.9375 H 6.5625 c 0.171875,0 0.359375,0 0.359375,-0.203125 0,-0.203125 -0.1875,-0.203125 -0.359375,-0.203125 H 5.6875 L 6.21875,-7.609375 C 6.265625,-7.734375 6.28125,-7.75 6.28125,-7.8125 6.28125,-7.921875 6.203125,-8 6.078125,-8 6.015625,-8 5.96875,-7.984375 5.9375,-7.9375 L 5.25,-6.34375 H 3.875 c -1.671875,0 -3.046875,1.265625 -3.046875,2.890625 0,1.421875 1.03125,2.4375 2.09375,2.734375 L 2.21875,0.96875 H 1.375 c -0.171875,0 -0.34375,0 -0.34375,0.203125 0,0.1875 0.171875,0.1875 0.34375,0.1875 H 2.046875 C 1.96875,1.578125 1.46875,2.71875 1.46875,2.828125 c 0,0.109375 0.078125,0.1875 0.203125,0.1875 0.125,0 0.15625,-0.09375 0.21875,-0.234375 L 2.484375,1.359375 H 6.5625 c 0.171875,0 0.359375,0 0.359375,-0.1875 0,-0.203125 -0.1875,-0.203125 -0.359375,-0.203125 H 2.65625 L 3.3125,-0.625 c 0.25,0.0625 0.515625,0.0625 0.578125,0.0625 H 6.5625 c 0.171875,0 0.359375,0 0.359375,-0.203125 0,-0.203125 -0.1875,-0.203125 -0.359375,-0.203125 H 3.921875 c -0.078125,0 -0.25,0 -0.453125,-0.03125 z m -0.421875,0 -2.015625,4.84375 C 2.0625,-1.375 1.21875,-2.28125 1.21875,-3.453125 1.21875,-4.8125 2.359375,-5.9375 3.90625,-5.9375 Z m 0,0"
             id="path2313" />
        </g>
      </g>
      <g
         fill="#000000"
         fill-opacity="1"
         id="g2323"
         transform="matrix(0.423333,0,0,0.423333,-39.0803,-31.311)">
        <g
           id="g2321"
           transform="translate(114.3,81.962997)">
          <path
             d="m 7.578125,-6.921875 c 0,-0.03125 -0.015625,-0.109375 -0.109375,-0.109375 -0.03125,0 -0.046875,0.015625 -0.15625,0.125 L 6.625,-6.140625 C 6.53125,-6.28125 6.078125,-7.03125 4.96875,-7.03125 2.734375,-7.03125 0.5,-4.828125 0.5,-2.515625 0.5,-0.875 1.671875,0.21875 3.203125,0.21875 c 0.859375,0 1.625,-0.390625 2.15625,-0.859375 0.921875,-0.8125 1.09375,-1.71875 1.09375,-1.75 C 6.453125,-2.5 6.34375,-2.5 6.328125,-2.5 c -0.0625,0 -0.109375,0.03125 -0.125,0.109375 -0.09375,0.28125 -0.328125,1 -1.015625,1.578125 -0.6875,0.546875 -1.3125,0.71875 -1.828125,0.71875 -0.890625,0 -1.953125,-0.515625 -1.953125,-2.0625 0,-0.578125 0.203125,-2.1875 1.203125,-3.359375 0.609375,-0.703125 1.546875,-1.203125 2.4375,-1.203125 1.015625,0 1.609375,0.765625 1.609375,1.921875 0,0.40625 -0.03125,0.40625 -0.03125,0.515625 0,0.09375 0.109375,0.09375 0.140625,0.09375 0.125,0 0.125,-0.015625 0.1875,-0.203125 z m 0,0"
             id="path2319" />
        </g>
      </g>
    </g>
  </g>
</svg>
