<?xml version="1.0" encoding="UTF-8" standalone="no"?>
<!-- Created with Inkscape (http://www.inkscape.org/) -->

<svg
   width="47.451073mm"
   height="48.745247mm"
   viewBox="0 0 47.451073 48.745247"
   version="1.1"
   id="svg5"
   sodipodi:docname="fig-03.svg"
   inkscape:version="1.2.2 (b0a8486541, 2022-12-01)"
   xmlns:inkscape="http://www.inkscape.org/namespaces/inkscape"
   xmlns:sodipodi="http://sodipodi.sourceforge.net/DTD/sodipodi-0.dtd"
   xmlns="http://www.w3.org/2000/svg"
   xmlns:svg="http://www.w3.org/2000/svg">
  <sodipodi:namedview
     id="namedview7"
     pagecolor="#ffffff"
     bordercolor="#666666"
     borderopacity="1.0"
     inkscape:showpageshadow="2"
     inkscape:pageopacity="0.0"
     inkscape:pagecheckerboard="0"
     inkscape:deskcolor="#d1d1d1"
     inkscape:document-units="mm"
     showgrid="false"
     inkscape:zoom="2.0989207"
     inkscape:cx="75.991437"
     inkscape:cy="141.26308"
     inkscape:window-width="1920"
     inkscape:window-height="1014"
     inkscape:window-x="0"
     inkscape:window-y="0"
     inkscape:window-maximized="1"
     inkscape:current-layer="layer1" />
  <defs
     id="defs2" />
  <g
     inkscape:label="Capa 1"
     inkscape:groupmode="layer"
     id="layer1"
     transform="translate(-91.725982,-140.15358)">
    <g
       id="g1736"
       transform="translate(0.15774653)">
      <g
         inkscape:label=""
         transform="translate(93.344683,140.1536)"
         id="g1058">
        <g
           fill="#000000"
           fill-opacity="1"
           id="g11"
           transform="matrix(0.423333,0,0,0.423333,-39.0604,-31.6748)">
          <g
             id="use9"
             transform="translate(91.925003,81.962997)">
            <path
               d="M 1.78125,-1.140625 C 1.390625,-0.484375 1,-0.34375 0.5625,-0.3125 0.4375,-0.296875 0.34375,-0.296875 0.34375,-0.109375 0.34375,-0.046875 0.40625,0 0.484375,0 0.75,0 1.0625,-0.03125 1.328125,-0.03125 c 0.34375,0 0.6875,0.03125 1,0.03125 0.0625,0 0.1875,0 0.1875,-0.1875 0,-0.109375 -0.078125,-0.125 -0.15625,-0.125 -0.21875,-0.015625 -0.46875,-0.09375 -0.46875,-0.34375 0,-0.125 0.0625,-0.234375 0.140625,-0.375 l 0.765625,-1.265625 h 2.5 c 0.015625,0.203125 0.15625,1.5625 0.15625,1.65625 0,0.296875 -0.515625,0.328125 -0.71875,0.328125 C 4.59375,-0.3125 4.5,-0.3125 4.5,-0.109375 4.5,0 4.609375,0 4.640625,0 5.046875,0 5.46875,-0.03125 5.875,-0.03125 6.125,-0.03125 6.765625,0 7.015625,0 7.0625,0 7.1875,0 7.1875,-0.203125 7.1875,-0.3125 7.09375,-0.3125 6.953125,-0.3125 6.34375,-0.3125 6.34375,-0.375 6.3125,-0.671875 l -0.609375,-6.21875 c -0.015625,-0.203125 -0.015625,-0.25 -0.1875,-0.25 -0.15625,0 -0.203125,0.078125 -0.265625,0.171875 z M 2.984375,-2.609375 4.9375,-5.90625 5.265625,-2.609375 Z m 0,0"
               id="path17" />
          </g>
        </g>
      </g>
      <g
         inkscape:label=""
         transform="translate(134.23324,140.22305)"
         id="g1136">
        <g
           fill="#000000"
           fill-opacity="1"
           id="g1134"
           transform="matrix(0.423333,0,0,0.423333,-39.0935,-31.8137)">
          <g
             id="g1132"
             transform="translate(91.925003,81.962997)">
            <path
               d="M 1.59375,-0.78125 C 1.5,-0.390625 1.46875,-0.3125 0.6875,-0.3125 c -0.171875,0 -0.265625,0 -0.265625,0.203125 C 0.421875,0 0.515625,0 0.6875,0 H 4.25 C 5.828125,0 7,-1.171875 7,-2.15625 7,-2.875 6.421875,-3.453125 5.453125,-3.5625 6.484375,-3.75 7.53125,-4.484375 7.53125,-5.4375 c 0,-0.734375 -0.65625,-1.375 -1.84375,-1.375 H 2.328125 c -0.1875,0 -0.28125,0 -0.28125,0.203125 0,0.109375 0.09375,0.109375 0.28125,0.109375 0.015625,0 0.203125,0 0.375,0.015625 0.171875,0.03125 0.265625,0.03125 0.265625,0.171875 0,0.03125 -0.015625,0.0625 -0.03125,0.1875 z m 1.5,-2.875 0.625,-2.46875 C 3.8125,-6.46875 3.828125,-6.5 4.25,-6.5 h 1.296875 c 0.875,0 1.078125,0.59375 1.078125,1.03125 0,0.875 -0.859375,1.8125 -2.0625,1.8125 z m -0.4375,3.34375 c -0.140625,0 -0.15625,0 -0.21875,0 -0.109375,-0.015625 -0.140625,-0.03125 -0.140625,-0.109375 0,-0.03125 0,-0.046875 0.0625,-0.21875 l 0.6875,-2.78125 h 1.875 c 0.953125,0 1.15625,0.734375 1.15625,1.15625 C 6.078125,-1.28125 5.1875,-0.3125 4,-0.3125 Z m 0,0"
               id="path1130" />
          </g>
        </g>
      </g>
    </g>
    <g
       inkscape:label=""
       transform="translate(110.00544,185.78338)"
       id="g1175">
      <g
         fill="#000000"
         fill-opacity="1"
         id="g17"
         transform="matrix(0.423333,0,0,0.423333,-39.0604,-31.6748)">
        <g
           id="use15"
           transform="translate(91.925003,81.962997)">
          <path
             d="M 1.78125,-1.140625 C 1.390625,-0.484375 1,-0.34375 0.5625,-0.3125 0.4375,-0.296875 0.34375,-0.296875 0.34375,-0.109375 0.34375,-0.046875 0.40625,0 0.484375,0 0.75,0 1.0625,-0.03125 1.328125,-0.03125 c 0.34375,0 0.6875,0.03125 1,0.03125 0.0625,0 0.1875,0 0.1875,-0.1875 0,-0.109375 -0.078125,-0.125 -0.15625,-0.125 -0.21875,-0.015625 -0.46875,-0.09375 -0.46875,-0.34375 0,-0.125 0.0625,-0.234375 0.140625,-0.375 l 0.765625,-1.265625 h 2.5 c 0.015625,0.203125 0.15625,1.5625 0.15625,1.65625 0,0.296875 -0.515625,0.328125 -0.71875,0.328125 C 4.59375,-0.3125 4.5,-0.3125 4.5,-0.109375 4.5,0 4.609375,0 4.640625,0 5.046875,0 5.46875,-0.03125 5.875,-0.03125 6.125,-0.03125 6.765625,0 7.015625,0 7.0625,0 7.1875,0 7.1875,-0.203125 7.1875,-0.3125 7.09375,-0.3125 6.953125,-0.3125 6.34375,-0.3125 6.34375,-0.375 6.3125,-0.671875 l -0.609375,-6.21875 c -0.015625,-0.203125 -0.015625,-0.25 -0.1875,-0.25 -0.15625,0 -0.203125,0.078125 -0.265625,0.171875 z M 2.984375,-2.609375 4.9375,-5.90625 5.265625,-2.609375 Z m 0,0"
             id="path31" />
        </g>
      </g>
      <g
         fill="#000000"
         fill-opacity="1"
         id="g21"
         transform="matrix(0.423333,0,0,0.423333,-39.0604,-31.6748)">
        <g
           id="use19"
           transform="translate(101.611,81.962997)">
          <path
             d="m 6.09375,-3.78125 c 0,-1.515625 -1.53125,-2.1875 -2.78125,-2.1875 -1.28125,0 -2.765625,0.703125 -2.765625,2.171875 v 3.65625 c 0,0.1875 0,0.359375 0.203125,0.359375 0.203125,0 0.203125,-0.171875 0.203125,-0.359375 V -3.75 c 0,-1.5 1.625,-1.8125 2.359375,-1.8125 0.453125,0 1.078125,0.09375 1.609375,0.421875 C 5.6875,-4.640625 5.6875,-4 5.6875,-3.734375 v 3.59375 c 0,0.1875 0,0.359375 0.203125,0.359375 0.203125,0 0.203125,-0.171875 0.203125,-0.359375 z m 0,0"
             id="path35" />
        </g>
      </g>
      <g
         fill="#000000"
         fill-opacity="1"
         id="g25"
         transform="matrix(0.423333,0,0,0.423333,-39.0604,-31.6748)">
        <g
           id="use23"
           transform="translate(110.467,81.962997)">
          <path
             d="M 1.59375,-0.78125 C 1.5,-0.390625 1.46875,-0.3125 0.6875,-0.3125 c -0.171875,0 -0.265625,0 -0.265625,0.203125 C 0.421875,0 0.515625,0 0.6875,0 H 4.25 C 5.828125,0 7,-1.171875 7,-2.15625 7,-2.875 6.421875,-3.453125 5.453125,-3.5625 6.484375,-3.75 7.53125,-4.484375 7.53125,-5.4375 c 0,-0.734375 -0.65625,-1.375 -1.84375,-1.375 H 2.328125 c -0.1875,0 -0.28125,0 -0.28125,0.203125 0,0.109375 0.09375,0.109375 0.28125,0.109375 0.015625,0 0.203125,0 0.375,0.015625 0.171875,0.03125 0.265625,0.03125 0.265625,0.171875 0,0.03125 -0.015625,0.0625 -0.03125,0.1875 z m 1.5,-2.875 0.625,-2.46875 C 3.8125,-6.46875 3.828125,-6.5 4.25,-6.5 h 1.296875 c 0.875,0 1.078125,0.59375 1.078125,1.03125 0,0.875 -0.859375,1.8125 -2.0625,1.8125 z m -0.4375,3.34375 c -0.140625,0 -0.15625,0 -0.21875,0 -0.109375,-0.015625 -0.140625,-0.03125 -0.140625,-0.109375 0,-0.03125 0,-0.046875 0.0625,-0.21875 l 0.6875,-2.78125 h 1.875 c 0.953125,0 1.15625,0.734375 1.15625,1.15625 C 6.078125,-1.28125 5.1875,-0.3125 4,-0.3125 Z m 0,0"
             id="path39" />
        </g>
      </g>
    </g>
    <g
       id="g1722">
      <ellipse
         style="opacity:1;fill:none;stroke:#0004ff;stroke-width:0.465001;stroke-linecap:round;stroke-linejoin:round;stroke-opacity:1"
         id="path1712"
         cx="105.43"
         cy="152.21367"
         rx="13.471518"
         ry="9.7694054" />
      <ellipse
         style="opacity:1;fill:none;stroke:#0004ff;stroke-width:0.465001;stroke-linecap:round;stroke-linejoin:round;stroke-opacity:1"
         id="ellipse1714"
         cx="125.47304"
         cy="152.21367"
         rx="13.471518"
         ry="9.7694054" />
    </g>
    <g
       id="g1726">
      <ellipse
         style="opacity:1;fill:none;stroke:#0004ff;stroke-width:0.465001;stroke-linecap:round;stroke-linejoin:round;stroke-opacity:1"
         id="ellipse1716"
         cx="105.43"
         cy="174.77785"
         rx="13.471518"
         ry="9.7694054" />
      <ellipse
         style="opacity:1;fill:none;stroke:#0004ff;stroke-width:0.465001;stroke-linecap:round;stroke-linejoin:round;stroke-opacity:1"
         id="ellipse1718"
         cx="125.47304"
         cy="174.77785"
         rx="13.471518"
         ry="9.7694054" />
    </g>
    <path
       style="opacity:0.494662;fill:#0004ff;fill-opacity:1;stroke:#0004ff;stroke-width:1.75748;stroke-linecap:round;stroke-linejoin:round;stroke-opacity:1"
       d="m 434.2164,681.95764 c -5.6884,-5.51148 -8.97565,-11.87114 -9.75393,-18.87034 -0.92056,-8.27879 2.63838,-16.99548 9.75393,-23.88973 1.04799,-1.01541 2.01972,-1.84619 2.1594,-1.84619 0.46101,0 4.89675,4.64754 6.28004,6.57989 7.58079,10.58986 7.58079,22.70281 0,33.29266 -1.38329,1.93236 -5.81903,6.5799 -6.28004,6.5799 -0.13968,0 -1.11141,-0.83079 -2.1594,-1.84619 z"
       id="path2361"
       transform="scale(0.26458333)" />
  </g>
</svg>
