<?xml version="1.0" encoding="UTF-8" standalone="no"?>
<!-- Created with Inkscape (http://www.inkscape.org/) -->

<svg
   width="43.019894mm"
   height="35.508801mm"
   viewBox="0 0 43.019894 35.508801"
   version="1.1"
   id="svg5"
   sodipodi:docname="fig-06.svg"
   inkscape:version="1.2.2 (b0a8486541, 2022-12-01)"
   xmlns:inkscape="http://www.inkscape.org/namespaces/inkscape"
   xmlns:sodipodi="http://sodipodi.sourceforge.net/DTD/sodipodi-0.dtd"
   xmlns="http://www.w3.org/2000/svg"
   xmlns:svg="http://www.w3.org/2000/svg">
  <sodipodi:namedview
     id="namedview7"
     pagecolor="#ffffff"
     bordercolor="#666666"
     borderopacity="1.0"
     inkscape:showpageshadow="2"
     inkscape:pageopacity="0.0"
     inkscape:pagecheckerboard="0"
     inkscape:deskcolor="#d1d1d1"
     inkscape:document-units="mm"
     showgrid="false"
     inkscape:zoom="4.1978414"
     inkscape:cx="20.129393"
     inkscape:cy="61.102833"
     inkscape:window-width="1920"
     inkscape:window-height="1014"
     inkscape:window-x="0"
     inkscape:window-y="0"
     inkscape:window-maximized="1"
     inkscape:current-layer="layer1" />
  <defs
     id="defs2" />
  <g
     inkscape:label="Capa 1"
     inkscape:groupmode="layer"
     id="layer1"
     transform="translate(-93.081049,-140.32091)">
    <g
       id="g875">
      <ellipse
         style="fill:none;stroke:#0004ff;stroke-width:0.465002;stroke-linecap:round;stroke-linejoin:round;stroke-opacity:1"
         id="path1712"
         cx="105.43"
         cy="152.21367"
         rx="11.958836"
         ry="11.660258" />
      <ellipse
         style="fill:none;stroke:#0004ff;stroke-width:0.465002;stroke-linecap:round;stroke-linejoin:round;stroke-opacity:1"
         id="ellipse869"
         cx="121.69134"
         cy="152.21367"
         rx="11.958836"
         ry="11.660258" />
    </g>
    <ellipse
       style="fill:none;stroke:#0004ff;stroke-width:0.465002;stroke-linecap:round;stroke-linejoin:round;stroke-opacity:1"
       id="ellipse871"
       cx="113.56067"
       cy="163.93695"
       rx="11.958836"
       ry="11.660258" />
    <circle
       style="opacity:1;fill:#000001;fill-opacity:1;stroke:none;stroke-width:0.465;stroke-linecap:round;stroke-linejoin:round"
       id="path929"
       cx="100.40144"
       cy="147.15912"
       r="0.40968475" />
    <circle
       style="opacity:1;fill:#000001;fill-opacity:1;stroke:none;stroke-width:0.465;stroke-linecap:round;stroke-linejoin:round"
       id="circle931"
       cx="112.07822"
       cy="153.75516"
       r="0.40968475" />
    <circle
       style="opacity:1;fill:#000001;fill-opacity:1;stroke:none;stroke-width:0.465;stroke-linecap:round;stroke-linejoin:round"
       id="circle933"
       cx="114.52945"
       cy="154.73566"
       r="0.40968475" />
    <circle
       style="opacity:1;fill:#000001;fill-opacity:1;stroke:none;stroke-width:0.465;stroke-linecap:round;stroke-linejoin:round"
       id="circle935"
       cx="112.74673"
       cy="156.25096"
       r="0.40968475" />
    <circle
       style="opacity:1;fill:#000001;fill-opacity:1;stroke:none;stroke-width:0.465;stroke-linecap:round;stroke-linejoin:round"
       id="circle937"
       cx="114.44031"
       cy="157.67714"
       r="0.40968475" />
    <circle
       style="opacity:1;fill:#000001;fill-opacity:1;stroke:none;stroke-width:0.465;stroke-linecap:round;stroke-linejoin:round"
       id="circle939"
       cx="111.81081"
       cy="150.14517"
       r="0.40968475" />
    <circle
       style="opacity:1;fill:#000001;fill-opacity:1;stroke:none;stroke-width:0.465;stroke-linecap:round;stroke-linejoin:round"
       id="circle941"
       cx="114.3066"
       cy="147.51567"
       r="0.40968475" />
    <circle
       style="opacity:1;fill:#000001;fill-opacity:1;stroke:none;stroke-width:0.465;stroke-linecap:round;stroke-linejoin:round"
       id="circle943"
       cx="122.0614"
       cy="147.15913"
       r="0.40968475" />
    <circle
       style="opacity:1;fill:#000001;fill-opacity:1;stroke:none;stroke-width:0.465;stroke-linecap:round;stroke-linejoin:round"
       id="circle945"
       cx="129.5488"
       cy="148.98642"
       r="0.40968475" />
    <circle
       style="opacity:1;fill:#000001;fill-opacity:1;stroke:none;stroke-width:0.465;stroke-linecap:round;stroke-linejoin:round"
       id="circle947"
       cx="127.14214"
       cy="153.93344"
       r="0.40968475" />
    <circle
       style="opacity:1;fill:#000001;fill-opacity:1;stroke:none;stroke-width:0.465;stroke-linecap:round;stroke-linejoin:round"
       id="circle949"
       cx="107.30946"
       cy="156.16183"
       r="0.40968475" />
    <circle
       style="opacity:1;fill:#000001;fill-opacity:1;stroke:none;stroke-width:0.465;stroke-linecap:round;stroke-linejoin:round"
       id="circle951"
       cx="104.7691"
       cy="158.21196"
       r="0.40968475" />
    <circle
       style="opacity:1;fill:#000001;fill-opacity:1;stroke:none;stroke-width:0.465;stroke-linecap:round;stroke-linejoin:round"
       id="circle953"
       cx="105.1702"
       cy="161.59912"
       r="0.40968475" />
    <circle
       style="opacity:1;fill:#000001;fill-opacity:1;stroke:none;stroke-width:0.465;stroke-linecap:round;stroke-linejoin:round"
       id="circle955"
       cx="109.1813"
       cy="161.46542"
       r="0.40968475" />
    <circle
       style="opacity:1;fill:#000001;fill-opacity:1;stroke:none;stroke-width:0.465;stroke-linecap:round;stroke-linejoin:round"
       id="circle957"
       cx="109.58241"
       cy="158.56851"
       r="0.40968475" />
    <circle
       style="opacity:1;fill:#000001;fill-opacity:1;stroke:none;stroke-width:0.465;stroke-linecap:round;stroke-linejoin:round"
       id="circle959"
       cx="119.65474"
       cy="156.25099"
       r="0.40968475" />
    <circle
       style="opacity:1;fill:#000001;fill-opacity:1;stroke:none;stroke-width:0.465;stroke-linecap:round;stroke-linejoin:round"
       id="circle961"
       cx="117.64919"
       cy="159.23703"
       r="0.40968475" />
    <circle
       style="opacity:1;fill:#000001;fill-opacity:1;stroke:none;stroke-width:0.465;stroke-linecap:round;stroke-linejoin:round"
       id="circle963"
       cx="122.10597"
       cy="161.24258"
       r="0.40968475" />
    <g
       inkscape:label=""
       transform="translate(93.081112,142.01346)"
       id="g1381">
      <g
         fill="#000000"
         fill-opacity="1"
         id="g11"
         transform="matrix(0.423333,0,0,0.423333,-39.0737,-31.8269)">
        <g
           id="use9"
           transform="translate(91.925003,81.962997)">
          <path
             d="m 3.015625,-3.234375 h 0.96875 c 0.75,0 0.828125,0.15625 0.828125,0.4375 0,0.078125 0,0.1875 -0.0625,0.5 C 4.71875,-2.25 4.71875,-2.21875 4.71875,-2.1875 c 0,0.078125 0.0625,0.109375 0.109375,0.109375 0.109375,0 0.109375,-0.03125 0.15625,-0.203125 L 5.53125,-4.453125 C 5.5625,-4.5625 5.5625,-4.578125 5.5625,-4.609375 5.5625,-4.625 5.546875,-4.71875 5.4375,-4.71875 5.34375,-4.71875 5.328125,-4.671875 5.296875,-4.5 5.078125,-3.734375 4.859375,-3.546875 4,-3.546875 H 3.09375 l 0.640625,-2.53125 C 3.828125,-6.4375 3.84375,-6.46875 4.28125,-6.46875 h 1.3125 c 1.21875,0 1.453125,0.328125 1.453125,1.09375 0,0.234375 0,0.265625 -0.03125,0.546875 C 7,-4.703125 7,-4.6875 7,-4.65625 c 0,0.046875 0.03125,0.125 0.125,0.125 0.109375,0 0.109375,-0.0625 0.125,-0.25 L 7.453125,-6.515625 C 7.484375,-6.78125 7.4375,-6.78125 7.1875,-6.78125 H 2.296875 c -0.1875,0 -0.296875,0 -0.296875,0.203125 0,0.109375 0.09375,0.109375 0.28125,0.109375 0.375,0 0.65625,0 0.65625,0.171875 0,0.046875 0,0.0625 -0.0625,0.25 L 1.5625,-0.78125 c -0.09375,0.390625 -0.109375,0.46875 -0.90625,0.46875 -0.171875,0 -0.28125,0 -0.28125,0.1875 C 0.375,0 0.5,0 0.53125,0 0.8125,0 1.5625,-0.03125 1.84375,-0.03125 2.171875,-0.03125 3,0 3.328125,0 3.421875,0 3.53125,0 3.53125,-0.1875 3.53125,-0.265625 3.484375,-0.296875 3.484375,-0.296875 3.453125,-0.3125 3.421875,-0.3125 3.203125,-0.3125 c -0.21875,0 -0.265625,0 -0.515625,-0.015625 -0.296875,-0.03125 -0.328125,-0.078125 -0.328125,-0.203125 0,-0.015625 0,-0.078125 0.046875,-0.21875 z m 0,0"
             id="path17" />
        </g>
      </g>
    </g>
    <g
       inkscape:label=""
       transform="translate(133.23021,144.0934)"
       id="g1453">
      <g
         fill="#000000"
         fill-opacity="1"
         id="g1451"
         transform="matrix(0.423333,0,0,0.423333,-39.0141,-31.8402)">
        <g
           id="g1449"
           transform="translate(91.925003,81.962997)">
          <path
             d="m 4.25,-6.046875 c 0.078125,-0.28125 0.109375,-0.34375 0.234375,-0.375 0.09375,-0.015625 0.421875,-0.015625 0.625,-0.015625 1.015625,0 1.453125,0.03125 1.453125,0.8125 0,0.15625 -0.03125,0.546875 -0.078125,0.796875 0,0.046875 -0.03125,0.15625 -0.03125,0.1875 0,0.0625 0.03125,0.140625 0.125,0.140625 0.109375,0 0.125,-0.078125 0.15625,-0.234375 L 7,-6.46875 C 7.015625,-6.515625 7.015625,-6.609375 7.015625,-6.640625 7.015625,-6.75 6.921875,-6.75 6.75,-6.75 H 1.21875 c -0.234375,0 -0.25,0.015625 -0.328125,0.203125 l -0.59375,1.75 c 0,0.015625 -0.0625,0.15625 -0.0625,0.1875 0,0.046875 0.0625,0.109375 0.125,0.109375 0.09375,0 0.109375,-0.0625 0.171875,-0.21875 C 1.0625,-6.265625 1.328125,-6.4375 2.796875,-6.4375 H 3.1875 c 0.28125,0 0.28125,0.03125 0.28125,0.125 0,0.046875 -0.03125,0.171875 -0.046875,0.203125 L 2.09375,-0.78125 C 2,-0.421875 1.96875,-0.3125 0.90625,-0.3125 c -0.359375,0 -0.421875,0 -0.421875,0.1875 C 0.484375,0 0.59375,0 0.65625,0 c 0.265625,0 0.546875,-0.015625 0.8125,-0.015625 0.28125,0 0.578125,-0.015625 0.859375,-0.015625 0.28125,0 0.546875,0.015625 0.828125,0.015625 C 3.4375,-0.015625 3.734375,0 4.015625,0 c 0.09375,0 0.21875,0 0.21875,-0.203125 0,-0.109375 -0.078125,-0.109375 -0.34375,-0.109375 -0.234375,0 -0.375,0 -0.625,-0.015625 -0.296875,-0.03125 -0.375,-0.0625 -0.375,-0.21875 0,-0.015625 0,-0.0625 0.046875,-0.203125 z m 0,0"
             id="path1447" />
        </g>
      </g>
    </g>
    <g
       inkscape:label=""
       transform="translate(124.34321,171.38471)"
       id="g1533">
      <g
         fill="#000000"
         fill-opacity="1"
         id="g1531"
         transform="matrix(0.423333,0,0,0.423333,-39.153,-31.8137)">
        <g
           id="g1529"
           transform="translate(91.925003,81.962997)">
          <path
             d="M 6.265625,-5.671875 C 6.75,-6.453125 7.171875,-6.484375 7.53125,-6.5 c 0.125,-0.015625 0.140625,-0.171875 0.140625,-0.1875 0,-0.078125 -0.0625,-0.125 -0.140625,-0.125 -0.25,0 -0.546875,0.03125 -0.8125,0.03125 -0.328125,0 -0.671875,-0.03125 -0.984375,-0.03125 -0.0625,0 -0.1875,0 -0.1875,0.1875 0,0.109375 0.078125,0.125 0.15625,0.125 0.265625,0.015625 0.453125,0.125 0.453125,0.328125 0,0.15625 -0.140625,0.375 -0.140625,0.375 l -3.0625,4.875 -0.6875,-5.28125 C 2.265625,-6.375 2.5,-6.5 2.953125,-6.5 c 0.140625,0 0.25,0 0.25,-0.203125 0,-0.078125 -0.078125,-0.109375 -0.125,-0.109375 -0.40625,0 -0.828125,0.03125 -1.25,0.03125 -0.171875,0 -0.359375,0 -0.546875,0 -0.171875,0 -0.359375,-0.03125 -0.53125,-0.03125 -0.078125,0 -0.1875,0 -0.1875,0.1875 0,0.125 0.078125,0.125 0.25,0.125 0.546875,0 0.5625,0.09375 0.59375,0.34375 L 2.1875,-0.015625 C 2.21875,0.1875 2.265625,0.21875 2.390625,0.21875 c 0.15625,0 0.203125,-0.046875 0.28125,-0.171875 z m 0,0"
             id="path1527" />
        </g>
      </g>
    </g>
    <g
       inkscape:label=""
       transform="translate(111.86358,166.7206)"
       id="g1620">
      <g
         fill="#000000"
         fill-opacity="1"
         id="g16"
         transform="matrix(0.423333,0,0,0.423333,-39.153,-31.7211)">
        <g
           id="use12"
           transform="translate(91.925003,81.962997)">
          <path
             d="M 2.34375,-3 C 2.328125,-3.125 2.25,-3.125 2.21875,-3.125 c -0.125,0 -0.125,0.0625 -0.125,0.25 v 0.15625 c 0,0.40625 0,1.484375 -1.03125,2.359375 -0.171875,0.15625 -0.5,0.4375 -0.5,1.0625 0,0.5625 0.3125,1.34375 1.65625,1.34375 1.046875,0 1.921875,-0.53125 1.921875,-1.328125 0,-0.34375 -0.234375,-0.484375 -0.46875,-0.484375 -0.265625,0 -0.453125,0.203125 -0.453125,0.46875 0,0.234375 0.1875,0.484375 0.546875,0.4375 -0.296875,0.515625 -1.03125,0.6875 -1.515625,0.6875 -0.859375,0 -0.859375,-0.578125 -0.859375,-1.0625 0,-0.609375 0.109375,-0.75 0.25,-0.96875 C 2.265625,-1.09375 2.34375,-2 2.34375,-2.765625 Z M 2.734375,-4.453125 C 2.734375,-4.75 2.5,-4.984375 2.21875,-4.984375 c -0.296875,0 -0.53125,0.234375 -0.53125,0.53125 0,0.28125 0.234375,0.53125 0.53125,0.53125 0.28125,0 0.515625,-0.25 0.515625,-0.53125 z m 0,0"
             id="path22" />
        </g>
        <g
           id="use14"
           transform="translate(96.629341,81.962997)">
          <path
             d="m 2.34375,-2.484375 c 0,-1.25 0.96875,-1.96875 1.3125,-2.21875 0.265625,-0.203125 0.484375,-0.5625 0.484375,-0.984375 0,-0.578125 -0.40625,-1.34375 -1.890625,-1.34375 -1.078125,0 -1.6875,0.6875 -1.6875,1.328125 0,0.34375 0.21875,0.484375 0.453125,0.484375 0.28125,0 0.453125,-0.203125 0.453125,-0.46875 0,-0.4375 -0.40625,-0.4375 -0.546875,-0.4375 0.296875,-0.53125 0.875,-0.6875 1.296875,-0.6875 1.09375,0 1.09375,0.6875 1.09375,1.078125 0,0.578125 -0.15625,0.765625 -0.34375,0.9375 -0.65625,0.71875 -0.875,1.640625 -0.875,2.25 v 0.4375 c 0,0.1875 0,0.25 0.125,0.25 0.125,0 0.125,-0.09375 0.125,-0.28125 z M 2.734375,-0.53125 C 2.734375,-0.8125 2.5,-1.0625 2.21875,-1.0625 c -0.296875,0 -0.53125,0.25 -0.53125,0.53125 C 1.6875,-0.234375 1.921875,0 2.21875,0 2.5,0 2.734375,-0.234375 2.734375,-0.53125 Z m 0,0"
             id="path26" />
        </g>
      </g>
    </g>
  </g>
</svg>
