<?xml version="1.0" encoding="UTF-8" standalone="no"?>
<!-- Created with Inkscape (http://www.inkscape.org/) -->

<svg
   width="41.122959mm"
   height="24.041264mm"
   viewBox="0 0 41.122959 24.041264"
   version="1.1"
   id="svg5"
   sodipodi:docname="fig-01.svg"
   inkscape:version="1.2.2 (b0a8486541, 2022-12-01)"
   xmlns:inkscape="http://www.inkscape.org/namespaces/inkscape"
   xmlns:sodipodi="http://sodipodi.sourceforge.net/DTD/sodipodi-0.dtd"
   xmlns="http://www.w3.org/2000/svg"
   xmlns:svg="http://www.w3.org/2000/svg">
  <sodipodi:namedview
     id="namedview7"
     pagecolor="#ffffff"
     bordercolor="#666666"
     borderopacity="1.0"
     inkscape:showpageshadow="2"
     inkscape:pageopacity="0.0"
     inkscape:pagecheckerboard="0"
     inkscape:deskcolor="#d1d1d1"
     inkscape:document-units="mm"
     showgrid="false"
     inkscape:zoom="3.3310602"
     inkscape:cx="51.184905"
     inkscape:cy="63.793503"
     inkscape:window-width="1600"
     inkscape:window-height="842"
     inkscape:window-x="0"
     inkscape:window-y="0"
     inkscape:window-maximized="1"
     inkscape:current-layer="layer1" />
  <defs
     id="defs2">
    <marker
       style="overflow:visible"
       id="Arrow2"
       refX="0"
       refY="0"
       orient="auto-start-reverse"
       inkscape:stockid="Arrow2"
       markerWidth="7.6999998"
       markerHeight="5.5999999"
       viewBox="0 0 7.7 5.6"
       inkscape:isstock="true"
       inkscape:collect="always"
       preserveAspectRatio="xMidYMid">
      <path
         transform="scale(0.7)"
         d="M -2,-4 9,0 -2,4 c 2,-2.33 2,-5.66 0,-8 z"
         style="fill:context-stroke;fill-rule:evenodd;stroke:none"
         id="arrow2L" />
    </marker>
    <clipPath
       id="clipPath7563">
      <path
         clip-rule="nonzero"
         d="M 0,0 H 8.773438 V 8.167969 H 0 Z m 0,0"
         id="path8342" />
    </clipPath>
    <clipPath
       id="clipPath598">
      <path
         clip-rule="nonzero"
         d="M 0,0 H 9 V 8.167969 H 0 Z m 0,0"
         id="path9098" />
    </clipPath>
    <clipPath
       id="clipPath7011">
      <path
         clip-rule="nonzero"
         d="M 1,0 H 6.144531 V 3 H 1 Z m 0,0"
         id="path333" />
    </clipPath>
    <clipPath
       id="clipPath5510">
      <path
         clip-rule="nonzero"
         d="M 0,3 H 6 V 8.519531 H 0 Z m 0,0"
         id="path7295" />
    </clipPath>
    <clipPath
       id="clipPath9563">
      <path
         clip-rule="nonzero"
         d="M 3,0 H 9.964844 V 3 H 3 Z m 0,0"
         id="path101" />
    </clipPath>
    <clipPath
       id="clipPath8959">
      <path
         clip-rule="nonzero"
         d="M 2,3 H 8 V 8.535156 H 2 Z m 0,0"
         id="path5946" />
    </clipPath>
    <clipPath
       id="clipPath2842">
      <path
         clip-rule="nonzero"
         d="m 3,0 h 8.953125 V 3 H 3 Z m 0,0"
         id="path2549" />
    </clipPath>
    <clipPath
       id="clipPath2424">
      <path
         clip-rule="nonzero"
         d="m 2,4 h 8 v 6.445312 H 2 Z m 0,0"
         id="path1865" />
    </clipPath>
  </defs>
  <g
     inkscape:label="Capa 1"
     inkscape:groupmode="layer"
     id="layer1"
     transform="translate(-58.884687,-107.75761)">
    <path
       style="fill:#ff0000;stroke:#ff0000;stroke-width:0.417699;stroke-linecap:butt;stroke-linejoin:miter;stroke-dasharray:none;stroke-opacity:1;marker-end:url(#Arrow2)"
       d="m 62.61604,130.89673 28.763883,-20.1231"
       id="path963" />
    <circle
       style="fill:#000000;fill-opacity:1;stroke:#000000;stroke-width:0.100791;stroke-linecap:square"
       id="path234"
       cx="62.633457"
       cy="130.84273"
       r="0.9057523" />
    <g
       inkscape:label=""
       transform="translate(58.884687,123.86625)"
       id="g1593">
      <g
         clip-path="url(#clipPath7563)"
         id="g16"
         transform="matrix(0.352778,0,0,0.352778,-0.143316,0.127794)">
        <g
           fill="#000000"
           fill-opacity="1"
           id="g14">
          <g
             id="use12"
             transform="translate(0,8.1689997)">
            <path
               d="M 2.03125,-1.328125 C 1.609375,-0.625 1.203125,-0.375 0.640625,-0.34375 0.5,-0.328125 0.40625,-0.328125 0.40625,-0.125 c 0,0.078125 0.0625,0.125 0.140625,0.125 0.21875,0 0.75,-0.03125 0.96875,-0.03125 C 1.859375,-0.03125 2.25,0 2.578125,0 c 0.078125,0 0.21875,0 0.21875,-0.234375 0,-0.09375 -0.09375,-0.109375 -0.171875,-0.109375 -0.265625,-0.03125 -0.5,-0.125 -0.5,-0.40625 0,-0.171875 0.078125,-0.296875 0.234375,-0.5625 l 0.90625,-1.515625 H 6.3125 c 0.015625,0.109375 0.015625,0.203125 0.015625,0.3125 0.046875,0.3125 0.1875,1.5625 0.1875,1.78125 0,0.359375 -0.609375,0.390625 -0.796875,0.390625 -0.140625,0 -0.265625,0 -0.265625,0.21875 C 5.453125,0 5.5625,0 5.625,0 5.828125,0 6.078125,-0.03125 6.28125,-0.03125 H 6.953125 C 7.6875,-0.03125 8.21875,0 8.21875,0 8.3125,0 8.4375,0 8.4375,-0.234375 8.4375,-0.34375 8.328125,-0.34375 8.15625,-0.34375 7.5,-0.34375 7.484375,-0.453125 7.453125,-0.8125 L 6.71875,-8.265625 c -0.03125,-0.25 -0.078125,-0.265625 -0.203125,-0.265625 -0.125,0 -0.1875,0.015625 -0.296875,0.203125 z M 3.46875,-3.171875 5.875,-7.1875 6.28125,-3.171875 Z m 0,0"
               id="path22" />
          </g>
        </g>
      </g>
    </g>
    <g
       inkscape:label=""
       transform="translate(97.080693,110.84399)"
       id="g1650">
      <g
         clip-path="url(#clipPath598)"
         id="g1648"
         transform="matrix(0.352778,0,0,0.352778,-0.20395,-0.0044978)">
        <g
           fill="#000000"
           fill-opacity="1"
           id="g1646">
          <g
             id="g1644"
             transform="translate(0,8.1689997)">
            <path
               d="M 4.375,-7.34375 C 4.484375,-7.796875 4.53125,-7.8125 5,-7.8125 h 1.546875 c 1.359375,0 1.359375,1.140625 1.359375,1.25 0,0.96875 -0.96875,2.203125 -2.546875,2.203125 h -1.71875 z m 2.015625,3.078125 C 7.703125,-4.5 8.875,-5.421875 8.875,-6.515625 8.875,-7.453125 8.0625,-8.15625 6.703125,-8.15625 H 2.875 c -0.234375,0 -0.34375,0 -0.34375,0.21875 0,0.125 0.109375,0.125 0.296875,0.125 0.71875,0 0.71875,0.09375 0.71875,0.21875 0,0.03125 0,0.09375 -0.046875,0.28125 L 1.890625,-0.890625 C 1.78125,-0.46875 1.75,-0.34375 0.921875,-0.34375 c -0.234375,0 -0.34375,0 -0.34375,0.21875 0,0.125 0.0625,0.125 0.3125,0.125 h 4.09375 C 6.8125,0 8.21875,-1.390625 8.21875,-2.59375 c 0,-0.984375 -0.859375,-1.578125 -1.828125,-1.671875 z m -1.6875,3.921875 h -1.625 c -0.15625,0 -0.1875,0 -0.25,-0.015625 -0.140625,-0.015625 -0.15625,-0.03125 -0.15625,-0.125 0,-0.09375 0.03125,-0.15625 0.046875,-0.265625 L 3.5625,-4.125 h 2.25 c 1.40625,0 1.40625,1.3125 1.40625,1.40625 0,1.15625 -1.03125,2.375 -2.515625,2.375 z m 0,0"
               id="path1642" />
          </g>
        </g>
      </g>
    </g>
    <g
       inkscape:label=""
       transform="translate(83.733025,118.0341)"
       id="g5368">
      <g
         fill="#000000"
         fill-opacity="1"
         id="g5354"
         transform="matrix(0.423333,0,0,0.423333,-39.3008,-31.418)">
        <g
           id="g5352"
           transform="translate(93.031998,77.972)">
          <path
             d="m -0.046875,-2.6875 c -0.1875,0.03125 -0.203125,0.3125 -0.015625,0.375 0.09375,0.03125 0.1875,0.015625 0.28125,0.015625 h 2.953125 c 0.09375,0 0.1875,0 0.265625,-0.0625 C 3.546875,-2.4375 3.515625,-2.625 3.390625,-2.6875 3.3125,-2.71875 3.25,-2.703125 3.1875,-2.703125 H 0.28125 c -0.109375,0 -0.21875,-0.015625 -0.328125,0.015625 z m 0,0"
             id="path5350" />
        </g>
      </g>
      <g
         fill="#000000"
         fill-opacity="1"
         id="g5360"
         transform="matrix(0.423333,0,0,0.423333,-39.3008,-31.418)">
        <g
           id="g5358"
           transform="translate(94.688782,77.972)">
          <path
             d="M 3.828125,-2.703125 H 0.40625 c -0.078125,0 -0.171875,-0.015625 -0.25,0.015625 C 0.0625,-2.6875 0,-2.59375 0,-2.5 c 0,0.09375 0.0625,0.171875 0.15625,0.1875 0.078125,0.015625 0.171875,0.015625 0.25,0.015625 h 3.421875 c -0.15625,0.25 -0.3125,0.484375 -0.46875,0.734375 C 3.3125,-1.5 3.203125,-1.375 3.265625,-1.28125 3.296875,-1.25 3.34375,-1.25 3.390625,-1.265625 3.484375,-1.296875 3.5625,-1.359375 3.65625,-1.40625 4.046875,-1.625 4.4375,-1.828125 4.828125,-2.046875 5,-2.15625 5.1875,-2.25 5.359375,-2.359375 5.421875,-2.375 5.515625,-2.421875 5.515625,-2.5 c 0,-0.078125 -0.09375,-0.125 -0.15625,-0.15625 C 5.1875,-2.75 5,-2.84375 4.828125,-2.953125 4.4375,-3.171875 4.046875,-3.375 3.65625,-3.59375 3.5625,-3.65625 3.484375,-3.703125 3.390625,-3.734375 c -0.046875,-0.03125 -0.09375,-0.03125 -0.125,0.015625 -0.0625,0.09375 0.046875,0.203125 0.09375,0.28125 0.15625,0.25 0.3125,0.484375 0.46875,0.734375 z m 0,0"
             id="path5356" />
        </g>
      </g>
      <g
         fill="#000000"
         fill-opacity="1"
         id="g5366"
         transform="matrix(0.423333,0,0,0.423333,-39.3008,-31.418)">
        <g
           id="g5364"
           transform="translate(93.443001,81.962997)">
          <path
             d="M 3.71875,-3.765625 C 3.53125,-4.140625 3.25,-4.40625 2.796875,-4.40625 c -1.15625,0 -2.390625,1.46875 -2.390625,2.921875 0,0.9375 0.546875,1.59375 1.3125,1.59375 0.203125,0 0.703125,-0.046875 1.296875,-0.75 0.078125,0.421875 0.4375,0.75 0.90625,0.75 0.359375,0 0.578125,-0.234375 0.75,-0.546875 0.15625,-0.359375 0.296875,-0.96875 0.296875,-0.984375 0,-0.109375 -0.09375,-0.109375 -0.125,-0.109375 -0.09375,0 -0.109375,0.046875 -0.140625,0.1875 -0.171875,0.640625 -0.34375,1.234375 -0.75,1.234375 -0.28125,0 -0.296875,-0.265625 -0.296875,-0.453125 0,-0.21875 0.015625,-0.3125 0.125,-0.75 C 3.890625,-1.71875 3.90625,-1.828125 4,-2.203125 L 4.359375,-3.59375 c 0.0625,-0.28125 0.0625,-0.296875 0.0625,-0.34375 0,-0.171875 -0.109375,-0.265625 -0.28125,-0.265625 -0.25,0 -0.390625,0.21875 -0.421875,0.4375 z M 3.078125,-1.1875 C 3.015625,-1 3.015625,-0.984375 2.875,-0.8125 2.4375,-0.265625 2.03125,-0.109375 1.75,-0.109375 c -0.5,0 -0.640625,-0.546875 -0.640625,-0.9375 0,-0.5 0.3125,-1.71875 0.546875,-2.1875 0.3125,-0.578125 0.75,-0.953125 1.15625,-0.953125 0.640625,0 0.78125,0.8125 0.78125,0.875 0,0.0625 -0.015625,0.125 -0.03125,0.171875 z m 0,0"
             id="path5362" />
        </g>
      </g>
    </g>
    <circle
       style="fill:#000000;fill-opacity:1;stroke:#000000;stroke-width:0.100791;stroke-linecap:square"
       id="circle5774"
       cx="94.324501"
       cy="108.71376"
       r="0.9057523" />
  </g>
</svg>
