<?xml version="1.0" encoding="UTF-8" standalone="no"?>
<!-- Created with Inkscape (http://www.inkscape.org/) -->

<svg
   width="126.16372mm"
   height="30.241079mm"
   viewBox="0 0 126.16371 30.24108"
   version="1.1"
   id="svg5"
   sodipodi:docname="fig-07.svg"
   inkscape:version="1.2.2 (b0a8486541, 2022-12-01)"
   xmlns:inkscape="http://www.inkscape.org/namespaces/inkscape"
   xmlns:sodipodi="http://sodipodi.sourceforge.net/DTD/sodipodi-0.dtd"
   xmlns="http://www.w3.org/2000/svg"
   xmlns:svg="http://www.w3.org/2000/svg">
  <sodipodi:namedview
     id="namedview7"
     pagecolor="#ffffff"
     bordercolor="#666666"
     borderopacity="1.0"
     inkscape:showpageshadow="2"
     inkscape:pageopacity="0.0"
     inkscape:pagecheckerboard="0"
     inkscape:deskcolor="#d1d1d1"
     inkscape:document-units="mm"
     showgrid="false"
     inkscape:zoom="2.3554154"
     inkscape:cx="253.88304"
     inkscape:cy="38.422098"
     inkscape:window-width="1600"
     inkscape:window-height="842"
     inkscape:window-x="0"
     inkscape:window-y="0"
     inkscape:window-maximized="1"
     inkscape:current-layer="layer1"
     showguides="true">
    <inkscape:grid
       type="xygrid"
       id="grid16310"
       originx="-9.7294491"
       originy="-8.1773222" />
  </sodipodi:namedview>
  <defs
     id="defs2">
    <marker
       inkscape:stockid="DistanceEnd"
       orient="auto"
       refY="0"
       refX="0"
       id="DistanceEnd"
       style="overflow:visible"
       markerWidth="5"
       markerHeight="30"
       viewBox="0 0 5.1 48.3"
       inkscape:isstock="true"
       inkscape:collect="always"
       preserveAspectRatio="none">
      <g
         id="distance2"
         transform="scale(0.6)">
        <path
           d="m 0,-40 v 0"
           id="path6184" />
        <path
           id="path2312"
           d="M 0,0 -8,5 V -5 Z"
           style="fill:context-stroke;fill-rule:evenodd;stroke:none" />
        <path
           id="path2314"
           d="M 0,-8 V 40"
           style="fill:none;stroke:context-stroke;stroke-width:1;stroke-linecap:square" />
      </g>
    </marker>
    <marker
       inkscape:stockid="DistanceStart"
       orient="auto"
       refY="0"
       refX="0"
       id="DistanceStart"
       style="overflow:visible"
       markerWidth="5"
       markerHeight="30"
       viewBox="0 0 5.1 48.3"
       inkscape:isstock="true"
       inkscape:collect="always"
       preserveAspectRatio="none">
      <g
         id="distance1"
         transform="scale(0.6)">
        <path
           d="m 0,-40 v 0"
           id="path6103" />
        <path
           id="path2302"
           d="M 0,0 8,5 V -5 Z"
           style="fill:context-stroke;fill-rule:evenodd;stroke:none"
           sodipodi:nodetypes="ccccc" />
        <path
           id="path2304"
           d="M 0,-8 V 40"
           style="fill:none;stroke:context-stroke;stroke-width:1;stroke-linecap:square" />
      </g>
    </marker>
    <marker
       style="overflow:visible"
       id="Arrow5"
       refX="0"
       refY="0"
       orient="auto-start-reverse"
       inkscape:stockid="Arrow5"
       markerWidth="5.8874264"
       markerHeight="6.6094756"
       viewBox="0 0 5.8874262 6.6094758"
       inkscape:isstock="true"
       inkscape:collect="always"
       preserveAspectRatio="xMidYMid">
      <path
         transform="scale(0.5)"
         style="fill:context-stroke;fill-rule:evenodd;stroke:context-stroke;stroke-width:1pt"
         d="m 6,0 c -3,1 -7,3 -9,5 0,0 0,-4 2,-5 -2,-1 -2,-5 -2,-5 2,2 6,4 9,5 z"
         id="path8893" />
    </marker>
    <marker
       style="overflow:visible"
       id="marker1437"
       refX="0"
       refY="0"
       orient="auto-start-reverse"
       inkscape:stockid="Arrow2"
       markerWidth="7.6999998"
       markerHeight="5.5999999"
       viewBox="0 0 7.7 5.6"
       inkscape:isstock="true"
       inkscape:collect="always"
       preserveAspectRatio="xMidYMid">
      <path
         transform="scale(0.7)"
         d="M -2,-4 9,0 -2,4 c 2,-2.33 2,-5.66 0,-8 z"
         style="fill:context-stroke;fill-rule:evenodd;stroke:none"
         id="path1435" />
    </marker>
  </defs>
  <g
     inkscape:label="Capa 1"
     inkscape:groupmode="layer"
     id="layer1"
     transform="translate(-191.00445,-78.175222)">
    <g
       inkscape:label=""
       transform="translate(189.15845,47.968618)"
       id="g8972">
      <g
         fill="#000000"
         fill-opacity="1"
         id="g8970"
         transform="matrix(0.423333,0,0,0.423333,-39.0406,-32.8324)">
        <g
           id="g8968"
           transform="translate(91.925003,81.962997)" />
      </g>
    </g>
    <g
       id="g24235"
       transform="translate(0,-0.40113)">
      <path
         style="fill:none;stroke:#000000;stroke-width:0.264583px;stroke-linecap:butt;stroke-linejoin:miter;stroke-opacity:1;marker-end:url(#Arrow5)"
         d="m 200.36675,100.35544 c 1.58448,-1.338447 1.54735,-4.457487 -0.67329,-5.472427"
         id="path4456"
         sodipodi:nodetypes="cc" />
      <path
         style="opacity:0.604982;fill:none;stroke:#000000;stroke-width:0.165001;stroke-linecap:butt;stroke-linejoin:miter;stroke-dasharray:0.66, 0.66;stroke-dashoffset:0;stroke-opacity:1"
         d="M 206.47333,87.130067 V 100.45203"
         id="path8868" />
      <path
         style="fill:none;stroke:#010fff;stroke-width:0.5;stroke-linecap:round;stroke-linejoin:miter;stroke-dasharray:none;stroke-opacity:1;marker-end:url(#marker1437)"
         d="m 191.25445,100.60758 35.54312,0.14127"
         id="path424"
         sodipodi:nodetypes="cc" />
      <g
         inkscape:label=""
         transform="translate(201.8035,93.649178)"
         id="g5619">
        <g
           fill="#000000"
           fill-opacity="1"
           id="g5617"
           transform="matrix(0.423333,0,0,0.423333,-39.0869,-32.8324)">
          <g
             id="g5615"
             transform="translate(91.925003,81.962997)">
            <path
               d="m 4.75,-2.359375 c 0,-1.5625 -0.921875,-2.046875 -1.65625,-2.046875 -1.375,0 -2.6875,1.421875 -2.6875,2.828125 0,0.9375 0.59375,1.6875 1.625,1.6875 0.625,0 1.34375,-0.234375 2.09375,-0.84375 0.125,0.53125 0.453125,0.84375 0.90625,0.84375 0.53125,0 0.84375,-0.546875 0.84375,-0.703125 0,-0.078125 -0.0625,-0.109375 -0.125,-0.109375 -0.0625,0 -0.09375,0.03125 -0.125,0.109375 -0.1875,0.484375 -0.546875,0.484375 -0.5625,0.484375 -0.3125,0 -0.3125,-0.78125 -0.3125,-1.015625 0,-0.203125 0,-0.234375 0.109375,-0.34375 C 5.796875,-2.65625 6,-3.8125 6,-3.8125 6,-3.84375 5.984375,-3.921875 5.875,-3.921875 c -0.09375,0 -0.09375,0.03125 -0.140625,0.21875 -0.1875,0.625 -0.515625,1.375 -0.984375,1.96875 z m -0.65625,1.375 c -0.890625,0.765625 -1.65625,0.875 -2.046875,0.875 -0.59375,0 -0.90625,-0.453125 -0.90625,-1.09375 0,-0.484375 0.265625,-1.5625 0.578125,-2.0625 C 2.1875,-4 2.734375,-4.1875 3.078125,-4.1875 c 0.984375,0 0.984375,1.3125 0.984375,2.078125 0,0.375 0,0.953125 0.03125,1.125 z m 0,0"
               id="path5613" />
          </g>
        </g>
      </g>
      <path
         style="fill:#000000;fill-opacity:1;stroke:#ff010a;stroke-width:0.5;stroke-linecap:round;stroke-linejoin:miter;stroke-dasharray:none;stroke-opacity:1;marker-end:url(#marker1437)"
         d="M 191.25445,100.60758 204.05079,89.235046"
         id="path16308"
         sodipodi:nodetypes="cc" />
      <path
         style="fill:none;stroke:#000000;stroke-width:0.264583px;stroke-linecap:butt;stroke-linejoin:miter;stroke-opacity:1"
         d="m 206.39818,98.174958 h -2.13426 v 2.225442"
         id="path16312" />
      <g
         inkscape:label=""
         transform="translate(221.7836,101.6504)"
         id="g17863">
        <g
           fill="#000000"
           fill-opacity="1"
           id="g17"
           transform="matrix(0.423333,0,0,0.423333,-39.3008,-31.418)">
          <g
             id="use15"
             transform="translate(93.031998,77.972)">
            <path
               d="m -0.046875,-2.6875 c -0.1875,0.03125 -0.203125,0.3125 -0.015625,0.375 0.09375,0.03125 0.1875,0.015625 0.28125,0.015625 h 2.953125 c 0.09375,0 0.1875,0 0.265625,-0.0625 C 3.546875,-2.4375 3.515625,-2.625 3.390625,-2.6875 3.3125,-2.71875 3.25,-2.703125 3.1875,-2.703125 H 0.28125 c -0.109375,0 -0.21875,-0.015625 -0.328125,0.015625 z m 0,0"
               id="path31" />
          </g>
        </g>
        <g
           fill="#000000"
           fill-opacity="1"
           id="g21"
           transform="matrix(0.423333,0,0,0.423333,-39.3008,-31.418)">
          <g
             id="use19"
             transform="translate(94.688782,77.972)">
            <path
               d="M 3.828125,-2.703125 H 0.40625 c -0.078125,0 -0.171875,-0.015625 -0.25,0.015625 C 0.0625,-2.6875 0,-2.59375 0,-2.5 c 0,0.09375 0.0625,0.171875 0.15625,0.1875 0.078125,0.015625 0.171875,0.015625 0.25,0.015625 h 3.421875 c -0.15625,0.25 -0.3125,0.484375 -0.46875,0.734375 C 3.3125,-1.5 3.203125,-1.375 3.265625,-1.28125 3.296875,-1.25 3.34375,-1.25 3.390625,-1.265625 3.484375,-1.296875 3.5625,-1.359375 3.65625,-1.40625 4.046875,-1.625 4.4375,-1.828125 4.828125,-2.046875 5,-2.15625 5.1875,-2.25 5.359375,-2.359375 5.421875,-2.375 5.515625,-2.421875 5.515625,-2.5 c 0,-0.078125 -0.09375,-0.125 -0.15625,-0.15625 C 5.1875,-2.75 5,-2.84375 4.828125,-2.953125 4.4375,-3.171875 4.046875,-3.375 3.65625,-3.59375 3.5625,-3.65625 3.484375,-3.703125 3.390625,-3.734375 c -0.046875,-0.03125 -0.09375,-0.03125 -0.125,0.015625 -0.0625,0.09375 0.046875,0.203125 0.09375,0.28125 0.15625,0.25 0.3125,0.484375 0.46875,0.734375 z m 0,0"
               id="path35" />
          </g>
        </g>
        <g
           fill="#000000"
           fill-opacity="1"
           id="g25"
           transform="matrix(0.423333,0,0,0.423333,-39.3008,-31.418)">
          <g
             id="use23"
             transform="translate(93.443001,81.962997)">
            <path
               d="M 3.71875,-3.765625 C 3.53125,-4.140625 3.25,-4.40625 2.796875,-4.40625 c -1.15625,0 -2.390625,1.46875 -2.390625,2.921875 0,0.9375 0.546875,1.59375 1.3125,1.59375 0.203125,0 0.703125,-0.046875 1.296875,-0.75 0.078125,0.421875 0.4375,0.75 0.90625,0.75 0.359375,0 0.578125,-0.234375 0.75,-0.546875 0.15625,-0.359375 0.296875,-0.96875 0.296875,-0.984375 0,-0.109375 -0.09375,-0.109375 -0.125,-0.109375 -0.09375,0 -0.109375,0.046875 -0.140625,0.1875 -0.171875,0.640625 -0.34375,1.234375 -0.75,1.234375 -0.28125,0 -0.296875,-0.265625 -0.296875,-0.453125 0,-0.21875 0.015625,-0.3125 0.125,-0.75 C 3.890625,-1.71875 3.90625,-1.828125 4,-2.203125 L 4.359375,-3.59375 c 0.0625,-0.28125 0.0625,-0.296875 0.0625,-0.34375 0,-0.171875 -0.109375,-0.265625 -0.28125,-0.265625 -0.25,0 -0.390625,0.21875 -0.421875,0.4375 z M 3.078125,-1.1875 C 3.015625,-1 3.015625,-0.984375 2.875,-0.8125 2.4375,-0.265625 2.03125,-0.109375 1.75,-0.109375 c -0.5,0 -0.640625,-0.546875 -0.640625,-0.9375 0,-0.5 0.3125,-1.71875 0.546875,-2.1875 0.3125,-0.578125 0.75,-0.953125 1.15625,-0.953125 0.640625,0 0.78125,0.8125 0.78125,0.875 0,0.0625 -0.015625,0.125 -0.03125,0.171875 z m 0,0"
               id="path39" />
          </g>
        </g>
      </g>
      <g
         inkscape:label=""
         transform="translate(198.51085,86.08228)"
         id="g17968">
        <g
           fill="#000000"
           fill-opacity="1"
           id="g17954"
           transform="matrix(0.423333,0,0,0.423333,-39.3008,-30.3051)">
          <g
             id="g17952"
             transform="translate(93.031998,75.343002)">
            <path
               d="m -0.046875,-2.6875 c -0.1875,0.03125 -0.203125,0.3125 -0.015625,0.375 0.09375,0.03125 0.1875,0.015625 0.28125,0.015625 h 2.953125 c 0.09375,0 0.1875,0 0.265625,-0.0625 C 3.546875,-2.4375 3.515625,-2.625 3.390625,-2.6875 3.3125,-2.71875 3.25,-2.703125 3.1875,-2.703125 H 0.28125 c -0.109375,0 -0.21875,-0.015625 -0.328125,0.015625 z m 0,0"
               id="path17950" />
          </g>
        </g>
        <g
           fill="#000000"
           fill-opacity="1"
           id="g17960"
           transform="matrix(0.423333,0,0,0.423333,-39.3008,-30.3051)">
          <g
             id="g17958"
             transform="translate(94.688782,75.343002)">
            <path
               d="M 3.828125,-2.703125 H 0.40625 c -0.078125,0 -0.171875,-0.015625 -0.25,0.015625 C 0.0625,-2.6875 0,-2.59375 0,-2.5 c 0,0.09375 0.0625,0.171875 0.15625,0.1875 0.078125,0.015625 0.171875,0.015625 0.25,0.015625 h 3.421875 c -0.15625,0.25 -0.3125,0.484375 -0.46875,0.734375 C 3.3125,-1.5 3.203125,-1.375 3.265625,-1.28125 3.296875,-1.25 3.34375,-1.25 3.390625,-1.265625 3.484375,-1.296875 3.5625,-1.359375 3.65625,-1.40625 4.046875,-1.625 4.4375,-1.828125 4.828125,-2.046875 5,-2.15625 5.1875,-2.25 5.359375,-2.359375 5.421875,-2.375 5.515625,-2.421875 5.515625,-2.5 c 0,-0.078125 -0.09375,-0.125 -0.15625,-0.15625 C 5.1875,-2.75 5,-2.84375 4.828125,-2.953125 4.4375,-3.171875 4.046875,-3.375 3.65625,-3.59375 3.5625,-3.65625 3.484375,-3.703125 3.390625,-3.734375 c -0.046875,-0.03125 -0.09375,-0.03125 -0.125,0.015625 -0.0625,0.09375 0.046875,0.203125 0.09375,0.28125 0.15625,0.25 0.3125,0.484375 0.46875,0.734375 z m 0,0"
               id="path17956" />
          </g>
        </g>
        <g
           fill="#000000"
           fill-opacity="1"
           id="g17966"
           transform="matrix(0.423333,0,0,0.423333,-39.3008,-30.3051)">
          <g
             id="g17964"
             transform="translate(93.939003,81.962997)">
            <path
               d="m 2.375,-6.8125 c 0,0 0,-0.109375 -0.125,-0.109375 -0.21875,0 -0.953125,0.078125 -1.21875,0.109375 -0.078125,0 -0.1875,0.015625 -0.1875,0.1875 0,0.125 0.09375,0.125 0.25,0.125 0.46875,0 0.484375,0.0625 0.484375,0.171875 0,0.0625 -0.078125,0.40625 -0.125,0.609375 l -0.828125,3.25 c -0.109375,0.5 -0.15625,0.671875 -0.15625,1.015625 0,0.9375 0.53125,1.5625 1.265625,1.5625 1.171875,0 2.40625,-1.484375 2.40625,-2.921875 0,-0.90625 -0.53125,-1.59375 -1.328125,-1.59375 -0.453125,0 -0.875,0.296875 -1.171875,0.59375 z M 1.453125,-3.046875 C 1.5,-3.265625 1.5,-3.28125 1.59375,-3.390625 2.078125,-4.03125 2.53125,-4.1875 2.796875,-4.1875 c 0.359375,0 0.625,0.296875 0.625,0.9375 0,0.59375 -0.328125,1.734375 -0.515625,2.109375 -0.328125,0.671875 -0.78125,1.03125 -1.171875,1.03125 -0.34375,0 -0.671875,-0.265625 -0.671875,-1 0,-0.203125 0,-0.390625 0.15625,-1.015625 z m 0,0"
               id="path17962" />
          </g>
        </g>
      </g>
      <g
         inkscape:label=""
         transform="translate(193.28626,105.42328)"
         id="g18088">
        <g
           fill="#000000"
           fill-opacity="1"
           id="g23"
           transform="matrix(0.423333,0,0,0.423333,-39.1134,-31.7674)">
          <g
             id="use21"
             transform="translate(91.925003,81.962997)">
            <path
               d="m 2.375,-6.8125 c 0,0 0,-0.109375 -0.125,-0.109375 -0.21875,0 -0.953125,0.078125 -1.21875,0.109375 -0.078125,0 -0.1875,0.015625 -0.1875,0.1875 0,0.125 0.09375,0.125 0.25,0.125 0.46875,0 0.484375,0.0625 0.484375,0.171875 0,0.0625 -0.078125,0.40625 -0.125,0.609375 l -0.828125,3.25 c -0.109375,0.5 -0.15625,0.671875 -0.15625,1.015625 0,0.9375 0.53125,1.5625 1.265625,1.5625 1.171875,0 2.40625,-1.484375 2.40625,-2.921875 0,-0.90625 -0.53125,-1.59375 -1.328125,-1.59375 -0.453125,0 -0.875,0.296875 -1.171875,0.59375 z M 1.453125,-3.046875 C 1.5,-3.265625 1.5,-3.28125 1.59375,-3.390625 2.078125,-4.03125 2.53125,-4.1875 2.796875,-4.1875 c 0.359375,0 0.625,0.296875 0.625,0.9375 0,0.59375 -0.328125,1.734375 -0.515625,2.109375 -0.328125,0.671875 -0.78125,1.03125 -1.171875,1.03125 -0.34375,0 -0.671875,-0.265625 -0.671875,-1 0,-0.203125 0,-0.390625 0.15625,-1.015625 z m 0,0"
               id="path41" />
          </g>
        </g>
        <g
           fill="#000000"
           fill-opacity="1"
           id="g31"
           transform="matrix(0.423333,0,0,0.423333,-39.1134,-31.7674)">
          <g
             id="use25"
             transform="translate(97.861,81.962997)">
            <path
               d="m 1.171875,-2.171875 c 0,-1.625 0.8125,-2.046875 1.34375,-2.046875 0.09375,0 0.71875,0.015625 1.0625,0.375 -0.40625,0.03125 -0.46875,0.328125 -0.46875,0.453125 0,0.265625 0.1875,0.453125 0.453125,0.453125 0.265625,0 0.46875,-0.15625 0.46875,-0.46875 0,-0.671875 -0.765625,-1.0625 -1.53125,-1.0625 -1.25,0 -2.15625,1.078125 -2.15625,2.3125 0,1.28125 0.984375,2.265625 2.140625,2.265625 1.328125,0 1.65625,-1.203125 1.65625,-1.296875 0,-0.09375 -0.109375,-0.09375 -0.140625,-0.09375 -0.078125,0 -0.109375,0.03125 -0.125,0.09375 -0.28125,0.921875 -0.9375,1.046875 -1.296875,1.046875 -0.53125,0 -1.40625,-0.421875 -1.40625,-2.03125 z m 0,0"
               id="path45" />
          </g>
          <g
             id="use27"
             transform="translate(102.28838,81.962997)">
            <path
               d="M 4.6875,-2.140625 C 4.6875,-3.40625 3.703125,-4.46875 2.5,-4.46875 c -1.25,0 -2.21875,1.09375 -2.21875,2.328125 0,1.296875 1.03125,2.25 2.203125,2.25 1.203125,0 2.203125,-0.984375 2.203125,-2.25 z m -2.1875,2 c -0.4375,0 -0.875,-0.203125 -1.140625,-0.671875 -0.25,-0.4375 -0.25,-1.046875 -0.25,-1.40625 0,-0.390625 0,-0.921875 0.234375,-1.359375 C 1.609375,-4.03125 2.078125,-4.25 2.484375,-4.25 c 0.4375,0 0.859375,0.21875 1.125,0.65625 0.265625,0.421875 0.265625,1 0.265625,1.375 0,0.359375 0,0.90625 -0.21875,1.34375 C 3.421875,-0.421875 2.984375,-0.140625 2.5,-0.140625 Z m 0,0"
               id="path49" />
          </g>
          <g
             id="use29"
             transform="translate(107.26968,81.962997)">
            <path
               d="m 2.078125,-1.9375 c 0.21875,0.046875 1.03125,0.203125 1.03125,0.921875 0,0.5 -0.34375,0.90625 -1.125,0.90625 -0.84375,0 -1.203125,-0.5625 -1.390625,-1.421875 C 0.5625,-1.65625 0.5625,-1.6875 0.453125,-1.6875 c -0.125,0 -0.125,0.0625 -0.125,0.234375 V -0.125 c 0,0.171875 0,0.234375 0.109375,0.234375 0.046875,0 0.0625,-0.015625 0.25,-0.203125 0.015625,-0.015625 0.015625,-0.03125 0.203125,-0.21875 0.4375,0.40625 0.890625,0.421875 1.09375,0.421875 1.140625,0 1.609375,-0.671875 1.609375,-1.390625 0,-0.515625 -0.296875,-0.828125 -0.421875,-0.9375 C 2.84375,-2.546875 2.453125,-2.625 2.03125,-2.703125 1.46875,-2.8125 0.8125,-2.9375 0.8125,-3.515625 c 0,-0.359375 0.25,-0.765625 1.109375,-0.765625 1.09375,0 1.15625,0.90625 1.171875,1.203125 0,0.09375 0.09375,0.09375 0.109375,0.09375 0.140625,0 0.140625,-0.046875 0.140625,-0.234375 v -1.015625 c 0,-0.15625 0,-0.234375 -0.109375,-0.234375 -0.046875,0 -0.078125,0 -0.203125,0.125 -0.03125,0.03125 -0.125,0.125 -0.171875,0.15625 -0.375,-0.28125 -0.78125,-0.28125 -0.9375,-0.28125 -1.21875,0 -1.59375,0.671875 -1.59375,1.234375 0,0.34375 0.15625,0.625 0.421875,0.84375 0.328125,0.25 0.609375,0.3125 1.328125,0.453125 z m 0,0"
               id="path53" />
          </g>
        </g>
        <g
           fill="#000000"
           fill-opacity="1"
           id="g35"
           transform="matrix(0.423333,0,0,0.423333,-39.1134,-31.7674)">
          <g
             id="use33"
             transform="translate(112.861,81.962997)">
            <path
               d="m 4.75,-2.359375 c 0,-1.5625 -0.921875,-2.046875 -1.65625,-2.046875 -1.375,0 -2.6875,1.421875 -2.6875,2.828125 0,0.9375 0.59375,1.6875 1.625,1.6875 0.625,0 1.34375,-0.234375 2.09375,-0.84375 0.125,0.53125 0.453125,0.84375 0.90625,0.84375 0.53125,0 0.84375,-0.546875 0.84375,-0.703125 0,-0.078125 -0.0625,-0.109375 -0.125,-0.109375 -0.0625,0 -0.09375,0.03125 -0.125,0.109375 -0.1875,0.484375 -0.546875,0.484375 -0.5625,0.484375 -0.3125,0 -0.3125,-0.78125 -0.3125,-1.015625 0,-0.203125 0,-0.234375 0.109375,-0.34375 C 5.796875,-2.65625 6,-3.8125 6,-3.8125 6,-3.84375 5.984375,-3.921875 5.875,-3.921875 c -0.09375,0 -0.09375,0.03125 -0.140625,0.21875 -0.1875,0.625 -0.515625,1.375 -0.984375,1.96875 z m -0.65625,1.375 c -0.890625,0.765625 -1.65625,0.875 -2.046875,0.875 -0.59375,0 -0.90625,-0.453125 -0.90625,-1.09375 0,-0.484375 0.265625,-1.5625 0.578125,-2.0625 C 2.1875,-4 2.734375,-4.1875 3.078125,-4.1875 c 0.984375,0 0.984375,1.3125 0.984375,2.078125 0,0.375 0,0.953125 0.03125,1.125 z m 0,0"
               id="path57" />
          </g>
        </g>
      </g>
      <path
         style="fill:none;stroke:#000000;stroke-width:0.265;stroke-linecap:butt;stroke-linejoin:miter;stroke-dasharray:none;stroke-opacity:1;marker-start:url(#DistanceStart);marker-end:url(#DistanceEnd)"
         d="M 206.53407,104.86712 H 191.24276"
         id="path18494" />
    </g>
    <path
       style="fill:#000000;fill-opacity:1;stroke:#000000;stroke-width:0.3;stroke-linecap:round;stroke-linejoin:miter;stroke-dasharray:1.2, 0.6;stroke-dashoffset:0;stroke-opacity:1"
       d="M 237.66861,105.26767 265.94327,79.808286"
       id="path21340"
       sodipodi:nodetypes="cc" />
    <path
       style="fill:none;stroke:#000000;stroke-width:0.264583px;stroke-linecap:butt;stroke-linejoin:miter;stroke-opacity:1;marker-end:url(#Arrow5)"
       d="m 247.9724,103.7954 c 1.58448,-1.33845 1.54735,-4.45749 -0.67329,-5.47243"
       id="path21252"
       sodipodi:nodetypes="cc" />
    <path
       style="fill:none;stroke:#010fff;stroke-width:0.5;stroke-linecap:round;stroke-linejoin:miter;stroke-dasharray:none;stroke-opacity:1;marker-end:url(#marker1437)"
       d="m 238.8601,104.04754 35.54312,0.14127"
       id="path21256"
       sodipodi:nodetypes="cc" />
    <g
       inkscape:label=""
       transform="translate(249.88572,99.273437)"
       id="g21264">
      <g
         fill="#000000"
         fill-opacity="1"
         id="g21262"
         transform="matrix(0.423333,0,0,0.423333,-39.0869,-32.8324)">
        <g
           id="g21260"
           transform="translate(91.925003,81.962997)">
          <path
             d="m 4.75,-2.359375 c 0,-1.5625 -0.921875,-2.046875 -1.65625,-2.046875 -1.375,0 -2.6875,1.421875 -2.6875,2.828125 0,0.9375 0.59375,1.6875 1.625,1.6875 0.625,0 1.34375,-0.234375 2.09375,-0.84375 0.125,0.53125 0.453125,0.84375 0.90625,0.84375 0.53125,0 0.84375,-0.546875 0.84375,-0.703125 0,-0.078125 -0.0625,-0.109375 -0.125,-0.109375 -0.0625,0 -0.09375,0.03125 -0.125,0.109375 -0.1875,0.484375 -0.546875,0.484375 -0.5625,0.484375 -0.3125,0 -0.3125,-0.78125 -0.3125,-1.015625 0,-0.203125 0,-0.234375 0.109375,-0.34375 C 5.796875,-2.65625 6,-3.8125 6,-3.8125 6,-3.84375 5.984375,-3.921875 5.875,-3.921875 c -0.09375,0 -0.09375,0.03125 -0.140625,0.21875 -0.1875,0.625 -0.515625,1.375 -0.984375,1.96875 z m -0.65625,1.375 c -0.890625,0.765625 -1.65625,0.875 -2.046875,0.875 -0.59375,0 -0.90625,-0.453125 -0.90625,-1.09375 0,-0.484375 0.265625,-1.5625 0.578125,-2.0625 C 2.1875,-4 2.734375,-4.1875 3.078125,-4.1875 c 0.984375,0 0.984375,1.3125 0.984375,2.078125 0,0.375 0,0.953125 0.03125,1.125 z m 0,0"
             id="path21258" />
        </g>
      </g>
    </g>
    <path
       style="fill:#000000;fill-opacity:1;stroke:#ff010a;stroke-width:0.5;stroke-linecap:round;stroke-linejoin:miter;stroke-dasharray:none;stroke-opacity:1;marker-end:url(#marker1437)"
       d="M 238.8601,104.04754 251.65644,92.675003"
       id="path21266"
       sodipodi:nodetypes="cc" />
    <path
       style="fill:none;stroke:#000000;stroke-width:0.264583px;stroke-linecap:butt;stroke-linejoin:miter;stroke-opacity:1"
       d="m 258.98928,86.222277 1.39413,1.616012 1.68506,-1.45368"
       id="path21268" />
    <g
       inkscape:label=""
       transform="translate(269.38925,105.09036)"
       id="g21288">
      <g
         fill="#000000"
         fill-opacity="1"
         id="g21274"
         transform="matrix(0.423333,0,0,0.423333,-39.3008,-31.418)">
        <g
           id="g21272"
           transform="translate(93.031998,77.972)">
          <path
             d="m -0.046875,-2.6875 c -0.1875,0.03125 -0.203125,0.3125 -0.015625,0.375 0.09375,0.03125 0.1875,0.015625 0.28125,0.015625 h 2.953125 c 0.09375,0 0.1875,0 0.265625,-0.0625 C 3.546875,-2.4375 3.515625,-2.625 3.390625,-2.6875 3.3125,-2.71875 3.25,-2.703125 3.1875,-2.703125 H 0.28125 c -0.109375,0 -0.21875,-0.015625 -0.328125,0.015625 z m 0,0"
             id="path21270" />
        </g>
      </g>
      <g
         fill="#000000"
         fill-opacity="1"
         id="g21280"
         transform="matrix(0.423333,0,0,0.423333,-39.3008,-31.418)">
        <g
           id="g21278"
           transform="translate(94.688782,77.972)">
          <path
             d="M 3.828125,-2.703125 H 0.40625 c -0.078125,0 -0.171875,-0.015625 -0.25,0.015625 C 0.0625,-2.6875 0,-2.59375 0,-2.5 c 0,0.09375 0.0625,0.171875 0.15625,0.1875 0.078125,0.015625 0.171875,0.015625 0.25,0.015625 h 3.421875 c -0.15625,0.25 -0.3125,0.484375 -0.46875,0.734375 C 3.3125,-1.5 3.203125,-1.375 3.265625,-1.28125 3.296875,-1.25 3.34375,-1.25 3.390625,-1.265625 3.484375,-1.296875 3.5625,-1.359375 3.65625,-1.40625 4.046875,-1.625 4.4375,-1.828125 4.828125,-2.046875 5,-2.15625 5.1875,-2.25 5.359375,-2.359375 5.421875,-2.375 5.515625,-2.421875 5.515625,-2.5 c 0,-0.078125 -0.09375,-0.125 -0.15625,-0.15625 C 5.1875,-2.75 5,-2.84375 4.828125,-2.953125 4.4375,-3.171875 4.046875,-3.375 3.65625,-3.59375 3.5625,-3.65625 3.484375,-3.703125 3.390625,-3.734375 c -0.046875,-0.03125 -0.09375,-0.03125 -0.125,0.015625 -0.0625,0.09375 0.046875,0.203125 0.09375,0.28125 0.15625,0.25 0.3125,0.484375 0.46875,0.734375 z m 0,0"
             id="path21276" />
        </g>
      </g>
      <g
         fill="#000000"
         fill-opacity="1"
         id="g21286"
         transform="matrix(0.423333,0,0,0.423333,-39.3008,-31.418)">
        <g
           id="g21284"
           transform="translate(93.443001,81.962997)">
          <path
             d="M 3.71875,-3.765625 C 3.53125,-4.140625 3.25,-4.40625 2.796875,-4.40625 c -1.15625,0 -2.390625,1.46875 -2.390625,2.921875 0,0.9375 0.546875,1.59375 1.3125,1.59375 0.203125,0 0.703125,-0.046875 1.296875,-0.75 0.078125,0.421875 0.4375,0.75 0.90625,0.75 0.359375,0 0.578125,-0.234375 0.75,-0.546875 0.15625,-0.359375 0.296875,-0.96875 0.296875,-0.984375 0,-0.109375 -0.09375,-0.109375 -0.125,-0.109375 -0.09375,0 -0.109375,0.046875 -0.140625,0.1875 -0.171875,0.640625 -0.34375,1.234375 -0.75,1.234375 -0.28125,0 -0.296875,-0.265625 -0.296875,-0.453125 0,-0.21875 0.015625,-0.3125 0.125,-0.75 C 3.890625,-1.71875 3.90625,-1.828125 4,-2.203125 L 4.359375,-3.59375 c 0.0625,-0.28125 0.0625,-0.296875 0.0625,-0.34375 0,-0.171875 -0.109375,-0.265625 -0.28125,-0.265625 -0.25,0 -0.390625,0.21875 -0.421875,0.4375 z M 3.078125,-1.1875 C 3.015625,-1 3.015625,-0.984375 2.875,-0.8125 2.4375,-0.265625 2.03125,-0.109375 1.75,-0.109375 c -0.5,0 -0.640625,-0.546875 -0.640625,-0.9375 0,-0.5 0.3125,-1.71875 0.546875,-2.1875 0.3125,-0.578125 0.75,-0.953125 1.15625,-0.953125 0.640625,0 0.78125,0.8125 0.78125,0.875 0,0.0625 -0.015625,0.125 -0.03125,0.171875 z m 0,0"
             id="path21282" />
        </g>
      </g>
    </g>
    <g
       inkscape:label=""
       transform="translate(254.65356,90.58937)"
       id="g21308">
      <g
         fill="#000000"
         fill-opacity="1"
         id="g21294"
         transform="matrix(0.423333,0,0,0.423333,-39.3008,-30.3051)">
        <g
           id="g21292"
           transform="translate(93.031998,75.343002)">
          <path
             d="m -0.046875,-2.6875 c -0.1875,0.03125 -0.203125,0.3125 -0.015625,0.375 0.09375,0.03125 0.1875,0.015625 0.28125,0.015625 h 2.953125 c 0.09375,0 0.1875,0 0.265625,-0.0625 C 3.546875,-2.4375 3.515625,-2.625 3.390625,-2.6875 3.3125,-2.71875 3.25,-2.703125 3.1875,-2.703125 H 0.28125 c -0.109375,0 -0.21875,-0.015625 -0.328125,0.015625 z m 0,0"
             id="path21290" />
        </g>
      </g>
      <g
         fill="#000000"
         fill-opacity="1"
         id="g21300"
         transform="matrix(0.423333,0,0,0.423333,-39.3008,-30.3051)">
        <g
           id="g21298"
           transform="translate(94.688782,75.343002)">
          <path
             d="M 3.828125,-2.703125 H 0.40625 c -0.078125,0 -0.171875,-0.015625 -0.25,0.015625 C 0.0625,-2.6875 0,-2.59375 0,-2.5 c 0,0.09375 0.0625,0.171875 0.15625,0.1875 0.078125,0.015625 0.171875,0.015625 0.25,0.015625 h 3.421875 c -0.15625,0.25 -0.3125,0.484375 -0.46875,0.734375 C 3.3125,-1.5 3.203125,-1.375 3.265625,-1.28125 3.296875,-1.25 3.34375,-1.25 3.390625,-1.265625 3.484375,-1.296875 3.5625,-1.359375 3.65625,-1.40625 4.046875,-1.625 4.4375,-1.828125 4.828125,-2.046875 5,-2.15625 5.1875,-2.25 5.359375,-2.359375 5.421875,-2.375 5.515625,-2.421875 5.515625,-2.5 c 0,-0.078125 -0.09375,-0.125 -0.15625,-0.15625 C 5.1875,-2.75 5,-2.84375 4.828125,-2.953125 4.4375,-3.171875 4.046875,-3.375 3.65625,-3.59375 3.5625,-3.65625 3.484375,-3.703125 3.390625,-3.734375 c -0.046875,-0.03125 -0.09375,-0.03125 -0.125,0.015625 -0.0625,0.09375 0.046875,0.203125 0.09375,0.28125 0.15625,0.25 0.3125,0.484375 0.46875,0.734375 z m 0,0"
             id="path21296" />
        </g>
      </g>
      <g
         fill="#000000"
         fill-opacity="1"
         id="g21306"
         transform="matrix(0.423333,0,0,0.423333,-39.3008,-30.3051)">
        <g
           id="g21304"
           transform="translate(93.939003,81.962997)">
          <path
             d="m 2.375,-6.8125 c 0,0 0,-0.109375 -0.125,-0.109375 -0.21875,0 -0.953125,0.078125 -1.21875,0.109375 -0.078125,0 -0.1875,0.015625 -0.1875,0.1875 0,0.125 0.09375,0.125 0.25,0.125 0.46875,0 0.484375,0.0625 0.484375,0.171875 0,0.0625 -0.078125,0.40625 -0.125,0.609375 l -0.828125,3.25 c -0.109375,0.5 -0.15625,0.671875 -0.15625,1.015625 0,0.9375 0.53125,1.5625 1.265625,1.5625 1.171875,0 2.40625,-1.484375 2.40625,-2.921875 0,-0.90625 -0.53125,-1.59375 -1.328125,-1.59375 -0.453125,0 -0.875,0.296875 -1.171875,0.59375 z M 1.453125,-3.046875 C 1.5,-3.265625 1.5,-3.28125 1.59375,-3.390625 2.078125,-4.03125 2.53125,-4.1875 2.796875,-4.1875 c 0.359375,0 0.625,0.296875 0.625,0.9375 0,0.59375 -0.328125,1.734375 -0.515625,2.109375 -0.328125,0.671875 -0.78125,1.03125 -1.171875,1.03125 -0.34375,0 -0.671875,-0.265625 -0.671875,-1 0,-0.203125 0,-0.390625 0.15625,-1.015625 z m 0,0"
             id="path21302" />
        </g>
      </g>
    </g>
    <path
       style="fill:none;stroke:#000000;stroke-width:0.265;stroke-linecap:butt;stroke-linejoin:miter;stroke-dasharray:none;stroke-opacity:1;marker-start:url(#DistanceStart);marker-end:url(#DistanceEnd)"
       d="M 235.81622,100.72169 257.38051,81.096799"
       id="path21338" />
    <path
       style="opacity:0.604982;fill:none;stroke:#000000;stroke-width:0.165001;stroke-linecap:butt;stroke-linejoin:miter;stroke-dasharray:0.660001, 0.660001;stroke-dashoffset:0;stroke-opacity:1"
       d="m 260.61388,84.538021 17.1594,20.027799"
       id="path21354" />
    <g
       inkscape:label=""
       transform="rotate(-42.535125,239.28904,-261.34313)"
       id="g22039">
      <g
         fill="#000000"
         fill-opacity="1"
         id="g22017"
         transform="matrix(0.423333,0,0,0.423333,-39.0869,-32.8059)">
        <g
           id="g22015"
           transform="translate(91.925003,81.962997)">
          <path
             d="M 3.71875,-3.765625 C 3.53125,-4.140625 3.25,-4.40625 2.796875,-4.40625 c -1.15625,0 -2.390625,1.46875 -2.390625,2.921875 0,0.9375 0.546875,1.59375 1.3125,1.59375 0.203125,0 0.703125,-0.046875 1.296875,-0.75 0.078125,0.421875 0.4375,0.75 0.90625,0.75 0.359375,0 0.578125,-0.234375 0.75,-0.546875 0.15625,-0.359375 0.296875,-0.96875 0.296875,-0.984375 0,-0.109375 -0.09375,-0.109375 -0.125,-0.109375 -0.09375,0 -0.109375,0.046875 -0.140625,0.1875 -0.171875,0.640625 -0.34375,1.234375 -0.75,1.234375 -0.28125,0 -0.296875,-0.265625 -0.296875,-0.453125 0,-0.21875 0.015625,-0.3125 0.125,-0.75 C 3.890625,-1.71875 3.90625,-1.828125 4,-2.203125 L 4.359375,-3.59375 c 0.0625,-0.28125 0.0625,-0.296875 0.0625,-0.34375 0,-0.171875 -0.109375,-0.265625 -0.28125,-0.265625 -0.25,0 -0.390625,0.21875 -0.421875,0.4375 z M 3.078125,-1.1875 C 3.015625,-1 3.015625,-0.984375 2.875,-0.8125 2.4375,-0.265625 2.03125,-0.109375 1.75,-0.109375 c -0.5,0 -0.640625,-0.546875 -0.640625,-0.9375 0,-0.5 0.3125,-1.71875 0.546875,-2.1875 0.3125,-0.578125 0.75,-0.953125 1.15625,-0.953125 0.640625,0 0.78125,0.8125 0.78125,0.875 0,0.0625 -0.015625,0.125 -0.03125,0.171875 z m 0,0"
             id="path22013" />
        </g>
      </g>
      <g
         fill="#000000"
         fill-opacity="1"
         id="g22031"
         transform="matrix(0.423333,0,0,0.423333,-39.0869,-32.8059)">
        <g
           id="g22021"
           transform="translate(98.851997,81.962997)">
          <path
             d="m 1.171875,-2.171875 c 0,-1.625 0.8125,-2.046875 1.34375,-2.046875 0.09375,0 0.71875,0.015625 1.0625,0.375 -0.40625,0.03125 -0.46875,0.328125 -0.46875,0.453125 0,0.265625 0.1875,0.453125 0.453125,0.453125 0.265625,0 0.46875,-0.15625 0.46875,-0.46875 0,-0.671875 -0.765625,-1.0625 -1.53125,-1.0625 -1.25,0 -2.15625,1.078125 -2.15625,2.3125 0,1.28125 0.984375,2.265625 2.140625,2.265625 1.328125,0 1.65625,-1.203125 1.65625,-1.296875 0,-0.09375 -0.109375,-0.09375 -0.140625,-0.09375 -0.078125,0 -0.109375,0.03125 -0.125,0.09375 -0.28125,0.921875 -0.9375,1.046875 -1.296875,1.046875 -0.53125,0 -1.40625,-0.421875 -1.40625,-2.03125 z m 0,0"
             id="path22019" />
        </g>
        <g
           id="g22025"
           transform="translate(103.27938,81.962997)">
          <path
             d="M 4.6875,-2.140625 C 4.6875,-3.40625 3.703125,-4.46875 2.5,-4.46875 c -1.25,0 -2.21875,1.09375 -2.21875,2.328125 0,1.296875 1.03125,2.25 2.203125,2.25 1.203125,0 2.203125,-0.984375 2.203125,-2.25 z m -2.1875,2 c -0.4375,0 -0.875,-0.203125 -1.140625,-0.671875 -0.25,-0.4375 -0.25,-1.046875 -0.25,-1.40625 0,-0.390625 0,-0.921875 0.234375,-1.359375 C 1.609375,-4.03125 2.078125,-4.25 2.484375,-4.25 c 0.4375,0 0.859375,0.21875 1.125,0.65625 0.265625,0.421875 0.265625,1 0.265625,1.375 0,0.359375 0,0.90625 -0.21875,1.34375 C 3.421875,-0.421875 2.984375,-0.140625 2.5,-0.140625 Z m 0,0"
             id="path22023" />
        </g>
        <g
           id="g22029"
           transform="translate(108.26068,81.962997)">
          <path
             d="m 2.078125,-1.9375 c 0.21875,0.046875 1.03125,0.203125 1.03125,0.921875 0,0.5 -0.34375,0.90625 -1.125,0.90625 -0.84375,0 -1.203125,-0.5625 -1.390625,-1.421875 C 0.5625,-1.65625 0.5625,-1.6875 0.453125,-1.6875 c -0.125,0 -0.125,0.0625 -0.125,0.234375 V -0.125 c 0,0.171875 0,0.234375 0.109375,0.234375 0.046875,0 0.0625,-0.015625 0.25,-0.203125 0.015625,-0.015625 0.015625,-0.03125 0.203125,-0.21875 0.4375,0.40625 0.890625,0.421875 1.09375,0.421875 1.140625,0 1.609375,-0.671875 1.609375,-1.390625 0,-0.515625 -0.296875,-0.828125 -0.421875,-0.9375 C 2.84375,-2.546875 2.453125,-2.625 2.03125,-2.703125 1.46875,-2.8125 0.8125,-2.9375 0.8125,-3.515625 c 0,-0.359375 0.25,-0.765625 1.109375,-0.765625 1.09375,0 1.15625,0.90625 1.171875,1.203125 0,0.09375 0.09375,0.09375 0.109375,0.09375 0.140625,0 0.140625,-0.046875 0.140625,-0.234375 v -1.015625 c 0,-0.15625 0,-0.234375 -0.109375,-0.234375 -0.046875,0 -0.078125,0 -0.203125,0.125 -0.03125,0.03125 -0.125,0.125 -0.171875,0.15625 -0.375,-0.28125 -0.78125,-0.28125 -0.9375,-0.28125 -1.21875,0 -1.59375,0.671875 -1.59375,1.234375 0,0.34375 0.15625,0.625 0.421875,0.84375 0.328125,0.25 0.609375,0.3125 1.328125,0.453125 z m 0,0"
             id="path22027" />
        </g>
      </g>
      <g
         fill="#000000"
         fill-opacity="1"
         id="g22037"
         transform="matrix(0.423333,0,0,0.423333,-39.0869,-32.8059)">
        <g
           id="g22035"
           transform="translate(113.851,81.962997)">
          <path
             d="m 4.75,-2.359375 c 0,-1.5625 -0.921875,-2.046875 -1.65625,-2.046875 -1.375,0 -2.6875,1.421875 -2.6875,2.828125 0,0.9375 0.59375,1.6875 1.625,1.6875 0.625,0 1.34375,-0.234375 2.09375,-0.84375 0.125,0.53125 0.453125,0.84375 0.90625,0.84375 0.53125,0 0.84375,-0.546875 0.84375,-0.703125 0,-0.078125 -0.0625,-0.109375 -0.125,-0.109375 -0.0625,0 -0.09375,0.03125 -0.125,0.109375 -0.1875,0.484375 -0.546875,0.484375 -0.5625,0.484375 -0.3125,0 -0.3125,-0.78125 -0.3125,-1.015625 0,-0.203125 0,-0.234375 0.109375,-0.34375 C 5.796875,-2.65625 6,-3.8125 6,-3.8125 6,-3.84375 5.984375,-3.921875 5.875,-3.921875 c -0.09375,0 -0.09375,0.03125 -0.140625,0.21875 -0.1875,0.625 -0.515625,1.375 -0.984375,1.96875 z m -0.65625,1.375 c -0.890625,0.765625 -1.65625,0.875 -2.046875,0.875 -0.59375,0 -0.90625,-0.453125 -0.90625,-1.09375 0,-0.484375 0.265625,-1.5625 0.578125,-2.0625 C 2.1875,-4 2.734375,-4.1875 3.078125,-4.1875 c 0.984375,0 0.984375,1.3125 0.984375,2.078125 0,0.375 0,0.953125 0.03125,1.125 z m 0,0"
             id="path22033" />
        </g>
      </g>
    </g>
    <g
       id="g24189">
      <path
         style="fill:none;stroke:#000000;stroke-width:0.265;stroke-linecap:butt;stroke-linejoin:miter;stroke-dasharray:none;stroke-opacity:1;marker-start:url(#DistanceStart);marker-end:url(#DistanceEnd)"
         d="M 295.65233,104.46599 H 285.25315"
         id="path23636" />
      <path
         style="fill:none;stroke:#000000;stroke-width:0.2;stroke-linecap:round;stroke-linejoin:miter;stroke-dasharray:0.8, 0.8;stroke-dashoffset:0;stroke-opacity:1"
         d="m 281.73102,100.60758 31.40503,0.14127"
         id="path23658"
         sodipodi:nodetypes="cc" />
      <path
         style="fill:none;stroke:#000000;stroke-width:0.264583px;stroke-linecap:butt;stroke-linejoin:miter;stroke-opacity:1;marker-end:url(#Arrow5)"
         d="m 298.23105,100.53798 c 1.22015,-1.564015 -0.56997,-5.260489 -3.49695,-3.243596"
         id="path23550"
         sodipodi:nodetypes="cc" />
      <path
         style="opacity:0.604982;fill:none;stroke:#000000;stroke-width:0.165001;stroke-linecap:butt;stroke-linejoin:miter;stroke-dasharray:0.66, 0.66;stroke-dashoffset:0;stroke-opacity:1"
         d="M 285.23206,87.017737 V 100.3397"
         id="path23552" />
      <path
         style="fill:none;stroke:#010fff;stroke-width:0.5;stroke-linecap:round;stroke-linejoin:miter;stroke-dasharray:none;stroke-opacity:1;marker-end:url(#marker1437)"
         d="m 296.25117,100.60758 17.7671,0.14127"
         id="path23554"
         sodipodi:nodetypes="cc" />
      <g
         inkscape:label=""
         transform="translate(298.59116,94.491651)"
         id="g23562">
        <g
           fill="#000000"
           fill-opacity="1"
           id="g23560"
           transform="matrix(0.423333,0,0,0.423333,-39.0869,-32.8324)">
          <g
             id="g23558"
             transform="translate(91.925003,81.962997)">
            <path
               d="m 4.75,-2.359375 c 0,-1.5625 -0.921875,-2.046875 -1.65625,-2.046875 -1.375,0 -2.6875,1.421875 -2.6875,2.828125 0,0.9375 0.59375,1.6875 1.625,1.6875 0.625,0 1.34375,-0.234375 2.09375,-0.84375 0.125,0.53125 0.453125,0.84375 0.90625,0.84375 0.53125,0 0.84375,-0.546875 0.84375,-0.703125 0,-0.078125 -0.0625,-0.109375 -0.125,-0.109375 -0.0625,0 -0.09375,0.03125 -0.125,0.109375 -0.1875,0.484375 -0.546875,0.484375 -0.5625,0.484375 -0.3125,0 -0.3125,-0.78125 -0.3125,-1.015625 0,-0.203125 0,-0.234375 0.109375,-0.34375 C 5.796875,-2.65625 6,-3.8125 6,-3.8125 6,-3.84375 5.984375,-3.921875 5.875,-3.921875 c -0.09375,0 -0.09375,0.03125 -0.140625,0.21875 -0.1875,0.625 -0.515625,1.375 -0.984375,1.96875 z m -0.65625,1.375 c -0.890625,0.765625 -1.65625,0.875 -2.046875,0.875 -0.59375,0 -0.90625,-0.453125 -0.90625,-1.09375 0,-0.484375 0.265625,-1.5625 0.578125,-2.0625 C 2.1875,-4 2.734375,-4.1875 3.078125,-4.1875 c 0.984375,0 0.984375,1.3125 0.984375,2.078125 0,0.375 0,0.953125 0.03125,1.125 z m 0,0"
               id="path23556" />
          </g>
        </g>
      </g>
      <path
         style="fill:#000000;fill-opacity:1;stroke:#ff010a;stroke-width:0.5;stroke-linecap:round;stroke-linejoin:miter;stroke-dasharray:none;stroke-opacity:1;marker-end:url(#marker1437)"
         d="M 295.62437,100.60758 287.21312,89.632192"
         id="path23564"
         sodipodi:nodetypes="cc" />
      <path
         style="fill:none;stroke:#000000;stroke-width:0.264583px;stroke-linecap:butt;stroke-linejoin:miter;stroke-opacity:1"
         d="m 285.19312,98.511947 h 2.13426 v 2.225443"
         id="path23566" />
      <g
         inkscape:label=""
         transform="translate(309.64104,101.6504)"
         id="g23586">
        <g
           fill="#000000"
           fill-opacity="1"
           id="g23572"
           transform="matrix(0.423333,0,0,0.423333,-39.3008,-31.418)">
          <g
             id="g23570"
             transform="translate(93.031998,77.972)">
            <path
               d="m -0.046875,-2.6875 c -0.1875,0.03125 -0.203125,0.3125 -0.015625,0.375 0.09375,0.03125 0.1875,0.015625 0.28125,0.015625 h 2.953125 c 0.09375,0 0.1875,0 0.265625,-0.0625 C 3.546875,-2.4375 3.515625,-2.625 3.390625,-2.6875 3.3125,-2.71875 3.25,-2.703125 3.1875,-2.703125 H 0.28125 c -0.109375,0 -0.21875,-0.015625 -0.328125,0.015625 z m 0,0"
               id="path23568" />
          </g>
        </g>
        <g
           fill="#000000"
           fill-opacity="1"
           id="g23578"
           transform="matrix(0.423333,0,0,0.423333,-39.3008,-31.418)">
          <g
             id="g23576"
             transform="translate(94.688782,77.972)">
            <path
               d="M 3.828125,-2.703125 H 0.40625 c -0.078125,0 -0.171875,-0.015625 -0.25,0.015625 C 0.0625,-2.6875 0,-2.59375 0,-2.5 c 0,0.09375 0.0625,0.171875 0.15625,0.1875 0.078125,0.015625 0.171875,0.015625 0.25,0.015625 h 3.421875 c -0.15625,0.25 -0.3125,0.484375 -0.46875,0.734375 C 3.3125,-1.5 3.203125,-1.375 3.265625,-1.28125 3.296875,-1.25 3.34375,-1.25 3.390625,-1.265625 3.484375,-1.296875 3.5625,-1.359375 3.65625,-1.40625 4.046875,-1.625 4.4375,-1.828125 4.828125,-2.046875 5,-2.15625 5.1875,-2.25 5.359375,-2.359375 5.421875,-2.375 5.515625,-2.421875 5.515625,-2.5 c 0,-0.078125 -0.09375,-0.125 -0.15625,-0.15625 C 5.1875,-2.75 5,-2.84375 4.828125,-2.953125 4.4375,-3.171875 4.046875,-3.375 3.65625,-3.59375 3.5625,-3.65625 3.484375,-3.703125 3.390625,-3.734375 c -0.046875,-0.03125 -0.09375,-0.03125 -0.125,0.015625 -0.0625,0.09375 0.046875,0.203125 0.09375,0.28125 0.15625,0.25 0.3125,0.484375 0.46875,0.734375 z m 0,0"
               id="path23574" />
          </g>
        </g>
        <g
           fill="#000000"
           fill-opacity="1"
           id="g23584"
           transform="matrix(0.423333,0,0,0.423333,-39.3008,-31.418)">
          <g
             id="g23582"
             transform="translate(93.443001,81.962997)">
            <path
               d="M 3.71875,-3.765625 C 3.53125,-4.140625 3.25,-4.40625 2.796875,-4.40625 c -1.15625,0 -2.390625,1.46875 -2.390625,2.921875 0,0.9375 0.546875,1.59375 1.3125,1.59375 0.203125,0 0.703125,-0.046875 1.296875,-0.75 0.078125,0.421875 0.4375,0.75 0.90625,0.75 0.359375,0 0.578125,-0.234375 0.75,-0.546875 0.15625,-0.359375 0.296875,-0.96875 0.296875,-0.984375 0,-0.109375 -0.09375,-0.109375 -0.125,-0.109375 -0.09375,0 -0.109375,0.046875 -0.140625,0.1875 -0.171875,0.640625 -0.34375,1.234375 -0.75,1.234375 -0.28125,0 -0.296875,-0.265625 -0.296875,-0.453125 0,-0.21875 0.015625,-0.3125 0.125,-0.75 C 3.890625,-1.71875 3.90625,-1.828125 4,-2.203125 L 4.359375,-3.59375 c 0.0625,-0.28125 0.0625,-0.296875 0.0625,-0.34375 0,-0.171875 -0.109375,-0.265625 -0.28125,-0.265625 -0.25,0 -0.390625,0.21875 -0.421875,0.4375 z M 3.078125,-1.1875 C 3.015625,-1 3.015625,-0.984375 2.875,-0.8125 2.4375,-0.265625 2.03125,-0.109375 1.75,-0.109375 c -0.5,0 -0.640625,-0.546875 -0.640625,-0.9375 0,-0.5 0.3125,-1.71875 0.546875,-2.1875 0.3125,-0.578125 0.75,-0.953125 1.15625,-0.953125 0.640625,0 0.78125,0.8125 0.78125,0.875 0,0.0625 -0.015625,0.125 -0.03125,0.171875 z m 0,0"
               id="path23580" />
          </g>
        </g>
      </g>
      <g
         inkscape:label=""
         transform="translate(289.2327,85.745291)"
         id="g23606">
        <g
           fill="#000000"
           fill-opacity="1"
           id="g23592"
           transform="matrix(0.423333,0,0,0.423333,-39.3008,-30.3051)">
          <g
             id="g23590"
             transform="translate(93.031998,75.343002)">
            <path
               d="m -0.046875,-2.6875 c -0.1875,0.03125 -0.203125,0.3125 -0.015625,0.375 0.09375,0.03125 0.1875,0.015625 0.28125,0.015625 h 2.953125 c 0.09375,0 0.1875,0 0.265625,-0.0625 C 3.546875,-2.4375 3.515625,-2.625 3.390625,-2.6875 3.3125,-2.71875 3.25,-2.703125 3.1875,-2.703125 H 0.28125 c -0.109375,0 -0.21875,-0.015625 -0.328125,0.015625 z m 0,0"
               id="path23588" />
          </g>
        </g>
        <g
           fill="#000000"
           fill-opacity="1"
           id="g23598"
           transform="matrix(0.423333,0,0,0.423333,-39.3008,-30.3051)">
          <g
             id="g23596"
             transform="translate(94.688782,75.343002)">
            <path
               d="M 3.828125,-2.703125 H 0.40625 c -0.078125,0 -0.171875,-0.015625 -0.25,0.015625 C 0.0625,-2.6875 0,-2.59375 0,-2.5 c 0,0.09375 0.0625,0.171875 0.15625,0.1875 0.078125,0.015625 0.171875,0.015625 0.25,0.015625 h 3.421875 c -0.15625,0.25 -0.3125,0.484375 -0.46875,0.734375 C 3.3125,-1.5 3.203125,-1.375 3.265625,-1.28125 3.296875,-1.25 3.34375,-1.25 3.390625,-1.265625 3.484375,-1.296875 3.5625,-1.359375 3.65625,-1.40625 4.046875,-1.625 4.4375,-1.828125 4.828125,-2.046875 5,-2.15625 5.1875,-2.25 5.359375,-2.359375 5.421875,-2.375 5.515625,-2.421875 5.515625,-2.5 c 0,-0.078125 -0.09375,-0.125 -0.15625,-0.15625 C 5.1875,-2.75 5,-2.84375 4.828125,-2.953125 4.4375,-3.171875 4.046875,-3.375 3.65625,-3.59375 3.5625,-3.65625 3.484375,-3.703125 3.390625,-3.734375 c -0.046875,-0.03125 -0.09375,-0.03125 -0.125,0.015625 -0.0625,0.09375 0.046875,0.203125 0.09375,0.28125 0.15625,0.25 0.3125,0.484375 0.46875,0.734375 z m 0,0"
               id="path23594" />
          </g>
        </g>
        <g
           fill="#000000"
           fill-opacity="1"
           id="g23604"
           transform="matrix(0.423333,0,0,0.423333,-39.3008,-30.3051)">
          <g
             id="g23602"
             transform="translate(93.939003,81.962997)">
            <path
               d="m 2.375,-6.8125 c 0,0 0,-0.109375 -0.125,-0.109375 -0.21875,0 -0.953125,0.078125 -1.21875,0.109375 -0.078125,0 -0.1875,0.015625 -0.1875,0.1875 0,0.125 0.09375,0.125 0.25,0.125 0.46875,0 0.484375,0.0625 0.484375,0.171875 0,0.0625 -0.078125,0.40625 -0.125,0.609375 l -0.828125,3.25 c -0.109375,0.5 -0.15625,0.671875 -0.15625,1.015625 0,0.9375 0.53125,1.5625 1.265625,1.5625 1.171875,0 2.40625,-1.484375 2.40625,-2.921875 0,-0.90625 -0.53125,-1.59375 -1.328125,-1.59375 -0.453125,0 -0.875,0.296875 -1.171875,0.59375 z M 1.453125,-3.046875 C 1.5,-3.265625 1.5,-3.28125 1.59375,-3.390625 2.078125,-4.03125 2.53125,-4.1875 2.796875,-4.1875 c 0.359375,0 0.625,0.296875 0.625,0.9375 0,0.59375 -0.328125,1.734375 -0.515625,2.109375 -0.328125,0.671875 -0.78125,1.03125 -1.171875,1.03125 -0.34375,0 -0.671875,-0.265625 -0.671875,-1 0,-0.203125 0,-0.390625 0.15625,-1.015625 z m 0,0"
               id="path23600" />
          </g>
        </g>
      </g>
      <g
         inkscape:label=""
         transform="translate(280.9832,105.18524)"
         id="g24061">
        <g
           fill="#000000"
           fill-opacity="1"
           id="g29"
           transform="matrix(0.423333,0,0,0.423333,-39.1134,-31.7674)">
          <g
             id="g24041"
             transform="translate(91.925003,81.962997)">
            <path
               d="m 2.375,-6.8125 c 0,0 0,-0.109375 -0.125,-0.109375 -0.21875,0 -0.953125,0.078125 -1.21875,0.109375 -0.078125,0 -0.1875,0.015625 -0.1875,0.1875 0,0.125 0.09375,0.125 0.25,0.125 0.46875,0 0.484375,0.0625 0.484375,0.171875 0,0.0625 -0.078125,0.40625 -0.125,0.609375 l -0.828125,3.25 c -0.109375,0.5 -0.15625,0.671875 -0.15625,1.015625 0,0.9375 0.53125,1.5625 1.265625,1.5625 1.171875,0 2.40625,-1.484375 2.40625,-2.921875 0,-0.90625 -0.53125,-1.59375 -1.328125,-1.59375 -0.453125,0 -0.875,0.296875 -1.171875,0.59375 z M 1.453125,-3.046875 C 1.5,-3.265625 1.5,-3.28125 1.59375,-3.390625 2.078125,-4.03125 2.53125,-4.1875 2.796875,-4.1875 c 0.359375,0 0.625,0.296875 0.625,0.9375 0,0.59375 -0.328125,1.734375 -0.515625,2.109375 -0.328125,0.671875 -0.78125,1.03125 -1.171875,1.03125 -0.34375,0 -0.671875,-0.265625 -0.671875,-1 0,-0.203125 0,-0.390625 0.15625,-1.015625 z m 0,0"
               id="path55" />
          </g>
        </g>
        <g
           fill="#000000"
           fill-opacity="1"
           id="g37"
           transform="matrix(0.423333,0,0,0.423333,-39.1134,-31.7674)">
          <g
             id="use31"
             transform="translate(97.861,81.962997)">
            <path
               d="m 1.171875,-2.171875 c 0,-1.625 0.8125,-2.046875 1.34375,-2.046875 0.09375,0 0.71875,0.015625 1.0625,0.375 -0.40625,0.03125 -0.46875,0.328125 -0.46875,0.453125 0,0.265625 0.1875,0.453125 0.453125,0.453125 0.265625,0 0.46875,-0.15625 0.46875,-0.46875 0,-0.671875 -0.765625,-1.0625 -1.53125,-1.0625 -1.25,0 -2.15625,1.078125 -2.15625,2.3125 0,1.28125 0.984375,2.265625 2.140625,2.265625 1.328125,0 1.65625,-1.203125 1.65625,-1.296875 0,-0.09375 -0.109375,-0.09375 -0.140625,-0.09375 -0.078125,0 -0.109375,0.03125 -0.125,0.09375 -0.28125,0.921875 -0.9375,1.046875 -1.296875,1.046875 -0.53125,0 -1.40625,-0.421875 -1.40625,-2.03125 z m 0,0"
               id="path59" />
          </g>
          <g
             id="g24047"
             transform="translate(102.28838,81.962997)">
            <path
               d="M 4.6875,-2.140625 C 4.6875,-3.40625 3.703125,-4.46875 2.5,-4.46875 c -1.25,0 -2.21875,1.09375 -2.21875,2.328125 0,1.296875 1.03125,2.25 2.203125,2.25 1.203125,0 2.203125,-0.984375 2.203125,-2.25 z m -2.1875,2 c -0.4375,0 -0.875,-0.203125 -1.140625,-0.671875 -0.25,-0.4375 -0.25,-1.046875 -0.25,-1.40625 0,-0.390625 0,-0.921875 0.234375,-1.359375 C 1.609375,-4.03125 2.078125,-4.25 2.484375,-4.25 c 0.4375,0 0.859375,0.21875 1.125,0.65625 0.265625,0.421875 0.265625,1 0.265625,1.375 0,0.359375 0,0.90625 -0.21875,1.34375 C 3.421875,-0.421875 2.984375,-0.140625 2.5,-0.140625 Z m 0,0"
               id="path63" />
          </g>
          <g
             id="use35"
             transform="translate(107.26968,81.962997)">
            <path
               d="m 2.078125,-1.9375 c 0.21875,0.046875 1.03125,0.203125 1.03125,0.921875 0,0.5 -0.34375,0.90625 -1.125,0.90625 -0.84375,0 -1.203125,-0.5625 -1.390625,-1.421875 C 0.5625,-1.65625 0.5625,-1.6875 0.453125,-1.6875 c -0.125,0 -0.125,0.0625 -0.125,0.234375 V -0.125 c 0,0.171875 0,0.234375 0.109375,0.234375 0.046875,0 0.0625,-0.015625 0.25,-0.203125 0.015625,-0.015625 0.015625,-0.03125 0.203125,-0.21875 0.4375,0.40625 0.890625,0.421875 1.09375,0.421875 1.140625,0 1.609375,-0.671875 1.609375,-1.390625 0,-0.515625 -0.296875,-0.828125 -0.421875,-0.9375 C 2.84375,-2.546875 2.453125,-2.625 2.03125,-2.703125 1.46875,-2.8125 0.8125,-2.9375 0.8125,-3.515625 c 0,-0.359375 0.25,-0.765625 1.109375,-0.765625 1.09375,0 1.15625,0.90625 1.171875,1.203125 0,0.09375 0.09375,0.09375 0.109375,0.09375 0.140625,0 0.140625,-0.046875 0.140625,-0.234375 v -1.015625 c 0,-0.15625 0,-0.234375 -0.109375,-0.234375 -0.046875,0 -0.078125,0 -0.203125,0.125 -0.03125,0.03125 -0.125,0.125 -0.171875,0.15625 -0.375,-0.28125 -0.78125,-0.28125 -0.9375,-0.28125 -1.21875,0 -1.59375,0.671875 -1.59375,1.234375 0,0.34375 0.15625,0.625 0.421875,0.84375 0.328125,0.25 0.609375,0.3125 1.328125,0.453125 z m 0,0"
               id="path67" />
          </g>
        </g>
        <g
           fill="#000000"
           fill-opacity="1"
           id="g41"
           transform="matrix(0.423333,0,0,0.423333,-39.1134,-31.7674)">
          <g
             id="use39"
             transform="translate(112.861,81.962997)">
            <path
               d="m 4.75,-2.359375 c 0,-1.5625 -0.921875,-2.046875 -1.65625,-2.046875 -1.375,0 -2.6875,1.421875 -2.6875,2.828125 0,0.9375 0.59375,1.6875 1.625,1.6875 0.625,0 1.34375,-0.234375 2.09375,-0.84375 0.125,0.53125 0.453125,0.84375 0.90625,0.84375 0.53125,0 0.84375,-0.546875 0.84375,-0.703125 0,-0.078125 -0.0625,-0.109375 -0.125,-0.109375 -0.0625,0 -0.09375,0.03125 -0.125,0.109375 -0.1875,0.484375 -0.546875,0.484375 -0.5625,0.484375 -0.3125,0 -0.3125,-0.78125 -0.3125,-1.015625 0,-0.203125 0,-0.234375 0.109375,-0.34375 C 5.796875,-2.65625 6,-3.8125 6,-3.8125 6,-3.84375 5.984375,-3.921875 5.875,-3.921875 c -0.09375,0 -0.09375,0.03125 -0.140625,0.21875 -0.1875,0.625 -0.515625,1.375 -0.984375,1.96875 z m -0.65625,1.375 c -0.890625,0.765625 -1.65625,0.875 -2.046875,0.875 -0.59375,0 -0.90625,-0.453125 -0.90625,-1.09375 0,-0.484375 0.265625,-1.5625 0.578125,-2.0625 C 2.1875,-4 2.734375,-4.1875 3.078125,-4.1875 c 0.984375,0 0.984375,1.3125 0.984375,2.078125 0,0.375 0,0.953125 0.03125,1.125 z m 0,0"
               id="path71" />
          </g>
        </g>
        <g
           fill="#000000"
           fill-opacity="1"
           id="g45"
           transform="matrix(0.423333,0,0,0.423333,-39.1134,-31.7674)">
          <g
             id="use43"
             transform="translate(122.03357,81.962997)">
            <path
               d="m 6.734375,-4.96875 c 0.109375,-0.0625 0.1875,-0.109375 0.1875,-0.21875 0,-0.109375 -0.09375,-0.203125 -0.203125,-0.203125 -0.03125,0 -0.046875,0 -0.171875,0.078125 l -5.53125,2.59375 c -0.109375,0.0625 -0.1875,0.109375 -0.1875,0.21875 0,0.125 0.078125,0.171875 0.1875,0.234375 l 5.53125,2.59375 C 6.671875,0.40625 6.6875,0.40625 6.71875,0.40625 c 0.109375,0 0.203125,-0.09375 0.203125,-0.203125 0,-0.109375 -0.078125,-0.15625 -0.1875,-0.21875 L 1.5,-2.5 Z m 0,0"
               id="path75" />
          </g>
        </g>
        <g
           fill="#000000"
           fill-opacity="1"
           id="g49"
           transform="matrix(0.423333,0,0,0.423333,-39.1134,-31.7674)">
          <g
             id="use47"
             transform="translate(132.554,81.962997)">
            <path
               d="m 4.578125,-3.1875 c 0,-0.796875 -0.046875,-1.59375 -0.390625,-2.328125 -0.453125,-0.96875 -1.28125,-1.125 -1.6875,-1.125 -0.609375,0 -1.328125,0.265625 -1.75,1.1875 -0.3125,0.6875 -0.359375,1.46875 -0.359375,2.265625 0,0.75 0.03125,1.640625 0.453125,2.40625 0.421875,0.796875 1.15625,1 1.640625,1 0.53125,0 1.296875,-0.203125 1.734375,-1.15625 0.3125,-0.6875 0.359375,-1.46875 0.359375,-2.25 z M 2.484375,0 C 2.09375,0 1.5,-0.25 1.328125,-1.203125 1.21875,-1.796875 1.21875,-2.71875 1.21875,-3.3125 c 0,-0.640625 0,-1.296875 0.078125,-1.828125 0.1875,-1.1875 0.9375,-1.28125 1.1875,-1.28125 0.328125,0 0.984375,0.1875 1.171875,1.171875 0.109375,0.5625 0.109375,1.3125 0.109375,1.9375 0,0.75 0,1.421875 -0.109375,2.0625 C 3.5,-0.296875 2.9375,0 2.484375,0 Z m 0,0"
               id="path79" />
          </g>
        </g>
      </g>
    </g>
  </g>
</svg>
