<?xml version="1.0" encoding="UTF-8" standalone="no"?>
<!-- Created with Inkscape (http://www.inkscape.org/) -->

<svg
   width="175.12993mm"
   height="46.518925mm"
   viewBox="0 0 175.12992 46.518925"
   version="1.1"
   id="svg5"
   sodipodi:docname="fig-03.svg"
   inkscape:version="1.2.2 (b0a8486541, 2022-12-01)"
   xmlns:inkscape="http://www.inkscape.org/namespaces/inkscape"
   xmlns:sodipodi="http://sodipodi.sourceforge.net/DTD/sodipodi-0.dtd"
   xmlns="http://www.w3.org/2000/svg"
   xmlns:svg="http://www.w3.org/2000/svg">
  <sodipodi:namedview
     id="namedview7"
     pagecolor="#ffffff"
     bordercolor="#666666"
     borderopacity="1.0"
     inkscape:showpageshadow="2"
     inkscape:pageopacity="0.0"
     inkscape:pagecheckerboard="0"
     inkscape:deskcolor="#d1d1d1"
     inkscape:document-units="mm"
     showgrid="false"
     inkscape:zoom="4.7108306"
     inkscape:cx="166.00045"
     inkscape:cy="84.167747"
     inkscape:window-width="1600"
     inkscape:window-height="842"
     inkscape:window-x="0"
     inkscape:window-y="0"
     inkscape:window-maximized="1"
     inkscape:current-layer="layer1"
     showguides="true" />
  <defs
     id="defs2">
    <marker
       style="overflow:visible"
       id="Arrow2"
       refX="0"
       refY="0"
       orient="auto-start-reverse"
       inkscape:stockid="Arrow2"
       markerWidth="7.6999998"
       markerHeight="5.5999999"
       viewBox="0 0 7.7 5.6"
       inkscape:isstock="true"
       inkscape:collect="always"
       preserveAspectRatio="xMidYMid">
      <path
         transform="scale(0.7)"
         d="M -2,-4 9,0 -2,4 c 2,-2.33 2,-5.66 0,-8 z"
         style="fill:context-stroke;fill-rule:evenodd;stroke:none"
         id="arrow2L" />
    </marker>
    <marker
       style="overflow:visible"
       id="marker8754"
       refX="0"
       refY="0"
       orient="auto-start-reverse"
       inkscape:stockid="Arrow5"
       markerWidth="5.8874264"
       markerHeight="6.6094756"
       viewBox="0 0 5.8874262 6.6094758"
       inkscape:isstock="true"
       inkscape:collect="always"
       preserveAspectRatio="xMidYMid">
      <path
         transform="scale(0.5)"
         style="fill:context-stroke;fill-rule:evenodd;stroke:context-stroke;stroke-width:1pt"
         d="m 6,0 c -3,1 -7,3 -9,5 0,0 0,-4 2,-5 -2,-1 -2,-5 -2,-5 2,2 6,4 9,5 z"
         id="path8752" />
    </marker>
    <marker
       style="overflow:visible"
       id="Arrow5"
       refX="0"
       refY="0"
       orient="auto-start-reverse"
       inkscape:stockid="Arrow5"
       markerWidth="5.8874259"
       markerHeight="6.6094756"
       viewBox="0 0 5.8874262 6.6094758"
       inkscape:isstock="true"
       inkscape:collect="always"
       preserveAspectRatio="xMidYMid">
      <path
         transform="scale(0.5)"
         style="fill:context-stroke;fill-rule:evenodd;stroke:context-stroke;stroke-width:1pt"
         d="m 6,0 c -3,1 -7,3 -9,5 0,0 0,-4 2,-5 -2,-1 -2,-5 -2,-5 2,2 6,4 9,5 z"
         id="path8893" />
    </marker>
    <marker
       style="overflow:visible"
       id="marker1437"
       refX="0"
       refY="0"
       orient="auto-start-reverse"
       inkscape:stockid="Arrow2"
       markerWidth="7.6999998"
       markerHeight="5.5999999"
       viewBox="0 0 7.7 5.6"
       inkscape:isstock="true"
       inkscape:collect="always"
       preserveAspectRatio="xMidYMid">
      <path
         transform="scale(0.7)"
         d="M -2,-4 9,0 -2,4 c 2,-2.33 2,-5.66 0,-8 z"
         style="fill:context-stroke;fill-rule:evenodd;stroke:none"
         id="path1435" />
    </marker>
    <marker
       style="overflow:visible"
       id="TriangleStart"
       refX="0"
       refY="0"
       orient="auto-start-reverse"
       inkscape:stockid="TriangleStart"
       markerWidth="5.3244081"
       markerHeight="6.155385"
       viewBox="0 0 5.3244081 6.1553851"
       inkscape:isstock="true"
       inkscape:collect="always"
       preserveAspectRatio="xMidYMid">
      <path
         transform="scale(0.5)"
         style="fill:context-stroke;fill-rule:evenodd;stroke:context-stroke;stroke-width:1pt"
         d="M 5.77,0 -2.88,5 V -5 Z"
         id="path135" />
    </marker>
  </defs>
  <g
     inkscape:label="Capa 1"
     inkscape:groupmode="layer"
     id="layer1"
     transform="translate(-64.264884,-47.896305)">
    <g
       id="g8684"
       transform="translate(-11.4378,0.63543337)">
      <text
         xml:space="preserve"
         style="font-size:4.23333px;line-height:1.25;font-family:'Iwona Light';-inkscape-font-specification:'Iwona Light, ';letter-spacing:0px;word-spacing:0px;stroke-width:0.264583"
         x="75.448685"
         y="92.388802"
         id="text8600"><tspan
           sodipodi:role="line"
           id="tspan8598"
           style="stroke-width:0.264583"
           x="75.448685"
           y="92.388802">Componentes vectores de </tspan></text>
      <g
         inkscape:label=""
         transform="translate(120.66065,89.208571)"
         id="g8670">
        <g
           fill="#000000"
           fill-opacity="1"
           id="g8656"
           transform="matrix(0.423333,0,0,0.423333,-39.3008,-31.418)">
          <g
             id="g8654"
             transform="translate(93.031998,77.972)">
            <path
               d="m -0.046875,-2.6875 c -0.1875,0.03125 -0.203125,0.3125 -0.015625,0.375 0.09375,0.03125 0.1875,0.015625 0.28125,0.015625 h 2.953125 c 0.09375,0 0.1875,0 0.265625,-0.0625 C 3.546875,-2.4375 3.515625,-2.625 3.390625,-2.6875 3.3125,-2.71875 3.25,-2.703125 3.1875,-2.703125 H 0.28125 c -0.109375,0 -0.21875,-0.015625 -0.328125,0.015625 z m 0,0"
               id="path8652" />
          </g>
        </g>
        <g
           fill="#000000"
           fill-opacity="1"
           id="g8662"
           transform="matrix(0.423333,0,0,0.423333,-39.3008,-31.418)">
          <g
             id="g8660"
             transform="translate(94.688782,77.972)">
            <path
               d="M 3.828125,-2.703125 H 0.40625 c -0.078125,0 -0.171875,-0.015625 -0.25,0.015625 C 0.0625,-2.6875 0,-2.59375 0,-2.5 c 0,0.09375 0.0625,0.171875 0.15625,0.1875 0.078125,0.015625 0.171875,0.015625 0.25,0.015625 h 3.421875 c -0.15625,0.25 -0.3125,0.484375 -0.46875,0.734375 C 3.3125,-1.5 3.203125,-1.375 3.265625,-1.28125 3.296875,-1.25 3.34375,-1.25 3.390625,-1.265625 3.484375,-1.296875 3.5625,-1.359375 3.65625,-1.40625 4.046875,-1.625 4.4375,-1.828125 4.828125,-2.046875 5,-2.15625 5.1875,-2.25 5.359375,-2.359375 5.421875,-2.375 5.515625,-2.421875 5.515625,-2.5 c 0,-0.078125 -0.09375,-0.125 -0.15625,-0.15625 C 5.1875,-2.75 5,-2.84375 4.828125,-2.953125 4.4375,-3.171875 4.046875,-3.375 3.65625,-3.59375 3.5625,-3.65625 3.484375,-3.703125 3.390625,-3.734375 c -0.046875,-0.03125 -0.09375,-0.03125 -0.125,0.015625 -0.0625,0.09375 0.046875,0.203125 0.09375,0.28125 0.15625,0.25 0.3125,0.484375 0.46875,0.734375 z m 0,0"
               id="path8658" />
          </g>
        </g>
        <g
           fill="#000000"
           fill-opacity="1"
           id="g8668"
           transform="matrix(0.423333,0,0,0.423333,-39.3008,-31.418)">
          <g
             id="g8666"
             transform="translate(93.443001,81.962997)">
            <path
               d="M 3.71875,-3.765625 C 3.53125,-4.140625 3.25,-4.40625 2.796875,-4.40625 c -1.15625,0 -2.390625,1.46875 -2.390625,2.921875 0,0.9375 0.546875,1.59375 1.3125,1.59375 0.203125,0 0.703125,-0.046875 1.296875,-0.75 0.078125,0.421875 0.4375,0.75 0.90625,0.75 0.359375,0 0.578125,-0.234375 0.75,-0.546875 0.15625,-0.359375 0.296875,-0.96875 0.296875,-0.984375 0,-0.109375 -0.09375,-0.109375 -0.125,-0.109375 -0.09375,0 -0.109375,0.046875 -0.140625,0.1875 -0.171875,0.640625 -0.34375,1.234375 -0.75,1.234375 -0.28125,0 -0.296875,-0.265625 -0.296875,-0.453125 0,-0.21875 0.015625,-0.3125 0.125,-0.75 C 3.890625,-1.71875 3.90625,-1.828125 4,-2.203125 L 4.359375,-3.59375 c 0.0625,-0.28125 0.0625,-0.296875 0.0625,-0.34375 0,-0.171875 -0.109375,-0.265625 -0.28125,-0.265625 -0.25,0 -0.390625,0.21875 -0.421875,0.4375 z M 3.078125,-1.1875 C 3.015625,-1 3.015625,-0.984375 2.875,-0.8125 2.4375,-0.265625 2.03125,-0.109375 1.75,-0.109375 c -0.5,0 -0.640625,-0.546875 -0.640625,-0.9375 0,-0.5 0.3125,-1.71875 0.546875,-2.1875 0.3125,-0.578125 0.75,-0.953125 1.15625,-0.953125 0.640625,0 0.78125,0.8125 0.78125,0.875 0,0.0625 -0.015625,0.125 -0.03125,0.171875 z m 0,0"
               id="path8664" />
          </g>
        </g>
      </g>
    </g>
    <path
       style="fill:none;stroke:#000000;stroke-width:0.3;stroke-linecap:round;stroke-linejoin:miter;stroke-dasharray:none;stroke-opacity:1;marker-end:url(#TriangleStart)"
       d="M 82.191063,80.755881 H 131.7285"
       id="path544" />
    <path
       style="fill:none;stroke:#000000;stroke-width:0.3;stroke-linecap:round;stroke-linejoin:miter;stroke-dasharray:none;stroke-opacity:1;marker-end:url(#TriangleStart)"
       d="M 85.853646,84.612324 V 48.961627"
       id="path1423" />
    <path
       style="opacity:0.604982;fill:none;stroke:#000000;stroke-width:0.165001;stroke-linecap:butt;stroke-linejoin:miter;stroke-dasharray:0.66, 0.66;stroke-dashoffset:0;stroke-opacity:1"
       d="M 123.49159,57.858893 V 80.603697"
       id="path1639" />
    <path
       style="opacity:0.608541;fill:none;stroke:#000000;stroke-width:0.165001;stroke-linecap:butt;stroke-linejoin:miter;stroke-dasharray:0.66, 0.66;stroke-dashoffset:0;stroke-opacity:1"
       d="M 85.812725,57.858892 H 123.5587"
       id="path1642" />
    <path
       style="fill:none;stroke:#010fff;stroke-width:0.5;stroke-linecap:round;stroke-linejoin:miter;stroke-dasharray:none;stroke-opacity:1;marker-end:url(#marker1437)"
       d="M 85.945251,80.669045 121.07586,59.375212"
       id="path1433"
       sodipodi:nodetypes="cc" />
    <path
       style="fill:none;stroke:#ff0117;stroke-width:0.5;stroke-linecap:round;stroke-linejoin:miter;stroke-dasharray:none;stroke-opacity:1;marker-end:url(#marker1437)"
       d="m 85.945251,80.669045 34.962849,0.08629"
       id="path1648"
       sodipodi:nodetypes="cc" />
    <path
       style="fill:none;stroke:#ff0117;stroke-width:0.5;stroke-linecap:round;stroke-linejoin:miter;stroke-dasharray:none;stroke-opacity:1;marker-end:url(#marker1437)"
       d="M 85.945251,80.669045 85.87577,60.953964"
       id="path1658"
       sodipodi:nodetypes="cc" />
    <g
       inkscape:label=""
       transform="translate(109.31534,59.946657)"
       id="g3365">
      <g
         fill="#000000"
         fill-opacity="1"
         id="g3351"
         transform="matrix(0.423333,0,0,0.423333,-39.3008,-31.418)">
        <g
           id="g3349"
           transform="translate(93.031998,77.972)">
          <path
             d="m -0.046875,-2.6875 c -0.1875,0.03125 -0.203125,0.3125 -0.015625,0.375 0.09375,0.03125 0.1875,0.015625 0.28125,0.015625 h 2.953125 c 0.09375,0 0.1875,0 0.265625,-0.0625 C 3.546875,-2.4375 3.515625,-2.625 3.390625,-2.6875 3.3125,-2.71875 3.25,-2.703125 3.1875,-2.703125 H 0.28125 c -0.109375,0 -0.21875,-0.015625 -0.328125,0.015625 z m 0,0"
             id="path3347" />
        </g>
      </g>
      <g
         fill="#000000"
         fill-opacity="1"
         id="g3357"
         transform="matrix(0.423333,0,0,0.423333,-39.3008,-31.418)">
        <g
           id="g3355"
           transform="translate(94.688782,77.972)">
          <path
             d="M 3.828125,-2.703125 H 0.40625 c -0.078125,0 -0.171875,-0.015625 -0.25,0.015625 C 0.0625,-2.6875 0,-2.59375 0,-2.5 c 0,0.09375 0.0625,0.171875 0.15625,0.1875 0.078125,0.015625 0.171875,0.015625 0.25,0.015625 h 3.421875 c -0.15625,0.25 -0.3125,0.484375 -0.46875,0.734375 C 3.3125,-1.5 3.203125,-1.375 3.265625,-1.28125 3.296875,-1.25 3.34375,-1.25 3.390625,-1.265625 3.484375,-1.296875 3.5625,-1.359375 3.65625,-1.40625 4.046875,-1.625 4.4375,-1.828125 4.828125,-2.046875 5,-2.15625 5.1875,-2.25 5.359375,-2.359375 5.421875,-2.375 5.515625,-2.421875 5.515625,-2.5 c 0,-0.078125 -0.09375,-0.125 -0.15625,-0.15625 C 5.1875,-2.75 5,-2.84375 4.828125,-2.953125 4.4375,-3.171875 4.046875,-3.375 3.65625,-3.59375 3.5625,-3.65625 3.484375,-3.703125 3.390625,-3.734375 c -0.046875,-0.03125 -0.09375,-0.03125 -0.125,0.015625 -0.0625,0.09375 0.046875,0.203125 0.09375,0.28125 0.15625,0.25 0.3125,0.484375 0.46875,0.734375 z m 0,0"
             id="path3353" />
        </g>
      </g>
      <g
         fill="#000000"
         fill-opacity="1"
         id="g3363"
         transform="matrix(0.423333,0,0,0.423333,-39.3008,-31.418)">
        <g
           id="g3361"
           transform="translate(93.443001,81.962997)">
          <path
             d="M 3.71875,-3.765625 C 3.53125,-4.140625 3.25,-4.40625 2.796875,-4.40625 c -1.15625,0 -2.390625,1.46875 -2.390625,2.921875 0,0.9375 0.546875,1.59375 1.3125,1.59375 0.203125,0 0.703125,-0.046875 1.296875,-0.75 0.078125,0.421875 0.4375,0.75 0.90625,0.75 0.359375,0 0.578125,-0.234375 0.75,-0.546875 0.15625,-0.359375 0.296875,-0.96875 0.296875,-0.984375 0,-0.109375 -0.09375,-0.109375 -0.125,-0.109375 -0.09375,0 -0.109375,0.046875 -0.140625,0.1875 -0.171875,0.640625 -0.34375,1.234375 -0.75,1.234375 -0.28125,0 -0.296875,-0.265625 -0.296875,-0.453125 0,-0.21875 0.015625,-0.3125 0.125,-0.75 C 3.890625,-1.71875 3.90625,-1.828125 4,-2.203125 L 4.359375,-3.59375 c 0.0625,-0.28125 0.0625,-0.296875 0.0625,-0.34375 0,-0.171875 -0.109375,-0.265625 -0.28125,-0.265625 -0.25,0 -0.390625,0.21875 -0.421875,0.4375 z M 3.078125,-1.1875 C 3.015625,-1 3.015625,-0.984375 2.875,-0.8125 2.4375,-0.265625 2.03125,-0.109375 1.75,-0.109375 c -0.5,0 -0.640625,-0.546875 -0.640625,-0.9375 0,-0.5 0.3125,-1.71875 0.546875,-2.1875 0.3125,-0.578125 0.75,-0.953125 1.15625,-0.953125 0.640625,0 0.78125,0.8125 0.78125,0.875 0,0.0625 -0.015625,0.125 -0.03125,0.171875 z m 0,0"
             id="path3359" />
        </g>
      </g>
    </g>
    <g
       inkscape:label=""
       transform="translate(111.10738,81.701096)"
       id="g4196">
      <g
         fill="#000000"
         fill-opacity="1"
         id="g4176"
         transform="matrix(0.423333,0,0,0.423333,-39.3008,-31.418)">
        <g
           id="g4174"
           transform="translate(93.031998,77.972)">
          <path
             d="m -0.046875,-2.6875 c -0.1875,0.03125 -0.203125,0.3125 -0.015625,0.375 0.09375,0.03125 0.1875,0.015625 0.28125,0.015625 h 2.953125 c 0.09375,0 0.1875,0 0.265625,-0.0625 C 3.546875,-2.4375 3.515625,-2.625 3.390625,-2.6875 3.3125,-2.71875 3.25,-2.703125 3.1875,-2.703125 H 0.28125 c -0.109375,0 -0.21875,-0.015625 -0.328125,0.015625 z m 0,0"
             id="path4172" />
        </g>
      </g>
      <g
         fill="#000000"
         fill-opacity="1"
         id="g4182"
         transform="matrix(0.423333,0,0,0.423333,-39.3008,-31.418)">
        <g
           id="g4180"
           transform="translate(94.688782,77.972)">
          <path
             d="M 3.828125,-2.703125 H 0.40625 c -0.078125,0 -0.171875,-0.015625 -0.25,0.015625 C 0.0625,-2.6875 0,-2.59375 0,-2.5 c 0,0.09375 0.0625,0.171875 0.15625,0.1875 0.078125,0.015625 0.171875,0.015625 0.25,0.015625 h 3.421875 c -0.15625,0.25 -0.3125,0.484375 -0.46875,0.734375 C 3.3125,-1.5 3.203125,-1.375 3.265625,-1.28125 3.296875,-1.25 3.34375,-1.25 3.390625,-1.265625 3.484375,-1.296875 3.5625,-1.359375 3.65625,-1.40625 4.046875,-1.625 4.4375,-1.828125 4.828125,-2.046875 5,-2.15625 5.1875,-2.25 5.359375,-2.359375 5.421875,-2.375 5.515625,-2.421875 5.515625,-2.5 c 0,-0.078125 -0.09375,-0.125 -0.15625,-0.15625 C 5.1875,-2.75 5,-2.84375 4.828125,-2.953125 4.4375,-3.171875 4.046875,-3.375 3.65625,-3.59375 3.5625,-3.65625 3.484375,-3.703125 3.390625,-3.734375 c -0.046875,-0.03125 -0.09375,-0.03125 -0.125,0.015625 -0.0625,0.09375 0.046875,0.203125 0.09375,0.28125 0.15625,0.25 0.3125,0.484375 0.46875,0.734375 z m 0,0"
             id="path4178" />
        </g>
      </g>
      <g
         fill="#000000"
         fill-opacity="1"
         id="g4188"
         transform="matrix(0.423333,0,0,0.423333,-39.3008,-31.418)">
        <g
           id="g4186"
           transform="translate(93.443001,81.962997)">
          <path
             d="M 3.71875,-3.765625 C 3.53125,-4.140625 3.25,-4.40625 2.796875,-4.40625 c -1.15625,0 -2.390625,1.46875 -2.390625,2.921875 0,0.9375 0.546875,1.59375 1.3125,1.59375 0.203125,0 0.703125,-0.046875 1.296875,-0.75 0.078125,0.421875 0.4375,0.75 0.90625,0.75 0.359375,0 0.578125,-0.234375 0.75,-0.546875 0.15625,-0.359375 0.296875,-0.96875 0.296875,-0.984375 0,-0.109375 -0.09375,-0.109375 -0.125,-0.109375 -0.09375,0 -0.109375,0.046875 -0.140625,0.1875 -0.171875,0.640625 -0.34375,1.234375 -0.75,1.234375 -0.28125,0 -0.296875,-0.265625 -0.296875,-0.453125 0,-0.21875 0.015625,-0.3125 0.125,-0.75 C 3.890625,-1.71875 3.90625,-1.828125 4,-2.203125 L 4.359375,-3.59375 c 0.0625,-0.28125 0.0625,-0.296875 0.0625,-0.34375 0,-0.171875 -0.109375,-0.265625 -0.28125,-0.265625 -0.25,0 -0.390625,0.21875 -0.421875,0.4375 z M 3.078125,-1.1875 C 3.015625,-1 3.015625,-0.984375 2.875,-0.8125 2.4375,-0.265625 2.03125,-0.109375 1.75,-0.109375 c -0.5,0 -0.640625,-0.546875 -0.640625,-0.9375 0,-0.5 0.3125,-1.71875 0.546875,-2.1875 0.3125,-0.578125 0.75,-0.953125 1.15625,-0.953125 0.640625,0 0.78125,0.8125 0.78125,0.875 0,0.0625 -0.015625,0.125 -0.03125,0.171875 z m 0,0"
             id="path4184" />
        </g>
      </g>
      <g
         fill="#000000"
         fill-opacity="1"
         id="g4194"
         transform="matrix(0.423333,0,0,0.423333,-39.3008,-31.418)">
        <g
           id="g4192"
           transform="translate(100.227,83.457001)">
          <path
             d="M 1.734375,-0.734375 C 1.671875,-0.5 1.4375,-0.125 1.078125,-0.125 c -0.015625,0 -0.234375,0 -0.375,-0.09375 0.28125,-0.09375 0.3125,-0.34375 0.3125,-0.390625 0,-0.15625 -0.125,-0.25 -0.28125,-0.25 -0.203125,0 -0.40625,0.15625 -0.40625,0.421875 0,0.34375 0.390625,0.5 0.734375,0.5 0.328125,0 0.609375,-0.1875 0.78125,-0.484375 C 2.015625,-0.0625 2.390625,0.0625 2.671875,0.0625 c 0.8125,0 1.234375,-0.859375 1.234375,-1.0625 0,-0.09375 -0.09375,-0.09375 -0.109375,-0.09375 -0.109375,0 -0.109375,0.046875 -0.140625,0.125 -0.140625,0.484375 -0.5625,0.84375 -0.953125,0.84375 -0.28125,0 -0.421875,-0.1875 -0.421875,-0.453125 0,-0.1875 0.171875,-0.8125 0.359375,-1.59375 C 2.78125,-2.703125 3.09375,-2.875 3.328125,-2.875 c 0.015625,0 0.21875,0 0.375,0.09375 -0.21875,0.0625 -0.3125,0.265625 -0.3125,0.390625 0,0.140625 0.125,0.25 0.28125,0.25 0.15625,0 0.390625,-0.125 0.390625,-0.421875 0,-0.390625 -0.453125,-0.515625 -0.71875,-0.515625 -0.359375,0 -0.640625,0.234375 -0.78125,0.5 -0.125,-0.28125 -0.453125,-0.5 -0.84375,-0.5 C 0.9375,-3.078125 0.5,-2.21875 0.5,-2 c 0,0.078125 0.09375,0.078125 0.109375,0.078125 0.09375,0 0.09375,-0.015625 0.140625,-0.109375 C 0.921875,-2.578125 1.359375,-2.875 1.703125,-2.875 1.9375,-2.875 2.125,-2.75 2.125,-2.421875 2.125,-2.28125 2.03125,-1.9375 1.96875,-1.6875 Z m 0,0"
             id="path4190" />
        </g>
      </g>
    </g>
    <g
       inkscape:label=""
       transform="translate(80.054279,63.952184)"
       id="g4815">
      <g
         fill="#000000"
         fill-opacity="1"
         id="g4795"
         transform="matrix(0.423333,0,0,0.423333,-39.3008,-31.418)">
        <g
           id="g4793"
           transform="translate(93.031998,77.972)">
          <path
             d="m -0.046875,-2.6875 c -0.1875,0.03125 -0.203125,0.3125 -0.015625,0.375 0.09375,0.03125 0.1875,0.015625 0.28125,0.015625 h 2.953125 c 0.09375,0 0.1875,0 0.265625,-0.0625 C 3.546875,-2.4375 3.515625,-2.625 3.390625,-2.6875 3.3125,-2.71875 3.25,-2.703125 3.1875,-2.703125 H 0.28125 c -0.109375,0 -0.21875,-0.015625 -0.328125,0.015625 z m 0,0"
             id="path4791" />
        </g>
      </g>
      <g
         fill="#000000"
         fill-opacity="1"
         id="g4801"
         transform="matrix(0.423333,0,0,0.423333,-39.3008,-31.418)">
        <g
           id="g4799"
           transform="translate(94.688782,77.972)">
          <path
             d="M 3.828125,-2.703125 H 0.40625 c -0.078125,0 -0.171875,-0.015625 -0.25,0.015625 C 0.0625,-2.6875 0,-2.59375 0,-2.5 c 0,0.09375 0.0625,0.171875 0.15625,0.1875 0.078125,0.015625 0.171875,0.015625 0.25,0.015625 h 3.421875 c -0.15625,0.25 -0.3125,0.484375 -0.46875,0.734375 C 3.3125,-1.5 3.203125,-1.375 3.265625,-1.28125 3.296875,-1.25 3.34375,-1.25 3.390625,-1.265625 3.484375,-1.296875 3.5625,-1.359375 3.65625,-1.40625 4.046875,-1.625 4.4375,-1.828125 4.828125,-2.046875 5,-2.15625 5.1875,-2.25 5.359375,-2.359375 5.421875,-2.375 5.515625,-2.421875 5.515625,-2.5 c 0,-0.078125 -0.09375,-0.125 -0.15625,-0.15625 C 5.1875,-2.75 5,-2.84375 4.828125,-2.953125 4.4375,-3.171875 4.046875,-3.375 3.65625,-3.59375 3.5625,-3.65625 3.484375,-3.703125 3.390625,-3.734375 c -0.046875,-0.03125 -0.09375,-0.03125 -0.125,0.015625 -0.0625,0.09375 0.046875,0.203125 0.09375,0.28125 0.15625,0.25 0.3125,0.484375 0.46875,0.734375 z m 0,0"
             id="path4797" />
        </g>
      </g>
      <g
         fill="#000000"
         fill-opacity="1"
         id="g4807"
         transform="matrix(0.423333,0,0,0.423333,-39.3008,-31.418)">
        <g
           id="g4805"
           transform="translate(93.443001,81.962997)">
          <path
             d="M 3.71875,-3.765625 C 3.53125,-4.140625 3.25,-4.40625 2.796875,-4.40625 c -1.15625,0 -2.390625,1.46875 -2.390625,2.921875 0,0.9375 0.546875,1.59375 1.3125,1.59375 0.203125,0 0.703125,-0.046875 1.296875,-0.75 0.078125,0.421875 0.4375,0.75 0.90625,0.75 0.359375,0 0.578125,-0.234375 0.75,-0.546875 0.15625,-0.359375 0.296875,-0.96875 0.296875,-0.984375 0,-0.109375 -0.09375,-0.109375 -0.125,-0.109375 -0.09375,0 -0.109375,0.046875 -0.140625,0.1875 -0.171875,0.640625 -0.34375,1.234375 -0.75,1.234375 -0.28125,0 -0.296875,-0.265625 -0.296875,-0.453125 0,-0.21875 0.015625,-0.3125 0.125,-0.75 C 3.890625,-1.71875 3.90625,-1.828125 4,-2.203125 L 4.359375,-3.59375 c 0.0625,-0.28125 0.0625,-0.296875 0.0625,-0.34375 0,-0.171875 -0.109375,-0.265625 -0.28125,-0.265625 -0.25,0 -0.390625,0.21875 -0.421875,0.4375 z M 3.078125,-1.1875 C 3.015625,-1 3.015625,-0.984375 2.875,-0.8125 2.4375,-0.265625 2.03125,-0.109375 1.75,-0.109375 c -0.5,0 -0.640625,-0.546875 -0.640625,-0.9375 0,-0.5 0.3125,-1.71875 0.546875,-2.1875 0.3125,-0.578125 0.75,-0.953125 1.15625,-0.953125 0.640625,0 0.78125,0.8125 0.78125,0.875 0,0.0625 -0.015625,0.125 -0.03125,0.171875 z m 0,0"
             id="path4803" />
        </g>
      </g>
      <g
         fill="#000000"
         fill-opacity="1"
         id="g4813"
         transform="matrix(0.423333,0,0,0.423333,-39.3008,-31.418)">
        <g
           id="g4811"
           transform="translate(100.227,83.457001)">
          <path
             d="M 3.875,-2.625 C 3.90625,-2.71875 3.90625,-2.734375 3.90625,-2.78125 3.90625,-2.921875 3.796875,-3 3.671875,-3 3.59375,-3 3.46875,-2.96875 3.390625,-2.84375 3.359375,-2.796875 3.3125,-2.578125 3.28125,-2.4375 L 3.125,-1.859375 c -0.03125,0.171875 -0.25,1.046875 -0.28125,1.125 0,0 -0.3125,0.609375 -0.84375,0.609375 -0.484375,0 -0.484375,-0.453125 -0.484375,-0.578125 0,-0.375 0.15625,-0.8125 0.375,-1.359375 C 1.96875,-2.28125 2,-2.359375 2,-2.484375 2,-2.8125 1.71875,-3.078125 1.34375,-3.078125 0.640625,-3.078125 0.328125,-2.125 0.328125,-2 c 0,0.078125 0.09375,0.078125 0.125,0.078125 0.09375,0 0.09375,-0.03125 0.125,-0.109375 C 0.75,-2.609375 1.046875,-2.875 1.328125,-2.875 1.4375,-2.875 1.5,-2.796875 1.5,-2.640625 c 0,0.171875 -0.0625,0.3125 -0.09375,0.40625 C 1.0625,-1.375 1,-1.125 1,-0.8125 1,-0.703125 1,-0.375 1.265625,-0.140625 1.484375,0.03125 1.78125,0.0625 1.96875,0.0625 2.25,0.0625 2.5,-0.03125 2.71875,-0.25 2.640625,0.140625 2.5625,0.4375 2.265625,0.78125 2.078125,1 1.796875,1.21875 1.421875,1.21875 c -0.046875,0 -0.375,0 -0.515625,-0.21875 0.375,-0.046875 0.375,-0.375 0.375,-0.390625 0,-0.21875 -0.203125,-0.265625 -0.265625,-0.265625 -0.171875,0 -0.40625,0.140625 -0.40625,0.46875 0,0.34375 0.328125,0.609375 0.828125,0.609375 C 2.140625,1.421875 3,0.875 3.21875,0 Z m 0,0"
             id="path4809" />
        </g>
      </g>
    </g>
    <g
       inkscape:label=""
       transform="translate(81.127742,82.04373)"
       id="g5439">
      <g
         fill="#000000"
         fill-opacity="1"
         id="g11"
         transform="matrix(0.423333,0,0,0.423333,-39.12,-31.7211)">
        <g
           id="use9"
           transform="translate(91.925003,81.962997)">
          <path
             d="m 7.375,-4.34375 c 0,-1.609375 -1.0625,-2.6875 -2.546875,-2.6875 -2.140625,0 -4.34375,2.265625 -4.34375,4.59375 0,1.65625 1.125,2.65625 2.5625,2.65625 2.109375,0 4.328125,-2.1875 4.328125,-4.5625 z m -4.28125,4.296875 c -0.984375,0 -1.671875,-0.796875 -1.671875,-2.109375 0,-0.453125 0.140625,-1.90625 0.90625,-3.0625 0.6875,-1.046875 1.65625,-1.5625 2.453125,-1.5625 0.8125,0 1.703125,0.5625 1.703125,2.046875 0,0.71875 -0.265625,2.265625 -1.25,3.5 C 4.75,-0.625 3.9375,-0.046875 3.09375,-0.046875 Z m 0,0"
             id="path17" />
        </g>
      </g>
    </g>
    <g
       inkscape:label=""
       transform="translate(129.57953,82.282018)"
       id="g6065">
      <g
         fill="#000000"
         fill-opacity="1"
         id="g6063"
         transform="matrix(0.423333,0,0,0.423333,-39.0406,-32.8324)">
        <g
           id="g6061"
           transform="translate(91.925003,81.962997)">
          <path
             d="M 3.328125,-3.015625 C 3.390625,-3.265625 3.625,-4.1875 4.3125,-4.1875 c 0.046875,0 0.296875,0 0.5,0.125 C 4.53125,-4 4.34375,-3.765625 4.34375,-3.515625 c 0,0.15625 0.109375,0.34375 0.375,0.34375 0.21875,0 0.53125,-0.171875 0.53125,-0.578125 0,-0.515625 -0.578125,-0.65625 -0.921875,-0.65625 -0.578125,0 -0.921875,0.53125 -1.046875,0.75 -0.25,-0.65625 -0.78125,-0.75 -1.078125,-0.75 -1.03125,0 -1.609375,1.28125 -1.609375,1.53125 0,0.109375 0.109375,0.109375 0.125,0.109375 0.078125,0 0.109375,-0.03125 0.125,-0.109375 0.34375,-1.0625 1,-1.3125 1.34375,-1.3125 0.1875,0 0.53125,0.09375 0.53125,0.671875 0,0.3125 -0.171875,0.96875 -0.53125,2.375 -0.15625,0.609375 -0.515625,1.03125 -0.953125,1.03125 -0.0625,0 -0.28125,0 -0.5,-0.125 0.25,-0.0625 0.46875,-0.265625 0.46875,-0.546875 0,-0.265625 -0.21875,-0.34375 -0.359375,-0.34375 -0.3125,0 -0.546875,0.25 -0.546875,0.578125 0,0.453125 0.484375,0.65625 0.921875,0.65625 0.671875,0 1.03125,-0.703125 1.046875,-0.75 0.125,0.359375 0.484375,0.75 1.078125,0.75 1.03125,0 1.59375,-1.28125 1.59375,-1.53125 0,-0.109375 -0.078125,-0.109375 -0.109375,-0.109375 -0.09375,0 -0.109375,0.046875 -0.140625,0.109375 -0.328125,1.078125 -1,1.3125 -1.3125,1.3125 -0.390625,0 -0.546875,-0.3125 -0.546875,-0.65625 0,-0.21875 0.046875,-0.4375 0.15625,-0.875 z m 0,0"
             id="path6059" />
        </g>
      </g>
    </g>
    <g
       inkscape:label=""
       transform="translate(82.557467,47.968618)"
       id="g6699">
      <g
         fill="#000000"
         fill-opacity="1"
         id="g6697"
         transform="matrix(0.423333,0,0,0.423333,-39.0406,-32.8324)">
        <g
           id="g6695"
           transform="translate(91.925003,81.962997)">
          <path
             d="m 4.84375,-3.796875 c 0.046875,-0.140625 0.046875,-0.15625 0.046875,-0.234375 0,-0.171875 -0.140625,-0.265625 -0.296875,-0.265625 -0.09375,0 -0.25,0.0625 -0.34375,0.203125 -0.015625,0.0625 -0.109375,0.359375 -0.140625,0.546875 -0.078125,0.25 -0.140625,0.53125 -0.203125,0.796875 l -0.453125,1.796875 c -0.03125,0.140625 -0.46875,0.84375 -1.125,0.84375 -0.5,0 -0.609375,-0.4375 -0.609375,-0.8125 C 1.71875,-1.375 1.890625,-2 2.21875,-2.875 2.375,-3.28125 2.421875,-3.390625 2.421875,-3.59375 c 0,-0.4375 -0.3125,-0.8125 -0.8125,-0.8125 -0.953125,0 -1.3125,1.453125 -1.3125,1.53125 0,0.109375 0.09375,0.109375 0.109375,0.109375 0.109375,0 0.109375,-0.03125 0.15625,-0.1875 0.28125,-0.9375 0.671875,-1.234375 1.015625,-1.234375 0.078125,0 0.25,0 0.25,0.3125 0,0.25 -0.109375,0.515625 -0.171875,0.703125 -0.40625,1.0625 -0.578125,1.625 -0.578125,2.09375 0,0.890625 0.625,1.1875 1.21875,1.1875 0.390625,0 0.71875,-0.171875 1,-0.453125 -0.125,0.515625 -0.25,1.015625 -0.640625,1.546875 -0.265625,0.328125 -0.640625,0.625 -1.09375,0.625 -0.140625,0 -0.59375,-0.03125 -0.765625,-0.421875 0.15625,0 0.296875,0 0.421875,-0.125 C 1.328125,1.203125 1.421875,1.0625 1.421875,0.875 1.421875,0.5625 1.15625,0.53125 1.0625,0.53125 0.828125,0.53125 0.5,0.6875 0.5,1.171875 c 0,0.5 0.4375,0.875 1.0625,0.875 1.015625,0 2.046875,-0.90625 2.328125,-2.03125 z m 0,0"
             id="path6693" />
        </g>
      </g>
    </g>
    <g
       inkscape:label=""
       transform="translate(100.50846,74.41853)"
       id="g7341">
      <g
         fill="#000000"
         fill-opacity="1"
         id="g7339"
         transform="matrix(0.423333,0,0,0.423333,-39.12,-31.7674)">
        <g
           id="g7337"
           transform="translate(91.925003,81.962997)">
          <path
             d="m 4.359375,-6.671875 c 0,-0.03125 0.03125,-0.140625 0.03125,-0.140625 0,-0.015625 0,-0.109375 -0.125,-0.109375 -0.09375,0 -0.109375,0.03125 -0.15625,0.203125 L 3.53125,-4.421875 c -1.578125,0.0625 -3.046875,1.375 -3.046875,2.734375 0,0.953125 0.703125,1.734375 1.921875,1.8125 C 2.328125,0.421875 2.25,0.75 2.171875,1.0625 c -0.125,0.46875 -0.21875,0.84375 -0.21875,0.875 0,0.09375 0.078125,0.109375 0.125,0.109375 C 2.125,2.046875 2.140625,2.03125 2.171875,2 2.1875,1.984375 2.25,1.75 2.28125,1.609375 L 2.65625,0.125 c 1.609375,-0.0625 3.0625,-1.40625 3.0625,-2.734375 0,-0.796875 -0.53125,-1.703125 -1.921875,-1.8125 z m -1.90625,6.578125 c -0.59375,-0.03125 -1.3125,-0.390625 -1.3125,-1.375 0,-1.203125 0.859375,-2.59375 2.34375,-2.734375 z m 1.28125,-4.109375 c 0.765625,0.046875 1.328125,0.5 1.328125,1.375 0,1.1875 -0.859375,2.609375 -2.34375,2.734375 z m 0,0"
             id="path7335" />
        </g>
      </g>
    </g>
    <path
       style="fill:none;stroke:#000000;stroke-width:0.264583px;stroke-linecap:butt;stroke-linejoin:miter;stroke-opacity:1;marker-end:url(#Arrow5)"
       d="m 91.930037,94.282938 h 30.183083 l -7.10891,-7.108912"
       id="path8686" />
    <path
       style="fill:none;stroke:#000000;stroke-width:0.264583px;stroke-linecap:butt;stroke-linejoin:miter;stroke-opacity:1;marker-end:url(#marker8754)"
       d="M 85.337416,88.881755 H 69.451583 l 11.517229,-20.01615"
       id="path8750" />
    <g
       id="g8860"
       transform="translate(95.163183,0.63543337)">
      <text
         xml:space="preserve"
         style="font-size:4.23333px;line-height:1.25;font-family:'Iwona Light';-inkscape-font-specification:'Iwona Light, ';letter-spacing:0px;word-spacing:0px;stroke-width:0.264583"
         x="91.174858"
         y="92.388802"
         id="text8838"><tspan
           sodipodi:role="line"
           id="tspan8836"
           style="stroke-width:0.264583"
           x="91.174858"
           y="92.388802">Componentes de </tspan></text>
      <g
         inkscape:label=""
         transform="translate(120.66065,89.208571)"
         id="g8858">
        <g
           fill="#000000"
           fill-opacity="1"
           id="g8844"
           transform="matrix(0.423333,0,0,0.423333,-39.3008,-31.418)">
          <g
             id="g8842"
             transform="translate(93.031998,77.972)">
            <path
               d="m -0.046875,-2.6875 c -0.1875,0.03125 -0.203125,0.3125 -0.015625,0.375 0.09375,0.03125 0.1875,0.015625 0.28125,0.015625 h 2.953125 c 0.09375,0 0.1875,0 0.265625,-0.0625 C 3.546875,-2.4375 3.515625,-2.625 3.390625,-2.6875 3.3125,-2.71875 3.25,-2.703125 3.1875,-2.703125 H 0.28125 c -0.109375,0 -0.21875,-0.015625 -0.328125,0.015625 z m 0,0"
               id="path8840" />
          </g>
        </g>
        <g
           fill="#000000"
           fill-opacity="1"
           id="g8850"
           transform="matrix(0.423333,0,0,0.423333,-39.3008,-31.418)">
          <g
             id="g8848"
             transform="translate(94.688782,77.972)">
            <path
               d="M 3.828125,-2.703125 H 0.40625 c -0.078125,0 -0.171875,-0.015625 -0.25,0.015625 C 0.0625,-2.6875 0,-2.59375 0,-2.5 c 0,0.09375 0.0625,0.171875 0.15625,0.1875 0.078125,0.015625 0.171875,0.015625 0.25,0.015625 h 3.421875 c -0.15625,0.25 -0.3125,0.484375 -0.46875,0.734375 C 3.3125,-1.5 3.203125,-1.375 3.265625,-1.28125 3.296875,-1.25 3.34375,-1.25 3.390625,-1.265625 3.484375,-1.296875 3.5625,-1.359375 3.65625,-1.40625 4.046875,-1.625 4.4375,-1.828125 4.828125,-2.046875 5,-2.15625 5.1875,-2.25 5.359375,-2.359375 5.421875,-2.375 5.515625,-2.421875 5.515625,-2.5 c 0,-0.078125 -0.09375,-0.125 -0.15625,-0.15625 C 5.1875,-2.75 5,-2.84375 4.828125,-2.953125 4.4375,-3.171875 4.046875,-3.375 3.65625,-3.59375 3.5625,-3.65625 3.484375,-3.703125 3.390625,-3.734375 c -0.046875,-0.03125 -0.09375,-0.03125 -0.125,0.015625 -0.0625,0.09375 0.046875,0.203125 0.09375,0.28125 0.15625,0.25 0.3125,0.484375 0.46875,0.734375 z m 0,0"
               id="path8846" />
          </g>
        </g>
        <g
           fill="#000000"
           fill-opacity="1"
           id="g8856"
           transform="matrix(0.423333,0,0,0.423333,-39.3008,-31.418)">
          <g
             id="g8854"
             transform="translate(93.443001,81.962997)">
            <path
               d="M 3.71875,-3.765625 C 3.53125,-4.140625 3.25,-4.40625 2.796875,-4.40625 c -1.15625,0 -2.390625,1.46875 -2.390625,2.921875 0,0.9375 0.546875,1.59375 1.3125,1.59375 0.203125,0 0.703125,-0.046875 1.296875,-0.75 0.078125,0.421875 0.4375,0.75 0.90625,0.75 0.359375,0 0.578125,-0.234375 0.75,-0.546875 0.15625,-0.359375 0.296875,-0.96875 0.296875,-0.984375 0,-0.109375 -0.09375,-0.109375 -0.125,-0.109375 -0.09375,0 -0.109375,0.046875 -0.140625,0.1875 -0.171875,0.640625 -0.34375,1.234375 -0.75,1.234375 -0.28125,0 -0.296875,-0.265625 -0.296875,-0.453125 0,-0.21875 0.015625,-0.3125 0.125,-0.75 C 3.890625,-1.71875 3.90625,-1.828125 4,-2.203125 L 4.359375,-3.59375 c 0.0625,-0.28125 0.0625,-0.296875 0.0625,-0.34375 0,-0.171875 -0.109375,-0.265625 -0.28125,-0.265625 -0.25,0 -0.390625,0.21875 -0.421875,0.4375 z M 3.078125,-1.1875 C 3.015625,-1 3.015625,-0.984375 2.875,-0.8125 2.4375,-0.265625 2.03125,-0.109375 1.75,-0.109375 c -0.5,0 -0.640625,-0.546875 -0.640625,-0.9375 0,-0.5 0.3125,-1.71875 0.546875,-2.1875 0.3125,-0.578125 0.75,-0.953125 1.15625,-0.953125 0.640625,0 0.78125,0.8125 0.78125,0.875 0,0.0625 -0.015625,0.125 -0.03125,0.171875 z m 0,0"
               id="path8852" />
          </g>
        </g>
      </g>
    </g>
    <path
       style="fill:none;stroke:#000000;stroke-width:0.264583px;stroke-linecap:butt;stroke-linejoin:miter;stroke-opacity:1;marker-end:url(#Arrow5)"
       d="m 205.07112,80.553162 c 1.92654,-2.394046 1.71444,-4.901344 -0.71855,-5.809628"
       id="path8862"
       sodipodi:nodetypes="cc" />
    <path
       style="fill:none;stroke:#000000;stroke-width:0.3;stroke-linecap:round;stroke-linejoin:miter;stroke-dasharray:none;stroke-opacity:1;marker-end:url(#TriangleStart)"
       d="m 188.79205,80.755881 h 49.53744"
       id="path8864" />
    <path
       style="fill:none;stroke:#000000;stroke-width:0.3;stroke-linecap:round;stroke-linejoin:miter;stroke-dasharray:none;stroke-opacity:1;marker-end:url(#TriangleStart)"
       d="M 192.45463,84.612324 V 48.961627"
       id="path8866" />
    <path
       style="opacity:0.604982;fill:none;stroke:#000000;stroke-width:0.165001;stroke-linecap:butt;stroke-linejoin:miter;stroke-dasharray:0.66, 0.66;stroke-dashoffset:0;stroke-opacity:1"
       d="M 230.09258,57.858893 V 80.603697"
       id="path8868" />
    <path
       style="opacity:0.608541;fill:none;stroke:#000000;stroke-width:0.165001;stroke-linecap:butt;stroke-linejoin:miter;stroke-dasharray:0.66, 0.66;stroke-dashoffset:0;stroke-opacity:1"
       d="m 192.41371,57.858892 h 37.74598"
       id="path8870" />
    <path
       style="fill:none;stroke:#010fff;stroke-width:0.5;stroke-linecap:round;stroke-linejoin:miter;stroke-dasharray:none;stroke-opacity:1;marker-end:url(#marker1437)"
       d="M 192.54624,80.669045 227.67685,59.375212"
       id="path8872"
       sodipodi:nodetypes="cc" />
    <path
       style="fill:none;stroke:#ff0117;stroke-width:0.5;stroke-linecap:round;stroke-linejoin:miter;stroke-dasharray:none;stroke-opacity:1;marker-end:url(#marker1437)"
       d="m 192.54624,80.669045 34.96285,0.08629"
       id="path8874"
       sodipodi:nodetypes="cc" />
    <path
       style="fill:none;stroke:#ff0117;stroke-width:0.5;stroke-linecap:round;stroke-linejoin:miter;stroke-dasharray:none;stroke-opacity:1;marker-end:url(#marker1437)"
       d="m 192.54624,80.669045 -0.0695,-19.715081"
       id="path8876"
       sodipodi:nodetypes="cc" />
    <g
       inkscape:label=""
       transform="translate(215.91633,59.946657)"
       id="g8896">
      <g
         fill="#000000"
         fill-opacity="1"
         id="g8882"
         transform="matrix(0.423333,0,0,0.423333,-39.3008,-31.418)">
        <g
           id="g8880"
           transform="translate(93.031998,77.972)">
          <path
             d="m -0.046875,-2.6875 c -0.1875,0.03125 -0.203125,0.3125 -0.015625,0.375 0.09375,0.03125 0.1875,0.015625 0.28125,0.015625 h 2.953125 c 0.09375,0 0.1875,0 0.265625,-0.0625 C 3.546875,-2.4375 3.515625,-2.625 3.390625,-2.6875 3.3125,-2.71875 3.25,-2.703125 3.1875,-2.703125 H 0.28125 c -0.109375,0 -0.21875,-0.015625 -0.328125,0.015625 z m 0,0"
             id="path8878" />
        </g>
      </g>
      <g
         fill="#000000"
         fill-opacity="1"
         id="g8888"
         transform="matrix(0.423333,0,0,0.423333,-39.3008,-31.418)">
        <g
           id="g8886"
           transform="translate(94.688782,77.972)">
          <path
             d="M 3.828125,-2.703125 H 0.40625 c -0.078125,0 -0.171875,-0.015625 -0.25,0.015625 C 0.0625,-2.6875 0,-2.59375 0,-2.5 c 0,0.09375 0.0625,0.171875 0.15625,0.1875 0.078125,0.015625 0.171875,0.015625 0.25,0.015625 h 3.421875 c -0.15625,0.25 -0.3125,0.484375 -0.46875,0.734375 C 3.3125,-1.5 3.203125,-1.375 3.265625,-1.28125 3.296875,-1.25 3.34375,-1.25 3.390625,-1.265625 3.484375,-1.296875 3.5625,-1.359375 3.65625,-1.40625 4.046875,-1.625 4.4375,-1.828125 4.828125,-2.046875 5,-2.15625 5.1875,-2.25 5.359375,-2.359375 5.421875,-2.375 5.515625,-2.421875 5.515625,-2.5 c 0,-0.078125 -0.09375,-0.125 -0.15625,-0.15625 C 5.1875,-2.75 5,-2.84375 4.828125,-2.953125 4.4375,-3.171875 4.046875,-3.375 3.65625,-3.59375 3.5625,-3.65625 3.484375,-3.703125 3.390625,-3.734375 c -0.046875,-0.03125 -0.09375,-0.03125 -0.125,0.015625 -0.0625,0.09375 0.046875,0.203125 0.09375,0.28125 0.15625,0.25 0.3125,0.484375 0.46875,0.734375 z m 0,0"
             id="path8884" />
        </g>
      </g>
      <g
         fill="#000000"
         fill-opacity="1"
         id="g8894"
         transform="matrix(0.423333,0,0,0.423333,-39.3008,-31.418)">
        <g
           id="g8892"
           transform="translate(93.443001,81.962997)">
          <path
             d="M 3.71875,-3.765625 C 3.53125,-4.140625 3.25,-4.40625 2.796875,-4.40625 c -1.15625,0 -2.390625,1.46875 -2.390625,2.921875 0,0.9375 0.546875,1.59375 1.3125,1.59375 0.203125,0 0.703125,-0.046875 1.296875,-0.75 0.078125,0.421875 0.4375,0.75 0.90625,0.75 0.359375,0 0.578125,-0.234375 0.75,-0.546875 0.15625,-0.359375 0.296875,-0.96875 0.296875,-0.984375 0,-0.109375 -0.09375,-0.109375 -0.125,-0.109375 -0.09375,0 -0.109375,0.046875 -0.140625,0.1875 -0.171875,0.640625 -0.34375,1.234375 -0.75,1.234375 -0.28125,0 -0.296875,-0.265625 -0.296875,-0.453125 0,-0.21875 0.015625,-0.3125 0.125,-0.75 C 3.890625,-1.71875 3.90625,-1.828125 4,-2.203125 L 4.359375,-3.59375 c 0.0625,-0.28125 0.0625,-0.296875 0.0625,-0.34375 0,-0.171875 -0.109375,-0.265625 -0.28125,-0.265625 -0.25,0 -0.390625,0.21875 -0.421875,0.4375 z M 3.078125,-1.1875 C 3.015625,-1 3.015625,-0.984375 2.875,-0.8125 2.4375,-0.265625 2.03125,-0.109375 1.75,-0.109375 c -0.5,0 -0.640625,-0.546875 -0.640625,-0.9375 0,-0.5 0.3125,-1.71875 0.546875,-2.1875 0.3125,-0.578125 0.75,-0.953125 1.15625,-0.953125 0.640625,0 0.78125,0.8125 0.78125,0.875 0,0.0625 -0.015625,0.125 -0.03125,0.171875 z m 0,0"
             id="path8890" />
        </g>
      </g>
    </g>
    <g
       inkscape:label=""
       transform="translate(187.72873,82.04373)"
       id="g8956">
      <g
         fill="#000000"
         fill-opacity="1"
         id="g8954"
         transform="matrix(0.423333,0,0,0.423333,-39.12,-31.7211)">
        <g
           id="g8952"
           transform="translate(91.925003,81.962997)">
          <path
             d="m 7.375,-4.34375 c 0,-1.609375 -1.0625,-2.6875 -2.546875,-2.6875 -2.140625,0 -4.34375,2.265625 -4.34375,4.59375 0,1.65625 1.125,2.65625 2.5625,2.65625 2.109375,0 4.328125,-2.1875 4.328125,-4.5625 z m -4.28125,4.296875 c -0.984375,0 -1.671875,-0.796875 -1.671875,-2.109375 0,-0.453125 0.140625,-1.90625 0.90625,-3.0625 0.6875,-1.046875 1.65625,-1.5625 2.453125,-1.5625 0.8125,0 1.703125,0.5625 1.703125,2.046875 0,0.71875 -0.265625,2.265625 -1.25,3.5 C 4.75,-0.625 3.9375,-0.046875 3.09375,-0.046875 Z m 0,0"
             id="path8950" />
        </g>
      </g>
    </g>
    <g
       inkscape:label=""
       transform="translate(236.18052,82.282018)"
       id="g8964">
      <g
         fill="#000000"
         fill-opacity="1"
         id="g8962"
         transform="matrix(0.423333,0,0,0.423333,-39.0406,-32.8324)">
        <g
           id="g8960"
           transform="translate(91.925003,81.962997)">
          <path
             d="M 3.328125,-3.015625 C 3.390625,-3.265625 3.625,-4.1875 4.3125,-4.1875 c 0.046875,0 0.296875,0 0.5,0.125 C 4.53125,-4 4.34375,-3.765625 4.34375,-3.515625 c 0,0.15625 0.109375,0.34375 0.375,0.34375 0.21875,0 0.53125,-0.171875 0.53125,-0.578125 0,-0.515625 -0.578125,-0.65625 -0.921875,-0.65625 -0.578125,0 -0.921875,0.53125 -1.046875,0.75 -0.25,-0.65625 -0.78125,-0.75 -1.078125,-0.75 -1.03125,0 -1.609375,1.28125 -1.609375,1.53125 0,0.109375 0.109375,0.109375 0.125,0.109375 0.078125,0 0.109375,-0.03125 0.125,-0.109375 0.34375,-1.0625 1,-1.3125 1.34375,-1.3125 0.1875,0 0.53125,0.09375 0.53125,0.671875 0,0.3125 -0.171875,0.96875 -0.53125,2.375 -0.15625,0.609375 -0.515625,1.03125 -0.953125,1.03125 -0.0625,0 -0.28125,0 -0.5,-0.125 0.25,-0.0625 0.46875,-0.265625 0.46875,-0.546875 0,-0.265625 -0.21875,-0.34375 -0.359375,-0.34375 -0.3125,0 -0.546875,0.25 -0.546875,0.578125 0,0.453125 0.484375,0.65625 0.921875,0.65625 0.671875,0 1.03125,-0.703125 1.046875,-0.75 0.125,0.359375 0.484375,0.75 1.078125,0.75 1.03125,0 1.59375,-1.28125 1.59375,-1.53125 0,-0.109375 -0.078125,-0.109375 -0.109375,-0.109375 -0.09375,0 -0.109375,0.046875 -0.140625,0.109375 -0.328125,1.078125 -1,1.3125 -1.3125,1.3125 -0.390625,0 -0.546875,-0.3125 -0.546875,-0.65625 0,-0.21875 0.046875,-0.4375 0.15625,-0.875 z m 0,0"
             id="path8958" />
        </g>
      </g>
    </g>
    <g
       inkscape:label=""
       transform="translate(189.15845,47.968618)"
       id="g8972">
      <g
         fill="#000000"
         fill-opacity="1"
         id="g8970"
         transform="matrix(0.423333,0,0,0.423333,-39.0406,-32.8324)">
        <g
           id="g8968"
           transform="translate(91.925003,81.962997)">
          <path
             d="m 4.84375,-3.796875 c 0.046875,-0.140625 0.046875,-0.15625 0.046875,-0.234375 0,-0.171875 -0.140625,-0.265625 -0.296875,-0.265625 -0.09375,0 -0.25,0.0625 -0.34375,0.203125 -0.015625,0.0625 -0.109375,0.359375 -0.140625,0.546875 -0.078125,0.25 -0.140625,0.53125 -0.203125,0.796875 l -0.453125,1.796875 c -0.03125,0.140625 -0.46875,0.84375 -1.125,0.84375 -0.5,0 -0.609375,-0.4375 -0.609375,-0.8125 C 1.71875,-1.375 1.890625,-2 2.21875,-2.875 2.375,-3.28125 2.421875,-3.390625 2.421875,-3.59375 c 0,-0.4375 -0.3125,-0.8125 -0.8125,-0.8125 -0.953125,0 -1.3125,1.453125 -1.3125,1.53125 0,0.109375 0.09375,0.109375 0.109375,0.109375 0.109375,0 0.109375,-0.03125 0.15625,-0.1875 0.28125,-0.9375 0.671875,-1.234375 1.015625,-1.234375 0.078125,0 0.25,0 0.25,0.3125 0,0.25 -0.109375,0.515625 -0.171875,0.703125 -0.40625,1.0625 -0.578125,1.625 -0.578125,2.09375 0,0.890625 0.625,1.1875 1.21875,1.1875 0.390625,0 0.71875,-0.171875 1,-0.453125 -0.125,0.515625 -0.25,1.015625 -0.640625,1.546875 -0.265625,0.328125 -0.640625,0.625 -1.09375,0.625 -0.140625,0 -0.59375,-0.03125 -0.765625,-0.421875 0.15625,0 0.296875,0 0.421875,-0.125 C 1.328125,1.203125 1.421875,1.0625 1.421875,0.875 1.421875,0.5625 1.15625,0.53125 1.0625,0.53125 0.828125,0.53125 0.5,0.6875 0.5,1.171875 c 0,0.5 0.4375,0.875 1.0625,0.875 1.015625,0 2.046875,-0.90625 2.328125,-2.03125 z m 0,0"
             id="path8966" />
        </g>
      </g>
    </g>
    <g
       inkscape:label=""
       transform="translate(209.01906,74.924014)"
       id="g8980">
      <g
         fill="#000000"
         fill-opacity="1"
         id="g8978"
         transform="matrix(0.423333,0,0,0.423333,-39.12,-31.7674)">
        <g
           id="g8976"
           transform="translate(91.925003,81.962997)">
          <path
             d="m 4.359375,-6.671875 c 0,-0.03125 0.03125,-0.140625 0.03125,-0.140625 0,-0.015625 0,-0.109375 -0.125,-0.109375 -0.09375,0 -0.109375,0.03125 -0.15625,0.203125 L 3.53125,-4.421875 c -1.578125,0.0625 -3.046875,1.375 -3.046875,2.734375 0,0.953125 0.703125,1.734375 1.921875,1.8125 C 2.328125,0.421875 2.25,0.75 2.171875,1.0625 c -0.125,0.46875 -0.21875,0.84375 -0.21875,0.875 0,0.09375 0.078125,0.109375 0.125,0.109375 C 2.125,2.046875 2.140625,2.03125 2.171875,2 2.1875,1.984375 2.25,1.75 2.28125,1.609375 L 2.65625,0.125 c 1.609375,-0.0625 3.0625,-1.40625 3.0625,-2.734375 0,-0.796875 -0.53125,-1.703125 -1.921875,-1.8125 z m -1.90625,6.578125 c -0.59375,-0.03125 -1.3125,-0.390625 -1.3125,-1.375 0,-1.203125 0.859375,-2.59375 2.34375,-2.734375 z m 1.28125,-4.109375 c 0.765625,0.046875 1.328125,0.5 1.328125,1.375 0,1.1875 -0.859375,2.609375 -2.34375,2.734375 z m 0,0"
             id="path8974" />
        </g>
      </g>
    </g>
    <path
       style="fill:none;stroke:#000000;stroke-width:0.264583px;stroke-linecap:butt;stroke-linejoin:miter;stroke-opacity:1;marker-end:url(#Arrow5)"
       d="m 211.0736,94.226773 h 21.81132 l -9.06868,-7.221242"
       id="path8982"
       sodipodi:nodetypes="ccc" />
    <path
       style="fill:none;stroke:#000000;stroke-width:0.264583px;stroke-linecap:butt;stroke-linejoin:miter;stroke-opacity:1;marker-end:url(#marker8754)"
       d="m 191.9384,88.881755 h -15.88583 l 4.66511,-20.01615"
       id="path8984"
       sodipodi:nodetypes="ccc" />
    <g
       inkscape:label=""
       transform="translate(205.48467,81.763768)"
       id="g9725">
      <g
         fill="#000000"
         fill-opacity="1"
         id="g29"
         transform="matrix(0.423333,0,0,0.423333,-39.0869,-31.7674)">
        <g
           id="use27"
           transform="translate(91.925003,81.962997)">
          <path
             d="M 3.71875,-3.765625 C 3.53125,-4.140625 3.25,-4.40625 2.796875,-4.40625 c -1.15625,0 -2.390625,1.46875 -2.390625,2.921875 0,0.9375 0.546875,1.59375 1.3125,1.59375 0.203125,0 0.703125,-0.046875 1.296875,-0.75 0.078125,0.421875 0.4375,0.75 0.90625,0.75 0.359375,0 0.578125,-0.234375 0.75,-0.546875 0.15625,-0.359375 0.296875,-0.96875 0.296875,-0.984375 0,-0.109375 -0.09375,-0.109375 -0.125,-0.109375 -0.09375,0 -0.109375,0.046875 -0.140625,0.1875 -0.171875,0.640625 -0.34375,1.234375 -0.75,1.234375 -0.28125,0 -0.296875,-0.265625 -0.296875,-0.453125 0,-0.21875 0.015625,-0.3125 0.125,-0.75 C 3.890625,-1.71875 3.90625,-1.828125 4,-2.203125 L 4.359375,-3.59375 c 0.0625,-0.28125 0.0625,-0.296875 0.0625,-0.34375 0,-0.171875 -0.109375,-0.265625 -0.28125,-0.265625 -0.25,0 -0.390625,0.21875 -0.421875,0.4375 z M 3.078125,-1.1875 C 3.015625,-1 3.015625,-0.984375 2.875,-0.8125 2.4375,-0.265625 2.03125,-0.109375 1.75,-0.109375 c -0.5,0 -0.640625,-0.546875 -0.640625,-0.9375 0,-0.5 0.3125,-1.71875 0.546875,-2.1875 0.3125,-0.578125 0.75,-0.953125 1.15625,-0.953125 0.640625,0 0.78125,0.8125 0.78125,0.875 0,0.0625 -0.015625,0.125 -0.03125,0.171875 z m 0,0"
             id="path59" />
        </g>
      </g>
      <g
         fill="#000000"
         fill-opacity="1"
         id="g33"
         transform="matrix(0.423333,0,0,0.423333,-39.0869,-31.7674)">
        <g
           id="use31"
           transform="translate(97.191002,83.457001)">
          <path
             d="M 1.734375,-0.734375 C 1.671875,-0.5 1.4375,-0.125 1.078125,-0.125 c -0.015625,0 -0.234375,0 -0.375,-0.09375 0.28125,-0.09375 0.3125,-0.34375 0.3125,-0.390625 0,-0.15625 -0.125,-0.25 -0.28125,-0.25 -0.203125,0 -0.40625,0.15625 -0.40625,0.421875 0,0.34375 0.390625,0.5 0.734375,0.5 0.328125,0 0.609375,-0.1875 0.78125,-0.484375 C 2.015625,-0.0625 2.390625,0.0625 2.671875,0.0625 c 0.8125,0 1.234375,-0.859375 1.234375,-1.0625 0,-0.09375 -0.09375,-0.09375 -0.109375,-0.09375 -0.109375,0 -0.109375,0.046875 -0.140625,0.125 -0.140625,0.484375 -0.5625,0.84375 -0.953125,0.84375 -0.28125,0 -0.421875,-0.1875 -0.421875,-0.453125 0,-0.1875 0.171875,-0.8125 0.359375,-1.59375 C 2.78125,-2.703125 3.09375,-2.875 3.328125,-2.875 c 0.015625,0 0.21875,0 0.375,0.09375 -0.21875,0.0625 -0.3125,0.265625 -0.3125,0.390625 0,0.140625 0.125,0.25 0.28125,0.25 0.15625,0 0.390625,-0.125 0.390625,-0.421875 0,-0.390625 -0.453125,-0.515625 -0.71875,-0.515625 -0.359375,0 -0.640625,0.234375 -0.78125,0.5 -0.125,-0.28125 -0.453125,-0.5 -0.84375,-0.5 C 0.9375,-3.078125 0.5,-2.21875 0.5,-2 c 0,0.078125 0.09375,0.078125 0.109375,0.078125 0.09375,0 0.09375,-0.015625 0.140625,-0.109375 C 0.921875,-2.578125 1.359375,-2.875 1.703125,-2.875 1.9375,-2.875 2.125,-2.75 2.125,-2.421875 2.125,-2.28125 2.03125,-1.9375 1.96875,-1.6875 Z m 0,0"
             id="path63" />
        </g>
      </g>
      <g
         fill="#000000"
         fill-opacity="1"
         id="g37"
         transform="matrix(0.423333,0,0,0.423333,-39.0869,-31.7674)">
        <g
           id="use35"
           transform="translate(104.975,81.962997)">
          <path
             d="m 6.84375,-3.265625 c 0.15625,0 0.34375,0 0.34375,-0.1875 C 7.1875,-3.65625 7,-3.65625 6.859375,-3.65625 h -5.96875 c -0.140625,0 -0.328125,0 -0.328125,0.203125 0,0.1875 0.1875,0.1875 0.328125,0.1875 z m 0.015625,1.9375 c 0.140625,0 0.328125,0 0.328125,-0.203125 0,-0.1875 -0.1875,-0.1875 -0.34375,-0.1875 H 0.890625 c -0.140625,0 -0.328125,0 -0.328125,0.1875 0,0.203125 0.1875,0.203125 0.328125,0.203125 z m 0,0"
             id="path67" />
        </g>
      </g>
      <g
         fill="#000000"
         fill-opacity="1"
         id="g41"
         transform="matrix(0.423333,0,0,0.423333,-39.0869,-31.7674)">
        <g
           id="use39"
           transform="translate(115.491,81.962997)">
          <path
             d="M 3.71875,-3.765625 C 3.53125,-4.140625 3.25,-4.40625 2.796875,-4.40625 c -1.15625,0 -2.390625,1.46875 -2.390625,2.921875 0,0.9375 0.546875,1.59375 1.3125,1.59375 0.203125,0 0.703125,-0.046875 1.296875,-0.75 0.078125,0.421875 0.4375,0.75 0.90625,0.75 0.359375,0 0.578125,-0.234375 0.75,-0.546875 0.15625,-0.359375 0.296875,-0.96875 0.296875,-0.984375 0,-0.109375 -0.09375,-0.109375 -0.125,-0.109375 -0.09375,0 -0.109375,0.046875 -0.140625,0.1875 -0.171875,0.640625 -0.34375,1.234375 -0.75,1.234375 -0.28125,0 -0.296875,-0.265625 -0.296875,-0.453125 0,-0.21875 0.015625,-0.3125 0.125,-0.75 C 3.890625,-1.71875 3.90625,-1.828125 4,-2.203125 L 4.359375,-3.59375 c 0.0625,-0.28125 0.0625,-0.296875 0.0625,-0.34375 0,-0.171875 -0.109375,-0.265625 -0.28125,-0.265625 -0.25,0 -0.390625,0.21875 -0.421875,0.4375 z M 3.078125,-1.1875 C 3.015625,-1 3.015625,-0.984375 2.875,-0.8125 2.4375,-0.265625 2.03125,-0.109375 1.75,-0.109375 c -0.5,0 -0.640625,-0.546875 -0.640625,-0.9375 0,-0.5 0.3125,-1.71875 0.546875,-2.1875 0.3125,-0.578125 0.75,-0.953125 1.15625,-0.953125 0.640625,0 0.78125,0.8125 0.78125,0.875 0,0.0625 -0.015625,0.125 -0.03125,0.171875 z m 0,0"
             id="path71" />
        </g>
      </g>
      <g
         fill="#000000"
         fill-opacity="1"
         id="g49"
         transform="matrix(0.423333,0,0,0.423333,-39.0869,-31.7674)">
        <g
           id="use43"
           transform="translate(122.417,81.962997)">
          <path
             d="m 1.171875,-2.171875 c 0,-1.625 0.8125,-2.046875 1.34375,-2.046875 0.09375,0 0.71875,0.015625 1.0625,0.375 -0.40625,0.03125 -0.46875,0.328125 -0.46875,0.453125 0,0.265625 0.1875,0.453125 0.453125,0.453125 0.265625,0 0.46875,-0.15625 0.46875,-0.46875 0,-0.671875 -0.765625,-1.0625 -1.53125,-1.0625 -1.25,0 -2.15625,1.078125 -2.15625,2.3125 0,1.28125 0.984375,2.265625 2.140625,2.265625 1.328125,0 1.65625,-1.203125 1.65625,-1.296875 0,-0.09375 -0.109375,-0.09375 -0.140625,-0.09375 -0.078125,0 -0.109375,0.03125 -0.125,0.09375 -0.28125,0.921875 -0.9375,1.046875 -1.296875,1.046875 -0.53125,0 -1.40625,-0.421875 -1.40625,-2.03125 z m 0,0"
             id="path75" />
        </g>
        <g
           id="use45"
           transform="translate(126.84438,81.962997)">
          <path
             d="M 4.6875,-2.140625 C 4.6875,-3.40625 3.703125,-4.46875 2.5,-4.46875 c -1.25,0 -2.21875,1.09375 -2.21875,2.328125 0,1.296875 1.03125,2.25 2.203125,2.25 1.203125,0 2.203125,-0.984375 2.203125,-2.25 z m -2.1875,2 c -0.4375,0 -0.875,-0.203125 -1.140625,-0.671875 -0.25,-0.4375 -0.25,-1.046875 -0.25,-1.40625 0,-0.390625 0,-0.921875 0.234375,-1.359375 C 1.609375,-4.03125 2.078125,-4.25 2.484375,-4.25 c 0.4375,0 0.859375,0.21875 1.125,0.65625 0.265625,0.421875 0.265625,1 0.265625,1.375 0,0.359375 0,0.90625 -0.21875,1.34375 C 3.421875,-0.421875 2.984375,-0.140625 2.5,-0.140625 Z m 0,0"
             id="path79" />
        </g>
        <g
           id="use47"
           transform="translate(131.82568,81.962997)">
          <path
             d="m 2.078125,-1.9375 c 0.21875,0.046875 1.03125,0.203125 1.03125,0.921875 0,0.5 -0.34375,0.90625 -1.125,0.90625 -0.84375,0 -1.203125,-0.5625 -1.390625,-1.421875 C 0.5625,-1.65625 0.5625,-1.6875 0.453125,-1.6875 c -0.125,0 -0.125,0.0625 -0.125,0.234375 V -0.125 c 0,0.171875 0,0.234375 0.109375,0.234375 0.046875,0 0.0625,-0.015625 0.25,-0.203125 0.015625,-0.015625 0.015625,-0.03125 0.203125,-0.21875 0.4375,0.40625 0.890625,0.421875 1.09375,0.421875 1.140625,0 1.609375,-0.671875 1.609375,-1.390625 0,-0.515625 -0.296875,-0.828125 -0.421875,-0.9375 C 2.84375,-2.546875 2.453125,-2.625 2.03125,-2.703125 1.46875,-2.8125 0.8125,-2.9375 0.8125,-3.515625 c 0,-0.359375 0.25,-0.765625 1.109375,-0.765625 1.09375,0 1.15625,0.90625 1.171875,1.203125 0,0.09375 0.09375,0.09375 0.109375,0.09375 0.140625,0 0.140625,-0.046875 0.140625,-0.234375 v -1.015625 c 0,-0.15625 0,-0.234375 -0.109375,-0.234375 -0.046875,0 -0.078125,0 -0.203125,0.125 -0.03125,0.03125 -0.125,0.125 -0.171875,0.15625 -0.375,-0.28125 -0.78125,-0.28125 -0.9375,-0.28125 -1.21875,0 -1.59375,0.671875 -1.59375,1.234375 0,0.34375 0.15625,0.625 0.421875,0.84375 0.328125,0.25 0.609375,0.3125 1.328125,0.453125 z m 0,0"
             id="path83" />
        </g>
      </g>
      <g
         fill="#000000"
         fill-opacity="1"
         id="g53"
         transform="matrix(0.423333,0,0,0.423333,-39.0869,-31.7674)">
        <g
           id="use51"
           transform="translate(137.41701,81.962997)">
          <path
             d="m 4.359375,-6.671875 c 0,-0.03125 0.03125,-0.140625 0.03125,-0.140625 0,-0.015625 0,-0.109375 -0.125,-0.109375 -0.09375,0 -0.109375,0.03125 -0.15625,0.203125 L 3.53125,-4.421875 c -1.578125,0.0625 -3.046875,1.375 -3.046875,2.734375 0,0.953125 0.703125,1.734375 1.921875,1.8125 C 2.328125,0.421875 2.25,0.75 2.171875,1.0625 c -0.125,0.46875 -0.21875,0.84375 -0.21875,0.875 0,0.09375 0.078125,0.109375 0.125,0.109375 C 2.125,2.046875 2.140625,2.03125 2.171875,2 2.1875,1.984375 2.25,1.75 2.28125,1.609375 L 2.65625,0.125 c 1.609375,-0.0625 3.0625,-1.40625 3.0625,-2.734375 0,-0.796875 -0.53125,-1.703125 -1.921875,-1.8125 z m -1.90625,6.578125 c -0.59375,-0.03125 -1.3125,-0.390625 -1.3125,-1.375 0,-1.203125 0.859375,-2.59375 2.34375,-2.734375 z m 1.28125,-4.109375 c 0.765625,0.046875 1.328125,0.5 1.328125,1.375 0,1.1875 -0.859375,2.609375 -2.34375,2.734375 z m 0,0"
             id="path87" />
        </g>
      </g>
    </g>
    <g
       inkscape:label=""
       transform="translate(169.244,62.780004)"
       id="g11312">
      <g
         fill="#000000"
         fill-opacity="1"
         id="g11272"
         transform="matrix(0.423333,0,0,0.423333,-39.0869,-31.7674)">
        <g
           id="g11270"
           transform="translate(91.925003,81.962997)">
          <path
             d="M 3.71875,-3.765625 C 3.53125,-4.140625 3.25,-4.40625 2.796875,-4.40625 c -1.15625,0 -2.390625,1.46875 -2.390625,2.921875 0,0.9375 0.546875,1.59375 1.3125,1.59375 0.203125,0 0.703125,-0.046875 1.296875,-0.75 0.078125,0.421875 0.4375,0.75 0.90625,0.75 0.359375,0 0.578125,-0.234375 0.75,-0.546875 0.15625,-0.359375 0.296875,-0.96875 0.296875,-0.984375 0,-0.109375 -0.09375,-0.109375 -0.125,-0.109375 -0.09375,0 -0.109375,0.046875 -0.140625,0.1875 -0.171875,0.640625 -0.34375,1.234375 -0.75,1.234375 -0.28125,0 -0.296875,-0.265625 -0.296875,-0.453125 0,-0.21875 0.015625,-0.3125 0.125,-0.75 C 3.890625,-1.71875 3.90625,-1.828125 4,-2.203125 L 4.359375,-3.59375 c 0.0625,-0.28125 0.0625,-0.296875 0.0625,-0.34375 0,-0.171875 -0.109375,-0.265625 -0.28125,-0.265625 -0.25,0 -0.390625,0.21875 -0.421875,0.4375 z M 3.078125,-1.1875 C 3.015625,-1 3.015625,-0.984375 2.875,-0.8125 2.4375,-0.265625 2.03125,-0.109375 1.75,-0.109375 c -0.5,0 -0.640625,-0.546875 -0.640625,-0.9375 0,-0.5 0.3125,-1.71875 0.546875,-2.1875 0.3125,-0.578125 0.75,-0.953125 1.15625,-0.953125 0.640625,0 0.78125,0.8125 0.78125,0.875 0,0.0625 -0.015625,0.125 -0.03125,0.171875 z m 0,0"
             id="path11268" />
        </g>
      </g>
      <g
         fill="#000000"
         fill-opacity="1"
         id="g11278"
         transform="matrix(0.423333,0,0,0.423333,-39.0869,-31.7674)">
        <g
           id="g11276"
           transform="translate(97.191002,83.457001)">
          <path
             d="M 3.875,-2.625 C 3.90625,-2.71875 3.90625,-2.734375 3.90625,-2.78125 3.90625,-2.921875 3.796875,-3 3.671875,-3 3.59375,-3 3.46875,-2.96875 3.390625,-2.84375 3.359375,-2.796875 3.3125,-2.578125 3.28125,-2.4375 L 3.125,-1.859375 c -0.03125,0.171875 -0.25,1.046875 -0.28125,1.125 0,0 -0.3125,0.609375 -0.84375,0.609375 -0.484375,0 -0.484375,-0.453125 -0.484375,-0.578125 0,-0.375 0.15625,-0.8125 0.375,-1.359375 C 1.96875,-2.28125 2,-2.359375 2,-2.484375 2,-2.8125 1.71875,-3.078125 1.34375,-3.078125 0.640625,-3.078125 0.328125,-2.125 0.328125,-2 c 0,0.078125 0.09375,0.078125 0.125,0.078125 0.09375,0 0.09375,-0.03125 0.125,-0.109375 C 0.75,-2.609375 1.046875,-2.875 1.328125,-2.875 1.4375,-2.875 1.5,-2.796875 1.5,-2.640625 c 0,0.171875 -0.0625,0.3125 -0.09375,0.40625 C 1.0625,-1.375 1,-1.125 1,-0.8125 1,-0.703125 1,-0.375 1.265625,-0.140625 1.484375,0.03125 1.78125,0.0625 1.96875,0.0625 2.25,0.0625 2.5,-0.03125 2.71875,-0.25 2.640625,0.140625 2.5625,0.4375 2.265625,0.78125 2.078125,1 1.796875,1.21875 1.421875,1.21875 c -0.046875,0 -0.375,0 -0.515625,-0.21875 0.375,-0.046875 0.375,-0.375 0.375,-0.390625 0,-0.21875 -0.203125,-0.265625 -0.265625,-0.265625 -0.171875,0 -0.40625,0.140625 -0.40625,0.46875 0,0.34375 0.328125,0.609375 0.828125,0.609375 C 2.140625,1.421875 3,0.875 3.21875,0 Z m 0,0"
             id="path11274" />
        </g>
      </g>
      <g
         fill="#000000"
         fill-opacity="1"
         id="g11284"
         transform="matrix(0.423333,0,0,0.423333,-39.0869,-31.7674)">
        <g
           id="g11282"
           transform="translate(104.748,81.962997)">
          <path
             d="m 6.84375,-3.265625 c 0.15625,0 0.34375,0 0.34375,-0.1875 C 7.1875,-3.65625 7,-3.65625 6.859375,-3.65625 h -5.96875 c -0.140625,0 -0.328125,0 -0.328125,0.203125 0,0.1875 0.1875,0.1875 0.328125,0.1875 z m 0.015625,1.9375 c 0.140625,0 0.328125,0 0.328125,-0.203125 0,-0.1875 -0.1875,-0.1875 -0.34375,-0.1875 H 0.890625 c -0.140625,0 -0.328125,0 -0.328125,0.1875 0,0.203125 0.1875,0.203125 0.328125,0.203125 z m 0,0"
             id="path11280" />
        </g>
      </g>
      <g
         fill="#000000"
         fill-opacity="1"
         id="g11290"
         transform="matrix(0.423333,0,0,0.423333,-39.0869,-31.7674)">
        <g
           id="g11288"
           transform="translate(115.264,81.962997)">
          <path
             d="M 3.71875,-3.765625 C 3.53125,-4.140625 3.25,-4.40625 2.796875,-4.40625 c -1.15625,0 -2.390625,1.46875 -2.390625,2.921875 0,0.9375 0.546875,1.59375 1.3125,1.59375 0.203125,0 0.703125,-0.046875 1.296875,-0.75 0.078125,0.421875 0.4375,0.75 0.90625,0.75 0.359375,0 0.578125,-0.234375 0.75,-0.546875 0.15625,-0.359375 0.296875,-0.96875 0.296875,-0.984375 0,-0.109375 -0.09375,-0.109375 -0.125,-0.109375 -0.09375,0 -0.109375,0.046875 -0.140625,0.1875 -0.171875,0.640625 -0.34375,1.234375 -0.75,1.234375 -0.28125,0 -0.296875,-0.265625 -0.296875,-0.453125 0,-0.21875 0.015625,-0.3125 0.125,-0.75 C 3.890625,-1.71875 3.90625,-1.828125 4,-2.203125 L 4.359375,-3.59375 c 0.0625,-0.28125 0.0625,-0.296875 0.0625,-0.34375 0,-0.171875 -0.109375,-0.265625 -0.28125,-0.265625 -0.25,0 -0.390625,0.21875 -0.421875,0.4375 z M 3.078125,-1.1875 C 3.015625,-1 3.015625,-0.984375 2.875,-0.8125 2.4375,-0.265625 2.03125,-0.109375 1.75,-0.109375 c -0.5,0 -0.640625,-0.546875 -0.640625,-0.9375 0,-0.5 0.3125,-1.71875 0.546875,-2.1875 0.3125,-0.578125 0.75,-0.953125 1.15625,-0.953125 0.640625,0 0.78125,0.8125 0.78125,0.875 0,0.0625 -0.015625,0.125 -0.03125,0.171875 z m 0,0"
             id="path11286" />
        </g>
      </g>
      <g
         fill="#000000"
         fill-opacity="1"
         id="g11304"
         transform="matrix(0.423333,0,0,0.423333,-39.0869,-31.7674)">
        <g
           id="g11294"
           transform="translate(122.19,81.962997)">
          <path
             d="m 2.078125,-1.9375 c 0.21875,0.046875 1.03125,0.203125 1.03125,0.921875 0,0.5 -0.34375,0.90625 -1.125,0.90625 -0.84375,0 -1.203125,-0.5625 -1.390625,-1.421875 C 0.5625,-1.65625 0.5625,-1.6875 0.453125,-1.6875 c -0.125,0 -0.125,0.0625 -0.125,0.234375 V -0.125 c 0,0.171875 0,0.234375 0.109375,0.234375 0.046875,0 0.0625,-0.015625 0.25,-0.203125 0.015625,-0.015625 0.015625,-0.03125 0.203125,-0.21875 0.4375,0.40625 0.890625,0.421875 1.09375,0.421875 1.140625,0 1.609375,-0.671875 1.609375,-1.390625 0,-0.515625 -0.296875,-0.828125 -0.421875,-0.9375 C 2.84375,-2.546875 2.453125,-2.625 2.03125,-2.703125 1.46875,-2.8125 0.8125,-2.9375 0.8125,-3.515625 c 0,-0.359375 0.25,-0.765625 1.109375,-0.765625 1.09375,0 1.15625,0.90625 1.171875,1.203125 0,0.09375 0.09375,0.09375 0.109375,0.09375 0.140625,0 0.140625,-0.046875 0.140625,-0.234375 v -1.015625 c 0,-0.15625 0,-0.234375 -0.109375,-0.234375 -0.046875,0 -0.078125,0 -0.203125,0.125 -0.03125,0.03125 -0.125,0.125 -0.171875,0.15625 -0.375,-0.28125 -0.78125,-0.28125 -0.9375,-0.28125 -1.21875,0 -1.59375,0.671875 -1.59375,1.234375 0,0.34375 0.15625,0.625 0.421875,0.84375 0.328125,0.25 0.609375,0.3125 1.328125,0.453125 z m 0,0"
             id="path11292" />
        </g>
        <g
           id="g11298"
           transform="translate(126.11925,81.962997)">
          <path
             d="M 1.109375,-2.515625 C 1.171875,-4 2.015625,-4.25 2.359375,-4.25 c 1.015625,0 1.125,1.34375 1.125,1.734375 z m 0,0.21875 h 2.78125 c 0.21875,0 0.25,0 0.25,-0.21875 0,-0.984375 -0.546875,-1.953125 -1.78125,-1.953125 -1.15625,0 -2.078125,1.03125 -2.078125,2.28125 0,1.328125 1.046875,2.296875 2.1875,2.296875 C 3.6875,0.109375 4.140625,-1 4.140625,-1.1875 4.140625,-1.28125 4.0625,-1.3125 4,-1.3125 c -0.078125,0 -0.109375,0.0625 -0.125,0.140625 -0.34375,1.03125 -1.25,1.03125 -1.34375,1.03125 -0.5,0 -0.890625,-0.296875 -1.125,-0.671875 -0.296875,-0.46875 -0.296875,-1.125 -0.296875,-1.484375 z m 0,0"
             id="path11296" />
        </g>
        <g
           id="g11302"
           transform="translate(130.54663,81.962997)">
          <path
             d="M 1.09375,-3.421875 V -0.75 c 0,0.4375 -0.109375,0.4375 -0.78125,0.4375 V 0 c 0.359375,-0.015625 0.859375,-0.03125 1.140625,-0.03125 0.25,0 0.765625,0.015625 1.109375,0.03125 v -0.3125 c -0.671875,0 -0.78125,0 -0.78125,-0.4375 V -2.59375 C 1.78125,-3.625 2.5,-4.1875 3.125,-4.1875 c 0.640625,0 0.75,0.53125 0.75,1.109375 V -0.75 c 0,0.4375 -0.109375,0.4375 -0.78125,0.4375 V 0 c 0.34375,-0.015625 0.859375,-0.03125 1.125,-0.03125 0.25,0 0.78125,0.015625 1.109375,0.03125 v -0.3125 c -0.515625,0 -0.765625,0 -0.765625,-0.296875 v -1.90625 c 0,-0.859375 0,-1.15625 -0.3125,-1.515625 -0.140625,-0.171875 -0.46875,-0.375 -1.046875,-0.375 C 2.46875,-4.40625 2,-3.984375 1.71875,-3.359375 V -4.40625 L 0.3125,-4.296875 v 0.3125 c 0.703125,0 0.78125,0.0625 0.78125,0.5625 z m 0,0"
             id="path11300" />
        </g>
      </g>
      <g
         fill="#000000"
         fill-opacity="1"
         id="g11310"
         transform="matrix(0.423333,0,0,0.423333,-39.0869,-31.7674)">
        <g
           id="g11308"
           transform="translate(137.743,81.962997)">
          <path
             d="m 4.359375,-6.671875 c 0,-0.03125 0.03125,-0.140625 0.03125,-0.140625 0,-0.015625 0,-0.109375 -0.125,-0.109375 -0.09375,0 -0.109375,0.03125 -0.15625,0.203125 L 3.53125,-4.421875 c -1.578125,0.0625 -3.046875,1.375 -3.046875,2.734375 0,0.953125 0.703125,1.734375 1.921875,1.8125 C 2.328125,0.421875 2.25,0.75 2.171875,1.0625 c -0.125,0.46875 -0.21875,0.84375 -0.21875,0.875 0,0.09375 0.078125,0.109375 0.125,0.109375 C 2.125,2.046875 2.140625,2.03125 2.171875,2 2.1875,1.984375 2.25,1.75 2.28125,1.609375 L 2.65625,0.125 c 1.609375,-0.0625 3.0625,-1.40625 3.0625,-2.734375 0,-0.796875 -0.53125,-1.703125 -1.921875,-1.8125 z m -1.90625,6.578125 c -0.59375,-0.03125 -1.3125,-0.390625 -1.3125,-1.375 0,-1.203125 0.859375,-2.59375 2.34375,-2.734375 z m 1.28125,-4.109375 c 0.765625,0.046875 1.328125,0.5 1.328125,1.375 0,1.1875 -0.859375,2.609375 -2.34375,2.734375 z m 0,0"
             id="path11306" />
        </g>
      </g>
    </g>
    <path
       style="fill:none;stroke:#000000;stroke-width:0.5;stroke-linecap:round;stroke-linejoin:miter;stroke-dasharray:none;stroke-opacity:1;marker-end:url(#Arrow2)"
       d="m 192.49409,80.680692 h 7.98263"
       id="path15852" />
    <path
       style="fill:none;stroke:#000000;stroke-width:0.5;stroke-linecap:round;stroke-linejoin:miter;stroke-dasharray:none;stroke-opacity:1;marker-end:url(#Arrow2)"
       d="m 192.55045,80.502177 v -7.98263"
       id="path15956" />
    <g
       inkscape:label=""
       transform="translate(196.5058,82.090525)"
       id="g17287">
      <g
         fill="#000000"
         fill-opacity="1"
         id="g14"
         transform="matrix(0.423333,0,0,0.423333,-39.0472,-30.6595)">
        <g
           id="use12"
           transform="translate(91.450996,79.346001)">
          <path
             d="M 2.5,-6.921875 1.15625,-5.5625 1.328125,-5.390625 2.5,-6.40625 3.640625,-5.390625 3.8125,-5.5625 Z m 0,0"
             id="path24" />
        </g>
      </g>
      <g
         fill="#000000"
         fill-opacity="1"
         id="g18"
         transform="matrix(0.423333,0,0,0.423333,-39.0472,-30.6595)">
        <g
           id="use16"
           transform="translate(91.925003,81.962997)">
          <path
             d="m 3.328125,-6.4375 c 0,-0.265625 -0.203125,-0.484375 -0.484375,-0.484375 -0.375,0 -0.703125,0.359375 -0.703125,0.6875 0,0.265625 0.1875,0.484375 0.484375,0.484375 0.359375,0 0.703125,-0.34375 0.703125,-0.6875 z m 0.25,4.96875 c 0,-0.140625 -0.15625,-0.140625 -0.234375,-0.140625 -0.125,0 -0.1875,0 -0.234375,0.125 -0.3125,1.046875 -0.8125,1.203125 -1.03125,1.203125 -0.09375,0 -0.15625,-0.03125 -0.15625,-0.21875 0,-0.234375 0.09375,-0.453125 0.328125,-1.046875 l 0.671875,-1.71875 C 2.96875,-3.40625 3,-3.515625 3,-3.609375 3,-4.140625 2.484375,-4.5 1.859375,-4.5 0.828125,-4.5 0.3125,-3.171875 0.3125,-2.953125 c 0,0.140625 0.15625,0.140625 0.25,0.140625 0.109375,0 0.1875,0 0.21875,-0.125 0.3125,-1.046875 0.828125,-1.203125 1.03125,-1.203125 0.09375,0 0.15625,0.03125 0.15625,0.21875 0,0.21875 -0.078125,0.4375 -0.328125,1.046875 l -0.65625,1.71875 c -0.0625,0.125 -0.09375,0.25 -0.09375,0.34375 0,0.515625 0.53125,0.890625 1.140625,0.890625 1.046875,0 1.546875,-1.328125 1.546875,-1.546875 z m 0,0"
             id="path28" />
        </g>
      </g>
    </g>
    <g
       inkscape:label=""
       transform="translate(188.16574,71.367587)"
       id="g17700">
      <g
         fill="#000000"
         fill-opacity="1"
         id="g17692"
         transform="matrix(0.423333,0,0,0.423333,-38.8554,-30.6595)">
        <g
           id="g17690"
           transform="translate(92.089996,79.346001)">
          <path
             d="M 2.5,-6.921875 1.15625,-5.5625 1.328125,-5.390625 2.5,-6.40625 3.640625,-5.390625 3.8125,-5.5625 Z m 0,0"
             id="path17688" />
        </g>
      </g>
      <g
         fill="#000000"
         fill-opacity="1"
         id="g17698"
         transform="matrix(0.423333,0,0,0.423333,-38.8554,-30.6595)">
        <g
           id="g17696"
           transform="translate(91.925003,81.962997)">
          <path
             d="M 4.484375,-6.4375 C 4.484375,-6.703125 4.28125,-6.921875 4,-6.921875 c -0.375,0 -0.703125,0.359375 -0.703125,0.6875 C 3.296875,-5.96875 3.5,-5.75 3.78125,-5.75 c 0.375,0 0.703125,-0.34375 0.703125,-0.6875 z M 2.03125,0.453125 C 1.875,1.109375 1.40625,1.65625 0.875,1.65625 c -0.046875,0 -0.09375,0 -0.15625,-0.015625 C 1.0625,1.421875 1.0625,1.0625 1.0625,1.03125 c 0,-0.21875 -0.171875,-0.453125 -0.5,-0.453125 -0.34375,0 -0.703125,0.296875 -0.703125,0.734375 0,0.40625 0.40625,0.703125 1.015625,0.703125 0.625,0 1.96875,-0.3125 2.28125,-1.5625 L 4.0625,-3.1875 c 0.03125,-0.109375 0.046875,-0.203125 0.046875,-0.34375 0,-0.640625 -0.625,-0.96875 -1.25,-0.96875 C 1.671875,-4.5 1,-3.125 1,-2.953125 1,-2.8125 1.140625,-2.8125 1.234375,-2.8125 c 0.171875,0 0.1875,-0.015625 0.25,-0.15625 0.375,-0.859375 0.9375,-1.171875 1.328125,-1.171875 0.09375,0 0.234375,0.015625 0.234375,0.359375 0,0.1875 -0.03125,0.296875 -0.0625,0.4375 z m 0,0"
             id="path17694" />
        </g>
      </g>
    </g>
    <path
       style="fill:none;stroke:#000000;stroke-width:0.264583px;stroke-linecap:butt;stroke-linejoin:miter;stroke-opacity:1;marker-end:url(#Arrow5)"
       d="m 98.413974,80.553162 c 1.926536,-2.394046 1.714436,-4.901344 -0.71855,-5.809628"
       id="path1268"
       sodipodi:nodetypes="cc" />
  </g>
</svg>
